<?xml version="1.0" encoding="UTF-8"?>
<svg width="237px" height="236px" viewBox="0 0 237 236" version="1.1" xmlns="http://www.w3.org/2000/svg" xmlns:xlink="http://www.w3.org/1999/xlink">
    <!-- Generator: Sketch 52.3 (67297) - http://www.bohemiancoding.com/sketch -->
    <title>elastic-logo</title>
    <desc>Created with Sketch.</desc>
    <g id="Page-1" stroke="none" stroke-width="1" fill="none" fill-rule="evenodd">
        <g id="elastic-logo">
            <path d="M236.6,123.8 C236.6,104 224.3,86.6 205.8,79.9 C206.6,75.7 207,71.5 207,67.2 C207,30.3 177,0.3 140.2,0.3 C118.6,0.3 98.6,10.6 86,28 C79.8,23.2 72.2,20.6 64.3,20.6 C44.7,20.6 28.8,36.5 28.8,56.1 C28.8,60.4 29.6,64.6 31,68.5 C12.6,75.1 0,92.8 0,112.5 C0,132.4 12.4,149.8 30.9,156.5 C30.1,160.6 29.7,164.9 29.7,169.2 C29.7,206 59.6,235.9 96.4,235.9 C118,235.9 138,225.5 150.5,208.1 C156.7,213 164.3,215.7 172.2,215.7 C191.8,215.7 207.7,199.8 207.7,180.2 C207.7,175.9 206.9,171.7 205.5,167.8 C223.9,161.2 236.6,143.5 236.6,123.8" id="Path" fill="#FFFFFF"></path>
            <path d="M93,101.8 L144.8,125.4 L197,79.6 C197.8,75.8 198.1,72.1 198.1,68.1 C198.1,35.9 171.9,9.7 139.7,9.7 C120.4,9.7 102.5,19.2 91.6,35.1 L82.9,80.2 L93,101.8 Z" id="Path" fill="#FED10A"></path>
            <path d="M39.4,156.6 C38.6,160.4 38.3,164.3 38.3,168.3 C38.3,200.6 64.6,226.8 96.9,226.8 C116.3,226.8 134.4,217.2 145.3,201.2 L153.9,156.3 L142.4,134.3 L90.4,110.6 L39.4,156.6 Z" id="Path" fill="#24BBB1"></path>
            <path d="M39.1,67 L74.6,75.4 L82.4,35.1 C77.6,31.4 71.6,29.4 65.4,29.4 C50,29.4 37.4,41.9 37.4,57.4 C37.4,60.7 38,64 39.1,67" id="Path" fill="#EF5098"></path>
            <path d="M36,75.5 C20.2,80.7 9.1,95.9 9.1,112.6 C9.1,128.9 19.2,143.4 34.3,149.2 L84.1,104.2 L75,84.7 L36,75.5 Z" id="Path" fill="#17A8E0"></path>
            <path d="M154.3,201.2 C159.2,204.9 165.1,207 171.2,207 C186.6,207 199.2,194.5 199.2,179 C199.2,175.6 198.6,172.3 197.5,169.3 L162.1,161 L154.3,201.2 Z" id="Path" fill="#93C83E"></path>
            <path d="M161.5,151.7 L200.5,160.8 C216.4,155.6 227.4,140.4 227.4,123.6 C227.4,107.4 217.3,92.8 202.2,87.1 L151.2,131.8 L161.5,151.7 Z" id="Path" fill="#0779A1"></path>
        </g>
    </g>
</svg>