<svg xmlns="http://www.w3.org/2000/svg" width="2500" height="2500" viewBox="0 0 192.756 192.756"><g fill-rule="evenodd" clip-rule="evenodd"><path fill="#fff" fill-opacity="0" d="M0 0h192.756v192.756H0V0z"/><path d="M145.775 29.843c0-2.184-.504-3.864-1.512-5.544-2.016-3.025-5.881-5.041-11.762-6.217l-26.379-1.344h-49.9L8.504 113.18l61.159-.168-31.084 63.008h59.983c15.457 0 26.379-1.513 32.428-4.201 3.527-1.681 6.385-3.864 8.904-6.889 2.354-2.688 4.705-6.385 7.057-11.257l10.754-21.675h-31.756l-2.016 3.864-1.68-.84c-.674-2.688-2.689-6.385-5.715-11.258 3.193 1.177 6.049 2.353 8.738 3.865.672 1.344 1.68 2.521 2.857 3.192l.166.168v-.168l1.514-3.36c.336.336.504 1.008.504 1.848l-.336 2.185v.168l.336-.168c2.688-1.008 4.199-2.353 4.537-3.864l.166-.337c.338-1.512-.334-3.191-1.848-4.872.504-1.176-.336-2.856-2.52-5.209a17.334 17.334 0 0 0-4.201-3.528c3.529-1.849 6.889-5.712 10.082-11.593h4.031l-6.217 12.602h31.924l17.979-36.461h-29.068c4.369-2.52 7.227-6.048 8.906-10.417-2.52 2.688-5.041 4.369-7.393 4.873 3.361-3.36 5.377-7.561 6.049-13.273-3.361 4.536-5.881 7.056-7.225 7.561 6.721-8.569 8.4-16.97 4.703-25.034-.334 9.073-4.703 16.969-13.441 23.523-2.688 2.183-6.385 4.367-10.754 6.72l-8.736 4.704-4.199 3.024.84-1.512c1.512-3.36 2.352-6.216 2.352-8.904 0-1.849-.336-3.697-1.344-5.209l-.672-1.176c6.049-2.52 10.586-6.721 13.273-12.265l4.537-9.241c2.354-4.707 3.697-8.74 3.697-11.763zm-36.627 106.188l1.848 1.512c-1.176.504-1.68 1.513-1.68 2.688l.336 1.848.168.336v-.336c.168-.672.672-1.344 1.68-1.848l2.855-.337c1.008.337 1.682.841 2.018 1.849.166 1.176-.336 2.521-1.514 3.864l-.334.505.502-.168c1.85-.841 3.025-1.681 3.529-3.025l.168-1.176-.168-.672c.84.167 1.512.504 1.848 1.344l.168.336-2.688 5.209c-1.176 2.52-3.191 3.864-5.881 3.864h-29.57l5.712-11.761c4.537.504 8.065.168 10.585-1.008l3.695-5.209c1.514.84 2.857 1.344 4.537 1.848l2.186.337zM61.262 89.489h-9.073l3.024-6.217 6.049 6.217zm32.764-15.29l-1.849 3.865-4.873-3.865h6.722zm13.273-26.714c-.84 1.68-2.855 2.52-6.217 2.52H71.679l4.704-9.578h34.445l-3.529 7.058z"/><path d="M129.479 137.878c1.344.841 2.016 1.849 2.184 3.36l-.504 2.185v.505l-.168-.505c-.168-1.176-.84-2.016-1.85-2.688v.503c.168 1.345-.672 2.521-2.52 3.025l-.504.168-2.855 6.216c-2.521 4.706-6.217 7.226-11.258 7.226H72.855l9.41-19.154c-4.873-1.681-8.233-4.2-9.914-7.729 9.241-2.185 16.13-5.713 20.667-10.586-5.208-1.008-10.082-3.528-14.954-7.729l-1.681.168-28.227 57.294h50.406c14.617 0 24.699-1.343 30.076-3.863 3.023-1.345 5.377-3.193 7.391-5.881 1.85-2.017 3.697-5.209 5.713-9.241l6.555-13.274h-18.818z" fill="#c6b67f"/><path fill="#fff" d="M150.145 96.21h-10.418l-1.176 2.185h8.064l-6.217 12.6h23.524l14.449-29.067h-23.353l-3.194 2.184h23.018l-12.264 24.7h-18.65l6.217-12.602zM142.08 29.843c0-1.177-.338-2.521-1.01-3.529-1.344-2.352-5.041-4.032-10.752-4.873l-24.195-1.008H58.574l-44.188 89.05 60.15-.168-1.847-2.184-54.607.169 41.837-84.682h46.205l23.018 1.008c5.547.672 8.906 1.848 10.082 3.864.336.672.672 1.512.672 2.353 0 2.016-1.008 5.04-3.023 9.241l-4.537 9.072c-2.016 3.697-4.873 6.721-8.904 8.738-4.033 2.184-9.242 3.696-15.963 4.872 11.426 1.344 15.121 6.049 11.09 13.945l-9.408 18.818 1.344 2.184.84-1.344 9.24-18.65c1.344-2.856 2.016-5.209 2.016-7.225 0-1.344-.168-2.521-.84-3.529-1.008-1.68-2.855-3.192-5.711-4.032 8.904-1.849 14.953-6.049 18.145-12.77l4.537-9.073c2.18-4.535 3.358-7.895 3.358-10.247z"/><path d="M139.895 29.843c0-.84-.336-1.681-.672-2.353-1.176-2.017-4.535-3.192-10.082-3.864l-23.018-1.008H59.918L18.082 107.3l54.606-.168c-2.857-3.697-5.041-7.562-6.385-11.762H42.612l8.905-17.81c-1.512-2.521-2.352-5.041-2.856-7.393 2.185 2.184 4.872 3.864 8.401 4.873l.504-.84c-6.721-5.208-9.241-12.097-7.561-20.834 1.512 6.721 4.872 11.425 9.913 13.945-6.553-8.401-7.561-18.146-3.192-29.403-.673 9.746 2.352 18.314 8.904 25.54-6.048-13.442-5.209-24.195 2.689-32.26-1.345 4.2-1.681 8.905-1.008 14.282l5.377-10.921h37.972c3.359 0 5.377.673 6.217 2.185l.672 1.848c0 1.007-.336 2.185-1.01 3.528l-3.863 7.897c-2.016 4.032-5.881 5.881-11.594 5.881H70.671l3.36 5.208c1.68 2.353 4.032 4.704 6.552 7.225h14.45c2.521 0 4.368.672 5.04 1.848 1.008 1.512.504 4.2-1.344 8.064l-1.848 3.529c5.543 4.705 9.745 8.905 12.266 12.77l9.408-18.818c4.031-7.896.336-12.602-11.09-13.945 6.721-1.176 11.93-2.688 15.963-4.872 4.031-2.017 6.889-5.041 8.904-8.738l4.537-9.072c2.018-4.204 3.026-7.228 3.026-9.244z" fill="#c6b67f"/><path d="M96.882 81.76l1.848-3.529c1.848-3.864 2.352-6.553 1.344-8.064-.672-1.176-2.52-1.848-5.04-1.848h-14.45l2.352 2.185h12.098c1.68 0 2.856.335 3.192.84l.168 1.007c0 1.009-.504 2.689-1.68 4.874l-1.512 3.192 1.68 1.343zM66.303 95.37l-.673-2.184H46.14l6.721-13.274-1.344-2.352-8.905 17.81h23.691zM110.66 49.165c-1.512 3.024-4.705 4.537-9.578 4.537H69.663l1.009 2.185h30.411c5.713 0 9.578-1.849 11.594-5.881l3.863-7.897c.674-1.343 1.01-2.521 1.01-3.528l-.672-1.848c-.84-1.512-2.857-2.185-6.217-2.185H72.688l-5.377 10.921.671 3.528 6.049-12.265h36.628c2.52 0 4.033.336 4.535 1.008v.84l-.67 2.521-3.864 8.064zM126.957 142.919c.168-.504 0-1.008-.168-1.512l-1.008-1.009-4.535 9.241c-1.85 3.865-5.041 5.881-9.242 5.881H76.383l8.066-16.129-2.185-.673-9.41 19.154h39.149c5.041 0 8.736-2.52 11.258-7.226l3.696-7.727z" fill="#fff"/><path d="M128.135 135.694l-.674 1.344 2.018.84h18.818l-6.555 13.274c-2.016 4.032-3.863 7.225-5.713 9.241-2.014 2.688-4.367 4.536-7.391 5.881-5.377 2.521-15.459 3.863-30.076 3.863H48.157l28.227-57.294h-2.52l-29.235 59.479h53.934c15.121 0 25.539-1.344 31.252-4.032 3.023-1.512 5.545-3.528 7.729-6.216 2.016-2.353 4.033-5.714 6.049-10.082l8.232-16.298h-23.69z" fill="#fff"/><path d="M139.727 96.21h10.418l-6.217 12.602h18.65l12.264-24.699h-23.018l-6.217 4.705c-2.184 1.848-4.031 4.201-5.545 7.056l-.335.336z" fill="#c6b67f"/><path d="M86.465 87.641C75.712 80.92 67.647 73.359 62.438 64.79c3.192 10.754 9.913 20.499 20.163 29.236-5.209-2.353-11.761-6.386-19.659-12.435 6.218 9.241 12.602 15.795 19.323 19.827-3.024-.672-6.049-1.849-9.241-3.529 2.017 4.873 5.88 8.738 11.258 11.931 6.048 3.695 10.921 3.528 14.449-.505 2.52-3.024 2.52-6.553 0-10.585-2.353-3.864-6.554-7.561-12.266-11.089zM138.551 85.121c6.889-3.865 12.098-8.401 15.457-13.442-1.68 1.512-6.047 4.201-12.938 8.233-5.543 3.361-9.24 6.386-11.256 9.41-1.514 2.016-2.521 4.705-3.361 7.729 2.016-1.512 3.865-2.352 5.545-2.688-.84 5.209-2.689 9.577-5.545 13.273 2.354-1.007 4.369-2.521 5.713-4.704l3.695-6.553c3.193-6.385 8.234-11.089 14.787-14.113-3.193-.001-7.224 1.006-12.097 2.855z" fill="#7b002b"/><path d="M85.793 128.806c-3.36 2.185-6.553 3.36-9.578 3.697 5.88 5.544 13.106 7.224 21.339 4.704-6.049-1.009-10.081-3.865-11.761-8.401z" fill="#fff"/><path d="M124.941 137.207l-3.695-1.176-1.01.503 2.857 1.177-1.346 1.513c1.01-.505 2.018-.673 3.361-.337 1.008.169 2.184.84 2.857 2.017l-.842-2.017c1.01.169 2.016.505 3.025 1.177-.166-1.177-2.013-2.017-5.207-2.857zM112.34 135.526h-1.68l2.52 1.681c-.504.336-1.008.671-1.848 1.512l3.527-.336c1.514.673 2.354 1.681 2.689 3.36.168-1.176.168-2.017-.336-2.688 1.008.168 2.184.671 3.695 1.848-.672-1.345-2.52-2.688-5.713-4.032l-2.854-1.345z" fill="#c6b67f"/><path d="M117.717 129.142l-5.545-.336c1.344 1.345 3.023 2.52 5.377 3.36h-3.361c1.008.84 2.352 1.512 3.865 1.849l2.352.168c-.505-1.68-1.344-3.361-2.688-5.041z" fill="#7b002b"/><path d="M155.352 62.438c-1.848 2.688-5.207 5.208-9.744 7.729l-12.77 6.889c-10.922 6.552-17.811 15.29-20.498 26.211 2.016.84 3.865 2.184 5.377 3.864l-6.217-1.681h-.672c-1.008-4.032-2.689-7.562-5.209-10.921-2.016-2.688-5.041-5.544-8.905-8.905l-10.921-8.569c-9.41-7.561-16.13-15.29-19.826-22.851 2.184 9.409 7.056 17.305 14.785 23.691l10.081 7.561c4.201 3.192 7.393 5.88 9.745 8.569 2.689 3.023 4.369 6.888 4.873 11.425.672 6.049-1.512 10.753-6.889 14.281l-2.017 1.177 1.513 1.848c2.184 2.185 4.705 4.2 8.064 5.881l-9.577-2.016c2.688 2.52 6.554 4.535 11.593 5.544h-4.703c2.52 1.512 5.377 2.017 8.232 1.345-.336-2.688-1.344-5.377-3.025-8.233-1.68 0-3.695-.504-6.047-1.344l10.92-1.009-5.041-1.176h-.168l.168-.168c1.85-1.512 3.697-2.688 5.881-3.36-2.52-1.177-5.039-2.017-7.896-2.688h-.168.168c3.529-1.849 6.217-2.856 8.234-2.856l-2.857-4.368-.168-.168h.336c2.689.335 5.713 1.008 8.904 2.352-.336-4.032-.168-8.232.84-12.265 1.514-6.889 4.705-12.434 9.746-16.635l14.113-9.408c5.209-3.193 8.401-6.386 9.745-9.746z" fill="#7b002b"/><path d="M133.678 125.781c-.336-1.177-1.008-1.848-1.68-2.352l-4.705.335-2.855-.84c.84 2.521 2.184 4.705 3.697 6.217l-2.354-5.208c2.186.503 3.697 1.344 4.873 2.52.504.672 1.008 1.681 1.008 2.856l2.016-2.185v-1.343zm-2.184-2.016l.672.505a4.65 4.65 0 0 0-2.184-.505h1.512z" fill="#c6b67f"/><path d="M128.301 125.613c.168.84.168 1.849 0 3.024l.674-2.521-.674-.503z" fill="#c6b67f"/><path d="M132.502 124.604l-1.008-.335c1.344 1.176 1.848 2.353 1.176 3.528.84-.84.84-2.016-.168-3.193zM126.789 115.532c-3.527-2.521-7.393-4.2-11.09-4.873l2.521 3.697c-2.016-.336-4.201 0-7.057 1.008 2.016.336 4.031 1.177 6.217 2.688-1.682.84-3.193 1.849-4.369 2.688 4.705 1.176 8.402 2.688 11.426 4.872l-1.512-3.528 4.031.672 1.344-.336-.84-.672c-.504.504-1.008.504-1.68 0s-.84-1.176-.168-1.848c.168-.337.504-.337.84-.337-.336-.84-.84-1.681-2.184-2.521 1.512.84 2.352 1.346 2.688 2.185l1.01 2.017c.502.504.84.672 1.342.336l.338-.84c.504.672.336 1.176-.168 1.512l2.184.336c.336-2.184-1.344-4.367-4.873-7.056z" fill="#fff"/><path d="M126.453 121.581c-.336-.336-.336-.672-.168-.84l.504-.337-.168-.503-.672.335c-.336.337-.336.841.168 1.177l.336.168z" fill="#c6b67f"/><path d="M126.957 121.245v-.504l-.336.168c-.168.336 0 .336 0 .336h.336z" fill="#7b002b"/></g></svg>
