<?xml version="1.0" encoding="utf-8"?>
<!-- Generator: Adobe Illustrator 22.0.0, SVG Export Plug-In . SVG Version: 6.00 Build 0)  -->
<svg version="1.1" id="Layer_1" xmlns="http://www.w3.org/2000/svg" xmlns:xlink="http://www.w3.org/1999/xlink" x="0px" y="0px"
	 viewBox="0 0 63 63" style="enable-background:new 0 0 63 63;" xml:space="preserve">
<style type="text/css">
	.st0{fill:#FFFFFF;}
	.st1{fill:#E31837;}
	.st2{fill:#002B5C;}
</style>
<path class="st0" d="M31.5,0C14.1,0,0,14.1,0,31.5C0,48.9,14.1,63,31.5,63C48.9,63,63,48.9,63,31.5C63,14.1,48.9,0,31.5,0
	 M31.5,61.8c-16.7,0-30.3-13.6-30.3-30.3S14.8,1.2,31.5,1.2c16.7,0,30.3,13.6,30.3,30.3S48.2,61.8,31.5,61.8"/>
<path class="st1" d="M31.5,1.2C14.8,1.2,1.2,14.8,1.2,31.5c0,16.7,13.6,30.3,30.3,30.3c16.7,0,30.3-13.6,30.3-30.3
	C61.8,14.8,48.2,1.2,31.5,1.2 M31.5,59.4c-15.4,0-27.9-12.5-27.9-27.9c0-15.4,12.5-27.9,27.9-27.9c15.4,0,27.9,12.5,27.9,27.9
	C59.4,46.9,46.9,59.4,31.5,59.4"/>
<path class="st0" d="M11.5,45.4c0.5-0.4,0.7-0.9,0.7-1.2l0-0.1L12,44.2c-0.5,0.3-1.4,1.2-1.7,2.3c0,0,0,0.1,0,0.2
	c0-0.1,0.1-0.1,0.1-0.2C10.7,46.2,11,45.8,11.5,45.4"/>
<path class="st0" d="M12.4,18c0.1,0,0.3,0,0.5-0.3c0.2-0.2,0.1-0.6-0.1-0.7c-0.2-0.1-0.5-0.1-0.6,0c0-0.3-0.1-0.5-0.2-0.6
	c-0.2-0.2-0.5-0.1-0.7,0.2c-0.2,0.3-0.1,0.5,0,0.6L12.4,18z"/>
<path class="st0" d="M15.7,42.9c0-0.2-0.1-0.6-0.5-0.8l0,0l-1.5,1l0.3,0.4c0.1,0.2,0.2,0.3,0.4,0.3c0,0,0.1,0,0.1,0
	c0.1,0,0.2,0,0.2-0.1c0.1-0.1,0.1-0.3,0.2-0.6c0.2,0.1,0.4,0.1,0.5,0.1C15.5,43.2,15.6,43.1,15.7,42.9"/>
<path class="st0" d="M15.5,20.3c0.1,0,0.4,0.1,0.6-0.2c0.2-0.2,0.1-0.6-0.1-0.7c-0.1-0.1-0.4-0.1-0.6,0c0-0.1,0-0.5-0.2-0.6
	c-0.2-0.1-0.6-0.1-0.7,0.1c-0.2,0.3-0.1,0.5-0.1,0.6L15.5,20.3z"/>
<path class="st0" d="M19.3,12.7l0.3,0.1l-0.1,0.3c-0.1,0.3,0.1,0.8,0.4,1.3c0.4,0.7,1.1,1,1.3,0.8c0.3-0.2,0.2-0.9-0.2-1.6
	c-0.3-0.5-0.7-0.8-1-0.9l-0.3-0.1l0.1-0.3c0.1-0.3-0.1-0.8-0.4-1.3c-0.4-0.7-1.1-1-1.3-0.8c-0.3,0.2-0.2,0.9,0.2,1.6
	C18.6,12.3,19,12.6,19.3,12.7"/>
<path class="st0" d="M41.3,14.9c0.3,0.2,0.9-0.2,1.3-0.9c0.3-0.5,0.4-1,0.4-1.3l-0.1-0.3l0.3-0.1c0.3-0.1,0.6-0.4,0.9-0.9
	c0.4-0.7,0.4-1.4,0.1-1.6c-0.3-0.2-0.9,0.2-1.3,0.9c-0.3,0.5-0.4,1-0.4,1.3l0.1,0.3l-0.3,0.1c-0.3,0.1-0.6,0.4-0.9,0.9
	C41.1,14.1,41.1,14.8,41.3,14.9"/>
<path class="st0" d="M26.3,50c-0.3-0.1-0.8,0.4-1,1.2c-0.2,0.6-0.2,1,0,1.3l0.2,0.3L25.1,53c-0.3,0.2-0.5,0.6-0.7,1.1
	c-0.2,0.8,0,1.5,0.3,1.6c0.3,0.1,0.8-0.4,1-1.2c0.2-0.6,0.2-1,0-1.3l-0.2-0.3l0.3-0.2c0.3-0.2,0.5-0.6,0.7-1.1
	C26.8,50.8,26.6,50.1,26.3,50"/>
<path class="st0" d="M44.3,49.9L44,49.9l0.1-0.3c0.1-0.3-0.1-0.8-0.4-1.2c-0.5-0.7-1.1-1-1.4-0.8c-0.3,0.2-0.2,0.9,0.2,1.6
	c0.3,0.5,0.7,0.8,1,0.9l0.3,0.1l-0.1,0.3c-0.1,0.3,0.1,0.8,0.4,1.2c0.5,0.7,1.1,1,1.4,0.8c0.3-0.2,0.2-0.9-0.2-1.6
	C44.9,50.3,44.6,50,44.3,49.9"/>
<path class="st0" d="M31.5,3.6C16.1,3.6,3.6,16.1,3.6,31.5c0,15.4,12.5,27.9,27.9,27.9c15.4,0,27.9-12.5,27.9-27.9
	C59.4,16.1,46.9,3.6,31.5,3.6 M47.3,15.6c0.6-0.1,1.3-0.3,1.8-0.7c0.5-0.4,1-1,1.1-1.6l0.1-0.2l0.2,0c0.4-0.1,0.8,0.1,1.1,0.5
	c0.1,0.1,0.1,0.2,0.2,0.4c0.1,0.1,0.2,0.2,0.3,0.3c0.3,0.4,0.3,0.8,0.1,1.2l-0.1,0.2l-0.2,0c-0.3,0-0.5,0.1-0.8,0.1L50,18.6l1.2-0.9
	c0.5-0.4,1-1,1.1-1.6l0.1-0.2l0.2,0c0.4-0.1,0.8,0,1.1,0.4c0.1,0.1,0.2,0.3,0.2,0.4c0.1,0.1,0.2,0.1,0.3,0.3
	c0.3,0.4,0.3,0.9,0.1,1.2l-0.1,0.2l-0.2,0c-0.6,0-1.3,0.2-1.8,0.7c-0.5,0.4-0.9,1.1-1.1,1.6c-0.6,0.1-1.3,0.3-1.8,0.7
	c-0.5,0.4-0.9,1-1.1,1.6L48,23l-0.2,0c-0.4,0.1-0.8-0.1-1.1-0.5c-0.1-0.1-0.1-0.2-0.2-0.4c-0.1-0.1-0.2-0.2-0.3-0.3
	c-0.3-0.4-0.3-0.8-0.1-1.2l0.1-0.2l0.2,0c0.3,0,0.5-0.1,0.8-0.1l1.1-2.9l-1.2,0.9c-0.5,0.4-1,1-1.1,1.6L46,20.3l-0.2,0
	c-0.4,0.1-0.8,0-1.1-0.4c-0.1-0.1-0.2-0.3-0.2-0.4c-0.1-0.1-0.2-0.1-0.3-0.3c-0.3-0.4-0.3-0.9-0.1-1.2l0.1-0.2l0.2,0
	c0.6,0,1.3-0.2,1.8-0.7C46.7,16.8,47.1,16.2,47.3,15.6 M39.7,12.9c0.4-0.9,0.6-1.4,0.5-1.8l-0.1-0.3l0.3-0.1
	c0.4-0.1,0.7-0.5,1.3-1.3l0.1-0.1c0.9-1.2,2.2-1.6,3.3-0.9c1.1,0.7,1.5,2,0.8,3.4L46,11.9c-0.4,0.9-0.6,1.4-0.5,1.8l0.1,0.3
	l-0.3,0.1c-0.4,0.1-0.7,0.5-1.3,1.3l-0.1,0.1c-0.9,1.2-2.2,1.6-3.3,0.9c-1.1-0.7-1.5-2-0.8-3.4L39.7,12.9z M32.9,6.5
	c0-0.2,0.1-0.4,0.2-0.5C33,5.8,33,5.6,33,5.4c0.1-0.5,0.5-0.7,0.8-1c0.4,0.6,0.9,0.9,1.4,0.8c0.3,0,0.6-0.1,1.1,0
	c0.4,0.1,0.7,0.3,1,0.4c0.5,0.3,1,0.2,1.6-0.3c0.2,0.4,0.5,0.7,0.4,1.2c0,0.2-0.2,0.4-0.3,0.5c0.1,0.2,0.1,0.4,0,0.6
	c0,0.1,0,0.1,0,0.2c-0.1,0.4-0.6,0.8-0.9,0.9c-0.2-0.6-0.8-1.2-1-1.2c-0.4,0-0.4,0.3-0.5,0.6c-0.1,0.6,0,1.1,0.2,1.6l0.1,0.2
	c-0.4,0.4-0.8,1.1-0.9,1.7c-0.1,0.7,0,1.4,0.2,1.9l0.1,0.2l-0.1,0.2c-0.2,0.3-0.7,0.5-1.1,0.4c-0.2,0-0.3-0.1-0.4-0.2
	c-0.1,0-0.3,0-0.5,0c-0.4-0.1-0.8-0.4-0.9-0.8l0-0.2l0.1-0.1c0.5-0.4,0.8-1.1,0.9-1.7c0.1-0.6,0-1.4-0.2-1.9l0.1-0.2
	c0.4-0.4,0.6-0.9,0.8-1.4C35,7.5,35,7.2,34.7,7.1c-0.3-0.1-1,0.2-1.4,0.7c-0.2-0.2-0.6-0.7-0.5-1.1C32.8,6.6,32.8,6.6,32.9,6.5
	 M24.6,6.2c0.4-0.7,1.2-1.1,2.1-1.1c0.2,0,0.5,0,0.7,0.1c0.6,0.1,1,0.1,1.3-0.2L29,4.7l0.2,0.3c0.2,0.2,0.3,0.4,0.3,0.6
	c0,0.1,0,0.2,0,0.4c0,0.2-0.1,0.5-0.3,0.6c0,0.1,0.1,0.2,0.1,0.2c0.1,0.4,0,0.9-0.5,1.2l-0.3,0.2l-0.2-0.4c-0.1-0.3-0.4-0.5-0.7-0.7
	C27,6.8,26.4,6.8,26.3,7c-0.1,0.2,0.1,0.8,0.7,1.1c0.5,0.3,0.9,0.4,1.2,0.4c0.1,0.6,0.7,1,1.2,1.2l0,0c0.6,0.4,1.1,0.9,1.2,1.6
	c0.2,0.6,0.1,1.2-0.2,1.7c-0.4,0.7-1.2,1.1-2.1,1.1c-0.2,0-0.5,0-0.7-0.1C27,14,26.7,14,26.3,14.4L26,14.6l-0.2-0.3
	c-0.2-0.2-0.3-0.4-0.3-0.6c0-0.1,0-0.2,0-0.4c0-0.2,0.1-0.5,0.3-0.6c0-0.1-0.1-0.2-0.1-0.2c-0.1-0.4,0-0.9,0.5-1.2l0.3-0.2l0.2,0.4
	c0.1,0.3,0.4,0.5,0.7,0.7c0.6,0.3,1.2,0.3,1.4,0.1c0.1-0.2-0.1-0.8-0.7-1.1c-0.5-0.3-0.9-0.4-1.2-0.4c-0.1-0.6-0.7-1-1.2-1.2l0,0
	c-0.6-0.4-1.1-0.9-1.2-1.6C24.3,7.3,24.4,6.7,24.6,6.2 M17.2,8.7c1.1-0.7,2.4-0.4,3.4,0.8l0.1,0.1c0.6,0.8,0.9,1.2,1.3,1.3l0.3,0.1
	l-0.1,0.3c-0.1,0.4,0.1,0.9,0.6,1.8l0.1,0.1c0.7,1.4,0.4,2.7-0.7,3.4c-1.1,0.7-2.4,0.4-3.4-0.8l-0.1-0.1c-0.6-0.8-0.9-1.2-1.3-1.3
	l-0.3-0.1l0.1-0.3c0.1-0.4-0.1-0.9-0.6-1.8l-0.1-0.1C15.8,10.8,16.1,9.4,17.2,8.7 M8.8,16.9c0.2-0.2,0.5-0.5,0.8-0.6
	c0.1-0.3,0.2-0.7,0.4-0.9c0.9-1.3,2.2-0.9,3-0.7c0.3,0.1,0.7,0.1,0.9,0c0,0.3,0.1,0.5,0.3,0.8c0.2,0.3,0.5,0.7,0.6,1.2
	c0.5-0.1,1,0.1,1.3,0.2c0.3,0.1,0.6,0.1,0.9,0c0,0.3,0.1,0.6,0.3,0.9c0.4,0.7,1.1,1.8,0.2,3.1c-0.2,0.3-0.5,0.5-0.8,0.6
	c0,0.3-0.1,0.6-0.3,0.9c-0.3,0.4-0.8,0.6-1.3,0.7c-0.2-0.8-0.7-1.4-1.2-1.9c-0.5-0.4-1.1-0.6-1.7-0.6l-0.2,0l-0.1-0.2
	c-0.2-0.5-0.6-1-1.1-1.4c-0.6-0.4-1.3-0.7-2.1-0.6C8.5,17.9,8.5,17.4,8.8,16.9 M13.5,45.5L13.5,45.5c-0.3,0.5-0.2,1.2-0.1,1.5
	c-0.5,0-0.9,0.2-1.1,0.6c-0.2,0.4-0.1,0.8,0.1,1.3c-0.2,0.1-0.5,0.1-0.7,0.1c-0.7,0-1.1-0.4-1.3-0.6c-0.3-0.4-0.3-1-0.1-1.3l0-0.1
	l-0.1,0c-1.2-0.4-1.3-1-1.3-1.2l0-0.1l-0.1,0c-0.3-0.1-0.7-0.3-0.9-0.7c-0.1-0.2-0.2-0.5-0.1-0.7c1.1-0.1,3-1.1,3.5-2.6
	c2.3-0.2,2.7-1.4,2.8-2.4c0.1,0,0.1,0,0.2,0c0.6,0,1.5,0.5,1.6,1.5l0,0l0,0c1,0.5,1.4,1.3,1.5,1.8c0.1,0.8-0.1,1.5-0.4,1.8
	c-0.5,0.6-0.6,1.2-0.6,1.4c-0.2-0.1-0.6-0.1-0.9-0.1c-0.1,0-0.4,0-0.5,0c-0.1,0-0.3,0-0.5,0C14.3,45.6,13.9,45.6,13.5,45.5
	L13.5,45.5z M20.7,49.2c0.2-1.1-0.4-1.4-0.6-1.6c-0.3-0.2-0.5-0.2-0.8,0.2l-0.4,0.5c-0.3,0.4,0.2,0.7,0.8,0.1
	c0.2,0.1,0.8,1.1-0.3,1.9c-0.4,1.3-1.5,1-1.7,0.8c0.4-0.7,0-1.2-0.3-0.7l-0.4,0.5c-0.3,0.4-0.3,0.6,0,0.8c0.2,0.1,0.7,0.6,1.7,0.1
	c0.2,0.4,0.4,1.2-0.6,1.8c0,0.2-0.1,0.4-0.2,0.6c-0.2,0.2-0.5,0.5-1.1,0.5c-0.4-1.3-0.9-1.6-1.5-1.7c-0.3-0.1-0.6-0.1-1-0.4
	c-0.3-0.3-0.6-0.7-0.7-1.3c0.7-0.1,1.5-0.7,1.9-1.2c0.4-0.5,0.6-1.2,0.7-1.9c0.6-0.2,1.2-0.7,1.6-1.2c0.4-0.6,0.7-1.4,0.6-2.1
	c0.6-0.1,1.1,0,1.5,0.2c0.4,0.3,0.5,0.5,0.7,0.8c0.4,0.6,0.7,0.9,2.1,0.9c0.2,0.6,0,1-0.1,1.2c-0.1,0.2-0.3,0.3-0.5,0.4
	C22,49.2,21.1,49.3,20.7,49.2 M28.2,53.9c-0.4,0.2-0.6,0.7-0.9,1.6l-0.1,0.1c-0.6,1.4-1.7,2.1-3,1.7c-0.4-0.1-0.7-0.3-0.9-0.5
	c-0.3,0.1-0.6,0.1-0.9,0c-0.4-0.1-0.7-0.4-1-0.8l-0.1-0.3l0.2-0.2c0.5-0.4,0.9-1,1.1-1.6c0.2-0.6,0.2-1.2,0-1.8L22.5,52l0.2-0.1
	c0.4-0.4,0.8-0.9,0.9-1.5c0.2-0.7,0.2-1.4,0-2l-0.1-0.3l0.3-0.1c0.4-0.2,0.8-0.3,1.2-0.2c0.3,0.1,0.5,0.2,0.7,0.5
	c0.4-0.1,0.7-0.1,1.1,0c1.3,0.4,1.9,1.6,1.6,3.1l0,0.2c-0.2,1-0.3,1.5-0.1,1.9l0.2,0.3L28.2,53.9z M15,31.5C15,22.4,22.4,15,31.5,15
	C40.6,15,48,22.4,48,31.5C48,40.6,40.6,48,31.5,48C22.4,48,15,40.6,15,31.5 M40.4,56.1c-0.3,0.7-1.1,1.2-2,1.3c-0.2,0-0.5,0-0.7,0
	c-0.6,0-1-0.1-1.3,0.3L36.2,58l-0.3-0.2c-0.2-0.1-0.3-0.3-0.3-0.5c0-0.1,0-0.2,0-0.3c0-0.2,0.1-0.5,0.2-0.7c0-0.1-0.1-0.2-0.1-0.2
	c-0.1-0.4,0-0.9,0.4-1.2l0.3-0.3l0.2,0.3c0.1,0.2,0.4,0.5,0.7,0.6c0.6,0.3,1.2,0.2,1.4,0c0.1-0.3-0.2-0.8-0.8-1.1
	c-0.5-0.2-0.9-0.3-1.2-0.3c-0.2-0.6-0.8-0.9-1.3-1.1l0,0c-0.6-0.3-1.1-0.8-1.4-1.5c-0.2-0.6-0.2-1.2,0.1-1.7c0.3-0.7,1.1-1.2,2-1.3
	c0.2,0,0.5,0,0.7,0c0.6,0,1,0.1,1.3-0.3l0.2-0.3l0.3,0.2c0.2,0.1,0.3,0.3,0.3,0.5c0,0.1,0,0.2,0,0.3c0,0.2-0.1,0.5-0.2,0.7
	c0,0.1,0.1,0.2,0.1,0.2c0.1,0.4,0,0.9-0.4,1.2l-0.3,0.3L37.9,51c-0.1-0.2-0.4-0.5-0.7-0.6c-0.6-0.3-1.2-0.2-1.4,0
	c-0.1,0.3,0.2,0.8,0.8,1.1c0.5,0.2,0.9,0.3,1.2,0.3c0.2,0.6,0.8,0.9,1.3,1.1l0,0c0.6,0.3,1.1,0.8,1.4,1.5
	C40.7,55,40.7,55.6,40.4,56.1 M46.5,53.8c-1.1,0.7-2.4,0.5-3.4-0.7L43,53c-0.6-0.8-1-1.2-1.4-1.3l-0.3-0.1l0.1-0.3
	c0.1-0.4-0.2-0.9-0.6-1.7l-0.1-0.1c-0.7-1.3-0.5-2.7,0.6-3.4c1.1-0.7,2.4-0.5,3.4,0.7l0.1,0.1c0.6,0.8,1,1.2,1.4,1.3l0.3,0.1
	l-0.1,0.3c-0.1,0.4,0.2,0.9,0.6,1.7l0.1,0.1C47.8,51.8,47.6,53.1,46.5,53.8 M54.4,44.8L54.4,44.8L54.4,44.8c0,0.4-0.1,0.8-0.4,1.1
	c-0.2,0.3-0.6,0.4-0.8,0.4c-0.1-0.8-0.7-1.3-1.9-1.3c-0.1,0-0.2,0-0.3,0l-0.1,0l0,0.1c0.3,1.1,0.9,1.7,1.6,1.7c0.1,0,0.3,0,0.4-0.1
	c0.1,0.3,0.1,0.6-0.1,0.9c-0.2,0.4-0.5,0.6-0.8,0.7l-0.1,0l0,0.1c0,0.2-0.1,0.5-0.2,0.7c-0.2,0.3-0.6,0.4-0.9,0.4
	c-0.2,0-0.3,0-0.5-0.1c0.1-0.4,0.1-1.4-0.3-2c-0.2-0.4-0.5-0.6-0.9-0.6c0-0.2,0.1-0.8,0-1.5l0-0.1l-0.1,0c-0.6,0.1-1.2,0.4-1.4,0.5
	c-0.2-0.4-0.6-0.6-1.3-0.6c-0.7,0-1.3,0.2-1.6,0.5c-0.3-0.4-0.4-0.8-0.3-1.2c0.1-0.3,0.3-0.6,0.6-0.7l0.1,0l0-0.1
	c0-0.4,0.1-0.7,0.3-1c0.2-0.3,0.6-0.4,0.8-0.4c0.1,0.8,0.7,1.3,1.9,1.3c0.1,0,0.2,0,0.3,0l0.1,0l0-0.1c-0.3-1.1-0.9-1.7-1.6-1.7
	c-0.1,0-0.3,0-0.4,0.1c-0.1-0.3-0.1-0.6,0.1-0.9c0.2-0.4,0.5-0.6,0.8-0.7l0.1,0l0-0.1c0-0.2,0.1-0.5,0.2-0.7
	c0.2-0.3,0.5-0.4,0.9-0.4c0.2,0,0.3,0,0.5,0.1c-0.1,0.4-0.1,1.4,0.3,2c0.2,0.4,0.5,0.6,0.9,0.6c0,0.2-0.1,0.8,0,1.5l0,0.1l0.1,0
	c0.6-0.1,1.2-0.4,1.4-0.5c0.2,0.4,0.6,0.6,1.3,0.6c0.7,0,1.3-0.2,1.6-0.5c0.3,0.4,0.4,0.8,0.3,1.2C54.9,44.5,54.6,44.7,54.4,44.8"/>
<path class="st2" d="M54.7,42.9c-0.3,0.2-0.9,0.5-1.6,0.5c-0.7,0-1.1-0.2-1.3-0.6c-0.2,0.1-0.8,0.4-1.4,0.5l-0.1,0l0-0.1
	c-0.1-0.6-0.1-1.3,0-1.5c-0.3,0-0.7-0.2-0.9-0.6c-0.4-0.6-0.5-1.6-0.3-2C48.9,39,48.8,39,48.6,39c-0.4,0-0.7,0.1-0.9,0.4
	c-0.2,0.2-0.3,0.5-0.2,0.7l0,0.1l-0.1,0c-0.4,0.1-0.7,0.4-0.8,0.7c-0.2,0.3-0.2,0.7-0.1,0.9c0.1,0,0.3-0.1,0.4-0.1
	c0.7,0,1.3,0.6,1.6,1.7l0,0.1l-0.1,0c-0.1,0-0.2,0-0.3,0c-1.1,0-1.8-0.5-1.9-1.3c-0.3,0-0.6,0.2-0.8,0.4c-0.3,0.3-0.4,0.6-0.3,1
	l0,0.1l-0.1,0c-0.3,0.1-0.5,0.3-0.6,0.7c-0.1,0.4,0,0.8,0.3,1.2c0.3-0.2,0.9-0.5,1.6-0.5c0.7,0,1.1,0.2,1.3,0.6
	c0.2-0.1,0.8-0.4,1.4-0.5l0.1,0l0,0.1c0.1,0.6,0.1,1.3,0,1.5c0.3,0,0.7,0.2,0.9,0.6c0.4,0.6,0.5,1.6,0.3,2c0.2,0.1,0.3,0.1,0.5,0.1
	c0.3,0,0.7-0.1,0.9-0.4c0.2-0.2,0.3-0.5,0.2-0.7l0-0.1l0.1,0c0.4-0.1,0.7-0.4,0.8-0.7c0.2-0.3,0.2-0.7,0.1-0.9
	c-0.1,0-0.3,0.1-0.4,0.1c-0.7,0-1.3-0.6-1.6-1.7l0-0.1l0.1,0c0.1,0,0.2,0,0.3,0c1.1,0,1.8,0.5,1.9,1.3c0.3,0,0.6-0.2,0.8-0.4
	c0.3-0.3,0.4-0.6,0.3-1l0-0.1l0.1,0c0.3-0.1,0.5-0.3,0.6-0.7C55.1,43.7,55,43.3,54.7,42.9 M53.9,44.6c0.1,0.4,0.1,1.1-0.6,1.3
	c-0.2-0.6-0.7-1.4-3-1.1c0.6,2.2,1.5,2.4,2.2,2.4c0,0.7-0.6,0.9-1,1c0.2,0.8-0.6,1.1-0.9,1c0-0.8-0.2-2.2-1.2-2.6
	c0,0,0.1-0.9-0.2-1.7c-0.9,0-1.6,0.5-1.6,0.5c-0.8-0.9-2.2-0.5-2.9-0.2c-0.2-0.2-0.2-1.1,0.7-1.2c-0.1-0.4-0.1-1.1,0.6-1.3
	c0.2,0.6,0.7,1.4,3,1.1c-0.6-2.2-1.5-2.4-2.2-2.4c0-0.7,0.6-0.9,1-1c-0.2-0.8,0.6-1.1,0.9-1c0,0.8,0.1,2.2,1.2,2.6
	c0,0-0.1,0.9,0.2,1.7c0.9,0,1.6-0.5,1.6-0.5c0.8,0.9,2.2,0.5,2.9,0.2C54.8,43.6,54.8,44.5,53.9,44.6"/>
<path class="st1" d="M51.7,43.2c0,0-0.7,0.4-1.6,0.5c-0.3-0.8-0.2-1.7-0.2-1.7c-1.1-0.4-1.3-1.8-1.2-2.6c-0.2-0.1-1.1,0.2-0.9,1
	c-0.4,0.1-1,0.3-1,1c0.6,0,1.6,0.2,2.1,2.4c-2.3,0.3-2.8-0.6-3-1.1c-0.6,0.3-0.6,0.9-0.6,1.3c-0.9,0.1-0.8,1-0.7,1.2
	c0.7-0.3,2.1-0.7,2.9,0.2c0,0,0.8-0.4,1.6-0.5c0.3,0.8,0.2,1.7,0.2,1.7c1.1,0.4,1.3,1.8,1.2,2.6c0.2,0.1,1.1-0.2,0.9-1
	c0.4-0.1,1-0.3,1-1c-0.6,0-1.6-0.2-2.2-2.4c2.3-0.3,2.8,0.6,3,1.1c0.6-0.3,0.6-0.9,0.6-1.3c0.9-0.1,0.8-1,0.7-1.2
	C53.9,43.7,52.5,44,51.7,43.2"/>
<path class="st2" d="M15.7,43.5c0.4-0.2,0.5-0.8,0.1-1.4c-0.2-0.3-0.4-0.4-0.6-0.5l-2,1.3l0.5,0.8c0.3,0.4,0.8,0.5,1.1,0.3
	c0.2-0.1,0.3-0.3,0.3-0.5C15.3,43.6,15.5,43.6,15.7,43.5 M14.8,43.1c0,0.3,0,0.5-0.2,0.6c-0.1,0.1-0.1,0.1-0.2,0.1c0,0-0.1,0-0.1,0
	c-0.1,0-0.3-0.2-0.4-0.3L13.6,43l1.5-1l0,0c0.4,0.2,0.5,0.6,0.5,0.8c0,0.2-0.2,0.3-0.4,0.3C15.1,43.2,15,43.2,14.8,43.1"/>
<path class="st2" d="M15.1,45.6c0.1,0,0.3,0,0.5,0c0.3,0,0.7,0,0.9,0.1c0-0.2,0.1-0.8,0.6-1.4c0.3-0.3,0.6-1,0.4-1.8
	c-0.1-0.5-0.4-1.3-1.5-1.8l0,0l0,0c-0.2-1-1.1-1.4-1.6-1.4c-0.1,0-0.2,0-0.2,0c-0.1,1-0.5,2.2-2.8,2.4c-0.5,1.5-2.4,2.5-3.5,2.6
	c-0.1,0.2,0,0.4,0.1,0.7c0.2,0.4,0.6,0.6,0.9,0.7l0.1,0l0,0.1c0,0.2,0.1,0.8,1.3,1.2l0.1,0l0,0.1c-0.1,0.3-0.1,0.9,0.1,1.3
	c0.2,0.3,0.6,0.6,1.3,0.6c0.2,0,0.4,0,0.7-0.1c-0.3-0.5-0.3-0.9-0.1-1.3c0.2-0.4,0.6-0.6,1.1-0.6c-0.1-0.3-0.2-1,0.1-1.4l0,0l0,0
	c0.3,0.1,0.7,0.1,1.1,0.1C14.9,45.6,15,45.6,15.1,45.6 M10.4,46.7c0-0.1,0-0.2,0-0.2c0.2-1.1,1.2-2,1.7-2.3l0.1-0.1l0,0.1
	c0,0.3-0.2,0.7-0.7,1.2c-0.5,0.4-0.8,0.8-1,1.1C10.5,46.6,10.4,46.6,10.4,46.7 M13.4,45.1l-0.2,0.3C13,45.8,13,46.3,13,46.7
	c-0.2,0-0.4,0.1-0.6,0.2c-0.2,0.1-0.3,0.3-0.4,0.5c-0.2,0.4-0.2,0.8-0.1,1.2c-1.7,0.1-1.8-1.6-0.3-2.9c1-0.9,0.8-1.8,0.7-2
	c-0.4,0-2,1.2-2.4,2.7c-0.4-0.2-0.7-0.5-0.7-0.7l0-0.4L9,45.2c-0.2,0-0.5-0.3-0.7-0.5c0-0.1-0.1-0.2-0.1-0.2
	c0.6-0.1,1.2-0.4,1.8-0.8c0,0,0,0,0,0c0.7-0.5,1.3-1.1,1.6-1.8c0.7-0.1,1.3-0.3,1.8-0.6c0.2-0.1,0.4-0.3,0.5-0.4
	c0.4-0.5,0.6-1,0.6-1.4c0.2,0,0.4,0.1,0.6,0.2c0.2,0.1,0.6,0.4,0.7,1l0,0.2L16,41c0.7,0.4,1.2,0.9,1.3,1.5c0.1,0.6-0.1,1.2-0.4,1.5
	c-0.4,0.4-0.6,0.9-0.6,1.2c-0.1,0-0.2,0-0.3,0c-0.3,0-0.7,0-1,0.1c-0.2,0-0.9,0-1.3-0.1L13.4,45.1z"/>
<path class="st1" d="M15,45.3c0.3-0.1,0.7-0.1,1-0.1c0.1,0,0.2,0,0.3,0c0.1-0.3,0.2-0.8,0.6-1.2c0.3-0.3,0.5-0.9,0.4-1.5
	c-0.1-0.6-0.6-1.2-1.3-1.6l-0.2-0.1l0-0.2c-0.1-0.5-0.5-0.8-0.7-1c-0.2-0.1-0.4-0.2-0.6-0.2c-0.1,0.4-0.2,0.9-0.6,1.4
	c-0.1,0.2-0.3,0.3-0.5,0.4c-0.5,0.3-1,0.5-1.8,0.6c-0.3,0.7-0.8,1.3-1.6,1.8c0,0,0,0,0,0c-0.6,0.4-1.2,0.7-1.8,0.8
	c0,0.1,0.1,0.1,0.1,0.2C8.5,45,8.8,45.2,9,45.2l0.3,0.1l0,0.3c0,0.3,0.2,0.5,0.7,0.7c0.3-1.6,2-2.7,2.4-2.7c0.1,0.2,0.3,1.1-0.7,2
	c-1.6,1.3-1.4,3,0.3,2.9c-0.1-0.4-0.1-0.8,0.1-1.2c0.1-0.2,0.3-0.3,0.4-0.5c0.2-0.1,0.4-0.2,0.6-0.2c0-0.4-0.1-0.9,0.2-1.3l0.2-0.3
	l0.3,0.1C14.1,45.3,14.8,45.3,15,45.3 M13.7,43.7L13.2,43l2-1.3c0.2,0.1,0.5,0.3,0.6,0.5c0.4,0.5,0.3,1.1-0.1,1.4
	c-0.2,0.1-0.4,0.1-0.6,0c0,0.2-0.1,0.4-0.3,0.5C14.4,44.3,14,44.1,13.7,43.7"/>
<path class="st2" d="M25.7,9.5L25.7,9.5c0.5,0.3,1,0.7,1.2,1.3c0.3,0,0.7,0.2,1.2,0.4c0.6,0.3,0.9,0.9,0.7,1.1
	c-0.1,0.2-0.8,0.3-1.4-0.1c-0.3-0.2-0.6-0.4-0.7-0.7l-0.2-0.4l-0.3,0.2c-0.4,0.3-0.6,0.8-0.5,1.2c0,0.1,0,0.2,0.1,0.2
	c-0.2,0.2-0.3,0.4-0.3,0.6c0,0.1,0,0.2,0,0.3c0,0.2,0.1,0.4,0.3,0.6l0.2,0.3l0.3-0.2c0.4-0.4,0.7-0.3,1.3-0.2c0.2,0,0.5,0.1,0.7,0.1
	c0.9,0,1.7-0.4,2.1-1.1c0.3-0.5,0.4-1.1,0.2-1.7c-0.2-0.7-0.6-1.2-1.2-1.6l0,0c-0.5-0.3-1-0.7-1.2-1.2c-0.3,0-0.7-0.2-1.2-0.4
	c-0.6-0.4-0.9-0.9-0.7-1.1c0.1-0.2,0.8-0.3,1.4,0.1c0.3,0.2,0.6,0.4,0.7,0.7l0.2,0.4l0.3-0.2c0.4-0.3,0.6-0.8,0.5-1.2
	c0-0.1,0-0.2-0.1-0.2c0.2-0.2,0.3-0.4,0.3-0.6c0-0.1,0-0.2,0-0.3c0-0.2-0.1-0.4-0.3-0.6L29,4.7l-0.3,0.2c-0.4,0.4-0.7,0.3-1.3,0.2
	c-0.2,0-0.5-0.1-0.7-0.1c-0.9,0-1.7,0.4-2.1,1.1c-0.3,0.5-0.4,1.1-0.2,1.7C24.6,8.5,25.1,9.1,25.7,9.5 M24.9,6.4
	c0.4-0.6,1-0.9,1.8-0.9c0.8,0,1.6,0.5,2.3-0.3c0.4,0.4,0.2,1-0.2,1.2c0.2,0.4,0.3,0.9-0.2,1.2c-0.2-0.3-0.4-0.6-0.8-0.8
	c-0.7-0.4-1.6-0.4-1.8,0c-0.3,0.5,0.1,1.2,0.9,1.6c0.4,0.2,0.7,0.4,1.1,0.4c0.3,0.7,1,1.1,1.3,1.2c1,0.6,1.4,1.9,0.9,2.8
	c-0.4,0.6-1,0.9-1.8,0.9c-0.8,0-1.6-0.5-2.3,0.3c-0.4-0.4-0.2-1,0.2-1.2c-0.2-0.4-0.3-0.9,0.2-1.2c0.2,0.3,0.4,0.6,0.8,0.8
	c0.7,0.4,1.6,0.4,1.8,0c0.3-0.5-0.1-1.2-0.9-1.6c-0.4-0.2-0.7-0.4-1.1-0.4c-0.3-0.7-1-1.1-1.3-1.2C24.8,8.6,24.4,7.3,24.9,6.4"/>
<path class="st1" d="M25.8,9.2c0.3,0.2,1,0.6,1.3,1.2c0.3,0.1,0.7,0.2,1.1,0.4c0.7,0.4,1.1,1.2,0.9,1.6c-0.3,0.5-1.1,0.5-1.8,0
	c-0.4-0.2-0.7-0.5-0.8-0.8c-0.5,0.3-0.4,0.9-0.2,1.2c-0.4,0.2-0.5,0.8-0.2,1.2c0.7-0.7,1.5-0.3,2.3-0.3c0.7,0,1.4-0.3,1.8-0.9
	c0.5-0.9,0.1-2.2-0.9-2.8c-0.3-0.2-1-0.6-1.3-1.2c-0.3-0.1-0.7-0.2-1.1-0.4C26.1,8,25.7,7.3,26,6.9c0.3-0.5,1.1-0.5,1.8,0
	c0.4,0.2,0.7,0.5,0.8,0.8c0.5-0.3,0.4-0.9,0.2-1.2c0.4-0.2,0.5-0.8,0.2-1.2c-0.7,0.7-1.5,0.3-2.3,0.3c-0.7,0-1.4,0.3-1.8,0.9
	C24.4,7.3,24.8,8.6,25.8,9.2"/>
<path class="st2" d="M10.7,19.1c0.5,0.4,0.9,0.9,1.1,1.4l0.1,0.2l0.2,0c0.6,0,1.2,0.3,1.7,0.6c0.6,0.4,1,1.1,1.2,1.9
	c0.6,0,1-0.2,1.3-0.7c0.2-0.3,0.3-0.6,0.3-0.9c0.3-0.2,0.6-0.4,0.8-0.6c0.9-1.3,0.2-2.4-0.2-3.1C17.1,17.6,17,17.3,17,17
	c-0.3,0.1-0.5,0.1-0.9,0c-0.4-0.1-0.8-0.3-1.3-0.2c-0.1-0.5-0.4-0.9-0.6-1.2c-0.2-0.3-0.3-0.5-0.3-0.8c-0.3,0.1-0.6,0-0.9,0
	c-0.8-0.2-2-0.5-3,0.7c-0.2,0.3-0.3,0.6-0.4,0.9c-0.3,0.1-0.6,0.3-0.8,0.6c-0.3,0.4-0.4,0.9-0.2,1.5C9.4,18.4,10.2,18.7,10.7,19.1
	 M9.1,17.1c0.2-0.2,0.4-0.4,0.8-0.5c0-0.4,0.1-0.7,0.3-1c1.1-1.5,2.8-0.3,3.3-0.5c0,0.4,1,1.1,0.9,2.1c0.9-0.4,1.8,0.3,2.2,0.2
	c0,0.6,1.6,1.8,0.5,3.3c-0.2,0.3-0.5,0.5-0.8,0.6c0,0.4-0.1,0.7-0.3,0.9c-0.2,0.3-0.5,0.4-0.8,0.5c-0.2-0.7-0.6-1.3-1.3-1.8
	c-0.6-0.4-1.2-0.7-1.8-0.7c-0.2-0.6-0.6-1.1-1.2-1.5c-0.6-0.5-1.4-0.7-2.1-0.7C8.8,17.8,8.9,17.4,9.1,17.1"/>
<path class="st2" d="M12.3,18.3c0,0,0.6,0.2,1-0.4c0.3-0.4,0.2-1-0.2-1.2c-0.2-0.1-0.4-0.2-0.6-0.1c0-0.2-0.1-0.4-0.3-0.5
	c-0.4-0.3-0.9-0.2-1.2,0.2c-0.4,0.6,0,1.1,0,1.1L12.3,18.3z M11.3,16.5c0.2-0.2,0.5-0.3,0.7-0.2c0.1,0.1,0.2,0.3,0.2,0.6
	c0.1,0,0.5-0.1,0.6,0c0.2,0.1,0.3,0.5,0.1,0.7c-0.2,0.3-0.4,0.3-0.5,0.3l-1.2-0.9C11.2,17.1,11.1,16.8,11.3,16.5"/>
<path class="st2" d="M15.3,20.6c0,0,0.6,0.3,1-0.3c0.3-0.4,0.2-0.9-0.1-1.2c-0.2-0.1-0.4-0.2-0.6-0.1c0-0.2-0.1-0.4-0.3-0.5
	c-0.4-0.3-0.9-0.2-1.2,0.2c-0.4,0.6-0.1,1-0.1,1L15.3,20.6z M14.4,18.8c0.2-0.2,0.5-0.3,0.7-0.1c0.2,0.1,0.2,0.5,0.2,0.6
	c0.3-0.1,0.5-0.1,0.6,0c0.2,0.2,0.2,0.5,0.1,0.7c-0.2,0.3-0.5,0.3-0.6,0.2l-1.2-0.9C14.2,19.3,14.2,19.1,14.4,18.8"/>
<path class="st1" d="M10.9,18.8c0.6,0.4,1,1,1.2,1.5c0.6,0,1.3,0.3,1.8,0.7c0.6,0.5,1.1,1.1,1.3,1.8c0.3,0,0.6-0.2,0.8-0.5
	c0.2-0.2,0.3-0.5,0.3-0.9c0.3-0.1,0.6-0.3,0.8-0.6c1.1-1.5-0.5-2.7-0.5-3.3c-0.4,0.1-1.3-0.6-2.2-0.2c0.1-1-0.9-1.6-0.9-2.1
	c-0.6,0.2-2.2-1-3.3,0.5c-0.2,0.3-0.3,0.6-0.3,1c-0.4,0.1-0.6,0.3-0.8,0.5c-0.2,0.3-0.3,0.6-0.2,0.9C9.6,18.1,10.3,18.3,10.9,18.8
	 M14.1,18.6c0.3-0.4,0.9-0.5,1.2-0.2c0.2,0.1,0.3,0.3,0.3,0.5c0.2,0,0.4,0,0.6,0.1c0.4,0.3,0.4,0.8,0.1,1.2c-0.4,0.6-1,0.3-1,0.3
	L14,19.6C14,19.6,13.7,19.2,14.1,18.6 M11,16.3c0.3-0.4,0.8-0.5,1.2-0.2c0.2,0.1,0.3,0.3,0.3,0.5c0.2,0,0.4,0,0.6,0.1
	c0.4,0.3,0.5,0.8,0.2,1.2c-0.4,0.6-1,0.4-1,0.4L11,17.4C11,17.4,10.6,16.9,11,16.3"/>
<path class="st2" d="M34.7,7.1C35,7.2,35,7.5,35,7.8c-0.1,0.6-0.4,1-0.8,1.4l-0.1,0.2c0.2,0.5,0.4,1.3,0.2,1.9
	c-0.1,0.7-0.5,1.3-0.9,1.7l-0.1,0.1l0,0.2c0.1,0.4,0.5,0.7,0.9,0.8c0.2,0,0.3,0,0.5,0c0.1,0.1,0.3,0.1,0.4,0.2
	c0.4,0.1,0.9-0.1,1.1-0.4l0.1-0.2l-0.1-0.2C36,13,35.9,12.3,36,11.7c0.1-0.6,0.5-1.3,0.9-1.7l-0.1-0.2c-0.2-0.6-0.3-1-0.2-1.6
	c0.1-0.3,0.1-0.6,0.5-0.6c0.3,0,0.9,0.5,1,1.2c0.3-0.1,0.8-0.4,0.9-0.9c0-0.1,0-0.1,0-0.2c0-0.2,0-0.4,0-0.6
	c0.1-0.1,0.2-0.3,0.3-0.5c0.1-0.5-0.2-0.8-0.4-1.2c-0.6,0.5-1.1,0.5-1.6,0.3c-0.3-0.1-0.6-0.3-1-0.4c-0.4-0.1-0.8,0-1.1,0
	c-0.6,0.1-1-0.2-1.4-0.8c-0.3,0.3-0.7,0.5-0.8,1c0,0.2,0,0.4,0.1,0.6c-0.1,0.1-0.2,0.3-0.2,0.5c0,0.1,0,0.1,0,0.2
	c-0.1,0.4,0.3,0.9,0.5,1.1C33.7,7.3,34.5,7,34.7,7.1 M33.5,6.1c-0.2-0.4-0.3-0.8,0.3-1.2c0.9,1.2,1.4,0.5,2.5,0.6
	c1.1,0.2,1.3,1.1,2.6,0.3c0.3,0.6,0.1,0.9-0.2,1.2c0.3,0.5-0.1,1.1-0.3,1.2c-0.2-0.7-0.7-0.9-1.1-1c-0.6-0.1-0.8,0.2-0.9,0.8
	c-0.1,0.7,0,1.2,0.2,1.8c-0.4,0.5-0.7,1-0.9,1.7c-0.1,0.8,0,1.5,0.3,2.2c-0.2,0.3-0.8,0.4-1.2,0.1c-0.5,0.2-1-0.1-1.1-0.5
	c0.5-0.5,0.9-1.1,1-1.9c0.1-0.7,0-1.3-0.2-1.9c0.4-0.5,0.7-0.9,0.8-1.6c0.1-0.6,0-1-0.6-1.1c-0.4-0.1-1,0-1.4,0.6
	C33.2,7.2,33,6.4,33.5,6.1"/>
<path class="st1" d="M34.7,6.8c0.6,0.1,0.7,0.5,0.6,1.1c-0.1,0.7-0.4,1.2-0.8,1.6c0.2,0.6,0.3,1.2,0.2,1.9c-0.1,0.8-0.5,1.4-1,1.9
	c0.1,0.4,0.6,0.7,1.1,0.5c0.4,0.3,1,0.3,1.2-0.1c-0.3-0.6-0.4-1.4-0.3-2.2c0.1-0.7,0.4-1.3,0.9-1.7c-0.2-0.6-0.3-1.1-0.2-1.8
	c0.1-0.6,0.3-0.9,0.9-0.8c0.4,0.1,0.9,0.4,1.1,1C38.6,8.2,39,7.5,38.6,7c0.3-0.3,0.5-0.6,0.2-1.2c-1.3,0.8-1.5-0.1-2.6-0.3
	c-1.1-0.2-1.6,0.6-2.5-0.6c-0.5,0.4-0.4,0.8-0.3,1.2c-0.5,0.3-0.3,1.1-0.2,1.2C33.8,6.8,34.3,6.7,34.7,6.8"/>
<path class="st2" d="M44.4,17.9l-0.2,0l-0.1,0.2c-0.2,0.3-0.1,0.8,0.1,1.2c0.1,0.1,0.2,0.2,0.3,0.3c0,0.1,0.1,0.3,0.2,0.4
	c0.3,0.4,0.7,0.5,1.1,0.4l0.2,0l0.1-0.2c0.2-0.6,0.6-1.2,1.1-1.6l1.2-0.9l-1.1,2.9c-0.3,0.1-0.5,0.1-0.8,0.1l-0.2,0l-0.1,0.2
	c-0.2,0.3-0.2,0.8,0.1,1.2c0.1,0.1,0.2,0.2,0.3,0.3c0,0.1,0.1,0.2,0.2,0.4c0.3,0.4,0.7,0.5,1.1,0.5l0.2,0l0.1-0.2
	c0.2-0.6,0.6-1.2,1.1-1.6c0.5-0.4,1.3-0.6,1.8-0.7c0.2-0.5,0.6-1.2,1.1-1.6c0.5-0.4,1.2-0.6,1.8-0.7l0.2,0l0.1-0.2
	c0.2-0.3,0.1-0.8-0.1-1.2c-0.1-0.1-0.2-0.2-0.3-0.3c0-0.1-0.1-0.3-0.2-0.4c-0.3-0.4-0.7-0.5-1.1-0.4l-0.2,0l-0.1,0.2
	c-0.2,0.6-0.6,1.2-1.1,1.6L50,18.6l1.1-2.9c0.3-0.1,0.5-0.1,0.8-0.1l0.2,0l0.1-0.2c0.2-0.3,0.2-0.8-0.1-1.2C52.1,14.1,52,14,51.8,14
	c0-0.1-0.1-0.2-0.2-0.4c-0.3-0.4-0.7-0.5-1.1-0.5l-0.2,0l-0.1,0.2c-0.2,0.6-0.6,1.2-1.1,1.6c-0.5,0.4-1.3,0.6-1.8,0.7
	c-0.2,0.5-0.6,1.2-1.1,1.6C45.6,17.6,45,17.9,44.4,17.9 M47.6,16c0.6-0.1,1.2-0.3,1.8-0.7c0.6-0.5,1.1-1.1,1.3-1.8
	c0.4-0.1,0.9,0.2,0.9,0.7c0.5,0.2,0.6,0.7,0.4,1.1c-0.4,0-0.7,0.1-1.1,0.2l-1.6,4.2l2.2-1.6c0.6-0.5,1.1-1.1,1.3-1.8
	c0.4-0.1,0.9,0.2,0.9,0.7c0.5,0.2,0.6,0.7,0.4,1.1c-0.7,0-1.4,0.3-2,0.7c-0.6,0.4-0.9,1-1.2,1.5c-0.6,0.1-1.2,0.3-1.8,0.7
	c-0.6,0.5-1.1,1.1-1.3,1.8c-0.4,0.1-0.9-0.2-0.9-0.7c-0.5-0.2-0.6-0.7-0.4-1.1c0.4,0,0.7-0.1,1.1-0.2l1.6-4.2L47,18.2
	c-0.6,0.5-1.1,1.1-1.3,1.8c-0.4,0.1-0.9-0.2-0.9-0.7c-0.5-0.2-0.6-0.7-0.4-1.1c0.7,0,1.4-0.3,2-0.7C47,17.1,47.4,16.5,47.6,16"/>
<path class="st1" d="M44.8,19.3c0,0.5,0.5,0.8,0.9,0.7c0.2-0.7,0.6-1.3,1.3-1.8l2.2-1.6l-1.6,4.2c-0.4,0.1-0.7,0.2-1.1,0.2
	c-0.2,0.3,0,0.9,0.4,1.1c0,0.5,0.5,0.8,0.9,0.7c0.2-0.7,0.6-1.3,1.3-1.8c0.6-0.4,1.2-0.7,1.8-0.7c0.2-0.6,0.6-1.1,1.2-1.5
	c0.6-0.5,1.4-0.7,2-0.7c0.2-0.3,0-0.9-0.4-1.1c0-0.5-0.5-0.8-0.9-0.7c-0.2,0.7-0.6,1.3-1.3,1.8l-2.2,1.6l1.6-4.2
	c0.4-0.1,0.7-0.2,1.1-0.2c0.2-0.3,0-0.9-0.4-1.1c0-0.5-0.5-0.8-0.9-0.7c-0.2,0.7-0.6,1.3-1.3,1.8c-0.6,0.4-1.2,0.6-1.8,0.7
	c-0.2,0.6-0.6,1.1-1.2,1.5c-0.6,0.5-1.4,0.7-2,0.7C44.2,18.6,44.3,19.1,44.8,19.3"/>
<path class="st2" d="M16.6,12.2c0.5,0.9,0.7,1.4,0.6,1.8l-0.1,0.3l0.3,0.1c0.4,0.1,0.7,0.5,1.3,1.3l0.1,0.1c0.9,1.2,2.2,1.5,3.4,0.8
	c1.1-0.7,1.4-2,0.7-3.4l-0.1-0.1c-0.5-0.9-0.7-1.4-0.6-1.8l0.1-0.3L22,11c-0.4-0.1-0.7-0.5-1.3-1.3l-0.1-0.1
	c-0.9-1.2-2.2-1.5-3.4-0.8c-1.1,0.7-1.4,2-0.7,3.4L16.6,12.2z M17.4,9c1-0.6,2.1-0.3,2.9,0.7c0.7,0.9,1.1,1.4,1.6,1.5
	c-0.1,0.6,0.2,1.1,0.7,2.1c0.6,1.2,0.4,2.3-0.6,2.9c-1,0.6-2.1,0.3-2.9-0.7c-0.7-0.9-1.1-1.4-1.6-1.5c0.1-0.6-0.2-1.1-0.7-2.1
	C16.2,10.8,16.4,9.6,17.4,9"/>
<path class="st2" d="M19.2,13c-0.1,0.4,0.1,1,0.4,1.5c0.5,0.8,1.3,1.3,1.8,1c0.5-0.3,0.4-1.2-0.1-2c-0.3-0.5-0.8-0.9-1.2-1.1
	c0.1-0.4-0.1-1-0.4-1.5c-0.5-0.8-1.3-1.3-1.8-1c-0.5,0.3-0.4,1.2,0.1,2C18.4,12.5,18.8,12.9,19.2,13 M18.1,10.2
	c0.3-0.2,0.9,0.2,1.3,0.8c0.3,0.5,0.5,1,0.4,1.3l-0.1,0.3l0.3,0.1c0.3,0.1,0.7,0.4,1,0.9c0.4,0.7,0.5,1.4,0.2,1.6
	c-0.3,0.2-0.9-0.2-1.3-0.8c-0.3-0.5-0.5-1-0.4-1.3l0.1-0.3l-0.3-0.1c-0.3-0.1-0.7-0.4-1-0.9C17.9,11.1,17.9,10.4,18.1,10.2"/>
<path class="st1" d="M17.5,14.1c0.6,0.1,0.9,0.6,1.6,1.5c0.8,1,1.9,1.3,2.9,0.7c1-0.6,1.2-1.8,0.6-2.9c-0.5-1-0.8-1.6-0.7-2.1
	c-0.6-0.1-0.9-0.6-1.6-1.5c-0.8-1-1.9-1.3-2.9-0.7c-1,0.6-1.2,1.8-0.6,2.9C17.3,13,17.6,13.5,17.5,14.1 M18,9.9
	c0.5-0.3,1.3,0.1,1.8,1c0.3,0.5,0.5,1.1,0.4,1.5c0.4,0.1,0.8,0.5,1.2,1.1c0.5,0.8,0.6,1.7,0.1,2c-0.5,0.3-1.3-0.1-1.8-1
	c-0.3-0.5-0.5-1.1-0.4-1.5c-0.4-0.1-0.8-0.5-1.2-1.1C17.5,11.1,17.5,10.2,18,9.9"/>
<path class="st2" d="M40.4,16.4c1.1,0.7,2.5,0.3,3.3-0.9l0.1-0.1c0.6-0.8,0.9-1.2,1.3-1.3l0.3-0.1l-0.1-0.3
	c-0.1-0.4,0.1-0.9,0.5-1.8l0.1-0.1c0.6-1.4,0.3-2.7-0.8-3.4c-1.1-0.7-2.5-0.3-3.3,0.9l-0.1,0.1c-0.6,0.8-0.9,1.2-1.3,1.3l-0.3,0.1
	l0.1,0.3c0.1,0.4-0.1,0.9-0.5,1.8l-0.1,0.1C39,14.4,39.3,15.8,40.4,16.4 M39.9,13.2c0.5-1.1,0.8-1.6,0.6-2.2
	c0.6-0.1,0.9-0.6,1.6-1.6c0.8-1.1,1.9-1.4,2.9-0.8c1,0.6,1.2,1.7,0.7,2.9c-0.5,1.1-0.8,1.6-0.6,2.2c-0.6,0.1-0.9,0.6-1.6,1.6
	c-0.8,1.1-1.9,1.4-2.9,0.8C39.6,15.6,39.4,14.4,39.9,13.2"/>
<path class="st2" d="M41.2,15.2c0.5,0.3,1.3-0.2,1.8-1c0.3-0.6,0.5-1.1,0.4-1.5c0.4-0.1,0.8-0.5,1.1-1.1c0.5-0.8,0.5-1.8,0-2
	c-0.5-0.3-1.3,0.2-1.8,1c-0.3,0.6-0.5,1.1-0.4,1.5c-0.4,0.1-0.8,0.5-1.1,1.1C40.7,14,40.7,15,41.2,15.2 M41.5,13.4
	c0.3-0.5,0.6-0.8,0.9-0.9l0.3-0.1L42.7,12c-0.1-0.3,0.1-0.8,0.4-1.3c0.4-0.7,1-1,1.3-0.9c0.3,0.2,0.3,0.9-0.1,1.6
	c-0.3,0.5-0.6,0.8-0.9,0.9l-0.3,0.1l0.1,0.3c0.1,0.3-0.1,0.8-0.4,1.3c-0.4,0.7-1,1-1.3,0.9C41.1,14.8,41.1,14.1,41.5,13.4"/>
<path class="st1" d="M40.6,16.1c1,0.6,2.1,0.3,2.9-0.8c0.7-0.9,1-1.4,1.6-1.6c-0.1-0.6,0.1-1.1,0.6-2.2c0.6-1.2,0.3-2.3-0.7-2.9
	c-1-0.6-2.1-0.3-2.9,0.8c-0.7,0.9-1,1.4-1.6,1.6c0.1,0.6-0.1,1.1-0.6,2.2C39.4,14.4,39.6,15.6,40.6,16.1 M41.2,13.2
	c0.3-0.6,0.7-1,1.1-1.1c-0.1-0.4,0.1-1,0.4-1.5c0.5-0.8,1.3-1.3,1.8-1c0.5,0.3,0.5,1.2,0,2c-0.3,0.5-0.7,1-1.1,1.1
	c0.1,0.4-0.1,1-0.4,1.5c-0.5,0.8-1.3,1.3-1.8,1C40.7,15,40.7,14,41.2,13.2"/>
<path class="st2" d="M47,50.3c-0.5-0.9-0.7-1.3-0.6-1.7l0.1-0.3l-0.3-0.1c-0.4-0.1-0.7-0.5-1.4-1.3l-0.1-0.1c-1-1.2-2.3-1.5-3.4-0.7
	c-1.1,0.7-1.3,2.1-0.6,3.4l0.1,0.1c0.5,0.9,0.7,1.3,0.6,1.7l-0.1,0.3l0.3,0.1c0.4,0.1,0.7,0.5,1.4,1.3l0.1,0.1
	c1,1.2,2.3,1.5,3.4,0.7c1.1-0.7,1.3-2.1,0.6-3.4L47,50.3z M46.3,53.5c-1,0.6-2.1,0.4-2.9-0.6c-0.7-0.9-1.1-1.4-1.7-1.5
	c0.1-0.6-0.2-1.1-0.8-2.1c-0.6-1.2-0.4-2.3,0.5-3c1-0.6,2.1-0.4,2.9,0.6c0.7,0.9,1.1,1.4,1.7,1.5c-0.1,0.6,0.2,1.1,0.8,2.1
	C47.4,51.7,47.2,52.9,46.3,53.5"/>
<path class="st2" d="M44.4,49.6c0.1-0.4-0.1-1-0.5-1.5c-0.5-0.8-1.4-1.2-1.8-0.9c-0.5,0.3-0.4,1.2,0.1,2c0.4,0.5,0.8,0.9,1.2,1
	c-0.1,0.4,0.1,1,0.5,1.5c0.5,0.8,1.4,1.2,1.8,0.9c0.5-0.3,0.4-1.2-0.1-2C45.2,50.1,44.8,49.7,44.4,49.6 M45.5,52.4
	c-0.3,0.2-0.9-0.1-1.4-0.8c-0.3-0.5-0.5-0.9-0.4-1.2l0.1-0.3l-0.3-0.1c-0.3-0.1-0.7-0.4-1-0.9c-0.5-0.7-0.5-1.4-0.2-1.6
	c0.3-0.2,0.9,0.1,1.4,0.8c0.3,0.5,0.5,0.9,0.4,1.2L44,49.9l0.3,0.1c0.3,0.1,0.7,0.4,1,0.9C45.7,51.5,45.8,52.2,45.5,52.4"/>
<path class="st1" d="M46.1,48.5c-0.6-0.1-0.9-0.6-1.7-1.5c-0.8-1-2-1.3-2.9-0.6c-1,0.6-1.1,1.8-0.5,3c0.6,1,0.9,1.6,0.8,2.1
	c0.6,0.1,0.9,0.6,1.7,1.5c0.8,1,2,1.3,2.9,0.6c1-0.6,1.1-1.8,0.5-3C46.2,49.6,45.9,49,46.1,48.5 M45.7,52.7
	c-0.5,0.3-1.3-0.1-1.8-0.9c-0.4-0.5-0.6-1.1-0.5-1.5c-0.4-0.1-0.8-0.5-1.2-1c-0.5-0.8-0.6-1.7-0.1-2c0.5-0.3,1.3,0.1,1.8,0.9
	c0.4,0.5,0.6,1.1,0.5,1.5c0.4,0.1,0.8,0.5,1.2,1C46.1,51.4,46.2,52.3,45.7,52.7"/>
<path class="st2" d="M26.4,49.7c-0.5-0.2-1.2,0.5-1.5,1.4c-0.2,0.6-0.2,1.2,0,1.6c-0.4,0.2-0.7,0.7-0.8,1.3c-0.3,0.9,0,1.8,0.5,2
	c0.5,0.2,1.2-0.5,1.5-1.4c0.2-0.6,0.2-1.2,0-1.6c0.4-0.2,0.7-0.7,0.8-1.3C27.1,50.7,26.9,49.9,26.4,49.7 M26.5,51.6
	c-0.2,0.6-0.4,1-0.7,1.1l-0.3,0.2l0.1,0.3c0.1,0.3,0.1,0.8,0,1.3c-0.2,0.8-0.7,1.3-1,1.2c-0.3-0.1-0.5-0.8-0.3-1.6
	c0.2-0.6,0.4-1,0.7-1.1l0.3-0.2l-0.1-0.3c-0.1-0.3-0.1-0.8,0-1.3c0.2-0.8,0.7-1.3,1-1.2C26.6,50.1,26.8,50.8,26.5,51.6"/>
<path class="st2" d="M28.4,51.6l0-0.2c0.3-1.5-0.4-2.7-1.6-3.1c-0.4-0.1-0.7-0.1-1.1-0.1c-0.2-0.2-0.4-0.4-0.7-0.5
	c-0.4-0.1-0.8-0.1-1.2,0.2l-0.3,0.1l0.1,0.3c0.2,0.6,0.2,1.3,0,2c-0.2,0.6-0.5,1.1-0.9,1.5L22.5,52l0.1,0.2c0.2,0.5,0.2,1.2,0,1.8
	c-0.2,0.7-0.6,1.2-1.1,1.6l-0.2,0.2l0.1,0.3c0.2,0.4,0.5,0.7,1,0.8c0.3,0.1,0.6,0.1,0.9,0c0.3,0.2,0.6,0.4,0.9,0.5
	c1.3,0.4,2.5-0.3,3-1.7l0.1-0.1c0.4-0.9,0.6-1.4,0.9-1.6l0.3-0.2l-0.2-0.3C28.1,53.1,28.2,52.6,28.4,51.6 M28.1,51.3
	c-0.2,1.2-0.3,1.7-0.1,2.2c-0.5,0.3-0.7,0.8-1.1,1.9c-0.5,1.2-1.5,1.8-2.6,1.5c-0.4-0.1-0.7-0.3-1-0.6c-0.3,0.1-0.6,0.2-0.9,0.1
	c-0.3-0.1-0.6-0.3-0.7-0.6c0.5-0.4,1-1,1.2-1.8c0.2-0.7,0.2-1.4,0-2c0.5-0.4,0.8-1,1-1.7c0.2-0.8,0.2-1.5-0.1-2.2
	c0.3-0.2,0.6-0.2,1-0.1c0.3,0.1,0.5,0.3,0.7,0.5c0.3-0.1,0.7-0.1,1.1,0C27.8,49,28.3,50.1,28.1,51.3"/>
<path class="st1" d="M26.7,48.7c-0.4-0.1-0.8-0.1-1.1,0c-0.2-0.2-0.4-0.4-0.7-0.5c-0.3-0.1-0.7,0-1,0.1c0.2,0.6,0.3,1.4,0.1,2.2
	c-0.2,0.7-0.6,1.3-1,1.7c0.2,0.6,0.2,1.3,0,2c-0.2,0.8-0.7,1.4-1.2,1.8c0.2,0.3,0.4,0.5,0.7,0.6c0.3,0.1,0.6,0,0.9-0.1
	c0.2,0.3,0.6,0.5,1,0.6c1.1,0.3,2.1-0.3,2.6-1.5c0.4-1.1,0.6-1.7,1.1-1.9c-0.3-0.5-0.1-1.1,0.1-2.2C28.3,50.1,27.8,49,26.7,48.7
	 M26.9,51.7c-0.2,0.6-0.5,1.1-0.8,1.3c0.2,0.4,0.2,1,0,1.6c-0.3,0.9-0.9,1.6-1.5,1.4c-0.5-0.2-0.8-1-0.5-2c0.2-0.6,0.5-1.1,0.8-1.3
	c-0.2-0.4-0.2-1,0-1.6c0.3-0.9,0.9-1.6,1.5-1.4C26.9,49.9,27.1,50.7,26.9,51.7"/>
<path class="st2" d="M22.2,48.1c0.2-0.1,0.4-0.2,0.5-0.4c0.2-0.2,0.3-0.6,0.1-1.2c-1.4,0-1.7-0.4-2.1-0.9c-0.2-0.3-0.3-0.5-0.7-0.8
	c-0.3-0.3-0.9-0.4-1.5-0.2c0.1,0.7-0.2,1.6-0.6,2.1c-0.4,0.5-1,1-1.6,1.2c0,0.7-0.3,1.4-0.7,1.9c-0.4,0.6-1.1,1.1-1.9,1.2
	c0,0.6,0.3,1.1,0.7,1.4c0.4,0.3,0.6,0.3,1,0.4c0.6,0.2,1.1,0.4,1.5,1.7c0.6,0,1-0.3,1.1-0.5c0.1-0.2,0.2-0.4,0.2-0.6
	c1-0.5,0.8-1.4,0.6-1.8c-1,0.5-1.5,0.1-1.7-0.1c-0.3-0.2-0.4-0.4,0-0.8l0.4-0.5c0.3-0.4,0.7,0,0.3,0.7c0.2,0.2,1.3,0.5,1.7-0.8
	c1.1-0.8,0.5-1.7,0.3-1.9c-0.6,0.6-1.1,0.3-0.8-0.1l0.4-0.5c0.3-0.4,0.5-0.4,0.8-0.2c0.2,0.1,0.7,0.5,0.6,1.6
	C21.1,49.3,22,49.2,22.2,48.1 M21,48.9c0.1-0.7-0.3-1.3-0.7-1.6c-0.6-0.4-0.9-0.2-1.3,0.3c-0.3,0.4-0.8,1-0.3,1.4
	c0.2,0.2,0.6,0,1-0.2c0.1,0.1,0.2,0.9-0.5,1.2c0,0.8-0.8,0.9-0.9,0.9c0.1-0.4,0.1-0.8-0.1-1c-0.5-0.4-0.9,0.2-1.3,0.7
	c-0.4,0.5-0.5,0.9,0.1,1.3c0.4,0.3,1,0.5,1.7,0.2c0.1,0.2-0.1,1-0.7,1.1c0,0.4-0.1,0.9-0.8,1c-0.7-2-1.5-1.3-2.5-2.1
	c-0.3-0.2-0.4-0.5-0.5-0.8c0.7-0.2,1.3-0.6,1.8-1.3c0.4-0.6,0.7-1.2,0.7-1.8c0.6-0.2,1.1-0.6,1.5-1.2c0.5-0.6,0.7-1.4,0.7-2.1
	c0.3-0.1,0.7,0,0.9,0.2c1,0.7,0.6,1.7,2.7,1.8c0.1,0.7-0.3,0.9-0.7,1C22,48.5,21.3,48.9,21,48.9"/>
<path class="st1" d="M21.9,47.9c0.4-0.1,0.8-0.3,0.7-1c-2.1-0.1-1.7-1-2.7-1.8c-0.3-0.2-0.6-0.3-0.9-0.2c0,0.7-0.2,1.4-0.7,2.1
	c-0.4,0.6-1,1-1.5,1.2c0,0.6-0.3,1.3-0.7,1.8c-0.5,0.6-1.1,1.1-1.8,1.3c0,0.3,0.2,0.6,0.5,0.8c1,0.7,1.8,0.1,2.5,2.1
	c0.7-0.1,0.8-0.5,0.8-1c0.6-0.1,0.8-0.8,0.7-1.1c-0.7,0.3-1.3,0.1-1.7-0.2c-0.6-0.4-0.5-0.8-0.1-1.3c0.3-0.4,0.7-1.1,1.3-0.7
	c0.2,0.2,0.2,0.6,0.1,1c0.1,0.1,0.9-0.1,0.9-0.9c0.7-0.3,0.7-1,0.5-1.2c-0.3,0.2-0.7,0.4-1,0.2c-0.5-0.4,0-1,0.3-1.4
	c0.4-0.5,0.7-0.7,1.3-0.3c0.4,0.3,0.8,0.8,0.7,1.6C21.3,48.9,22,48.5,21.9,47.9"/>
<path class="st2" d="M39.1,53L39.1,53c-0.5-0.2-1.1-0.6-1.3-1.1c-0.3,0-0.7-0.1-1.2-0.3c-0.6-0.3-1-0.8-0.8-1.1
	c0.1-0.3,0.7-0.3,1.4,0c0.3,0.2,0.6,0.4,0.7,0.6l0.2,0.3l0.3-0.3c0.4-0.4,0.5-0.8,0.4-1.2c0-0.1-0.1-0.2-0.1-0.2
	c0.1-0.2,0.2-0.4,0.2-0.7c0-0.1,0-0.2,0-0.3c-0.1-0.2-0.2-0.4-0.3-0.5l-0.3-0.2l-0.2,0.3c-0.3,0.4-0.7,0.4-1.3,0.3
	c-0.2,0-0.5,0-0.7,0c-0.9,0-1.6,0.5-2,1.3c-0.2,0.5-0.3,1.1-0.1,1.7c0.2,0.6,0.7,1.2,1.4,1.5l0,0c0.5,0.2,1.1,0.6,1.3,1.1
	c0.3,0,0.7,0.1,1.2,0.3c0.6,0.3,1,0.8,0.8,1.1c-0.1,0.3-0.7,0.3-1.4,0c-0.3-0.2-0.6-0.4-0.7-0.6l-0.2-0.3l-0.3,0.3
	c-0.4,0.4-0.5,0.8-0.4,1.2c0,0.1,0.1,0.2,0.1,0.2c-0.1,0.2-0.2,0.4-0.2,0.7c0,0.1,0,0.2,0,0.3c0.1,0.2,0.2,0.4,0.3,0.5l0.3,0.2
	l0.2-0.3c0.3-0.4,0.7-0.4,1.3-0.3c0.2,0,0.5,0,0.7,0c0.9,0,1.6-0.5,2-1.3c0.2-0.5,0.3-1.1,0.1-1.7C40.3,53.8,39.8,53.3,39.1,53
	 M40.1,56c-0.3,0.6-1,1-1.7,1.1c-0.8,0.1-1.6-0.3-2.3,0.4c-0.4-0.4-0.3-1,0.1-1.2c-0.3-0.3-0.3-0.9,0.1-1.2c0.2,0.3,0.5,0.6,0.9,0.7
	c0.8,0.4,1.6,0.3,1.8-0.2c0.2-0.5-0.2-1.2-1-1.5c-0.4-0.2-0.8-0.3-1.1-0.3c-0.3-0.7-1.1-1-1.4-1.1c-1.1-0.5-1.6-1.7-1.1-2.7
	c0.3-0.6,1-1,1.7-1.1c0.8-0.1,1.6,0.3,2.3-0.4c0.4,0.4,0.3,1-0.1,1.2c0.3,0.3,0.3,0.9-0.1,1.2c-0.2-0.3-0.5-0.6-0.9-0.7
	c-0.8-0.4-1.6-0.3-1.8,0.2c-0.2,0.5,0.2,1.2,1,1.5c0.4,0.2,0.8,0.3,1.1,0.3c0.3,0.7,1.1,1,1.4,1.1C40.1,53.8,40.6,55,40.1,56"/>
<path class="st1" d="M39,53.3c-0.3-0.1-1-0.5-1.4-1.1c-0.3,0-0.7-0.2-1.1-0.3c-0.8-0.4-1.2-1.1-1-1.5c0.2-0.5,1-0.6,1.8-0.2
	c0.4,0.2,0.7,0.5,0.9,0.7c0.4-0.4,0.3-0.9,0.1-1.2c0.4-0.3,0.5-0.9,0.1-1.2c-0.7,0.8-1.5,0.4-2.3,0.4c-0.7,0-1.4,0.4-1.7,1.1
	c-0.5,1,0,2.2,1.1,2.7c0.3,0.1,1,0.5,1.4,1.1c0.3,0,0.7,0.2,1.1,0.3c0.8,0.4,1.2,1.1,1,1.5c-0.2,0.5-1,0.6-1.8,0.2
	c-0.4-0.2-0.7-0.5-0.9-0.7c-0.4,0.4-0.3,0.9-0.1,1.2c-0.4,0.3-0.5,0.9-0.1,1.2c0.7-0.8,1.5-0.4,2.3-0.4c0.7,0,1.4-0.4,1.7-1.1
	C40.6,55,40.1,53.8,39,53.3"/>
<path class="st1" d="M36.1,17.9l1.6,0l0.3-0.5l-1.5,0l0.2-0.4l-0.4-0.6c-0.2-0.1-0.4-0.1-0.6-0.2l0.8,1.2L36.1,17.9z"/>
<polygon class="st1" points="35.2,19.1 36.8,19.3 37.1,18.9 35.6,18.7 35.8,18.4 35.1,16.9 34.9,17.4 35.5,18.8 "/>
<polygon class="st1" points="34.2,20.3 35.8,20.7 36.2,20.3 34.7,19.9 34.9,19.6 34.4,18.1 34.1,18.5 34.6,20 "/>
<polygon class="st1" points="33.1,21.4 34.7,21.9 35.1,21.5 33.6,21.1 33.9,20.8 33.5,19.2 33.1,19.6 33.5,21.1 "/>
<polygon class="st1" points="22.2,26.6 22.8,26.6 22.1,25.2 22.5,25.3 23.5,23.9 22.9,23.9 22.1,25.2 21.6,25.1 "/>
<polygon class="st1" points="20.1,24.9 20.6,26.4 21.1,26.5 20.6,25 21,25.1 22.1,23.9 21.5,23.8 20.5,25 "/>
<polygon class="st1" points="19.4,26.2 19.1,24.7 19.5,24.8 20.7,23.7 20.2,23.5 19.1,24.6 18.6,24.4 18.9,26 "/>
<path class="st1" d="M17.8,25.7l-0.2-1.5l0.4,0.1l1.3-1l-0.5-0.2l-1.2,0.9l-0.1,0c-0.1,0.2-0.2,0.4-0.3,0.6l0.1,0.8L17.8,25.7z"/>
<polygon class="st1" points="25,42.4 23.4,42.5 23.1,42.9 24.7,42.9 24.5,43.3 25.4,44.6 25.6,44.1 24.8,42.9 "/>
<path class="st1" d="M24,44.2l0.2-0.4l-1.6,0.1l-0.2,0.5l1.5-0.1l-0.2,0.4l0.8,1.2c0.1,0,0.1,0,0.2,0.1l0.2-0.4L24,44.2z"/>
<path class="st1" d="M46.1,34.2l0.6,1.4l-0.4,0l-0.9,1.3l0.5,0l0.9-1.2l0,0c0.1-0.2,0.1-0.5,0.2-0.7l-0.3-0.7L46.1,34.2z"/>
<path class="st2" d="M48,31.5C48,22.4,40.6,15,31.5,15C22.4,15,15,22.4,15,31.5S22.4,48,31.5,48C40.6,48,48,40.6,48,31.5 M31.5,47.3
	c-2.4,0-4.7-0.5-6.7-1.5c-0.1,0-0.1,0-0.2-0.1c-5.3-2.6-8.9-8-8.9-14.2c0-2.5,0.6-4.8,1.6-6.9c0.1-0.2,0.2-0.4,0.3-0.6
	c2.7-5,7.9-8.4,13.9-8.4c1.4,0,2.8,0.2,4.1,0.5c0.2,0.1,0.4,0.1,0.6,0.2c6.4,2,11.1,8,11.1,15.1c0,1.2-0.1,2.4-0.4,3.5
	c-0.1,0.2-0.1,0.5-0.2,0.7C44.9,42.4,38.8,47.3,31.5,47.3"/>
<path class="st0" d="M46.7,35.6l-0.9,1.2l-0.5,0l0.9-1.3L46.7,35.6l-0.7-1.5l0.5,0.1l0.3,0.7c0.2-1.1,0.4-2.3,0.4-3.5
	c0-7.1-4.7-13.1-11.1-15.1l0.4,0.6l-0.2,0.4l1.5,0l-0.3,0.5l-1.6,0l0.3-0.4l-0.7-1.2c-1.3-0.3-2.7-0.5-4.1-0.5
	c-6,0-11.3,3.4-13.9,8.4l0.1,0l1.2-0.9l0.5,0.2l-1.3,1l-0.4-0.1l0.2,1.5l-0.5-0.2l-0.1-0.8c-1,2.1-1.6,4.4-1.6,6.9
	c0,6.3,3.6,11.7,8.9,14.2l-0.8-1.2l0.2-0.4l-1.5,0.1l0.2-0.5l1.6-0.1L24,44.2l0.9,1.2l-0.2,0.4c2,1,4.3,1.5,6.7,1.5
	C38.8,47.3,44.9,42.4,46.7,35.6L46.7,35.6z M35.1,16.9l0.7,1.5l-0.2,0.3l1.5,0.2l-0.3,0.4l-1.6-0.2l0.3-0.4l-0.7-1.4L35.1,16.9z
	 M34.4,18.1l0.5,1.5l-0.3,0.3l1.5,0.3l-0.4,0.4l-1.6-0.3l0.3-0.4l-0.5-1.4L34.4,18.1z M33.5,19.2l0.4,1.6l-0.3,0.3l1.4,0.5l-0.4,0.3
	l-1.5-0.5l0.4-0.3l-0.4-1.5L33.5,19.2z M22.9,23.9l0.5,0l-0.9,1.3l-0.4,0l0.6,1.4l-0.5-0.1l-0.7-1.5l0.5,0.1L22.9,23.9z M22.1,23.9
	l-1,1.2L20.6,25l0.5,1.5l-0.5-0.1l-0.5-1.5l0.5,0.1l1-1.2L22.1,23.9z M19.1,24.6l1.1-1.1l0.5,0.1l-1.2,1.1L19.1,24.6l0.4,1.6
	L18.9,26l-0.4-1.6L19.1,24.6z M25.4,44.6l-0.9-1.3l0.2-0.4l-1.5,0.1l0.3-0.5l1.6-0.1l-0.2,0.4l0.8,1.3L25.4,44.6z M34.7,43.7
	c-3.2,0.8-4.2,0.3-4.8,0c-1.3-0.6-2.8-1.5-4.2-2.4l-0.1,0.2l0.7,1.4L26,43.3l-0.8-1.4l0.2-0.4l-1.5-0.1l0.3-0.4l0.9,0.1
	c-1.1-0.7-2.2-1.2-3.3-1.4c-4.4-0.8-4.1-3.7-2.1-5.9c1.4-1.5,2.1-4.1,3.1-7.3c0.7-2.3,1.4-3.3,2-3.5l0.9-2.5c0.1-0.4,0.6-0.6,1-0.5
	l3.8,1.3c0.4,0.1,0.6,0.6,0.5,1l-0.9,2.5c0.9,1.3-0.7,3.3-1.4,4.8c-1.4,3.5-1.8,5.1-0.2,6.1c1.6,1.1,2.7,2,2.9,2.2
	C35.1,40.6,35.3,43.6,34.7,43.7 M42.9,39.9h-0.2v0.6h-0.2v-0.6h-0.2v-0.1h0.6V39.9z M43.9,40.5h-0.2v-0.6h0l-0.2,0.6h-0.1l-0.2-0.6
	h0v0.6H43v-0.7h0.3l0.2,0.5h0l0.2-0.5h0.3V40.5z M44.6,38.5c-1.9,1.4-5.4,1.1-7.5,0.3c-1.3-0.5-3.4-0.9-5.2-1
	c-0.2-0.2-0.5-0.4-0.5-0.4c-0.2-1.1-0.1-2.7-0.1-2.7c-0.8-0.2-2.3-0.7-2.8-0.8c-0.1,0.2-0.2,0.6-0.2,1.1c-0.2-0.3-0.3-0.6-0.3-1.1
	c0-0.8,0.4-2.1,1.2-4c0.2-0.4,0.4-0.7,0.6-1.2c0.5-1,1.1-2,1.1-3c0-0.3-0.1-0.6-0.2-0.9c0.1-0.3,0.8-2.3,0.8-2.3
	c0.1-0.1,0.1-0.3,0.1-0.4c0-0.1,0-0.3-0.1-0.4l-0.3-2.5c0-0.1-0.1-0.1-0.2-0.1c-0.1,0-0.1,0.1-0.1,0.2l0.2,1.9
	c-0.1-0.1-0.2-0.2-0.4-0.2c0,0,0,0-0.1,0l-0.2-1.5c0-0.1-0.1-0.2-0.2-0.2c-0.1,0-0.2,0.1-0.2,0.2l0.2,1.3c-0.1,0-0.3-0.1-0.4-0.1
	l-0.1-1.1c0-0.1-0.1-0.2-0.2-0.2c-0.1,0-0.2,0.1-0.2,0.2l0.1,0.9c-0.1-0.1-0.3-0.1-0.5-0.2l-0.1-0.8c0-0.1-0.1-0.2-0.2-0.1
	c-0.1,0-0.1,0.1-0.1,0.2l0.1,0.6c-0.2-0.1-0.4-0.1-0.5-0.2l0-0.4c0-0.1-0.1-0.1-0.1-0.1c-0.1,0-0.1,0.1-0.1,0.1l0,0.3
	c-0.3-0.1-0.6-0.2-0.7-0.2c0-0.4,0.3-0.7,0.7-0.7l4-0.5c0.4-0.1,0.8,0.3,0.9,0.7l0.3,2.6c1.2,0.8,1.4,1.6,1.8,7
	c0.4,5.9,5,3.6,7.6,5.4c0.4,0.3,0.8,0.7,1.1,1l0.3,0l-0.6-1.4l0.5,0.1l0.7,1.5l-0.5-0.1l-0.1,0.2c0.2,0.3,0.4,0.5,0.5,0.8l0.6-0.9
	l0.4,0l-0.6-1.4l0.5,0.1l0.6,1.5l-0.5-0.1l-0.8,1.2C44.8,37.5,44.9,38.3,44.6,38.5"/>
<polygon class="st1" points="43.5,40.2 43.5,40.2 43.3,39.7 43,39.7 43,40.5 43.2,40.5 43.2,39.9 43.2,39.9 43.4,40.5 43.5,40.5 
	43.7,39.9 43.7,39.9 43.7,40.5 43.9,40.5 43.9,39.7 43.6,39.7 "/>
<polygon class="st1" points="42.3,39.9 42.5,39.9 42.5,40.5 42.7,40.5 42.7,39.9 42.9,39.9 42.9,39.7 42.3,39.7 "/>
<path class="st1" d="M45.7,35.5L45.1,34l-0.5-0.1l0.6,1.4l-0.4,0l-0.6,0.9c-0.1-0.3-0.3-0.5-0.5-0.8l0.1-0.2l0.5,0.1l-0.7-1.5
	l-0.5-0.1l0.6,1.4l-0.3,0c-0.3-0.4-0.7-0.7-1.1-1c-2.6-1.8-7.2,0.5-7.6-5.4c-0.4-5.4-0.5-6.2-1.8-7l-0.3-2.6
	c-0.1-0.4-0.4-0.7-0.9-0.7l-4,0.5c-0.4,0-0.7,0.4-0.7,0.7c0.1,0,0.4,0.1,0.7,0.2l0-0.3c0-0.1,0-0.1,0.1-0.1c0.1,0,0.1,0,0.1,0.1
	l0,0.4c0.2,0.1,0.4,0.1,0.5,0.2l-0.1-0.6c0-0.1,0.1-0.2,0.1-0.2c0.1,0,0.2,0.1,0.2,0.1l0.1,0.8c0.2,0.1,0.3,0.1,0.5,0.2l-0.1-0.9
	c0-0.1,0.1-0.2,0.2-0.2c0.1,0,0.2,0.1,0.2,0.2l0.1,1.1c0.2,0.1,0.3,0.1,0.4,0.1L30,19.4c0-0.1,0.1-0.2,0.2-0.2
	c0.1,0,0.2,0.1,0.2,0.2l0.2,1.5c0.1,0,0.1,0,0.1,0c0.1,0.1,0.3,0.1,0.4,0.2l-0.2-1.9c0-0.1,0.1-0.2,0.1-0.2c0.1,0,0.2,0.1,0.2,0.1
	l0.3,2.5c0,0.1,0.1,0.3,0.1,0.4c0,0.1,0,0.3-0.1,0.4c0,0-0.7,1.9-0.8,2.3c0.2,0.3,0.2,0.6,0.2,0.9c0,1-0.6,2-1.1,3
	c-0.2,0.4-0.4,0.8-0.6,1.2c-0.8,2-1.2,3.2-1.2,4c0,0.4,0.1,0.8,0.3,1.1c0-0.5,0.1-0.9,0.2-1.1c0.5,0.2,2.1,0.7,2.8,0.8
	c0,0-0.1,1.6,0.1,2.7c0,0,0.3,0.2,0.5,0.4c1.7,0.1,3.8,0.5,5.2,1c2.1,0.7,5.6,1.1,7.5-0.3c0.3-0.2,0.2-0.9-0.2-1.9l0.8-1.2
	L45.7,35.5z M32.1,22c-0.1,0-0.1,0-0.1-0.1l-0.3-2.8c0-0.1,0-0.1,0.1-0.1c0.1,0,0.1,0,0.1,0.1l0.3,2.8C32.3,21.9,32.2,22,32.1,22
	 M44.1,38c-0.7,0.4-1.6,0.7-2.5,0.7c-0.2,0-0.3-0.1-0.4-0.2l-0.7-1.9c-0.1-0.2-0.1-0.3,0.1-0.4c0,0,1.4-0.6,1.6-0.7
	c0.2-0.1,0.4-0.2,0.5,0C43.7,36.5,44.1,37.6,44.1,38L44.1,38z"/>
<path class="st0" d="M31.8,19c-0.1,0-0.1,0.1-0.1,0.1l0.3,2.8c0,0.1,0.1,0.1,0.1,0.1c0.1,0,0.1-0.1,0.1-0.1l-0.3-2.8
	C31.9,19,31.8,19,31.8,19"/>
<path class="st1" d="M31.4,38c-0.2-0.2-1.3-1.1-2.9-2.2c-1.6-1.1-1.2-2.7,0.2-6.1c0.7-1.6,2.3-3.5,1.4-4.8l0.9-2.5
	c0.1-0.4-0.1-0.9-0.5-1L26.8,20c-0.4-0.1-0.9,0.1-1,0.5L24.9,23c-0.7,0.1-1.3,1.2-2,3.5c-1,3.2-1.6,5.8-3.1,7.3
	c-2,2.2-2.3,5.1,2.1,5.9c1,0.2,2.1,0.7,3.3,1.4L24.2,41l-0.3,0.4l1.5,0.1l-0.2,0.4l0.8,1.4l0.3-0.5l-0.7-1.4l0.1-0.2
	c1.4,0.9,2.9,1.9,4.2,2.4c0.6,0.3,1.6,0.8,4.8,0C35.3,43.6,35.1,40.6,31.4,38 M21.6,38.9c-1.4-0.3-2.2-0.9-2.5-1.6
	c-0.3-0.8,0.1-1.8,0.9-2.8c1,0.4,1.8,0.8,2.4,1.2C22,36.6,21.7,37.7,21.6,38.9 M30.3,21.9c0.1,0,0.1,0.1,0.1,0.2l-0.9,2.6
	c0,0.1-0.1,0.1-0.2,0.1c-0.1,0-0.1-0.1-0.1-0.2l0.9-2.6C30.2,21.9,30.3,21.9,30.3,21.9 M29.6,21.6c0.1,0,0.1,0.1,0.1,0.2l-0.9,2.6
	c0,0.1-0.1,0.1-0.2,0.1c-0.1,0-0.1-0.1-0.1-0.2l0.9-2.6C29.4,21.7,29.5,21.6,29.6,21.6 M28.8,21.4c0.1,0,0.2,0.1,0.1,0.2l-0.9,2.5
	c0,0.1-0.1,0.2-0.2,0.1c-0.1,0-0.2-0.1-0.1-0.2l0.9-2.5C28.6,21.4,28.7,21.3,28.8,21.4 M25.6,23.4c-0.1,0-0.1-0.1-0.1-0.2l0.9-2.6
	c0-0.1,0.1-0.1,0.2-0.1c0.1,0,0.1,0.1,0.1,0.2l-0.9,2.6C25.7,23.4,25.6,23.5,25.6,23.4 M26.3,23.7c-0.1,0-0.1-0.1-0.1-0.2l0.9-2.6
	c0-0.1,0.1-0.1,0.2-0.1c0.1,0,0.1,0.1,0.1,0.2l-0.9,2.6C26.5,23.7,26.4,23.7,26.3,23.7 M27.1,24c-0.1,0-0.2-0.1-0.1-0.2l0.9-2.5
	c0-0.1,0.1-0.2,0.3-0.1c0.1,0,0.2,0.1,0.1,0.2l-0.9,2.5C27.3,23.9,27.2,24,27.1,24 M34.3,43.1C34.3,43.1,34.3,43.1,34.3,43.1
	c-1.2,0.3-2,0.4-2.6,0.4c-0.2,0-0.4-0.1-0.4-0.3l-0.2-2c0-0.2,0.1-0.4,0.3-0.4c0.6,0,1.3-0.1,1.5-0.1c0.3-0.1,0.4-0.1,0.4,0
	C34,41.7,34.3,42.6,34.3,43.1"/>
<path class="st0" d="M42.2,35.5c-0.2,0.1-1.6,0.7-1.6,0.7c-0.2,0.1-0.2,0.2-0.1,0.4l0.7,1.9c0,0.2,0.2,0.2,0.4,0.2
	c1-0.1,1.8-0.3,2.5-0.7v0c0-0.4-0.4-1.5-1.3-2.5C42.6,35.3,42.4,35.4,42.2,35.5"/>
<path class="st0" d="M19.2,37.3c0.3,0.8,1.1,1.3,2.5,1.6c0.1-1.2,0.4-2.4,0.8-3.3c-0.6-0.4-1.4-0.8-2.4-1.2
	C19.3,35.5,18.9,36.5,19.2,37.3"/>
<path class="st0" d="M32.8,40.7c-0.2,0.1-0.9,0.1-1.5,0.1c-0.2,0-0.3,0.2-0.3,0.4l0.2,2c0,0.3,0.2,0.4,0.4,0.3
	c0.6,0,1.4-0.1,2.6-0.4c0,0,0,0,0-0.1c0-0.4-0.2-1.3-1-2.4C33.2,40.6,33.1,40.6,32.8,40.7"/>
<path class="st0" d="M26.6,20.6c-0.1,0-0.1,0-0.2,0.1l-0.9,2.6c0,0.1,0,0.1,0.1,0.2c0.1,0,0.1,0,0.2-0.1l0.9-2.6
	C26.7,20.7,26.7,20.6,26.6,20.6"/>
<path class="st0" d="M27.3,20.8c-0.1,0-0.2,0-0.2,0.1l-0.9,2.6c0,0.1,0,0.2,0.1,0.2c0.1,0,0.2,0,0.2-0.1l0.9-2.6
	C27.5,21,27.4,20.9,27.3,20.8"/>
<path class="st0" d="M28.1,21.1c-0.1,0-0.2,0-0.3,0.1l-0.9,2.5c0,0.1,0,0.2,0.1,0.2c0.1,0,0.2,0,0.2-0.1l0.9-2.5
	C28.2,21.3,28.2,21.1,28.1,21.1"/>
<path class="st0" d="M29.3,24.8c0.1,0,0.1,0,0.2-0.1l0.9-2.6c0-0.1,0-0.1-0.1-0.2c-0.1,0-0.1,0-0.2,0.1l-0.9,2.6
	C29.2,24.7,29.2,24.7,29.3,24.8"/>
<path class="st0" d="M28.6,24.5c0.1,0,0.2,0,0.2-0.1l0.9-2.6c0-0.1,0-0.2-0.1-0.2c-0.1,0-0.2,0-0.2,0.1l-0.9,2.6
	C28.4,24.4,28.5,24.5,28.6,24.5"/>
<path class="st0" d="M27.8,24.2c0.1,0,0.2,0,0.2-0.1l0.9-2.5c0-0.1,0-0.2-0.1-0.2c-0.1,0-0.2,0-0.2,0.1L27.7,24
	C27.7,24.1,27.7,24.2,27.8,24.2"/>
</svg>
