<?xml version="1.0" encoding="UTF-8"?>
<svg width="579px" height="563px" viewBox="0 0 579 563" version="1.1" xmlns="http://www.w3.org/2000/svg" xmlns:xlink="http://www.w3.org/1999/xlink">
    <!-- Generator: Sketch 51.2 (57519) - http://www.bohemiancoding.com/sketch -->
    <title>steam_icon</title>
    <desc>Created with Sketch.</desc>
    <defs></defs>
    <g id="Page-1" stroke="none" stroke-width="1" fill="none" fill-rule="evenodd">
        <g id="steam_icon" fill="#DFDFDF" fill-rule="nonzero">
            <path d="M507.449,293.556 L507.449,189.006 C507.449,172.431 493.426,158.406 476.849,158.406 C460.275,158.406 446.249,172.431 446.249,189.006 L446.249,293.556 L336.6,293.556 L336.6,241.281 C336.6,189.006 294.526,146.931 242.25,146.931 L17.85,146.931 C7.65,146.931 0,154.581 0,164.781 C0,174.981 7.65,182.631 17.85,182.631 L54.825,182.631 L54.825,293.556 L54.825,427.431 L17.85,427.431 C7.65,427.431 0,435.081 0,445.281 C0,455.481 7.65,463.132 17.85,463.132 L53.55,463.132 L493.426,463.132 C540.6,463.132 578.85,424.882 578.85,377.707 C580.125,335.631 548.25,299.931 507.449,293.556 Z M91.8,182.631 L240.975,182.631 C272.85,182.631 298.35,208.131 298.35,240.006 L298.35,293.556 L91.8,293.556 L91.8,182.631 Z" id="Shape"></path>
            <path d="M263.925,70.431 C266.475,70.431 269.025,70.431 270.3,69.156 C270.3,71.706 270.3,72.981 270.3,75.531 C270.3,98.481 289.425,117.606 312.375,117.606 C323.85,117.606 335.324,112.506 342.975,104.856 C342.975,106.131 342.975,108.681 342.975,109.956 C342.975,134.181 362.1,153.306 386.325,153.306 C401.626,153.306 415.651,144.381 423.302,132.906 C428.402,136.731 434.777,139.281 441.152,139.281 C457.726,139.281 470.476,126.531 470.476,109.956 C470.476,106.131 469.201,102.306 467.927,98.481 C478.126,89.556 484.501,76.806 484.501,62.781 C484.501,36.006 462.825,14.331 436.052,14.331 C424.575,14.331 414.376,18.156 406.726,24.531 C399.076,11.781 385.052,2.856 369.751,2.856 C358.276,2.856 348.075,6.681 341.7,14.331 C334.052,4.131 326.401,0.306 317.475,0.306 C306,0.306 297.075,7.956 294.526,18.156 C288.151,6.681 276.675,0.306 263.925,0.306 C244.8,0.306 228.225,15.606 228.225,36.006 C229.5,53.855 244.8,70.431 263.925,70.431 Z" id="Shape"></path>
            <circle id="Oval" cx="147.9" cy="521.781" r="40.8"></circle>
            <circle id="Oval" cx="257.55" cy="521.781" r="40.8"></circle>
            <circle id="Oval" cx="367.199" cy="521.781" r="40.8"></circle>
            <circle id="Oval" cx="476.85" cy="521.781" r="40.8"></circle>
        </g>
    </g>
</svg>