<?xml version="1.0" encoding="iso-8859-1"?>
<!-- Generator: Adobe Illustrator 16.0.0, SVG Export Plug-In . SVG Version: 6.00 Build 0)  -->
<!DOCTYPE svg PUBLIC "-//W3C//DTD SVG 1.1//EN" "http://www.w3.org/Graphics/SVG/1.1/DTD/svg11.dtd">
<svg xmlns="http://www.w3.org/2000/svg" xmlns:xlink="http://www.w3.org/1999/xlink" version="1.1" id="Capa_1" x="0px" y="0px" width="512px" height="512px" viewBox="0 0 578.887 578.887" style="enable-background:new 0 0 578.887 578.887;" xml:space="preserve">
<g>
	<g id="Layer_1_115_">
		<g>
			<path d="M507.449,301.556v-104.55c0-16.575-14.023-30.6-30.6-30.6c-16.574,0-30.6,14.025-30.6,30.6v104.55H336.6v-52.275     c0-52.275-42.074-94.35-94.35-94.35H17.85c-10.2,0-17.85,7.65-17.85,17.85c0,10.2,7.65,17.85,17.85,17.85h36.975v110.925l0,0     v133.875H17.85c-10.2,0-17.85,7.65-17.85,17.85c0,10.2,7.65,17.851,17.85,17.851h35.7h439.876     c47.174,0,85.424-38.25,85.424-85.425C580.125,343.631,548.25,307.931,507.449,301.556z M91.8,190.631h149.175     c31.875,0,57.375,25.5,57.375,57.375v53.55H91.8V190.631z" fill="#FFFFFF"/>
			<path d="M263.925,78.431c2.55,0,5.1,0,6.375-1.275c0,2.55,0,3.825,0,6.375c0,22.95,19.125,42.075,42.075,42.075     c11.475,0,22.949-5.1,30.6-12.75c0,1.275,0,3.825,0,5.1c0,24.225,19.125,43.35,43.35,43.35c15.301,0,29.326-8.925,36.977-20.4     c5.1,3.825,11.475,6.375,17.85,6.375c16.574,0,29.324-12.75,29.324-29.325c0-3.825-1.275-7.65-2.549-11.475     c10.199-8.925,16.574-21.675,16.574-35.7c0-26.775-21.676-48.45-48.449-48.45c-11.477,0-21.676,3.825-29.326,10.2     c-7.65-12.75-21.674-21.675-36.975-21.675c-11.475,0-21.676,3.825-28.051,11.475c-7.648-10.2-15.299-14.025-24.225-14.025     c-11.475,0-20.4,7.65-22.949,17.85c-6.375-11.475-17.851-17.85-30.601-17.85c-19.125,0-35.7,15.3-35.7,35.7     C229.5,61.855,244.8,78.431,263.925,78.431z" fill="#FFFFFF"/>
			<circle cx="147.9" cy="529.781" r="40.8" fill="#FFFFFF"/>
			<circle cx="257.55" cy="529.781" r="40.8" fill="#FFFFFF"/>
			<circle cx="367.199" cy="529.781" r="40.8" fill="#FFFFFF"/>
			<circle cx="476.85" cy="529.781" r="40.8" fill="#FFFFFF"/>
		</g>
	</g>
</g>
<g>
</g>
<g>
</g>
<g>
</g>
<g>
</g>
<g>
</g>
<g>
</g>
<g>
</g>
<g>
</g>
<g>
</g>
<g>
</g>
<g>
</g>
<g>
</g>
<g>
</g>
<g>
</g>
<g>
</g>
</svg>
