<?xml version="1.0" encoding="UTF-8"?>
<svg width="36px" height="35px" viewBox="0 0 36 35" version="1.1" xmlns="http://www.w3.org/2000/svg" xmlns:xlink="http://www.w3.org/1999/xlink">
    <!-- Generator: Sketch 52.3 (67297) - http://www.bohemiancoding.com/sketch -->
    <title>Artboard</title>
    <desc>Created with Sketch.</desc>
    <g id="Artboard" stroke="none" stroke-width="1" fill="none" fill-rule="evenodd">
        <g id="logo_kubernetes" transform="translate(2.000000, 2.000000)" fill="#019B8F" fill-rule="nonzero">
            <path d="M15.89,0.003 C16.245,-0.015 16.6,0.056 16.92,0.209 L28.047,5.513 C28.6281564,5.78908533 29.0515882,6.31524547 29.197,6.942 L31.947,18.863 C32.090989,19.4890669 31.9390587,20.1465711 31.535,20.646 L23.838,30.206 C23.434,30.706 22.822,30.998 22.175,30.997 L9.827,31 C9.179,31 8.567,30.708 8.163,30.207 L0.463,20.649 C0.0619686756,20.1481016 -0.0889571414,19.4917583 0.053,18.866 L2.798,6.945 C2.94335542,6.31767018 3.36722386,5.79105692 3.949,5.515 L15.074,0.21 C15.329,0.088 15.606,0.018 15.889,0.004 L15.89,0.003 Z M16,4.06 C15.632,4.06 15.333,4.39 15.333,4.798 L15.335,4.817 C15.335,4.872 15.332,4.939 15.333,4.987 C15.343,5.223 15.393,5.403 15.424,5.619 C15.481,6.083 15.527,6.468 15.498,6.825 C15.47,6.96 15.371,7.083 15.282,7.169 L15.267,7.45 C13.1488282,7.61917133 11.1690646,8.56931532 9.712,10.116 C9.638,10.066 9.51,9.974 9.472,9.946 C9.352,9.962 9.232,9.999 9.076,9.908 C8.778,9.708 8.506,9.431 8.178,9.098 C8.028,8.938 7.918,8.788 7.74,8.634 C7.7,8.599 7.637,8.552 7.592,8.516 C7.46001901,8.40956255 7.29739791,8.34822916 7.128,8.341 C6.92418137,8.33031952 6.72742767,8.41718813 6.598,8.575 C6.368,8.863 6.442,9.301 6.761,9.555 L6.771,9.563 C6.815,9.598 6.869,9.643 6.909,9.673 C7.099,9.813 7.272,9.885 7.461,9.996 C7.859,10.242 8.19,10.446 8.451,10.691 C8.554,10.799 8.571,10.991 8.585,11.074 L8.799,11.264 C7.62111057,13.0270361 7.13671871,15.1633467 7.439,17.262 L7.161,17.342 C7.087,17.438 6.984,17.587 6.875,17.632 C6.532,17.739 6.147,17.779 5.681,17.827 C5.463,17.845 5.274,17.835 5.042,17.878 C4.992,17.888 4.92,17.907 4.865,17.92 L4.859,17.921 L4.849,17.924 C4.456,18.019 4.204,18.379 4.285,18.734 C4.367,19.089 4.75,19.304 5.145,19.219 L5.155,19.218 L5.168,19.214 C5.223,19.202 5.292,19.188 5.34,19.175 C5.568,19.115 5.733,19.025 5.937,18.947 C6.377,18.789 6.743,18.657 7.098,18.606 C7.247,18.594 7.403,18.697 7.481,18.741 L7.771,18.691 C8.4232559,20.7021758 9.78920911,22.404993 11.611,23.478 L11.491,23.768 C11.534,23.881 11.582,24.033 11.55,24.144 C11.42,24.478 11.2,24.832 10.947,25.225 C10.825,25.407 10.7,25.549 10.59,25.757 C10.564,25.807 10.53,25.883 10.504,25.936 C10.334,26.301 10.459,26.722 10.788,26.88 C11.118,27.04 11.529,26.872 11.707,26.505 L11.708,26.504 L11.708,26.502 C11.733,26.451 11.769,26.382 11.791,26.333 C11.885,26.118 11.916,25.933 11.983,25.724 C12.159,25.282 12.256,24.819 12.498,24.53 C12.565,24.45 12.673,24.42 12.785,24.39 L12.936,24.117 C14.9127445,24.8774261 17.1003224,24.8831219 19.081,24.133 L19.223,24.389 C19.337,24.426 19.462,24.445 19.563,24.595 C19.745,24.905 19.869,25.27 20.02,25.713 C20.086,25.921 20.12,26.106 20.214,26.323 C20.235,26.371 20.271,26.44 20.296,26.493 C20.473,26.86 20.886,27.028 21.216,26.869 C21.546,26.711 21.671,26.289 21.5,25.924 C21.474,25.872 21.44,25.795 21.413,25.745 C21.303,25.537 21.178,25.397 21.056,25.215 C20.804,24.822 20.595,24.495 20.466,24.16 C20.411,23.987 20.475,23.88 20.516,23.768 C20.491,23.739 20.437,23.576 20.406,23.5 C22.2337103,22.418099 23.5997356,20.7018474 24.244,18.678 C24.33,18.692 24.48,18.718 24.529,18.728 C24.629,18.662 24.721,18.576 24.902,18.59 C25.257,18.642 25.622,18.773 26.062,18.931 C26.267,19.009 26.432,19.101 26.66,19.161 C26.708,19.174 26.777,19.186 26.832,19.198 L26.845,19.202 L26.855,19.204 C27.25,19.289 27.633,19.073 27.715,18.718 C27.795,18.363 27.544,18.003 27.151,17.908 C27.094,17.895 27.013,17.873 26.958,17.863 C26.726,17.819 26.538,17.83 26.318,17.812 C25.853,17.763 25.468,17.723 25.125,17.616 C24.985,17.562 24.886,17.396 24.838,17.327 L24.568,17.249 C24.7111381,16.2145047 24.664031,15.1625605 24.429,14.145 C24.1935215,13.1166329 23.7708162,12.1403768 23.182,11.265 C23.25,11.203 23.381,11.088 23.418,11.055 C23.428,10.935 23.419,10.81 23.543,10.678 C23.805,10.432 24.135,10.228 24.533,9.983 C24.723,9.873 24.897,9.801 25.087,9.661 C25.13,9.629 25.188,9.579 25.233,9.543 C25.553,9.288 25.626,8.85 25.397,8.563 C25.167,8.276 24.723,8.249 24.404,8.503 C24.358,8.539 24.297,8.586 24.256,8.621 C24.077,8.774 23.966,8.926 23.816,9.085 C23.488,9.418 23.216,9.696 22.918,9.897 C22.789,9.972 22.6,9.946 22.514,9.941 L22.261,10.121 C20.8016235,8.5927164 18.8375523,7.64549968 16.733,7.455 C16.7270821,7.35604849 16.7220819,7.25704423 16.718,7.158 C16.631,7.075 16.526,7.004 16.5,6.825 C16.471,6.468 16.52,6.083 16.576,5.619 C16.606,5.403 16.658,5.223 16.666,4.987 C16.669,4.934 16.666,4.857 16.666,4.798 C16.666,4.39 16.367,4.06 15.999,4.06 L16,4.06 Z M15.166,9.216 L14.968,12.704 L14.954,12.711 C14.9446009,12.9270623 14.8171593,13.1204553 14.6223238,13.2143191 C14.4274884,13.308183 14.1968228,13.2873117 14.022,13.16 L14.016,13.162 L11.152,11.135 C12.2397407,10.0672868 13.652007,9.3921151 15.166,9.216 Z M16.834,9.216 C18.3383471,9.40187001 19.7400963,10.0763959 20.824,11.136 L17.978,13.151 L17.968,13.147 C17.7931441,13.2740593 17.5626752,13.2949426 17.3678285,13.2013828 C17.1729819,13.107823 17.045174,12.9149054 17.035,12.699 L17.032,12.698 L16.834,9.216 Z M10.114,12.438 L12.728,14.773 L12.725,14.787 C12.8890864,14.9284544 12.9615644,15.1490082 12.9133708,15.3602215 C12.8651773,15.5714349 12.7042042,15.7387211 12.495,15.795 L12.492,15.805 L9.14,16.772 C8.97300409,15.2593093 9.31541113,13.7341376 10.113,12.438 L10.114,12.438 Z M21.867,12.439 C22.255,13.069 22.55,13.77 22.725,14.532 C22.8938985,15.2622193 22.9428715,16.0150532 22.87,16.761 L19.5,15.791 L19.498,15.778 C19.2892722,15.7211297 19.1288563,15.5538859 19.0807307,15.3429702 C19.0326051,15.1320545 19.1045993,14.9117806 19.268,14.77 L19.266,14.763 L21.866,12.439 L21.867,12.439 Z M15.463,14.954 L16.534,14.954 L17.2,15.784 L16.961,16.822 L15.999,17.283 L15.035,16.82 L14.795,15.783 L15.463,14.953 L15.463,14.954 Z M18.898,17.798 C18.9432354,17.796098 18.9885386,17.7994538 19.033,17.808 L19.038,17.8 L22.506,18.386 C21.9935575,19.8227742 21.0167207,21.047691 19.73,21.867 L18.384,18.621 L18.388,18.616 C18.3116098,18.439412 18.3267713,18.2365751 18.4285651,18.0733059 C18.5303589,17.9100367 18.7058144,17.8071386 18.898,17.798 Z M13.074,17.812 C13.2692904,17.8153365 13.4501295,17.9155912 13.556428,18.0794512 C13.6627265,18.2433113 13.6805589,18.4493108 13.604,18.629 L13.614,18.641 L12.283,21.855 C11.0050452,21.0384762 10.0323836,19.8229129 9.516,18.397 L12.953,17.815 L12.959,17.822 C12.9969186,17.8149473 13.0354332,17.8115982 13.074,17.812 Z M15.978,19.219 C16.0731117,19.2158883 16.1675354,19.2361465 16.253,19.278 C16.3650285,19.3312349 16.4571592,19.4188117 16.516,19.528 L16.529,19.528 L18.223,22.585 C18.003,22.658 17.777,22.721 17.546,22.774 C16.2995714,23.0589699 14.998459,22.9918023 13.788,22.58 L15.478,19.53 L15.481,19.53 C15.5797446,19.345631 15.7689909,19.2275901 15.978,19.22 L15.978,19.219 Z" id="Shape"></path>
        </g>
    </g>
</svg>