<?xml version="1.0" encoding="iso-8859-1"?>
<!-- Generator: Adobe Illustrator 19.0.0, SVG Export Plug-In . SVG Version: 6.00 Build 0)  -->
<svg version="1.1" id="Capa_1" xmlns="http://www.w3.org/2000/svg" xmlns:xlink="http://www.w3.org/1999/xlink" x="0px" y="0px"
	 viewBox="0 0 512 512" style="enable-background:new 0 0 512 512;" xml:space="preserve">
<g>
	<g>
		<path d="M163.273,419.871H121.32c-4.082,0-7.391,3.309-7.391,7.391c0,4.082,3.309,7.391,7.391,7.391h41.953
			c4.082,0,7.391-3.309,7.391-7.391C170.664,423.18,167.355,419.871,163.273,419.871z"/>
	</g>
</g>
<g>
	<g>
		<path d="M281.062,413.235h-56.029c-4.082,0-7.391,3.309-7.391,7.391c0,4.082,3.309,7.391,7.391,7.391h56.029
			c4.082,0,7.391-3.309,7.391-7.391C288.453,416.544,285.144,413.235,281.062,413.235z"/>
	</g>
</g>
<g>
	<g>
		<path d="M281.062,436.414h-56.029c-4.082,0-7.391,3.309-7.391,7.391c0,4.082,3.309,7.391,7.391,7.391h56.029
			c4.082,0,7.391-3.309,7.391-7.391C288.453,439.723,285.144,436.414,281.062,436.414z"/>
	</g>
</g>
<g>
	<g>
		<path d="M406.364,429.873h-77.487c-4.082,0-7.391,3.309-7.391,7.391c0,4.082,3.309,7.391,7.391,7.391h77.487
			c4.082,0,7.391-3.309,7.391-7.391S410.446,429.873,406.364,429.873z"/>
	</g>
</g>
<g>
	<g>
		<path d="M142.297,294.137c-17.994,0-32.632,14.638-32.632,32.632c0,17.993,14.638,32.632,32.632,32.632
			c17.993,0,32.632-14.638,32.632-32.632C174.929,308.775,160.29,294.137,142.297,294.137z M142.297,344.617
			c-9.842,0-17.849-8.007-17.849-17.849c0-9.842,8.007-17.849,17.849-17.849s17.849,8.007,17.849,17.849
			C160.146,336.611,152.139,344.617,142.297,344.617z"/>
	</g>
</g>
<g>
	<g>
		<path d="M288.326,194.126c-22.744-9.592-47.797-9.602-70.545-0.025c-7.375,3.105-12.109,10.569-11.779,18.573l0.587,14.249
			c0.155,3.785,2.345,7.21,5.714,8.939c3.372,1.73,7.436,1.511,10.605-0.571c19.436-12.772,40.841-12.763,60.273,0.025
			c1.75,1.152,3.773,1.735,5.802,1.735c1.645,0,3.294-0.384,4.805-1.158c3.371-1.729,5.562-5.154,5.719-8.941l0.587-14.258
			C300.423,204.696,295.694,197.234,288.326,194.126z M285.029,219.232c-10.327-5.515-21.164-8.272-32.004-8.272
			c-10.822,0-21.646,2.749-31.959,8.247l-0.294-7.142c-0.077-1.872,1.026-3.617,2.745-4.341c19.321-8.135,39.745-8.127,59.064,0.022
			c1.717,0.724,2.819,2.468,2.742,4.34L285.029,219.232z"/>
	</g>
</g>
<g>
	<g>
		<path d="M291.127,264.307c-2.311-2.355-5.4-3.651-8.699-3.651h-58.76c-3.299,0-6.388,1.296-8.699,3.65
			c-2.311,2.354-3.55,5.466-3.489,8.763l0.824,44.932c0.121,6.598,5.589,11.966,12.188,11.966h57.112
			c6.599,0,12.066-5.368,12.188-11.966l0.824-44.93C294.677,269.773,293.438,266.661,291.127,264.307z M279.058,315.184h-52.021
			l-0.729-39.745h53.479L279.058,315.184z"/>
	</g>
</g>
<g>
	<g>
		<path d="M367.62,345.698c-25.089,0-44.742,14.494-44.742,32.997c0.001,18.503,19.653,32.997,44.742,32.997
			s44.742-14.494,44.742-32.997C412.362,360.192,392.709,345.698,367.62,345.698z M367.62,396.908
			c-16.24,0-29.959-8.341-29.959-18.214c0.001-9.873,13.72-18.214,29.959-18.214s29.959,8.341,29.959,18.214
			S383.86,396.908,367.62,396.908z"/>
	</g>
</g>
<g>
	<g>
		<path d="M437.616,232.5l-32.672-26.014c1.635-4.971,3.05-12.873,3.05-25.333c0-18.826-3.835-34.84-7.195-45.259
			c2.077-2.069,3.365-4.929,3.365-8.084V83.838c0-6.295-5.122-11.416-11.416-11.416h-50.254c-6.295,0-11.416,5.122-11.416,11.416
			v43.972c0,3.156,1.288,6.016,3.365,8.084c-3.36,10.419-7.195,26.433-7.195,45.259c0,12.461,1.416,20.363,3.05,25.333l-6.109,4.864
			l0.601-34.584c0.231-6.284-2.144-12.467-6.527-16.978l-28.571-29.411c-2.905-2.991-4.505-6.933-4.505-11.102v-12.303
			c1.656-1.99,2.654-4.546,2.654-7.332V11.483C287.842,5.151,282.691,0,276.36,0h-46.624c-6.332,0-11.483,5.151-11.483,11.483
			v88.156c0,2.786,0.998,5.341,2.654,7.332v12.304c0,4.169-1.6,8.111-4.504,11.102l-28.572,29.412
			c-4.383,4.512-6.758,10.696-6.526,16.98l1.002,57.659c-7.73-3.431-13.131-10.954-13.657-19.669
			c3.118-1.993,5.195-5.478,5.195-9.445v-37.536c0-6.182-5.03-11.211-11.212-11.211h-40.677c-6.182,0-11.212,5.029-11.212,11.211
			v37.536c0,3.967,2.077,7.451,5.195,9.445c-0.663,10.995-9.087,20.109-20.144,21.481c-0.002,0-0.004,0-0.006,0.001
			c-19.214,2.377-33.703,18.769-33.703,38.129v23.103c0,4.082,3.309,7.391,7.391,7.391c4.082,0,7.391-3.309,7.391-7.391V274.37
			c0-11.886,8.878-21.954,20.662-23.449c0.724-0.057,2.574-0.107,5.27-0.15c0.008,0,0.017,0,0.025,0
			c0.658-0.01,1.367-0.02,2.121-0.03c0.252-0.003,0.517-0.006,0.78-0.009c0.142-0.002,0.278-0.003,0.423-0.005
			c0.208-0.002,0.427-0.005,0.642-0.007c0.212-0.002,0.418-0.005,0.636-0.007c17.355-0.178,52.359-0.179,69.72,0
			c0.293,0.003,0.573,0.006,0.856,0.009c0.139,0.002,0.284,0.003,0.421,0.005c0.219,0.003,0.426,0.005,0.639,0.008
			c0.188,0.002,0.382,0.004,0.565,0.007c1.088,0.014,2.076,0.029,2.96,0.044l0.399,22.959H99.973
			c-9.463,0-17.161,7.698-17.161,17.161V443.36c0,7.949,6.467,14.415,14.415,14.415h88.818c-0.114,0.368-0.292,0.678-0.526,0.848
			c-3.712,2.689-5.854,7.038-5.73,11.632l0.653,24.137c0.026,0.968,0.147,1.908,0.315,2.829H83.15c-3.462,0-6.278-2.817-6.278-6.278
			V331.896c0-4.082-3.309-7.391-7.391-7.391c-4.082,0-7.391,3.309-7.391,7.391v159.043c0,11.613,9.448,21.061,21.061,21.061h344.43
			c0.011,0,0,0,0.011,0c12.308,0,22.322-10.014,22.322-22.322V258.011C449.913,248.021,445.431,238.723,437.616,232.5z
			 M125.529,171.348h33.535v30.393h-33.535V171.348z M132.682,235.804c-0.018,0-0.036,0-0.054,0
			c-3.144,0.006-6.225,0.016-9.187,0.028c-0.021,0-0.043,0-0.064,0c4.078-5.514,6.685-12.153,7.281-19.309h23.277
			c0.596,7.156,3.203,13.795,7.281,19.309C152.261,235.795,142.197,235.785,132.682,235.804z M97.595,290.902
			c0-1.311,1.067-2.378,2.378-2.378h83.276l1.335,76.804H97.595V290.902z M97.595,380.111h87.246l0.204,11.718h-87.45V380.111z
			 M97.595,442.988L97.595,442.988v-36.377h87.706l0.632,36.377H97.595z M233.036,14.783h40.023v11.418h-40.023V14.783z
			 M233.036,40.984h40.023v55.354h-40.023V40.984z M310.877,493.989c-0.049,1.81-1.505,3.227-3.316,3.228c-0.001,0-0.002,0-0.003,0
			H198.536c-1.811,0-3.268-1.418-3.317-3.228l-0.64-23.687c4.096-3.164,6.472-8.232,6.378-13.657l-4.87-280.214
			c0-0.019-0.005-0.157-0.005-0.176c-0.094-2.281,0.765-4.529,2.355-6.166l28.572-29.412c5.599-5.764,8.683-13.365,8.683-21.402
			v-8.153h34.714v8.153c0,8.037,3.084,15.637,8.684,21.402l28.572,29.412c1.591,1.638,2.449,3.885,2.356,6.167
			c0,0.004-0.005,0.171-0.005,0.175l-4.871,280.214c-0.094,5.425,2.282,10.492,6.378,13.657L310.877,493.989z M345.86,87.204h43.521
			v11.373H345.86V87.204z M345.86,112.279h43.521v12.164H345.86V112.279z M348.904,139.226h37.434
			c2.522,7.548,5.481,18.813,6.504,32.262h-50.441C343.423,158.039,346.382,146.774,348.904,139.226z M427.59,497.218H325.339
			c0.168-0.922,0.289-1.861,0.315-2.829l0.371-13.733h109.104v9.022h0.001C435.13,493.835,431.748,497.218,427.59,497.218z
			 M435.133,265.617h-0.003h-64.792c-4.082,0-7.391,3.309-7.391,7.391c0,4.082,3.309,7.391,7.391,7.391h64.792v185.472H325.701
			c-0.865-2.878-2.629-5.444-5.124-7.253c-0.405-0.295-0.669-0.985-0.656-1.717l2.153-123.85c2.495,2.454,5.847,3.81,9.289,3.809
			c1.802,0,3.627-0.37,5.365-1.145c21.077-9.403,40.71-9.402,61.785,0c0,0,0,0,0.001,0c6.129,2.732,13.341,0.427,16.774-5.365
			l5.693-9.603c1.909-3.221,2.368-7.12,1.257-10.697c-1.114-3.586-3.707-6.547-7.116-8.125c-30.682-14.2-61.784-14.571-92.487-1.127
			l0.355-20.399h12.664c4.082,0,7.391-3.309,7.391-7.391c0-4.082-3.309-7.391-7.391-7.391h-12.407l0.61-35.106l20.226-16.103
			c1.643-1.308,2.652-3.254,2.775-5.351c0.109-1.862-0.49-3.686-1.661-5.115c-0.341-0.6-2.577-5-3.068-17.671h50.987
			c-0.491,12.671-2.727,17.071-3.068,17.671c-1.171,1.429-1.77,3.253-1.661,5.115c0.123,2.097,1.132,4.043,2.775,5.351
			l37.248,29.657c4.272,3.402,6.723,8.485,6.723,13.946V265.617z M403.258,321.654c-23.965-10.335-47.308-10.336-71.274,0
			l-4.149-6.998c26.41-11.768,53.163-11.768,79.571,0L403.258,321.654z"/>
	</g>
</g>
<g>
</g>
<g>
</g>
<g>
</g>
<g>
</g>
<g>
</g>
<g>
</g>
<g>
</g>
<g>
</g>
<g>
</g>
<g>
</g>
<g>
</g>
<g>
</g>
<g>
</g>
<g>
</g>
<g>
</g>
</svg>
