<?xml version="1.0" encoding="iso-8859-1"?>
<!-- Generator: Adobe Illustrator 19.0.0, SVG Export Plug-In . SVG Version: 6.00 Build 0)  -->
<svg version="1.1" id="Capa_1" xmlns="http://www.w3.org/2000/svg" xmlns:xlink="http://www.w3.org/1999/xlink" x="0px" y="0px"
	 viewBox="0 0 512 512" style="enable-background:new 0 0 512 512;" xml:space="preserve">
<path style="fill:#FD9727;" d="M399.916,207.217c0,0,4.982-5.02,4.982-28.29c0-33.772-12.474-58.119-12.474-58.119h-42.976
	c0,0-12.474,24.346-12.474,58.119c0,23.269,4.982,28.29,4.982,28.29l-38.355,30.539c-6.188,4.927-9.793,12.405-9.793,20.315v238.554
	c0,8.491,6.884,15.375,15.375,15.375h123.506c8.491,0,15.375-6.884,15.375-15.375V258.071c0-7.91-3.605-15.388-9.793-20.315
	L399.916,207.217z"/>
<path style="fill:#E57F23;" d="M438.271,237.756l-38.355-30.539c0,0,4.982-5.02,4.982-28.29c0-33.772-12.474-58.119-12.474-58.119
	h-32.237c-1.069,17.974-2.621,39.896-3.966,58.078c-1.677,22.673,7.966,44.707,25.752,58.869l0,0
	c6.188,4.927,9.793,12.405,9.793,20.315v238.554c0,8.491-6.884,15.375-15.375,15.375h56.298c8.491,0,15.375-6.884,15.375-15.375
	V258.071C448.064,250.161,444.459,242.683,438.271,237.756z"/>
<g>
	<rect x="293.808" y="273.51" style="fill:#4A4256;" width="154.26" height="206.21"/>
	<path style="fill:#4A4256;" d="M404.872,176.586c-0.555-32.548-12.448-55.777-12.448-55.777h-42.976
		c0,0-11.893,23.23-12.448,55.777H404.872z"/>
</g>
<path style="fill:#77D057;" d="M158.374,212.101v-50.882h-38.922v50.882c0,15.821-11.791,29.161-27.492,31.103l0,0
	c-16.007,1.98-28.028,15.58-28.028,31.709v223.01c0,7.774,6.302,14.076,14.076,14.076h121.809c7.774,0,14.076-6.302,14.076-14.076
	v-223.01c0-16.129-12.021-29.729-28.028-31.709l0,0C170.165,241.262,158.374,227.922,158.374,212.101z"/>
<path style="fill:#68B543;" d="M185.866,243.204L185.866,243.204c-15.701-1.942-27.492-15.282-27.492-31.103v-50.882h-27.309
	v336.704c0,7.774-6.302,14.076-14.076,14.076h82.829c7.774,0,14.076-6.302,14.076-14.076v-223.01
	C213.894,258.784,201.873,245.184,185.866,243.204z"/>
<path style="fill:#602952;" d="M159.856,207.739H117.97c-2.173,0-3.934-1.761-3.934-3.934v-38.652c0-2.173,1.761-3.934,3.934-3.934
	h41.886c2.173,0,3.934,1.761,3.934,3.934v38.652C163.79,205.978,162.029,207.739,159.856,207.739z"/>
<path style="fill:#306318;" d="M91.96,243.204L91.96,243.204c-16.007,1.98-28.028,15.58-28.028,31.709v223.01
	c0,7.774,6.302,14.076,14.076,14.076h121.809c7.774,0,14.076-6.302,14.076-14.076v-223.01c0-16.129-12.021-29.729-28.028-31.709l0,0
	C181.642,242.682,96.184,242.682,91.96,243.204z"/>
<path style="fill:#2C5114;" d="M212.679,266.167c-0.528-1.858-1.221-3.649-2.062-5.357c-0.421-0.854-0.878-1.687-1.371-2.496
	c-3.76-6.176-9.569-10.996-16.553-13.487c-2.172-0.775-4.454-1.329-6.827-1.623l0,0c-2.36-0.292-30.065-0.421-54.801-0.387v255.106
	c0,7.774-6.302,14.076-14.075,14.076h82.828c3.401,0,6.521-1.206,8.954-3.214s4.18-4.818,4.837-8.025
	c0.188-0.916,0.286-1.865,0.286-2.837v-223.01C213.894,271.889,213.471,268.954,212.679,266.167z"/>
<path style="fill:#E9EAEB;" d="M192.554,448.927V291.94c0-5.556-4.504-10.06-10.06-10.06H95.331c-5.556,0-10.06,4.504-10.06,10.06
	v156.987c0,3.994,3.238,7.233,7.232,7.233h92.818C189.316,456.159,192.554,452.921,192.554,448.927z"/>
<path style="fill:#B6D1C6;" d="M131.065,456.159h54.257c3.994,0,7.232-3.238,7.232-7.233V291.94c0-5.556-4.504-10.06-10.06-10.06
	h-51.43L131.065,456.159L131.065,456.159z"/>
<circle style="fill:#602952;" cx="138.908" cy="328.87" r="25.991"/>
<path style="fill:#512047;" d="M131.065,353.655c2.476,0.784,5.112,1.209,7.848,1.209c14.354,0,25.991-11.636,25.991-25.991
	c0-14.354-11.636-25.991-25.991-25.991c-2.736,0-5.371,0.425-7.848,1.209V353.655z"/>
<path style="fill:#FFFFFF;" d="M160.513,439.966h-43.2c-4.203,0-7.611-3.408-7.611-7.611s3.408-7.611,7.611-7.611h43.2
	c4.203,0,7.611,3.408,7.611,7.611S164.717,439.966,160.513,439.966z"/>
<rect x="85.268" y="376.19" style="fill:#FC502A;" width="107.28" height="27.29"/>
<rect x="131.068" y="376.19" style="fill:#E60D28;" width="61.49" height="27.29"/>
<path style="fill:#CDEAE0;" d="M318.027,470.806c-2.54-1.841-3.874-4.927-3.82-8.064l5.015-288.545
	c0.183-4.447-1.47-8.774-4.571-11.967l-29.421-30.287c-4.354-4.482-6.79-10.486-6.79-16.735V0.021h-25.484h-25.484v115.188
	c0,6.249-2.436,12.252-6.79,16.735l-29.421,30.287c-3.101,3.193-4.754,7.52-4.571,11.967l5.015,288.545
	c0.055,3.137-1.279,6.223-3.82,8.064c-1.724,1.25-2.821,3.301-2.758,5.609l0.672,24.854c0.161,5.973,5.05,10.73,11.024,10.73h56.133
	h56.133c5.975,0,10.863-4.758,11.024-10.73l0.672-24.854C320.848,474.108,319.751,472.056,318.027,470.806z"/>
<path style="fill:#B6D1C6;" d="M318.027,470.806c-2.54-1.841-3.874-4.927-3.82-8.064l5.015-288.545
	c0.183-4.447-1.47-8.774-4.571-11.967l-29.421-30.287c-4.354-4.483-6.79-10.486-6.79-16.735V0.021h-25.484h-25.484v112.233
	c0,1.926,0.578,3.807,1.658,5.401l30.214,44.575c3.101,3.193,4.754,7.52,4.571,11.967L258.9,462.742
	c-0.055,3.137,1.279,6.223,3.82,8.064c1.724,1.25,2.821,3.301,2.758,5.609l-0.672,24.854c-0.161,5.973-5.05,10.73-11.024,10.73
	h55.308c5.975,0,10.863-4.758,11.024-10.73l0.672-24.854C320.848,474.108,319.751,472.056,318.027,470.806z"/>
<path style="fill:#E60D28;" d="M276.962,99.203h-48.01c-2.327,0-4.213-1.886-4.213-4.213V4.213c0-2.327,1.886-4.213,4.213-4.213
	h48.01c2.327,0,4.213,1.886,4.213,4.213V94.99C281.175,97.317,279.288,99.203,276.962,99.203z"/>
<path style="fill:#FC502A;" d="M217.741,228.315c22.594-14.848,47.824-14.848,70.43,0.029c2.106,1.386,4.918-0.048,5.022-2.568
	l0.604-14.683c0.21-5.102-2.765-9.81-7.471-11.795c-21.653-9.133-45.068-9.145-66.732-0.024c-4.709,1.983-7.688,6.692-7.478,11.798
	l0.604,14.673C212.825,228.265,215.635,229.699,217.741,228.315z"/>
<g>
	<path style="fill:#FFFFFF;" d="M281.804,433.132h-57.695c-4.203,0-7.611-3.408-7.611-7.611s3.408-7.611,7.611-7.611h57.695
		c4.203,0,7.611,3.408,7.611,7.611S286.008,433.132,281.804,433.132z"/>
	<path style="fill:#FFFFFF;" d="M281.804,457h-57.695c-4.203,0-7.611-3.408-7.611-7.611s3.408-7.611,7.611-7.611h57.695
		c4.203,0,7.611,3.408,7.611,7.611S286.008,457,281.804,457z"/>
</g>
<path style="fill:#FC502A;" d="M282.362,324.555h-58.81c-2.694,0-4.891-2.157-4.94-4.851l-0.849-46.267
	c-0.051-2.764,2.176-5.032,4.94-5.032h60.508c2.764,0,4.991,2.268,4.94,5.032l-0.849,46.267
	C287.253,322.397,285.055,324.555,282.362,324.555z"/>
<rect x="224.738" y="19.369" style="fill:#E9EAEB;" width="56.44" height="15.222"/>
<rect x="391.768" y="273.51" style="fill:#352F3F;" width="56.3" height="206.21"/>
<g>
	<path style="fill:#E9EAEB;" d="M405.847,331.134c-23.548-10.506-46.219-10.53-69.824,0.001c-2.788,1.244-6.068,0.171-7.625-2.455
		c-1.954-3.296-3.908-6.592-5.862-9.889c-1.832-3.091-0.578-7.083,2.683-8.592c30.368-14.054,61.052-14.06,91.433,0
		c3.261,1.509,4.515,5.502,2.683,8.592c-1.954,3.296-3.908,6.592-5.862,9.889C411.916,331.306,408.636,332.378,405.847,331.134z"/>
	<ellipse style="fill:#E9EAEB;" cx="370.938" cy="382.34" rx="38.461" ry="26.367"/>
</g>
<path style="fill:#FFFFFF;" d="M410.831,450.265H331.04c-4.203,0-7.611-3.408-7.611-7.611s3.408-7.611,7.611-7.611h79.791
	c4.204,0,7.611,3.408,7.611,7.611S415.035,450.265,410.831,450.265z"/>
<g>
	<path style="fill:#B6D1C6;" d="M391.766,360.182v44.32c10.605-4.695,17.631-12.862,17.631-22.16
		C409.397,373.045,402.37,364.877,391.766,360.182z"/>
	<path style="fill:#B6D1C6;" d="M416.653,310.198c-8.277-3.831-16.577-6.609-24.887-8.352v24.238
		c4.668,1.263,9.357,2.942,14.081,5.049c2.789,1.244,6.069,0.172,7.626-2.455c1.954-3.296,3.908-6.592,5.862-9.889
		C421.168,315.7,419.913,311.707,416.653,310.198z"/>
</g>
<path style="fill:#352F3F;" d="M404.872,176.586c-0.503-29.486-10.31-51.325-12.151-55.172c-0.016-0.033-0.027-0.055-0.041-0.086
	c-0.058-0.121-0.106-0.22-0.145-0.298c-0.068-0.138-0.11-0.222-0.11-0.222h-32.237c-1.024,17.225-2.492,38.067-3.796,55.777
	L404.872,176.586L404.872,176.586z"/>
<path style="fill:#4A4256;" d="M396.81,128.143h-51.748c-2.289,0-4.145-1.856-4.145-4.145V78.719c0-2.289,1.856-4.145,4.145-4.145
	h51.748c2.289,0,4.145,1.856,4.145,4.145v45.279C400.955,126.287,399.099,128.143,396.81,128.143z"/>
<rect x="340.918" y="93.9" style="fill:#E9EAEB;" width="60.04" height="14.11"/>
<g>
	<path style="fill:#E60D28;" d="M283.211,268.405h-20.933l-0.976,56.149h21.06c2.694,0,4.891-2.157,4.94-4.851l0.849-46.267
		C288.202,270.673,285.975,268.405,283.211,268.405z"/>
	<path style="fill:#E60D28;" d="M286.326,199.299c-7.42-3.13-15.048-5.162-22.741-6.149l-0.434,24.95
		c8.515,1.516,16.935,4.923,25.018,10.244c2.106,1.386,4.918-0.048,5.022-2.568l0.604-14.683
		C294.007,205.991,291.032,201.284,286.326,199.299z"/>
</g>
<g>
</g>
<g>
</g>
<g>
</g>
<g>
</g>
<g>
</g>
<g>
</g>
<g>
</g>
<g>
</g>
<g>
</g>
<g>
</g>
<g>
</g>
<g>
</g>
<g>
</g>
<g>
</g>
<g>
</g>
</svg>
