<?xml version="1.0" encoding="UTF-8" standalone="no"?>
<!-- Created with Inkscape (http://www.inkscape.org/) -->

<svg
   xmlns:dc="http://purl.org/dc/elements/1.1/"
   xmlns:cc="http://creativecommons.org/ns#"
   xmlns:rdf="http://www.w3.org/1999/02/22-rdf-syntax-ns#"
   xmlns:svg="http://www.w3.org/2000/svg"
   xmlns="http://www.w3.org/2000/svg"
   xmlns:sodipodi="http://sodipodi.sourceforge.net/DTD/sodipodi-0.dtd"
   xmlns:inkscape="http://www.inkscape.org/namespaces/inkscape"
   id="svg11291"
   version="1.1"
   inkscape:version="0.48.1 "
   width="826.8625"
   height="597.575"
   xml:space="preserve"
   sodipodi:docname="iowa.pdf"><metadata
     id="metadata11297"><rdf:RDF><cc:Work
         rdf:about=""><dc:format>image/svg+xml</dc:format><dc:type
           rdf:resource="http://purl.org/dc/dcmitype/StillImage" /><dc:title></dc:title></cc:Work></rdf:RDF></metadata><defs
     id="defs11295" /><sodipodi:namedview
     pagecolor="#ffffff"
     bordercolor="#666666"
     borderopacity="1"
     objecttolerance="10"
     gridtolerance="10"
     guidetolerance="10"
     inkscape:pageopacity="0"
     inkscape:pageshadow="2"
     inkscape:window-width="640"
     inkscape:window-height="480"
     id="namedview11293"
     showgrid="false"
     inkscape:zoom="0.48696815"
     inkscape:cx="413.43124"
     inkscape:cy="298.78751"
     inkscape:window-x="485"
     inkscape:window-y="160"
     inkscape:window-maximized="0"
     inkscape:current-layer="g11299" /><g
     id="g11299"
     inkscape:groupmode="layer"
     inkscape:label="iowa"
     transform="matrix(1.25,0,0,-1.25,0,597.575)"><g
       id="g11301"
       transform="scale(0.24,0.24)"><path
         d="m 43.3867,1919.99 1694.1433,56.2 460.91,9.36 15.57,-53.07 0,-24.98 3.12,-12.48 21.79,-15.61 31.15,-21.86 3.11,-31.22 -21.8,-37.46 -9.34,-12.49 0,-46.83 31.14,-43.7 21.8,-37.47 31.14,-37.46 0,-59.32 40.49,-34.34 28.03,-3.12 31.14,-18.73 21.8,-34.34 28.03,-37.46 37.37,-37.47 52.94,-34.34 34.25,-24.98 34.26,-59.31 6.23,-49.95 28.03,-21.86 18.68,-28.09 21.8,-40.59 21.8,-59.31 0,-28.1 18.69,-53.075 -12.46,-46.828 -21.8,-28.098 -6.23,-21.855 0,-53.07 -34.25,-31.219 -40.49,-18.735 -37.37,-18.73 -52.94,-21.852 -46.71,-28.097 -43.61,-12.488 -21.8,-15.61 -24.91,-40.582 0,-43.711 -12.45,-24.976 0,-21.852 31.14,-34.34 28.02,-68.683 9.35,-28.098 -3.12,-62.441 -34.25,-24.973 0,-28.098 -3.12,-28.097 -18.68,-34.34 -40.49,-24.977 -37.37,-40.586 -21.8,-24.972 -18.68,-31.219 0,-81.1682 -18.69,-28.1015 0,-12.4883 -12.46,0 -21.79,34.3438 -37.38,43.7031 -24.91,40.5901 -18.69,24.976 -21.79,9.364 -18.69,9.363 -404.85,-9.363 -1220.781,0 -24.914,28.097 -18.683,37.461 -9.344,6.246 -9.344,15.61 -3.113,53.07 0,12.488 12.457,24.977 15.57,37.461 -3.113,6.246 0,21.851 -6.23,31.223 -21.797,15.609 -15.571,40.582 -37.375,40.586 -15.57,53.071 -6.227,31.222 -9.343,37.465 -6.227,21.852 -15.574,43.707 -18.684,49.949 -28.031,37.465 -28.023,49.949 -24.918,40.586 -12.457,43.707 -24.91,28.098 -3.118,31.218 0,9.367 -9.34,28.1 -12.457,24.97 -21.8,24.98 -18.688,34.34 -21.7967,12.49 0,9.36 12.457,53.07 9.3397,65.57 15.57,87.41 0,40.58 -15.57,34.35 -21.7967,43.7 0,40.59 -9.3438,9.36 0,28.1 15.5703,15.61 15.5702,21.85 0,34.34 -9.3397,15.61 -18.6836,34.34 -3.1172,18.74 -21.8007,15.61 -21.7969,21.85 -12.4571,6.24 -3.1171,9.37 -3.1133,21.85 -6.23049,6.25 24.91799,21.85 28.0273,12.49 0,6.24 -3.1133,12.49 0,18.73 3.1133,9.37 0,9.36 -6.2304,9.37 -9.3399,9.37 0,18.73 -3.1172,24.97 0,0 z"
         style="fill:none;stroke:#231f20;stroke-opacity:1;stroke-width:12.5;stroke-linecap:butt;stroke-linejoin:miter;stroke-miterlimit:4;stroke-dasharray:none"
         id="path11303" /><path
         d="m 43.3867,1919.99 1694.1433,56.2 460.91,9.36 15.57,-53.07 0,-24.98 3.12,-12.48 21.79,-15.61 31.15,-21.86 3.11,-31.22 -21.8,-37.46 -9.34,-12.49 0,-46.83 31.14,-43.7 21.8,-37.47 31.14,-37.46 0,-59.32 40.49,-34.34 28.03,-3.12 31.14,-18.73 21.8,-34.34 28.03,-37.46 37.37,-37.47 52.94,-34.34 34.25,-24.98 34.26,-59.31 6.23,-49.95 28.03,-21.86 18.68,-28.09 21.8,-40.59 21.8,-59.31 0,-28.1 18.69,-53.075 -12.46,-46.828 -21.8,-28.098 -6.23,-21.855 0,-53.07 -34.25,-31.219 -40.49,-18.735 -37.37,-18.73 -52.94,-21.852 -46.71,-28.097 -43.61,-12.488 -21.8,-15.61 -24.91,-40.582 0,-43.711 -12.45,-24.976 0,-21.852 31.14,-34.34 28.02,-68.683 9.35,-28.098 -3.12,-62.441 -34.25,-24.973 0,-28.098 -3.12,-28.097 -18.68,-34.34 -40.49,-24.977 -37.37,-40.586 -21.8,-24.972 -18.68,-31.219 0,-81.1682 -18.69,-28.1015 0,-12.4883 -12.46,0 -21.79,34.3438 -37.38,43.7031 -24.91,40.5901 -18.69,24.976 -21.79,9.364 -18.69,9.363 -404.85,-9.363 -1220.781,0 -24.914,28.097 -18.683,37.461 -9.344,6.246 -9.344,15.61 -3.113,53.07 0,12.488 12.457,24.977 15.57,37.461 -3.113,6.246 0,21.851 -6.23,31.223 -21.797,15.609 -15.571,40.582 -37.375,40.586 -15.57,53.071 -6.227,31.222 -9.343,37.465 -6.227,21.852 -15.574,43.707 -18.684,49.949 -28.031,37.465 -28.023,49.949 -24.918,40.586 -12.457,43.707 -24.91,28.098 -3.118,31.218 0,9.367 -9.34,28.1 -12.457,24.97 -21.8,24.98 -18.688,34.34 -21.7967,12.49 0,9.36 12.457,53.07 9.3397,65.57 15.57,87.41 0,40.58 -15.57,34.35 -21.7967,43.7 0,40.59 -9.3438,9.36 0,28.1 15.5703,15.61 15.5702,21.85 0,34.34 -9.3397,15.61 -18.6836,34.34 -3.1172,18.74 -21.8007,15.61 -21.7969,21.85 -12.4571,6.24 -3.1171,9.37 -3.1133,21.85 -6.23049,6.25 24.91799,21.85 28.0273,12.49 0,6.24 -3.1133,12.49 0,18.73 3.1133,9.37 0,9.36 -6.2304,9.37 -9.3399,9.37 0,18.73 -3.1172,24.97 0,0 z"
         style="fill:none;stroke:#231f20;stroke-opacity:1;stroke-width:12.5;stroke-linecap:square;stroke-linejoin:miter;stroke-miterlimit:10;stroke-dasharray:none"
         id="path11305" /></g></g></svg>