<?xml version="1.0" encoding="UTF-8"?>
<svg width="50px" height="50px" viewBox="0 0 50 50" version="1.1" xmlns="http://www.w3.org/2000/svg" xmlns:xlink="http://www.w3.org/1999/xlink">
    <!-- Generator: Sketch 52.3 (67297) - http://www.bohemiancoding.com/sketch -->
    <title>Artboard</title>
    <desc>Created with Sketch.</desc>
    <g id="Artboard" stroke="none" stroke-width="1" fill="none" fill-rule="evenodd">
        <g id="Plane_Green" transform="translate(9.000000, 9.000000)" fill="#017169">
            <path d="M29.51,28.16 L24.66,12.65 L32,5.3 C33.212265,4.08773497 33.212265,2.12226503 32,0.91 C30.787735,-0.302265026 28.822265,-0.302265026 27.61,0.91 L20.26,8.25 L4.75,3.4 C4.60838505,3.35899009 4.45565558,3.39717245 4.35,3.5 L1.12,6.73 C1.03725705,6.80576979 0.990138853,6.91280616 0.990138853,7.025 C0.990138853,7.13719384 1.03725705,7.24423021 1.12,7.32 L12.06,16.44 L7.82,20.7 L3.28,20.34 C3.16133563,20.334073 3.04550745,20.3775086 2.96,20.46 L1.12,22.3 C1.03979533,22.3829024 0.999283935,22.4963933 1.00886322,22.6113447 C1.01844251,22.7262962 1.07717982,22.8315163 1.17,22.9 L6,26.46 C6.06135935,26.5379883 6.12819509,26.6115076 6.2,26.68 C6.26586066,26.7544503 6.3396283,26.8215118 6.42,26.88 C6.42,26.88 6.42,26.88 6.42,26.93 L10,31.74 C10.0684837,31.8328202 10.1737038,31.8915575 10.2886553,31.9011368 C10.4036067,31.9107161 10.5170976,31.8702047 10.6,31.79 L12.45,30 C12.5319745,29.9182441 12.5755627,29.8056413 12.57,29.69 L12.22,25.14 L16.47,20.88 L25.59,31.82 C25.6657698,31.902743 25.7728062,31.9498611 25.885,31.9498611 C25.9971938,31.9498611 26.1042302,31.902743 26.18,31.82 L29.41,28.6 C29.5217237,28.4828895 29.5601314,28.3138958 29.51,28.16 Z" id="Path"></path>
        </g>
    </g>
</svg>