<?xml version="1.0" encoding="UTF-8"?>
<svg width="547px" height="570px" viewBox="0 0 547 570" version="1.1" xmlns="http://www.w3.org/2000/svg" xmlns:xlink="http://www.w3.org/1999/xlink">
    <!-- Generator: Sketch 52.3 (67297) - http://www.bohemiancoding.com/sketch -->
    <title>Group</title>
    <desc>Created with Sketch.</desc>
    <defs>
        <linearGradient x1="-3.86930746e-05%" y1="49.9999851%" x2="100.00002%" y2="49.9999851%" id="linearGradient-1">
            <stop stop-color="#7CE2D1" offset="0%"></stop>
            <stop stop-color="#019A8E" offset="100%"></stop>
        </linearGradient>
    </defs>
    <g id="Page-7" stroke="none" stroke-width="1" fill="none" fill-rule="evenodd">
        <g id="Group">
            <polygon id="Fill-398" fill="#FFFFFF" points="0 569.53 546.351 569.53 546.351 39.537 0 39.537"></polygon>
            <path d="M30,0 C13.431,0 0,13.431 0,30 L0,75.312 L546.351,75.312 L546.351,30 C546.351,13.431 532.919,0 516.351,0 L30,0 Z" id="Fill-440" fill="url(#linearGradient-1)"></path>
            <path d="M289.8254,47.2795 L281.9264,45.4365 L279.8404,41.4055 L290.1704,32.3515 C293.2284,33.5065 295.2744,36.4635 295.2744,39.7445 C295.2744,43.1475 293.0464,46.2265 289.8254,47.2795 Z M283.8904,56.6375 C282.6554,56.6375 281.4604,56.2125 280.4684,55.4635 L282.0474,47.3205 L289.2184,49.0015 C289.4404,49.6095 289.5624,50.2775 289.5624,50.9665 C289.5624,54.1055 287.0104,56.6375 283.8904,56.6375 Z M278.6444,55.4635 C276.4364,58.7045 272.7704,60.6485 268.8414,60.6485 C262.2984,60.6485 256.9714,55.3425 256.9714,48.7995 C256.9714,47.9885 257.0314,47.1985 257.1934,46.4285 L267.5234,37.1115 L278.0564,41.9125 L280.3874,46.3685 L278.6444,55.4635 Z M251.0554,37.5165 C251.0554,34.1335 253.3044,31.0545 256.5054,30.0015 L264.4044,31.8655 L266.2484,35.8145 L256.1604,44.9295 C253.1014,43.7555 251.0554,40.8185 251.0554,37.5165 Z M262.4604,20.6635 C263.7164,20.6635 264.9304,21.0685 265.9034,21.8185 L264.3234,29.9815 L257.1334,28.2795 C256.9104,27.6725 256.7884,27.0045 256.7884,26.3355 C256.7884,23.1955 259.3414,20.6635 262.4604,20.6635 Z M267.7664,21.8185 C269.9744,18.5975 273.6004,16.6735 277.5104,16.6735 C284.0324,16.6735 289.3394,21.9805 289.3394,28.5035 C289.3394,29.3125 289.2784,30.0625 289.1164,30.8325 L278.5434,40.1095 L268.0514,35.3295 L266.0054,30.9535 L267.7664,21.8185 Z M297.1374,39.7855 C297.1374,35.7745 294.6464,32.2505 290.8994,30.8925 C291.0614,30.0425 291.1414,29.1915 291.1414,28.3205 C291.1414,20.8455 285.0654,14.7695 277.6114,14.7695 C273.2364,14.7695 269.1844,16.8555 266.6334,20.3805 C265.3774,19.4075 263.8374,18.8815 262.2374,18.8815 C258.2664,18.8815 255.0464,22.1015 255.0464,26.0725 C255.0464,26.9425 255.2084,27.7945 255.4924,28.5845 C251.7644,29.9205 249.2134,33.5065 249.2134,37.4965 C249.2134,41.5275 251.7244,45.0515 255.4714,46.4085 C255.3094,47.2395 255.2284,48.1105 255.2284,48.9815 C255.2284,56.4355 261.2854,62.4915 268.7394,62.4915 C273.1144,62.4915 277.1664,60.3845 279.6974,56.8605 C280.9534,57.8535 282.4934,58.4005 284.0934,58.4005 C288.0634,58.4005 291.2844,55.1795 291.2844,51.2095 C291.2844,50.3385 291.1224,49.4875 290.8384,48.6975 C294.5654,47.3605 297.1374,43.7755 297.1374,39.7855 Z" id="Fill-476" fill="#FFFFFF"></path>
        </g>
    </g>
</svg>