<?xml version="1.0" encoding="UTF-8"?>
<svg width="547px" height="570px" viewBox="0 0 547 570" version="1.1" xmlns="http://www.w3.org/2000/svg" xmlns:xlink="http://www.w3.org/1999/xlink">
    <!-- Generator: Sketch 52.3 (67297) - http://www.bohemiancoding.com/sketch -->
    <title>Group</title>
    <desc>Created with Sketch.</desc>
    <defs>
        <linearGradient x1="-3.86930746e-05%" y1="49.9999851%" x2="100.00002%" y2="49.9999851%" id="linearGradient-1">
            <stop stop-color="#7CE2D1" offset="0%"></stop>
            <stop stop-color="#019A8E" offset="100%"></stop>
        </linearGradient>
    </defs>
    <g id="Page-7" stroke="none" stroke-width="1" fill="none" fill-rule="evenodd">
        <g id="Group">
            <polygon id="Fill-398" fill="#FFFFFF" points="0 569.53 546.351 569.53 546.351 39.537 0 39.537"></polygon>
            <path d="M30,0 C13.431,0 0,13.431 0,30 L0,75.312 L546.351,75.312 L546.351,30 C546.351,13.431 532.919,0 516.351,0 L30,0 Z" id="Fill-440" fill="url(#linearGradient-1)"></path>
            <g id="Group-477" transform="translate(42.879000, 14.580000)">
                <polygon id="Fill-443" fill="#000000" points="0.315 408.357 92.961 408.357 92.961 403.912 0.315 403.912"></polygon>
                <polygon id="Fill-445" fill="#000000" points="0.315 399.467 92.961 399.467 92.961 390.575 0.315 390.575"></polygon>
                <polygon id="Fill-446" fill="#000000" points="0.315 381.684 92.961 381.684 92.961 377.238 0.315 377.238"></polygon>
                <polygon id="Fill-447" fill="#000000" points="0.315 368.346 92.961 368.346 92.961 363.901 0.315 363.901"></polygon>
                <polygon id="Fill-448" fill="#000000" points="0.315 359.455 92.961 359.455 92.961 355.009 0.315 355.009"></polygon>
                <polygon id="Fill-449" fill="#000000" points="0.315 350.563 92.961 350.563 92.961 346.117 0.315 346.117"></polygon>
                <polygon id="Fill-450" fill="#000000" points="0.315 337.226 92.961 337.226 92.961 332.781 0.315 332.781"></polygon>
                <polygon id="Fill-451" fill="#000000" points="0.315 323.889 92.961 323.889 92.961 314.997 0.315 314.997"></polygon>
                <polygon id="Fill-452" fill="#000000" points="0.315 310.552 92.961 310.552 92.961 306.106 0.315 306.106"></polygon>
                <polygon id="Fill-453" fill="#000000" points="0.315 301.661 92.961 301.661 92.961 292.769 0.315 292.769"></polygon>
                <polygon id="Fill-454" fill="#000000" points="0.315 283.877 92.961 283.877 92.961 279.432 0.315 279.432"></polygon>
                <polygon id="Fill-455" fill="#000000" points="0.315 270.54 92.961 270.54 92.961 266.094 0.315 266.094"></polygon>
                <polygon id="Fill-456" fill="#000000" points="0.315 261.648 92.961 261.648 92.961 257.203 0.315 257.203"></polygon>
                <polygon id="Fill-457" fill="#000000" points="0.315 252.758 92.961 252.758 92.961 243.866 0.315 243.866"></polygon>
                <polygon id="Fill-458" fill="#000000" points="0.315 234.974 92.961 234.974 92.961 230.529 0.315 230.529"></polygon>
                <polygon id="Fill-459" fill="#000000" points="0.315 221.637 92.961 221.637 92.961 217.192 0.315 217.192"></polygon>
                <polygon id="Fill-460" fill="#000000" points="0.315 212.745 92.961 212.745 92.961 208.3 0.315 208.3"></polygon>
                <polygon id="Fill-461" fill="#000000" points="0.315 203.854 92.961 203.854 92.961 194.962 0.315 194.962"></polygon>
                <polygon id="Fill-462" fill="#000000" points="0.315 186.071 92.961 186.071 92.961 181.625 0.315 181.625"></polygon>
                <polygon id="Fill-463" fill="#000000" points="0.315 172.733 92.961 172.733 92.961 168.288 0.315 168.288"></polygon>
                <polygon id="Fill-464" fill="#000000" points="0.315 163.842 92.961 163.842 92.961 159.397 0.315 159.397"></polygon>
                <polygon id="Fill-465" fill="#000000" points="0.315 154.95 92.961 154.95 92.961 150.505 0.315 150.505"></polygon>
                <polygon id="Fill-466" fill="#000000" points="0.315 141.613 92.961 141.613 92.961 137.168 0.315 137.168"></polygon>
                <polygon id="Fill-467" fill="#000000" points="0.315 128.277 92.961 128.277 92.961 119.385 0.315 119.385"></polygon>
                <polygon id="Fill-468" fill="#000000" points="0.315 114.939 92.961 114.939 92.961 110.493 0.315 110.493"></polygon>
                <polygon id="Fill-469" fill="#000000" points="0.315 106.048 92.961 106.048 92.961 101.602 0.315 101.602"></polygon>
                <polygon id="Fill-470" fill="#000000" points="0.315 92.71 92.961 92.71 92.961 88.265 0.315 88.265"></polygon>
                <polygon id="Fill-471" fill="#000000" points="0.315 79.374 92.961 79.374 92.961 70.482 0.315 70.482"></polygon>
                <polygon id="Fill-472" fill="#000000" points="0.315 66.036 92.961 66.036 92.961 61.59 0.315 61.59"></polygon>
                <polygon id="Fill-473" fill="#000000" points="0.315 57.145 92.961 57.145 92.961 52.699 0.315 52.699"></polygon>
                <polygon id="Fill-474" fill="#000000" points="0.315 43.808 92.961 43.808 92.961 34.916 0.315 34.916"></polygon>
                <polygon id="Fill-475" fill="#000000" points="0.315 26.024 92.961 26.024 92.961 21.578 0.315 21.578"></polygon>
                <path d="M246.9464,32.6995 L239.0474,30.8565 L236.9614,26.8255 L247.2914,17.7715 C250.3494,18.9265 252.3954,21.8835 252.3954,25.1645 C252.3954,28.5675 250.1674,31.6465 246.9464,32.6995 Z M241.0114,42.0575 C239.7764,42.0575 238.5814,41.6325 237.5894,40.8835 L239.1684,32.7405 L246.3394,34.4215 C246.5614,35.0295 246.6834,35.6975 246.6834,36.3865 C246.6834,39.5255 244.1314,42.0575 241.0114,42.0575 Z M235.7654,40.8835 C233.5574,44.1245 229.8914,46.0685 225.9624,46.0685 C219.4194,46.0685 214.0924,40.7625 214.0924,34.2195 C214.0924,33.4085 214.1524,32.6185 214.3144,31.8485 L224.6444,22.5315 L235.1774,27.3325 L237.5084,31.7885 L235.7654,40.8835 Z M208.1764,22.9365 C208.1764,19.5535 210.4254,16.4745 213.6264,15.4215 L221.5254,17.2855 L223.3694,21.2345 L213.2814,30.3495 C210.2224,29.1755 208.1764,26.2385 208.1764,22.9365 Z M219.5814,6.0835 C220.8374,6.0835 222.0514,6.4885 223.0244,7.2385 L221.4444,15.4015 L214.2544,13.6995 C214.0314,13.0925 213.9094,12.4245 213.9094,11.7555 C213.9094,8.6155 216.4624,6.0835 219.5814,6.0835 Z M224.8874,7.2385 C227.0954,4.0175 230.7214,2.0935 234.6314,2.0935 C241.1534,2.0935 246.4604,7.4005 246.4604,13.9235 C246.4604,14.7325 246.3994,15.4825 246.2374,16.2525 L235.6644,25.5295 L225.1724,20.7495 L223.1264,16.3735 L224.8874,7.2385 Z M254.2584,25.2055 C254.2584,21.1945 251.7674,17.6705 248.0204,16.3125 C248.1824,15.4625 248.2624,14.6115 248.2624,13.7405 C248.2624,6.2655 242.1864,0.1895 234.7324,0.1895 C230.3574,0.1895 226.3054,2.2755 223.7544,5.8005 C222.4984,4.8275 220.9584,4.3015 219.3584,4.3015 C215.3874,4.3015 212.1674,7.5215 212.1674,11.4925 C212.1674,12.3625 212.3294,13.2145 212.6134,14.0045 C208.8854,15.3405 206.3344,18.9265 206.3344,22.9165 C206.3344,26.9475 208.8454,30.4715 212.5924,31.8285 C212.4304,32.6595 212.3494,33.5305 212.3494,34.4015 C212.3494,41.8555 218.4064,47.9115 225.8604,47.9115 C230.2354,47.9115 234.2874,45.8045 236.8184,42.2805 C238.0744,43.2735 239.6144,43.8205 241.2144,43.8205 C245.1844,43.8205 248.4054,40.5995 248.4054,36.6295 C248.4054,35.7585 248.2434,34.9075 247.9594,34.1175 C251.6864,32.7805 254.2584,29.1955 254.2584,25.2055 Z" id="Fill-476" fill="#FFFFFF"></path>
            </g>
            <path d="M289.8254,47.2795 L281.9264,45.4365 L279.8404,41.4055 L290.1704,32.3515 C293.2284,33.5065 295.2744,36.4635 295.2744,39.7445 C295.2744,43.1475 293.0464,46.2265 289.8254,47.2795 Z M283.8904,56.6375 C282.6554,56.6375 281.4604,56.2125 280.4684,55.4635 L282.0474,47.3205 L289.2184,49.0015 C289.4404,49.6095 289.5624,50.2775 289.5624,50.9665 C289.5624,54.1055 287.0104,56.6375 283.8904,56.6375 Z M278.6444,55.4635 C276.4364,58.7045 272.7704,60.6485 268.8414,60.6485 C262.2984,60.6485 256.9714,55.3425 256.9714,48.7995 C256.9714,47.9885 257.0314,47.1985 257.1934,46.4285 L267.5234,37.1115 L278.0564,41.9125 L280.3874,46.3685 L278.6444,55.4635 Z M251.0554,37.5165 C251.0554,34.1335 253.3044,31.0545 256.5054,30.0015 L264.4044,31.8655 L266.2484,35.8145 L256.1604,44.9295 C253.1014,43.7555 251.0554,40.8185 251.0554,37.5165 Z M262.4604,20.6635 C263.7164,20.6635 264.9304,21.0685 265.9034,21.8185 L264.3234,29.9815 L257.1334,28.2795 C256.9104,27.6725 256.7884,27.0045 256.7884,26.3355 C256.7884,23.1955 259.3414,20.6635 262.4604,20.6635 Z M267.7664,21.8185 C269.9744,18.5975 273.6004,16.6735 277.5104,16.6735 C284.0324,16.6735 289.3394,21.9805 289.3394,28.5035 C289.3394,29.3125 289.2784,30.0625 289.1164,30.8325 L278.5434,40.1095 L268.0514,35.3295 L266.0054,30.9535 L267.7664,21.8185 Z M297.1374,39.7855 C297.1374,35.7745 294.6464,32.2505 290.8994,30.8925 C291.0614,30.0425 291.1414,29.1915 291.1414,28.3205 C291.1414,20.8455 285.0654,14.7695 277.6114,14.7695 C273.2364,14.7695 269.1844,16.8555 266.6334,20.3805 C265.3774,19.4075 263.8374,18.8815 262.2374,18.8815 C258.2664,18.8815 255.0464,22.1015 255.0464,26.0725 C255.0464,26.9425 255.2084,27.7945 255.4924,28.5845 C251.7644,29.9205 249.2134,33.5065 249.2134,37.4965 C249.2134,41.5275 251.7244,45.0515 255.4714,46.4085 C255.3094,47.2395 255.2284,48.1105 255.2284,48.9815 C255.2284,56.4355 261.2854,62.4915 268.7394,62.4915 C273.1144,62.4915 277.1664,60.3845 279.6974,56.8605 C280.9534,57.8535 282.4934,58.4005 284.0934,58.4005 C288.0634,58.4005 291.2844,55.1795 291.2844,51.2095 C291.2844,50.3385 291.1224,49.4875 290.8384,48.6975 C294.5654,47.3605 297.1374,43.7755 297.1374,39.7855 Z" id="Fill-476" fill="#FFFFFF"></path>
        </g>
    </g>
</svg>