<?xml version="1.0" encoding="UTF-8"?>
<svg width="275px" height="512px" viewBox="0 0 275 512" version="1.1" xmlns="http://www.w3.org/2000/svg" xmlns:xlink="http://www.w3.org/1999/xlink">
    <!-- Generator: Sketch 52.3 (67297) - http://www.bohemiancoding.com/sketch -->
    <title>battery</title>
    <desc>Created with Sketch.</desc>
    <g id="Page-1" stroke="none" stroke-width="1" fill="none" fill-rule="evenodd">
        <g id="battery" fill="#37988D">
            <path d="M146.285714,283.428571 L146.285714,169.022321 L80.4553577,274.285714 L118.857143,274.285714 C123.90625,274.285714 128,278.379464 128,283.428571 L128,397.834822 L193.830357,292.571429 L155.428571,292.571429 C150.379464,292.571429 146.285714,288.477679 146.285714,283.428571 Z" id="Path"></path>
            <polygon id="Path" points="73.1428571 0 201.142857 0 201.142857 36.5714286 73.1428571 36.5714286"></polygon>
            <path d="M274.285714,82.2857143 C274.285714,67.1383931 262.004464,54.8571429 246.857143,54.8571429 L27.4285714,54.8571429 C12.2812503,54.8571429 0,67.1383931 0,82.2857143 L0,484.571429 C0,499.71875 12.2812503,512 27.4285714,512 L246.857143,512 C262.004464,512 274.285714,499.71875 274.285714,484.571429 L274.285714,82.2857143 Z M218.040178,288.272321 L126.611607,434.558035 C124.937499,437.232143 122.008928,438.857143 118.857143,438.857143 C118.004464,438.857143 117.15625,438.736607 116.334822,438.5 C112.415178,437.375 109.714286,433.790178 109.714286,429.714286 L109.714286,292.571429 L64,292.571429 C60.6741074,292.571429 57.6160709,290.767857 56.004464,287.861607 C54.3928571,284.955358 54.4866069,281.401785 56.245536,278.584822 L147.674107,132.299107 C149.839286,128.839286 154.026786,127.227679 157.950893,128.352679 C161.870536,129.477679 164.571429,133.062501 164.571429,137.142857 L164.571429,274.285714 L210.285714,274.285714 C213.611607,274.285714 216.669643,276.089286 218.28125,278.995536 C219.892857,281.901785 219.799107,285.455358 218.040178,288.272321 Z" id="Shape" fill-rule="nonzero"></path>
        </g>
    </g>
</svg>