<?xml version="1.0"?>
<svg xmlns="http://www.w3.org/2000/svg" height="512px" viewBox="-104 0 448 448" width="512px"><path d="m128 248v-100.105469l-57.601562 92.105469h33.601562c4.417969 0 8 3.582031 8 8v100.105469l57.601562-92.105469h-33.601562c-4.417969 0-8-3.582031-8-8zm0 0" fill="#FFFFFF"/><path d="m64 0h112v32h-112zm0 0" fill="#FFFFFF"/><path d="m240 72c0-13.253906-10.746094-24-24-24h-192c-13.253906 0-24 10.746094-24 24v352c0 13.253906 10.746094 24 24 24h192c13.253906 0 24-10.746094 24-24zm-49.214844 180.238281-80 128c-1.464844 2.339844-4.027344 3.761719-6.785156 3.761719-.746094 0-1.488281-.105469-2.207031-.3125-3.429688-.984375-5.792969-4.121094-5.792969-7.6875v-120h-40c-2.910156 0-5.585938-1.578125-6.996094-4.121094-1.410156-2.542968-1.328125-5.652344.210938-8.117187l80-128c1.894531-3.027344 5.558594-4.4375 8.992187-3.453125 3.429688.984375 5.792969 4.121094 5.792969 7.691406v120h40c2.910156 0 5.585938 1.578125 6.996094 4.121094 1.410156 2.542968 1.328125 5.652344-.210938 8.117187zm0 0" fill="#FFFFFF"/></svg>
