<?xml version="1.0" encoding="iso-8859-1"?>
<!-- Generator: Adobe Illustrator 19.0.0, SVG Export Plug-In . SVG Version: 6.00 Build 0)  -->
<svg version="1.1" id="Layer_1" xmlns="http://www.w3.org/2000/svg" xmlns:xlink="http://www.w3.org/1999/xlink" x="0px" y="0px"
	 viewBox="0 0 512 512" style="enable-background:new 0 0 512 512;" xml:space="preserve">
<path style="fill:#5F4D37;" d="M379.183,510.13c15.016,5.651,31.768-1.942,37.418-16.956l12.277-32.624
	c5.651-15.016-1.942-31.768-16.956-37.418L132.818,318.103c-15.016-5.651-31.768,1.942-37.418,16.956l-12.277,32.624
	c-5.651,15.016,1.942,31.768,16.956,37.418L379.183,510.13z"/>
<path style="fill:#6A563D;" d="M83.122,367.683l12.277-32.624c5.651-15.016,22.404-22.607,37.418-16.956l130.396,49.069v99.319
	l-163.135-61.389C85.063,399.452,77.471,382.699,83.122,367.683z"/>
<path style="fill:#FFA733;" d="M317.594,71.068c0,0,8.509,36.573-10.605,62.726c-3.932-16.678-16.185-38.328-23.588-53.176
	C266.203,46.127,292.251,0,292.251,0s-48.383,11.03-72.105,67.516c-14.899,35.475-9.552,61.025,4.375,100.652
	c-0.363,0.036-35.263-20.678-33.78-94.911c0,0-71.899,79.566-71.899,166.961c0,57.798,37.585,113.151,109.097,125.241
	c75.164,12.708,122.107-40.509,138.731-83.961C384.126,235.867,397.593,149.752,317.594,71.068z"/>
<path style="fill:#FF9811;" d="M317.594,71.068c0,0,8.509,36.573-10.605,62.726c-3.932-16.678-17.281-37.83-23.588-53.176
	C267.606,42.191,292.25,0,292.25,0s-22.935,4.477-43.464,25.579v341.779c63.04,0.684,102.853-46.577,117.883-85.86
	C384.126,235.867,397.593,149.752,317.594,71.068z"/>
<path style="fill:#FFDA44;" d="M294.029,322.89c7.092,35.065-21.828,44.467-45.244,44.467s-42.929-14.624-47.084-41.031
	c-3.639-23.131,7.531-55.13,49.93-105.094C251.631,282.817,286.045,283.417,294.029,322.89z"/>
<path style="fill:#FFD422;" d="M294.029,322.89c-7.984-39.475-42.398-40.074-42.398-101.657c-0.979,1.153-1.912,2.283-2.846,3.415
	v140.535c0.941,0.063,1.889,0.106,2.846,0.106C275.047,365.288,301.123,357.956,294.029,322.89z"/>
<path style="fill:#806749;" d="M132.817,510.13c-15.015,5.651-31.768-1.942-37.418-16.956L83.122,460.55
	c-5.651-15.016,1.942-31.768,16.956-37.418l279.104-105.029c15.016-5.651,31.768,1.942,37.418,16.956l12.277,32.624
	c5.651,15.016-1.942,31.768-16.956,37.418L132.817,510.13z"/>
<path style="fill:#6A563D;" d="M428.878,367.683l-12.277-32.624c-5.651-15.016-22.404-22.607-37.418-16.956l-130.396,49.069v99.319
	l163.135-61.389C426.936,399.452,434.529,382.699,428.878,367.683z"/>
<g>
</g>
<g>
</g>
<g>
</g>
<g>
</g>
<g>
</g>
<g>
</g>
<g>
</g>
<g>
</g>
<g>
</g>
<g>
</g>
<g>
</g>
<g>
</g>
<g>
</g>
<g>
</g>
<g>
</g>
</svg>
