<?xml version="1.0" encoding="UTF-8"?>
<svg width="100px" height="100px" viewBox="0 0 100 100" version="1.1" xmlns="http://www.w3.org/2000/svg" xmlns:xlink="http://www.w3.org/1999/xlink">
    <!-- Generator: Sketch 52.3 (67297) - http://www.bohemiancoding.com/sketch -->
    <title>Artboard</title>
    <desc>Created with Sketch.</desc>
    <g id="Artboard" stroke="none" stroke-width="1" fill="none" fill-rule="evenodd">
        <g id="clear" transform="translate(10.000000, 10.000000)" fill="#FFDA44">
            <path d="M40,20 C28.9717974,20 20,28.9727723 20,40 C20,51.0272277 28.9717974,60 40,60 C51.0264344,60 60,51.0289958 60,40 C60,28.9710042 51.0264344,20 40,20 Z" id="Path"></path>
            <g id="Group">
                <path d="M39.8386894,14.015879 C37.6879647,14.015879 35.9448015,12.2727158 35.9448015,10.1237555 L35.9448015,3.89388784 C35.9448015,1.7431632 37.6879647,0 39.8386894,0 C41.989414,0 43.7325772,1.7431632 43.7325772,3.89388784 L43.7325772,10.1237555 C43.7325772,12.2727158 41.9876497,14.015879 39.8386894,14.015879 Z" id="Path"></path>
                <path d="M39.8386894,65.6597353 C37.6879647,65.6597353 35.9448015,67.4028986 35.9448015,69.5536232 L35.9448015,75.7817265 C35.9448015,77.9342155 37.6879647,79.6773787 39.8386894,79.6773787 C41.989414,79.6773787 43.7325772,77.9342155 43.7325772,75.7817265 L43.7325772,69.5536232 C43.7325772,67.4028986 41.9876497,65.6597353 39.8386894,65.6597353 Z" id="Path"></path>
                <path d="M58.0960302,21.5795841 C56.5769376,20.0587272 56.5769376,17.5939509 58.0960302,16.0730939 L62.5015753,11.6675488 C64.0206679,10.1484562 66.4872086,10.1484562 68.0080655,11.6675488 C69.5289225,13.1884058 69.5289225,15.6549464 68.0080655,17.1740391 L63.6025205,21.5795841 C62.0834279,23.1004411 59.6186515,23.1004411 58.0960302,21.5795841 Z" id="Path"></path>
                <path d="M21.5795841,58.0995589 C20.0587272,56.5769376 17.5939509,56.5769376 16.0730939,58.0995589 L11.6675488,62.5033396 C10.1484562,64.0224323 10.1466919,66.4907372 11.6675488,68.0098299 C13.1884058,69.5289225 15.6549464,69.5289225 17.1740391,68.0098299 L21.5795841,63.6025205 C23.1004411,62.0834279 23.1004411,59.6168872 21.5795841,58.0995589 Z" id="Path"></path>
                <path d="M65.6597353,39.8386894 C65.6597353,37.6879647 67.4028986,35.9448015 69.5536232,35.9448015 L75.7834909,35.9448015 C77.9342155,35.9448015 79.6773787,37.6879647 79.6773787,39.8386894 C79.6773787,41.989414 77.9342155,43.7308129 75.7834909,43.7308129 L69.5536232,43.7308129 C67.4028986,43.7308129 65.6597353,41.989414 65.6597353,39.8386894 Z" id="Path"></path>
                <path d="M14.015879,39.8386894 C14.015879,37.6879647 12.2727158,35.9448015 10.1219912,35.9448015 L3.89388784,35.9448015 C1.7431632,35.9448015 0,37.6879647 0,39.8386894 C0,41.989414 1.7431632,43.7308129 3.89388784,43.7308129 L10.1237555,43.7308129 C12.2727158,43.7308129 14.015879,41.989414 14.015879,39.8386894 Z" id="Path"></path>
                <path d="M58.0960302,58.0995589 C59.6168872,56.5804663 62.0834279,56.5804663 63.6025205,58.0995589 L68.0080655,62.505104 C69.5289225,64.0224323 69.5289225,66.4907372 68.0080655,68.0098299 C66.4872086,69.5289225 64.0224323,69.5289225 62.5015753,68.0098299 L58.0960302,63.6042848 C56.5751733,62.0834279 56.5751733,59.6186515 58.0960302,58.0995589 Z" id="Path"></path>
                <path d="M21.5795841,21.5795841 C23.1004411,20.0587272 23.1004411,17.5939509 21.5795841,16.0730939 L17.1740391,11.6693132 C15.6531821,10.1484562 13.1884058,10.1484562 11.6675488,11.6693132 C10.1466919,13.1884058 10.1466919,15.6549464 11.6675488,17.1740391 L16.0730939,21.5795841 C17.5939509,23.1022054 20.0587272,23.1022054 21.5795841,21.5795841 Z" id="Path"></path>
            </g>
        </g>
    </g>
</svg>