<?xml version="1.0" encoding="UTF-8"?>
<svg width="100px" height="100px" viewBox="0 0 100 100" version="1.1" xmlns="http://www.w3.org/2000/svg" xmlns:xlink="http://www.w3.org/1999/xlink">
    <!-- Generator: Sketch 52.3 (67297) - http://www.bohemiancoding.com/sketch -->
    <title>Artboard</title>
    <desc>Created with Sketch.</desc>
    <g id="Artboard" stroke="none" stroke-width="1" fill="none" fill-rule="evenodd">
        <g id="clouds" transform="translate(9.000000, 25.000000)" fill="#269AF2">
            <path d="M68.3729299,49.922293 C75.6386943,49.922293 81.5286624,44.0321656 81.5286624,36.7664013 C81.5286624,30.525 77.1807325,25.3023885 71.3495223,23.9530255 C71.2302548,10.7469745 60.4896497,0.0777070064 47.255414,0.0777070064 C38.1694268,0.0777070064 30.2593949,5.10716561 26.1538217,12.5332803 C24.9046178,11.9926752 23.527707,11.6917197 22.0800955,11.6917197 C16.8651274,11.6917197 12.5611465,15.580414 11.9022293,20.6156051 C5.11640127,21.9611465 0,27.9455414 0,35.1264331 C0,43.2980892 6.62436306,49.922293 14.7957006,49.922293 C17.0718153,49.922293 66.813535,49.922293 68.3729299,49.922293 Z" id="Path"></path>
        </g>
    </g>
</svg>