<?xml version="1.0"?>
<svg xmlns="http://www.w3.org/2000/svg" height="512px" viewBox="-32 0 512 512.001" width="512px"><path d="m447.097656 158.792969h-35.253906l16.152344-25.054688-25.210938-16.257812-26.636718 41.3125h-29.261719v-28.804688l41.308593-26.632812-16.257812-25.214844-25.050781 16.152344v-35.707031h-30v35.710937l-25.050781-16.15625-16.257813 25.214844 41.308594 26.632812v28.804688h-28.800781l-26.636719-41.3125-25.214844 16.257812 16.15625 25.054688h-35.710937v30h35.710937l-16.15625 25.050781 25.214844 16.257812 26.636719-41.308593h28.800781v29.257812l-41.308594 26.636719 16.257813 25.214844 25.050781-16.15625v35.253906h30v-35.253906l25.050781 16.15625 16.257812-25.214844-41.308593-26.636719v-29.257812h29.261719l26.636718 41.308593 25.210938-16.257812-16.152344-25.050781h35.253906zm0 0" fill="#FFFFFF"/><path d="m139 321.6875v-49.660156h-30v49.660156c-30.296875 6.851562-53 33.972656-53 66.3125 0 37.496094 30.503906 68 68 68s68-30.503906 68-68c0-32.339844-22.699219-59.460938-53-66.3125zm-15 104.3125c-20.953125 0-38-17.046875-38-38s17.046875-38 38-38 38 17.046875 38 38-17.046875 38-38 38zm0 0" fill="#FFFFFF"/><path d="m192.5 284.632812v-216.132812c0-37.769531-30.726562-68.5-68.5-68.5-37.769531 0-68.5 30.730469-68.5 68.5v216.132812c-34.191406 22.710938-55.246094 61.246094-55.49609375 102.597657-.41796825 67.847656 54.41796875 123.8125 122.23046875 124.757812.597656.007813 1.1875.011719 1.785156.011719 32.800781 0 63.65625-12.640625 87.046875-35.707031 23.816406-23.488281 36.933594-54.84375 36.933594-88.292969 0-41.671875-21.054688-80.5-55.5-103.367188zm-2.5 170.300782c-18.050781 17.800781-41.964844 27.390625-67.347656 27.058594-51.402344-.71875-92.964844-43.144532-92.648438-94.578126.203125-33.617187 18.546875-64.78125 47.871094-81.332031l7.625-4.304687v-70.941406h32.5v-30h-32.5v-28.917969h32.5v-30h-32.5v-28.917969h32.5v-30h-32.5v-14.5c0-21.230469 17.273438-38.5 38.5-38.5 21.230469 0 38.5 17.269531 38.5 38.5v233.273438l7.625 4.308593c29.53125 16.667969 47.875 48.058594 47.875 81.917969 0 25.355469-9.945312 49.125-28 66.933594zm0 0" fill="#FFFFFF"/></svg>
