<?xml version="1.0" encoding="UTF-8"?>
<svg width="1522px" height="192px" viewBox="0 0 1522 192" version="1.1" xmlns="http://www.w3.org/2000/svg" xmlns:xlink="http://www.w3.org/1999/xlink">
    <!-- Generator: Sketch 52.3 (67297) - http://www.bohemiancoding.com/sketch -->
    <title>shoe-prints-grey</title>
    <desc>Created with Sketch.</desc>
    <g id="Page-1" stroke="none" stroke-width="1" fill="none" fill-rule="evenodd">
        <g id="shoe-prints-grey" transform="translate(765.000000, 86.500000) rotate(46.000000) translate(-765.000000, -86.500000) translate(185.000000, -520.000000)" fill="#FFFFFF" fill-rule="nonzero">
            <g id="layer1" transform="translate(144.747241, 1069.748441) rotate(46.487129) translate(-144.747241, -1069.748441) translate(69.747241, 941.748441)">
                <path d="M57.472122,119.80542 C46.502128,123.693359 36.8157,126.172485 22.90089,130.597656 C28.356659,200.144409 92.227508,172.417114 57.472122,119.80542 Z M54.307892,107.186401 C54.494736,97.523071 53.99688,88.209106 58.088944,79.022705 C62.737336,69.171997 63.480195,60.531677 60.908616,46.226318 C56.231324,20.207031 46.343842,3.98529 32.990792,0.423278 C4.508301,-3.821473 0.980311,24.732482 0.28991,45.618713 C-1.282359,57.307739 8.396611,107.330566 20.10135,115.803833 C31.603681,112.800293 42.89681,109.853394 54.307893,107.186401 L54.307892,107.186401 Z" id="path2890"></path>
                <path d="M92.547661,203.597046 C103.517662,207.484863 113.204086,209.963989 127.118897,214.38916 C121.663132,283.936035 57.792283,256.20874 92.547661,203.597046 Z M95.711899,190.977905 C95.525063,181.314697 96.022911,172.000732 91.930847,162.814209 C87.282448,152.963501 86.539596,144.323242 89.111183,130.017822 C93.788467,103.998535 103.675949,87.776855 117.029007,84.214843 C145.51149,79.970092 149.039475,108.524047 149.729874,129.410278 C151.302155,141.099243 141.623185,191.12207 129.918442,199.595337 C118.416107,196.591797 107.122971,193.64502 95.711899,190.977905 Z" id="path2890-7"></path>
            </g>
            <g id="svg_4" transform="translate(700.074278, 525.457671) rotate(40.236359) translate(-700.074278, -525.457671) translate(625.074278, 396.957671)">
                <path d="M57.462219,120.748169 C46.492248,124.636108 36.805786,127.115234 22.890991,131.540405 C28.346802,201.087158 92.217651,173.359863 57.462219,120.748169 Z M54.297973,108.12915 C54.484863,98.46582 53.986999,89.151855 58.07904,79.965332 C62.727478,70.114746 63.470275,61.474365 60.898742,47.169067 C56.221435,21.14978 46.333984,4.927978 32.980895,1.365966 C4.498412,-2.878754 0.970397,25.67517 0.280028,46.561401 C-1.292238,58.250488 8.386717,108.273315 20.09149,116.746582 C31.593809,113.743042 42.8869,110.796143 54.297972,108.12915 L54.297973,108.12915 Z" id="svg_5"></path>
                <path d="M92.537781,204.539795 C103.507752,208.427612 113.194214,210.906738 127.109009,215.331909 C121.653259,284.878784 57.78241,257.151489 92.537781,204.539795 Z M95.702027,191.920654 C95.515198,182.257446 96.013001,172.943481 91.92096,163.756958 C87.272584,153.90625 86.529725,145.265991 89.101319,130.960571 C93.778565,104.941284 103.666077,88.719604 117.019105,85.157592 C145.501588,80.912841 149.029603,109.466796 149.719972,130.353027 C151.292238,142.041992 141.613283,192.064819 129.908571,200.538086 C118.406252,197.534546 107.1131,194.587769 95.702028,191.920654 L95.702027,191.920654 Z" id="svg_6"></path>
            </g>
            <g id="svg_7" transform="translate(867.426192, 332.945067) rotate(36.448170) translate(-867.426192, -332.945067) translate(792.426192, 204.445067)">
                <path d="M57.462158,120.748169 C46.492187,124.636108 36.805786,127.115234 22.890991,131.540405 C28.346802,201.087158 92.217651,173.359863 57.462158,120.748169 Z M54.297973,108.12915 C54.484863,98.46582 53.98706,89.151855 58.079101,79.965332 C62.727539,70.114746 63.470214,61.474365 60.898681,47.169037 C56.221435,21.14975 46.333984,4.928009 32.980956,1.365997 C4.498412,-2.878754 0.970458,25.675201 0.280028,46.561432 C-1.292238,58.250488 8.386717,108.273316 20.091551,116.746582 C31.593748,113.743042 42.886961,110.796143 54.297972,108.12915 L54.297973,108.12915 Z" id="svg_8"></path>
                <path d="M92.537842,204.539795 C103.507813,208.427612 113.194214,210.906738 127.109009,215.331909 C121.653321,284.878784 57.782471,257.151489 92.537842,204.539795 Z M95.702027,191.920654 C95.515137,182.257446 96.01294,172.943481 91.920899,163.756958 C87.272584,153.90625 86.529786,145.265991 89.101319,130.960571 C93.778565,104.941284 103.666016,88.719604 117.019044,85.157592 C145.501588,80.912841 149.029542,109.466796 149.719972,130.353027 C151.292238,142.041992 141.613283,192.064819 129.908571,200.538086 C118.406252,197.534546 107.113039,194.587769 95.702028,191.920654 L95.702027,191.920654 Z" id="svg_9"></path>
            </g>
            <g id="svg_10" transform="translate(1025.084718, 148.701610) rotate(34.525761) translate(-1025.084718, -148.701610) translate(950.084718, 20.201610)">
                <path d="M57.462158,120.748169 C46.492187,124.636108 36.805786,127.115234 22.890991,131.540405 C28.346802,201.087158 92.217651,173.359863 57.462158,120.748169 Z M54.297973,108.12915 C54.484863,98.46582 53.98706,89.151855 58.079101,79.965332 C62.727539,70.114746 63.470214,61.474365 60.898681,47.169037 C56.221435,21.14975 46.333984,4.928009 32.980956,1.365997 C4.498412,-2.878754 0.970458,25.675201 0.280028,46.561432 C-1.292238,58.250488 8.386717,108.273316 20.091551,116.746582 C31.593748,113.743042 42.886961,110.796143 54.297972,108.12915 L54.297973,108.12915 Z" id="svg_11"></path>
                <path d="M92.537842,204.539795 C103.507813,208.427612 113.194214,210.906738 127.109009,215.331909 C121.653321,284.878784 57.782471,257.151489 92.537842,204.539795 Z M95.702027,191.920654 C95.515137,182.257446 96.01294,172.943481 91.920899,163.756958 C87.272584,153.90625 86.529786,145.265991 89.101319,130.960571 C93.778565,104.941284 103.666016,88.719604 117.019044,85.157592 C145.501588,80.912841 149.029542,109.466796 149.719972,130.353027 C151.292238,142.041992 141.613283,192.064819 129.908571,200.538086 C118.406252,197.534546 107.113039,194.587769 95.702028,191.920654 L95.702027,191.920654 Z" id="svg_12"></path>
            </g>
            <g id="svg_1" transform="translate(514.425170, 713.766013) rotate(42.377598) translate(-514.425170, -713.766013) translate(439.425170, 585.266013)">
                <path d="M57.462219,120.748169 C46.492248,124.636108 36.805786,127.115234 22.890991,131.540405 C28.346802,201.087158 92.217651,173.359863 57.462219,120.748169 Z M54.297973,108.12915 C54.484863,98.46582 53.986999,89.151855 58.07904,79.965332 C62.727478,70.114746 63.470275,61.474365 60.898742,47.169067 C56.221435,21.14978 46.333984,4.927978 32.980895,1.365966 C4.498412,-2.878785 0.970397,25.67517 0.280028,46.561401 C-1.292238,58.250488 8.386717,108.273315 20.09149,116.746582 C31.593809,113.743042 42.8869,110.796143 54.297972,108.12915 L54.297973,108.12915 Z" id="svg_2"></path>
                <path d="M92.537781,204.539795 C103.507752,208.427612 113.194214,210.906738 127.109009,215.331909 C121.653259,284.878784 57.78241,257.151489 92.537781,204.539795 Z M95.702027,191.920654 C95.515198,182.257446 96.013001,172.943481 91.92096,163.756958 C87.272584,153.90625 86.529725,145.265991 89.101319,130.960571 C93.778565,104.941284 103.666077,88.719604 117.019105,85.157592 C145.501588,80.912841 149.029603,109.466796 149.719972,130.353027 C151.292238,142.041992 141.613283,192.064819 129.908571,200.538086 C118.406252,197.534546 107.1131,194.587769 95.702028,191.920654 L95.702027,191.920654 Z" id="svg_3"></path>
            </g>
            <g id="svg_13" transform="translate(328.418625, 891.760046) rotate(42.336998) translate(-328.418625, -891.760046) translate(253.418625, 763.260046)">
                <path d="M57.462219,120.748169 C46.492248,124.636108 36.805786,127.115234 22.890991,131.540405 C28.346802,201.087158 92.217651,173.359863 57.462219,120.748169 Z M54.297973,108.12915 C54.484863,98.46582 53.986999,89.151855 58.07904,79.965332 C62.727478,70.114746 63.470275,61.474365 60.898742,47.169067 C56.221435,21.14978 46.333984,4.927978 32.980895,1.365966 C4.498412,-2.878785 0.970397,25.67517 0.280028,46.561401 C-1.292238,58.250488 8.386717,108.273315 20.09149,116.746582 C31.593809,113.743042 42.8869,110.796143 54.297972,108.12915 L54.297973,108.12915 Z" id="svg_14"></path>
                <path d="M92.537781,204.539795 C103.507752,208.427612 113.194214,210.906738 127.109009,215.331909 C121.653259,284.878784 57.78241,257.151489 92.537781,204.539795 Z M95.702027,191.920654 C95.515198,182.257446 96.013001,172.943481 91.92096,163.756958 C87.272584,153.90625 86.529725,145.265991 89.101319,130.960571 C93.778565,104.941284 103.666077,88.719604 117.019105,85.157592 C145.501588,80.912841 149.029603,109.466796 149.719972,130.353027 C151.292238,142.041992 141.613283,192.064819 129.908571,200.538086 C118.406252,197.534546 107.1131,194.587769 95.702028,191.920654 L95.702027,191.920654 Z" id="svg_15"></path>
            </g>
        </g>
    </g>
</svg>