<?xml version="1.0" encoding="UTF-8"?>
<svg width="100px" height="100px" viewBox="0 0 100 100" version="1.1" xmlns="http://www.w3.org/2000/svg" xmlns:xlink="http://www.w3.org/1999/xlink">
    <!-- Generator: Sketch 52.3 (67297) - http://www.bohemiancoding.com/sketch -->
    <title>Artboard</title>
    <desc>Created with Sketch.</desc>
    <g id="Artboard" stroke="none" stroke-width="1" fill="none" fill-rule="evenodd">
        <g id="haze" transform="translate(10.000000, 20.000000)" fill="#8B8B8B">
            <path d="M79.312294,10 C74.7967071,10 72.4817505,8.01330563 70.4362334,6.25671391 C68.6070098,4.68994141 67.0274506,3.33312984 63.7737808,3.33312984 C60.520729,3.33312984 58.9411697,4.68994141 57.1119461,6.25671391 C55.070137,8.01330563 52.7545625,10 48.2389756,10 C43.7233887,10 41.411522,8.01025391 39.3660049,6.25671391 C37.5398711,4.68688969 35.9609299,3.33312984 32.7103501,3.33312984 C29.463478,3.33312984 27.8907166,4.68688969 26.0652007,6.25671391 C24.0233916,8.01025391 21.7115249,10 17.1990281,10 C12.690239,10 10.3746643,8.01025391 8.33594509,6.25671391 C6.51042942,4.68688969 4.93395996,3.33312984 1.68770603,3.33312984 C0.75579075,3.33312984 0,2.58667 0,1.66687016 C0,0.74646 0.75579075,2.77555756e-16 1.68770603,2.77555756e-16 C6.1964951,2.77555756e-16 8.50836182,1.98974609 10.5501709,3.74328609 C12.3763047,5.31311031 13.952156,6.66687016 17.1990281,6.66687016 C20.4489898,6.66687016 22.0254593,5.31005859 23.8509751,3.74328609 C25.8896943,1.98669438 28.201561,0 32.7103501,0 C37.2228469,0 39.5347138,1.98669437 41.5802307,3.74328609 C43.4057465,5.31005859 44.9853057,6.66687016 48.2389756,6.66687016 C51.4926453,6.66687016 53.0715866,5.31005859 54.9014282,3.74328609 C56.9432373,1.98669438 59.2619019,0 63.7737808,0 C68.2862778,0 70.6049424,1.98669437 72.6504593,3.74328609 C74.4796829,5.31005859 76.0592422,6.66687016 79.312294,6.66687016 C80.2442093,6.66687016 81,7.41333 81,8.33312984 C81,9.25354 80.2442092,10 79.312294,10 Z" id="Path"></path>
            <path d="M79.312294,27 C74.7967071,27 72.4817505,25.0133056 70.4362334,23.2567139 C68.6070098,21.6899414 67.0274506,20.3331298 63.7737808,20.3331298 C60.520729,20.3331298 58.9411697,21.6899414 57.1119461,23.2567139 C55.070137,25.0133056 52.7545625,27 48.2389756,27 C43.7233887,27 41.411522,25.0096436 39.3660049,23.2567139 C37.5398711,21.6862792 35.9609299,20.3331298 32.7103501,20.3331298 C29.463478,20.3331298 27.8907166,21.6862792 26.0652007,23.2567139 C24.0233916,25.0096436 21.7115249,27 17.1990281,27 C12.690239,27 10.3746643,25.0096436 8.33594509,23.2567139 C6.51042942,21.6862792 4.93395996,20.3331298 1.68770603,20.3331298 C0.75579075,20.3331298 0,19.5866698 0,18.6662597 C0,17.7464598 0.75579075,17 1.68770603,17 C6.1964951,17 8.50836182,18.9897461 10.5501709,20.7432861 C12.3763047,22.3131103 13.952156,23.6662597 17.1990281,23.6662597 C20.4489898,23.6662597 22.0254593,22.3100586 23.8509751,20.7432861 C25.8896943,18.9866942 28.201561,17 32.7103501,17 C37.2228469,17 39.5347138,18.9866942 41.5802307,20.7432861 C43.4057465,22.3100586 44.9853057,23.6662597 48.2389756,23.6662597 C51.4926453,23.6662597 53.0715866,22.3100586 54.9014282,20.7432861 C56.9432373,18.9866942 59.2619019,17 63.7737808,17 C68.2862778,17 70.6049424,18.9866942 72.6504593,20.7432861 C74.4796829,22.3100586 76.0592422,23.6662597 79.312294,23.6662597 C80.2442093,23.6662597 81,24.41333 81,25.3331298 C81,26.2529297 80.2442092,27 79.312294,27 Z" id="Path"></path>
            <path d="M79.312294,44 C74.7967071,44 72.4817505,42.0133058 70.4362334,40.2567139 C68.6070098,38.6899414 67.0274506,37.3337403 63.7737808,37.3337403 C60.520729,37.3337403 58.9411697,38.6899414 57.1119461,40.2567139 C55.070137,42.0133058 52.7545625,44 48.2389756,44 C43.7233887,44 41.411522,42.0102539 39.3660049,40.2567139 C37.5398711,38.6868897 35.9609299,37.3337403 32.7103501,37.3337403 C29.463478,37.3337403 27.8876267,38.6868897 26.0614929,40.2567139 C24.0233916,42.0102539 21.7115249,44 17.1990281,44 C12.690239,44 10.3783721,42.0102539 8.33594509,40.2567139 C6.51042942,38.6868897 4.93395996,37.3337403 1.68770603,37.3337403 C0.75579075,37.3337403 0,36.58667 0,35.6668702 C0,34.7470703 0.75579075,34 1.68770603,34 C6.1964951,34 8.50836182,35.9903564 10.5501709,37.7432861 C12.3763047,39.3137208 13.952156,40.6668702 17.1990281,40.6668702 C20.4489898,40.6668702 22.0254593,39.3100586 23.8509751,37.7432861 C25.8896943,35.9866944 28.201561,34 32.7103501,34 C37.2228469,34 39.5347138,35.9866944 41.5802307,37.7432861 C43.4057465,39.3100586 44.9853057,40.6668702 48.2389756,40.6668702 C51.4926453,40.6668702 53.0715866,39.3100586 54.9014282,37.7432861 C56.9432373,35.9866944 59.2619019,34 63.7737808,34 C68.2862778,34 70.6049424,35.9866944 72.6504593,37.7432861 C74.4796829,39.3100586 76.0592422,40.6668702 79.312294,40.6668702 C80.2442093,40.6668702 81,41.4133302 81,42.3337403 C81,43.2535402 80.2442092,44 79.312294,44 Z" id="Path"></path>
            <path d="M79.312294,61 C74.7967071,61 72.4817505,59.0133056 70.4362334,57.2567139 C68.6070098,55.6899414 67.0274506,54.3331298 63.7737808,54.3331298 C60.520729,54.3331298 58.9411697,55.6899414 57.1119461,57.2567139 C55.070137,59.0133056 52.7545625,61 48.2389756,61 C43.7233887,61 41.411522,59.0102539 39.3660049,57.2567139 C37.5398711,55.6868897 35.9609299,54.3331298 32.7103501,54.3331298 C29.463478,54.3331298 27.8876267,55.6868897 26.0614929,57.2567139 C24.0233916,59.0102539 21.7115249,61 17.1990281,61 C12.690239,61 10.3783721,59.0102539 8.33594509,57.2567139 C6.51042942,55.6868897 4.93395996,54.3331298 1.68770603,54.3331298 C0.75579075,54.3331298 0,53.58667 0,52.6668702 C0,51.74646 0.75579075,51 1.68770603,51 C6.1964951,51 8.50836182,52.9897461 10.5501709,54.7432861 C12.3763047,56.3131103 13.952156,57.6668702 17.1990281,57.6668702 C20.4489898,57.6668702 22.0254593,56.3100586 23.8509751,54.7432861 C25.8896943,52.9866944 28.201561,51 32.7103501,51 C37.2228469,51 39.5347138,52.9866944 41.5802307,54.7432861 C43.4057465,56.3100586 44.9853057,57.6668702 48.2389756,57.6668702 C51.4926453,57.6668702 53.0715866,56.3100586 54.9014282,54.7432861 C56.9432373,52.9866944 59.2619019,51 63.7737808,51 C68.2862778,51 70.6049424,52.9866944 72.6504593,54.7432861 C74.4796829,56.3100586 76.0592422,57.6668702 79.312294,57.6668702 C80.2442093,57.6668702 81,58.41333 81,59.3331298 C81,60.25354 80.2442092,61 79.312294,61 Z" id="Path"></path>
        </g>
    </g>
</svg>