<?xml version="1.0" encoding="utf-8"?>
<!-- Generator: Adobe Illustrator 22.0.1, SVG Export Plug-In . SVG Version: 6.00 Build 0)  -->
<svg version="1.1" xmlns="http://www.w3.org/2000/svg" xmlns:xlink="http://www.w3.org/1999/xlink" x="0px" y="0px"
	 viewBox="0 0 2272 1872" style="enable-background:new 0 0 2272 1872;" xml:space="preserve">
<style type="text/css">
	.st0{fill:#CAD9D9;}
	.st1{fill:#FFFFFF;}
	.st2{fill:#569C9E;}
	.st3{fill:#427F7F;}
	.st4{fill:#63ADB2;}
	.st5{fill:#80DDE0;}
	.st6{fill:#F26575;}
	.st7{fill:#D93663;}
	.st8{fill:#2A1C34;}
	.st9{fill:#703E5B;}
	.st10{fill:#B07887;}
	.st11{fill:#FDF0E2;}
	.st12{fill:#B25360;}
	.st13{fill:#FEB184;}
	.st14{fill:#482233;}
	.st15{fill:#605379;}
	.st16{fill:#AF4E59;}
	.st17{fill:#8E4751;}
	.st18{fill:#632C35;}
	.st19{fill:#DB8D98;}
</style>
<g id="Background">
	<g>
		<g>
			<g>
				<g>
					<g>
						<g>
							<path class="st0" d="M2272,1872H-0.9V-1H2272"/>
						</g>
					</g>
				</g>
			</g>
		</g>
	</g>
	<g>
		<path class="st1" d="M2073,513.9c-60.5-6.8-130.5,30.9-135.8,91.5c-30.8-22.3-76.4-21.4-106.3,2c-30,23.4-41.8,67.4-27.6,102.7
			c-27.3-8.6-56.7,13-67,39.7c-10.3,26.7-6.6,56.5-2.8,84.9c-26.1-18.7-70.3,34.9-56.9,64.1c-6.9-4.5-13.9-9-21.6-12.1
			c-30.5-12-77.4,13.2-88.4,44.1c-26.3-24.9-76.9-12.9-89.2,21.2c-17.3-10.9-57.8-15.5-77.5-9.7c-23.3-11.8-55-3.3-69.2,18.6
			c-16-5.6-33.2-11.2-49.4-6.3c-15.3,4.6-68.9,32.1-66.6,46.9c0.3,0.8,0.6,1.6,0.9,2.4c-0.5-0.8-0.8-1.6-0.9-2.4
			c-1.9-4.8-3.8-9.6-5.6-14.4c-25.4-3.3-52.1,13-60.7,37.2c-27.7-17.2-81.3-3.3-102.4,21.6c-5.5-16.9-31.7-8-43.2,5.5
			c-11.6,13.5-28.9,30.8-43.6,20.8c-5.8-3.9-8.5-11-12.3-16.9c-8-12.5-55.6-10.7-70.5-10.9c10.9-11.2,2.7-31.7-11.3-38.5
			c-14.1-6.8-30.6-4.2-46-1.5c6.3-32.6-34.2-69.5-37-102.7c-1.9-22.3-4.3-45.9-17.6-64c-13.3-18-55.9-20.3-72.8-5.5
			c-2.2-33.4-29.9-64.8-61.6-75.5c-9-22.3-10.7-47.4-22.6-68.3s-47.2-47.9-66.3-33.4c-37.9-17-87.5-8-128.2-0.1
			c-28.5,5.6-60.6,42.2-71.2,69.2c-28.5-19.8-71.1-25.2-103.3-12.3c-10.1-12.6-16-28.5-16.5-44.6c-9.9-0.3-29.7-15.1-39.6-15.4
			c-20.5-21.4-43.9-18.3-68.9-2.5c-19.8,12.5-44.4-9-53.4-30.6c-9-21.7-14.3-48.1-35-59.1c-8.2-4.3-16.9-5.2-25.8-4.1V1872H2272
			V485.4c-23.5,31.7-37.6,70.3-38,109.8C2185.3,558.6,2133.5,520.7,2073,513.9z"/>
		<g>
			<path class="st2" d="M909.8,1333c-12.5-6.9-125.8-158.7-125.8-158.7L702.4,968V863.8l17.7-43.9l-50.7-15.3h-30.1
				c0,0-90.6,4.4-109.8,0s-47.6-29.2-47.6-29.2h-62.6L9.8,765l218.4,523.3L909.8,1333z"/>
			<path class="st3" d="M595.5,1041.5l31,154.9l84.5,113.2l57.1-9.2l-14.8-39.4l-84-96l-42.8-184.9l64.6,157.9l94.5,101.8
				l122.5,91.9c0.7,0.6,1.3,1,1.7,1.3l-304.2-20l-10.1-47.1V1041.5z"/>
			<polygon class="st3" points="0,764.8 229.5,770.6 277.3,915.5 385.4,1239.8 509.8,1306.8 -0.4,1300.4 			"/>
			<polygon class="st2" points="271.7,1204.6 212.1,1083.1 163.6,907.3 163.6,999.3 178.3,1083.1 210,1164.2 260.9,1288.3 
				245.6,1303.5 341.2,1304.7 			"/>
			<path class="st3" d="M477.4,1138c2.6-17-73.5-243-73.5-243l-62.7-121.6l78,2L433.9,895l25.9,97l92.9,317.6l-8.4-0.6
				C516.7,1245.8,475.7,1149.3,477.4,1138z"/>
			<path class="st3" d="M568.7,1223.2c0,0-45-263.1-46.6-268.1c-1.7-5-6.7-89.9-13.3-93.2c-6.7-3.3-27-86.5-27-86.5
				s28.5,24.8,47.6,29.2c1.7,0.4,4,0.7,6.8,1l-0.8,36.4L568.7,1223.2z"/>
		</g>
		<polygon class="st4" points="1068.4,1300.4 1187.2,1300.4 2272,1300.4 2272,1660.1 -0.4,1660.1 -0.4,1300.4 		"/>
		<path class="st2" d="M836.6,1409.2c-29.7-7.4-57.2-23.3-78.3-45.3c29.7-31.4,76.8-37.2,119.9-41.1c83.2-7.5,166.4-15,249.6-22.4
			h-59.3H-0.4v359.7H270c177.5-82.8,358.7-158,542.7-225.2C824.8,1430.4,839.4,1421.7,836.6,1409.2z"/>
		<path class="st5" d="M995.1,1440.7c4,2.8,8.4,6.4,8.7,11.3c0.3,4.5-2.8,8.3-5.7,11.7c-42.5,48.8-89.6,93.6-140.4,133.7
			c80.3-59.1,202.7-152.3,177.1-152.3c-11.5,0-90.1-61.1-111.2-70.7c-1.7-0.8-1.9-3.2-0.2-4.2l121.9-69.8h-5.2
			c-45.4,18.7-105.1,44.2-142.9,66.7C890,1371.3,962.2,1417.5,995.1,1440.7z"/>
		<g>
			<path class="st6" d="M2170.9,991.9c-14.1,4.8-348.8,23.5-348.8,23.5l-33,42.5l-115.5,18.9l-73,61.3h-249.8l-37.7,41.3l-226.2,0
				l-33,86l-70.6,35.1h1188.1L2170.9,991.9z"/>
			<g>
				<polygon class="st7" points="1892.6,1162.5 1374.2,1162.5 1329.8,1179.3 1594.1,1188 1577.3,1210.7 1074.8,1210.7 
					1086.9,1179.3 1313.1,1179.3 1350.8,1138 1600.6,1138 1909.5,1146.2 				"/>
				<polygon class="st7" points="1389.5,1275 1396.3,1254.5 2027.9,1254.5 2027.9,1235.8 1687.9,1235.8 1723.7,1210.2 
					2088.7,1203.4 2119.4,1179.3 2171.2,1179.3 2171.4,1300.4 983.3,1300.4 1034.3,1275 				"/>
				<path class="st7" d="M2016.4,1044l-51.5,22.8h-230.5l54.7-8.9l11.4-14.7c9.4,0,16.9,0.2,18.5,0.8
					C1824.1,1045.7,2016.4,1044,2016.4,1044z"/>
				<path class="st7" d="M2114.5,1118.9l-299.2,1l11.6-13.7h280.6l16.9-23.1h46.6l0,21.2c-19.6-2.1-40.8-4.1-40.8-4.1L2114.5,1118.9
					z"/>
			</g>
		</g>
		<path class="st8" d="M2246.5,337.1c-2.1,14.1-9.1,26.3-14.3,39.3c-5.2,13.1-7.9,27-14.6,39.4c-6.9,12.8-15.2,24.8-22.2,37.5
			c-1.7,3.1-3.1,6.5-4.5,9.8c0.2-9.5-0.1-18.9-0.1-28.4c-0.1-25.1-0.2-50.2-0.2-75.3c0-12.5-0.1-25-0.1-37.4c0-11,0.2-21.8,2.5-32.7
			c2.5-11.6,2.8-23.1,2.3-34.9c-0.5-11.4-0.3-22.9-1.7-34.3c-1.4-11.2-3.3-22.2-3.3-33.5c0.1-12.1,0.7-24-1.5-35.9
			c-1.1-5.9-2.7-11.7-3.1-17.7c-0.5-6.9-1.2-13.8-1.9-20.6c-1.4-12.7-2.5-25.4-2.2-38.2c0.2-10.5,0.7-21-1.1-31.3
			c-2.1-11.5-7.9-21.1-16.5-28.9c-6.6-6-18.6,1.9-13,10.1c5,7.3,8.3,15.5,9.6,24.3c1.2,8.2,0.6,17.3,0.4,25.8
			c-0.3,11.2,0.4,22.4,1.6,33.5c1.2,11.7,1.7,23.7,3.6,35.3c0.9,5.3,2.4,10.6,3.1,15.9c0.8,5.8,0.5,11.7,0.4,17.5
			c-0.2,11.8,0.3,23.2,1.9,34.9c1.5,10.8,2,21.4,2.3,32.3c0.2,8.3,1.1,16.8,0.8,25.2c-4.3-11.1-13.9-21.7-19.4-30.3
			c-2.4-3.8-3.6-7.9-5.6-11.9c-2.3-4.7-5.9-8.9-9-13c-6.8-9.1-14.1-17.7-21.6-26.1c-7.1-7.9-14.3-15.8-21.6-23.6
			c-3.6-3.9-7.4-7.6-11.2-11.3c-2.1-14.6-2.8-29.4-3-44.1c-0.2-20.7,1.6-41.8-0.5-62.5c-0.4-3.9-5.7-3.9-6.1,0
			c-2.2,21.2-2.5,43-2.5,64.4c0,10.5,0.3,21,1.2,31.5c-0.2-0.2-0.4-0.4-0.6-0.6c-6.8-7.1-11.8-16.8-16.6-25.3
			c-5.1-9.2-8.9-18-10.2-28.5c-1.5-11.7-8.5-20.8-12.4-31.6c-4.2-11.6-6.9-23.6-8.3-35.9c-0.6-5.5-8.2-5.6-8.6,0
			c-0.8,10.6,0.6,21,3,31.4c1.2,4.9,2.5,9.9,4.1,14.7c1.6,4.7,4.1,9,5.9,13.6c1.8,4.6,1.8,9,2.1,13.9c0.3,5.5,1.5,10.6,3.2,15.8
			c3.3,10.1,8,19.9,12.8,29.3c5.1,9.9,11.5,17.3,19.1,25.3c7.3,7.7,14.1,16,21.3,23.8c7.2,7.9,14.3,15.8,21.2,24
			c6.8,8,14.2,15.9,20.1,24.6c3.1,4.5,5.2,9.4,8.7,13.7c3.8,4.6,8.1,8.7,11.8,13.3c5.8,7.2,12.7,14.2,14.6,23.6
			c0.4,2.1,2.6,3.3,4.6,3.3c-0.1,0.7-0.3,1.5-0.4,2.2c-0.9,6-1.5,12.1-1.7,18.2c-0.4,12-0.1,24.1-0.2,36.1c0,24.7-0.1,49.4-0.1,74.1
			c0,2.4,0,4.7,0,7.1c-3.9-8.9-8.3-17.6-10.4-27.1c-0.9-4.3-1.1-8.9-1.8-13.2c-0.9-4.9-2.2-9.8-3.6-14.6
			c-2.9-10.1-5.8-20.1-6.5-30.7c-0.2-2.3-3.6-2.3-3.6,0c-0.1,9.5,1.5,18.8,3.1,28.1c1.7,10.1,2.2,20,3.2,30.2
			c1.8,18.1,14.1,32.8,16.3,50.7c0.3,2.2,1.6,3.7,3.2,4.4c-0.2,11.6-0.9,23.2-2.6,34.7c-1.8,11.9-1.8,23.5-2.2,35.4
			c-0.5,12-1.1,24.1,0.7,36.1c0.9,5.6,3.1,10.7,4.3,16.2c1.2,5.5,0.8,11.4,0.6,17c-0.5,13.3-0.3,26.5,0,39.8
			c0.1,6.8,0.6,13.7,0.3,20.5c-0.2,5.8-1.3,11.4-2.1,17.1c-1.8,13.4,0.5,26.7,1.8,40.1c0.7,7.1,10.5,7.2,11.2,0
			c1-11.6,0.6-23.7,3.2-35.1c1.1-4.9,2.7-9.6,3.8-14.5c1.4-6.3,1.3-12.7,1.5-19.2c0.2-12.5,0.4-25,0.7-37.4
			c0.2-11.4,1.8-22.7-0.6-34c-1-4.9-3.2-9.6-3.9-14.6c-0.8-5.6-0.6-11.5-0.5-17.1c0.3-11.7,0.6-23.5,1.3-35.1c0.5-8,2-15.9,3.1-23.9
			c2-4,5.5-7.7,7.3-11.6c2.7-6.2,5.2-12.1,8.9-17.8c7.8-12,15.6-24.6,21.6-37.6c5.7-12.2,7.8-25.5,12.5-38
			c4.9-12.9,11.1-25,12.7-38.9C2253.2,334.4,2247,333.6,2246.5,337.1z"/>
		<path class="st8" d="M339.1,1425.4c-1.4,9.9-6.4,18.5-10.1,27.7c-3.7,9.2-5.5,19-10.3,27.8c-4.9,9-10.7,17.5-15.7,26.5
			c-1.2,2.2-2.2,4.6-3.2,6.9c0.1-6.7-0.1-13.4-0.1-20c-0.1-17.7-0.1-35.4-0.1-53.1c0-8.8,0-17.6-0.1-26.4c0-7.8,0.1-15.4,1.8-23
			c1.8-8.2,2-16.3,1.6-24.6c-0.4-8.1-0.2-16.2-1.2-24.2c-1-7.9-2.3-15.7-2.3-23.6c0.1-8.5,0.5-16.9-1.1-25.3
			c-0.8-4.2-1.9-8.3-2.2-12.5c-0.4-4.9-0.8-9.7-1.4-14.5c-1-9-1.7-17.9-1.5-27c0.2-7.4,0.5-14.8-0.8-22.1
			c-1.5-8.1-5.6-14.9-11.7-20.4c-4.7-4.2-13.1,1.3-9.2,7.1c3.5,5.2,5.8,11,6.8,17.1c0.9,5.8,0.4,12.2,0.3,18.2
			c-0.2,7.9,0.3,15.8,1.1,23.7c0.9,8.3,1.2,16.7,2.6,24.9c0.6,3.8,1.7,7.4,2.2,11.2c0.5,4.1,0.4,8.3,0.3,12.4
			c-0.1,8.3,0.2,16.3,1.3,24.6c1,7.6,1.4,15.1,1.6,22.8c0.2,5.9,0.7,11.8,0.6,17.7c-3-7.8-9.8-15.3-13.7-21.4
			c-1.7-2.6-2.5-5.6-3.9-8.4c-1.7-3.3-4.2-6.3-6.4-9.2c-4.8-6.4-9.9-12.5-15.3-18.4c-5-5.6-10.1-11.1-15.2-16.6
			c-2.6-2.7-5.2-5.4-7.9-8c-1.5-10.3-2-20.7-2.1-31.1c-0.2-14.6,1.1-29.5-0.3-44.1c-0.3-2.8-4-2.8-4.3,0c-1.6,15-1.7,30.3-1.8,45.4
			c0,7.4,0.2,14.8,0.9,22.2c-0.1-0.1-0.3-0.3-0.4-0.4c-4.8-5-8.3-11.9-11.7-17.9c-3.6-6.5-6.3-12.7-7.2-20.1
			c-1.1-8.2-6-14.6-8.7-22.3c-2.9-8.2-4.9-16.7-5.8-25.3c-0.4-3.9-5.8-4-6.1,0c-0.6,7.5,0.4,14.8,2.1,22.1c0.8,3.5,1.8,7,2.9,10.4
			c1.1,3.3,2.9,6.4,4.2,9.6c1.3,3.2,1.3,6.4,1.5,9.8c0.2,3.9,1.1,7.5,2.3,11.2c2.4,7.1,5.6,14,9,20.7c3.6,7,8.1,12.2,13.5,17.8
			c5.2,5.4,10,11.3,15,16.8c5.1,5.6,10.1,11.2,15,16.9c4.8,5.6,10,11.2,14.2,17.3c2.2,3.2,3.7,6.6,6.2,9.6c2.7,3.2,5.7,6.1,8.3,9.4
			c4.1,5.1,9,10,10.3,16.6c0.3,1.5,1.8,2.3,3.3,2.3c-0.1,0.5-0.2,1-0.3,1.6c-0.6,4.3-1.1,8.5-1.2,12.9c-0.3,8.5-0.1,17-0.1,25.5
			c0,17.4-0.1,34.9,0,52.3c0,1.7,0,3.3,0,5c-2.8-6.3-5.9-12.4-7.3-19.1c-0.7-3.1-0.8-6.2-1.3-9.3c-0.6-3.5-1.6-6.9-2.5-10.3
			c-2-7.2-4.1-14.2-4.6-21.7c-0.1-1.6-2.5-1.6-2.5,0c-0.1,6.7,1,13.3,2.2,19.8c1.2,7.1,1.6,14.1,2.3,21.3
			c1.3,12.7,9.9,23.2,11.5,35.7c0.2,1.6,1.1,2.6,2.3,3.1c-0.2,8.2-0.6,16.4-1.8,24.5c-1.2,8.4-1.2,16.6-1.6,25
			c-0.3,8.5-0.8,17,0.5,25.4c0.6,3.9,2.2,7.6,3.1,11.5c0.9,3.9,0.6,8.1,0.4,12c-0.4,9.4-0.2,18.7,0,28.1c0.1,4.8,0.4,9.7,0.2,14.4
			c-0.2,4.1-0.9,8-1.5,12.1c-1.2,9.4,0.4,18.9,1.2,28.3c0.5,5,7.4,5.1,7.9,0c0.7-8.2,0.4-16.7,2.3-24.7c0.8-3.4,1.9-6.8,2.7-10.2
			c1-4.5,1-9,1-13.5c0.1-8.8,0.3-17.6,0.5-26.4c0.2-8,1.3-16-0.4-24c-0.7-3.5-2.2-6.8-2.7-10.3c-0.6-4-0.4-8.1-0.3-12.1
			c0.2-8.2,0.4-16.5,0.9-24.8c0.3-5.7,1.4-11.2,2.2-16.9c1.4-2.8,3.9-5.4,5.1-8.2c1.9-4.3,3.7-8.6,6.3-12.6
			c5.5-8.5,11-17.4,15.3-26.5c4-8.6,5.5-18,8.8-26.8c3.4-9.1,7.8-17.6,9-27.4C343.9,1423.5,339.5,1422.9,339.1,1425.4z"/>
		<path class="st8" d="M2101.7,417.3c-1.5,10-6.5,18.8-10.2,28.1c-3.7,9.3-5.6,19.2-10.4,28.1c-4.9,9.1-10.8,17.7-15.9,26.8
			c-1.2,2.2-2.2,4.7-3.2,7c0.1-6.7-0.1-13.5-0.1-20.2c-0.1-17.9-0.1-35.8-0.1-53.7c0-8.9,0-17.8-0.1-26.7c0-7.9,0.1-15.6,1.8-23.3
			c1.8-8.3,2-16.5,1.6-24.9c-0.4-8.1-0.2-16.3-1.2-24.4c-1-8-2.4-15.9-2.3-23.9c0.1-8.6,0.5-17.1-1.1-25.6
			c-0.8-4.2-1.9-8.4-2.2-12.7c-0.4-4.9-0.8-9.8-1.4-14.7c-1-9.1-1.8-18.1-1.5-27.3c0.2-7.5,0.5-15-0.8-22.4
			c-1.5-8.2-5.7-15-11.8-20.6c-4.7-4.3-13.3,1.3-9.3,7.2c3.5,5.2,5.9,11.1,6.8,17.3c0.9,5.9,0.4,12.4,0.3,18.4
			c-0.2,8,0.3,16,1.1,23.9c0.9,8.4,1.2,16.9,2.6,25.2c0.6,3.8,1.7,7.5,2.2,11.4c0.6,4.1,0.4,8.4,0.3,12.5
			c-0.1,8.4,0.2,16.5,1.3,24.9c1,7.7,1.4,15.2,1.7,23c0.2,5.9,0.8,12,0.6,18c-3.1-7.9-9.9-15.5-13.9-21.6c-1.7-2.7-2.5-5.7-4-8.5
			c-1.7-3.3-4.2-6.3-6.4-9.3c-4.8-6.5-10.1-12.6-15.4-18.6c-5.1-5.7-10.2-11.3-15.4-16.8c-2.6-2.8-5.3-5.4-8-8.1
			c-1.5-10.4-2-21-2.1-31.5c-0.2-14.8,1.2-29.8-0.3-44.6c-0.3-2.8-4.1-2.8-4.4,0c-1.6,15.2-1.8,30.7-1.8,45.9c0,7.5,0.2,15,0.9,22.5
			c-0.1-0.1-0.3-0.3-0.4-0.4c-4.8-5.1-8.4-12-11.8-18.1c-3.7-6.6-6.3-12.9-7.3-20.4c-1.1-8.3-6.1-14.8-8.8-22.6
			c-3-8.3-4.9-16.8-5.9-25.6c-0.4-3.9-5.9-4-6.2,0c-0.6,7.6,0.4,15,2.1,22.4c0.8,3.5,1.8,7.1,3,10.5c1.2,3.4,2.9,6.4,4.2,9.7
			c1.3,3.3,1.3,6.5,1.5,9.9c0.2,3.9,1.1,7.6,2.3,11.3c2.4,7.2,5.7,14.2,9.2,20.9c3.6,7,8.2,12.4,13.6,18.1
			c5.2,5.5,10.1,11.4,15.2,17c5.1,5.6,10.2,11.3,15.2,17.1c4.8,5.7,10.1,11.4,14.4,17.5c2.2,3.2,3.7,6.7,6.2,9.8
			c2.7,3.3,5.7,6.2,8.4,9.5c4.2,5.1,9.1,10.1,10.4,16.8c0.3,1.5,1.8,2.4,3.3,2.4c-0.1,0.5-0.2,1-0.3,1.6c-0.7,4.3-1.1,8.6-1.2,13
			c-0.3,8.6-0.1,17.2-0.1,25.8c0,17.6-0.1,35.3,0,52.9c0,1.7,0,3.4,0,5.1c-2.8-6.3-5.9-12.5-7.4-19.4c-0.7-3.1-0.8-6.3-1.3-9.5
			c-0.6-3.5-1.6-7-2.6-10.4c-2.1-7.2-4.1-14.4-4.6-21.9c-0.1-1.6-2.5-1.7-2.6,0c-0.1,6.8,1.1,13.4,2.2,20.1
			c1.2,7.2,1.6,14.3,2.3,21.5c1.3,12.9,10.1,23.4,11.7,36.2c0.2,1.6,1.1,2.6,2.3,3.2c-0.2,8.3-0.6,16.5-1.8,24.8
			c-1.3,8.5-1.3,16.8-1.6,25.3c-0.3,8.6-0.8,17.2,0.5,25.7c0.6,4,2.2,7.7,3.1,11.6c0.9,3.9,0.6,8.2,0.4,12.2
			c-0.4,9.5-0.2,18.9,0,28.4c0.1,4.9,0.4,9.8,0.2,14.6c-0.2,4.1-0.9,8.1-1.5,12.2c-1.3,9.6,0.4,19.1,1.3,28.6c0.5,5.1,7.5,5.1,8,0
			c0.7-8.3,0.4-16.9,2.3-25c0.8-3.5,2-6.9,2.7-10.3c1-4.5,1-9.1,1-13.7c0.1-8.9,0.3-17.8,0.5-26.7c0.2-8.1,1.3-16.2-0.4-24.3
			c-0.7-3.5-2.3-6.9-2.8-10.4c-0.6-4-0.4-8.2-0.3-12.2c0.2-8.3,0.4-16.7,0.9-25.1c0.3-5.7,1.4-11.4,2.2-17.1c1.4-2.9,4-5.5,5.2-8.3
			c1.9-4.4,3.7-8.7,6.4-12.7c5.6-8.6,11.1-17.6,15.4-26.8c4.1-8.7,5.6-18.2,8.9-27.1c3.5-9.2,7.9-17.9,9.1-27.8
			C2106.4,415.4,2102,414.8,2101.7,417.3z"/>
		<g>
			<polygon class="st9" points="1413.1,1497.1 1733.7,1087.2 1801.7,1066.8 1928.4,907.3 2077,887.5 2097.9,840.1 2045.4,804.5 
				1981.1,804.5 1886.6,780.8 1801.7,725.5 1646.3,662.3 1669.7,610.9 1886.6,610.9 2061.2,630.6 2272,610.9 2272,1555.2 			"/>
			<path class="st8" d="M2088.7,757.2l109.4,47.3l73.9-5.3v-91.1l-63.9,5.4l0,0l0,0l-111.3,9.5l-111.4-18.9
				c0,0-215.8-18.9-221.5-18.9c-5.7,0-94.2-74.4-94.2-74.4l-23.4,51.4l155.5,63.2l152.8,31.8H2088.7z"/>
			<polygon class="st10" points="2097.3,667 2208.1,713.6 2272,708.2 2272,610.9 2061.2,630.6 1886.6,610.9 1764.8,610.9 
				1936.5,655.2 			"/>
			<path class="st9" d="M1985.5,704.2l111.4,18.9l111.3-9.5L2097.3,667l-160.8-11.7l-171.7-44.4h-95.1c0,0,88.5,74.4,94.2,74.4
				C1769.6,685.3,1985.5,704.2,1985.5,704.2z"/>
			<polygon class="st10" points="1954.5,757.2 1801.7,725.5 1886.6,780.8 1981.1,804.5 2045.4,804.5 2088.7,757.2 			"/>
			<polygon class="st8" points="1733.7,1087.2 1413.1,1497.1 1599.5,1509.7 1801.7,1066.8 			"/>
			<polygon class="st8" points="2020.8,895 1928.4,907.3 1800.8,1428.1 1664.6,1514.1 1893.9,1529.6 1969.3,1106.5 			"/>
			<polygon class="st10" points="1928.4,907.3 1801.7,1066.8 1599.5,1509.7 1664.6,1514.1 1800.8,1428.1 			"/>
			<polygon class="st8" points="2162.3,855 2077,887.5 2032.3,1445.1 1905.5,1530.4 2272,1555.2 2272,775.4 2198.1,804.5 			"/>
			<polygon class="st9" points="2173.1,1083.1 2173.1,1179.3 2236.8,1525.6 2236.8,1311.4 2198.1,804.5 2162.3,855 2135.1,865.3 
				2135.1,1031 			"/>
			<polygon class="st9" points="2077,887.5 2020.8,895 1969.3,1106.5 1893.9,1529.6 1905.5,1530.4 2032.3,1445.1 			"/>
			<polygon class="st11" points="-0.9,1179.3 105.2,1291.4 221.8,1461.9 437.1,1515.7 742.2,1515.7 1163.9,1475.4 1401.7,1417.1 
				1608.1,1385.6 1836.9,1403.6 1998.4,1385.6 2272,1300.4 2272,1872 0,1872 			"/>
			<path class="st12" d="M1939.2,1417c110-8.2,222.8,6.2,332.8,4.3v-120.9l-273.6,85.2l-161.5,17.9l-228.8-17.9l-7.1,1.1
				c63.7,25.8,131.3,41.6,199.8,41.4C1847.1,1428,1893.1,1420.5,1939.2,1417z"/>
			<path class="st13" d="M1876.3,1604.8c-50.3,4.7-100.6,9.4-151,12.7c-79.6,5.2-159.4,7-239.1,8.7c-99.7,2.2-199.3,4.3-299,6.5
				c270,37.1,545,37.2,815,0.2c-8.6,12.4-17.2,24.7-25.8,37.1c98.6-1,197.2-4.3,295.6-10v-104.8c-77.6,19.6-158.8,27.4-238.8,34.9
				C1980.9,1595,1928.6,1599.9,1876.3,1604.8z"/>
			<path class="st13" d="M157.9,1486.1c8.8,2,18-0.9,26.6-3.7c17.3-5.6,34.7-11.3,52-16.9l-14.6-3.7l-116.6-170.5L-0.9,1179.3
				l0,30.4c38,84.7,83.7,166.1,129.2,247.2C135.3,1469.4,143.9,1483,157.9,1486.1z"/>
			<path class="st12" d="M191.7,1603.9c-3.5-12.7-26-3.2-33.4,0.1c-2.9,1.3-5.7,2.7-8.4,4.2c1.2-2,2.4-4,3.6-6
				c7.9-13.6,14.1-27.6,15.3-43.4c0.3-3.9-5.5-4.4-6.6-0.9c-2.6,8.2-5.9,15.9-9.6,23.5c2-8.4,4-21.4-5.6-22c-5-0.3-7.8,4.1-9.6,8.1
				c-2.5,5.7-4.5,11.6-6.1,17.6c-1.7,6.2-2.8,12.5-3.4,18.9c-0.8,1.1-1.5,2.3-2,3.5c-1.1-8.6-3-17.2-5.4-25.4
				c-1.6-5.4-8.7-4.9-10.5,0c-4.9,13.7-7.9,28.1-8.7,42.6c-0.5,9.1-0.6,18.6,3.2,26.6c-0.1,1-0.3,2.1-0.4,3.1
				c-0.1,0.6-0.1,1.1,0,1.6c-1.5,2.3-1.7,5.4,0,7.8c-1.2,2.3-2.4,4.6-3.5,7c0.4-8.2,0.1-16.4-0.9-24.7c-0.9-7.3-1.6-16-4.6-22.8
				c-2.5-5.7-8.8-6.8-12.8-1.9c-8.1,9.8-10.3,24.6-9.2,36.8c1.3,15.3,7.7,29.4,14,43.2c0,0,0,0,0,0c-1.8,4.7-3.6,9.4-5.2,14.1
				c-5.8,17-9.9,34.4-11.7,52.3c-0.5,5,7.1,4.8,7.7,0c3-25.5,11.6-49.8,22.2-73.1c4.5,0.4,9,0.7,13.5,1l16.2,1.2
				c1.3,0.1,2.3-0.2,3.2-0.9c8.4,0,17-0.2,23.6-6c1.9-1.7,1.8-5.2,0-6.9c-6.1-5.9-13.2-8.6-20.6-9.3c17.7-0.6,34.6-10.1,44.1-26.7
				c2.1-3.6-0.6-8-4.7-8.1c-11.3-0.3-22-0.1-33.1,2.3c-2.3,0.5-4.5,1.1-6.7,1.7c0.6-0.4,1.2-0.9,1.9-1.3c9.8-3.1,19.3-7.3,28.2-12.3
				c6-3.3,11.7-7.1,17.2-11.2C187.5,1614.9,193.5,1610.2,191.7,1603.9z M143.8,1685.5c-0.7,0.1-1.5,0.1-2.2,0.2
				c0-0.4-0.1-0.8-0.1-1.3C142.2,1684.8,143,1685.1,143.8,1685.5z M142.4,1652c-0.1,0.2-0.1,0.3-0.2,0.5c-0.6,0.1-1.2,0.3-1.9,0.4
				c-0.5-0.1-1.1-0.1-1.6-0.2C140,1652.5,141.2,1652.2,142.4,1652z M107.5,1679.5c0.4-0.8,0.8-1.6,1.2-2.4c1.3-2.6,2.6-5.3,4-7.9
				c5.7,2.6,11.7,4.1,17.7,4.5C122.7,1674.1,114.8,1676.4,107.5,1679.5z"/>
			<path class="st12" d="M962,1820.8H369.9l-148-22.4l-93.3-35.4c16.1-13.7,32.8-26.6,50.1-38.7c0.2,11.5,5.8,22.2,14.2,30.5
				c5.3,5.2,11.5,9.7,17.7,13.6c5.6,3.6,12.6,8.1,19.1,3.6c11.4-7.9-0.5-26.1-6.9-33.1c-8.4-9.1-19.6-14.7-29-22.5
				c2.5-1.3,4.1-3.4,5.4-6c9.2-5.9,18.5-11.6,28-17c26.7,26.3,62.2,42.1,99.5,45.6c9.4,0.9,19,1,28.4,0.1c4-0.4,8.3-1,10.5-4.8
				c2.7-4.5,0.3-9.2-2.7-12.8c-13.7-16.6-36.1-20.5-55.9-25.6c-20.1-5.1-40.3-9.9-60.7-13c8.3-4.4,16.8-8.5,25.4-12.5
				c2.3-1.1,4.6-2.1,6.9-3.1c7.1,4.6,14.8,8.1,22.8,11.1c9.7,3.6,25.3,11.7,33.5,1.4c9.7-12.1-8.2-20-16.9-23.5
				c-2.2-0.9-4.4-1.7-6.7-2.4c6.6-2.5,13.2-5,19.8-7.4c5.4-2,3.2-10.4-2.4-8.7c-9.6,3-19.2,6.3-28.7,9.9c3.5-3,6.8-6.1,10.1-9.3
				c4-4,8.6-8.2,9.2-14.1c0.5-5.1-2.8-9.7-8.2-10c-5.8-0.4-11.2,4.8-15.4,8.2c-5,4-9.6,8.4-13.8,13.1c-4.4,5-8.3,10.3-11.6,16
				c-1.4,1.2-2.4,2.8-2.5,4.6c-1.1,2.2-2.2,4.4-3.1,6.6c-9.1,4.2-18.1,8.7-26.9,13.5c0,0,0,0,0-0.1c6.1-14.1,11.7-28.5,16.6-43.1
				c4.8-14.1,11.1-31,6.7-46c-1.6-5.6-5.9-10.8-12.3-10.1c-6.8,0.7-11.5,7.7-15.2,12.8c-8.3,11.6-12.9,25.5-14.9,39.5
				c-2.6,18.2-2.3,37.5,2,55.4c0.1,0.3,0.2,0.6,0.3,0.9c-5.6,3.2-11.2,6.6-16.7,10c1-3.6,1.9-7.2,2.7-10.9
				c1.7-7.5,3.6-15.6,3.9-23.3c0.2-6-3.3-10.4-9.6-9.6c-11.8,1.5-20.5,12.1-24.3,22.7c-4.5,12.3-2.3,26,1.4,38.3
				c-16.2,11.3-31.8,23.4-46.8,36c-4.2,3.6-8.3,7.2-12.4,10.8L91.7,1749l-92.1-179.4L0,1872h1222.4L962,1820.8z M309,1709.2
				c-0.3,0.2-0.5,0.5-0.8,0.8c-3.6-1.3-7.2-2.7-10.7-4C301.3,1707.1,305.2,1708.2,309,1709.2z M227.4,1652.3c0.1,0,0.2,0,0.3,0
				c-0.2,1.4-0.3,2.9-0.4,4.3C227.4,1655.2,227.4,1653.7,227.4,1652.3z M226.8,1679c0.3,0.5,0.7,1,1.2,1.5c-0.5,0.2-0.9,0.4-1.3,0.6
				C226.7,1680.4,226.8,1679.7,226.8,1679z"/>
			<path class="st12" d="M1570.2,1573.8c-25.9-2.2-51.8-2.3-77.7-2.5c-25.9-0.2-51.8-0.4-77.7,0.1c-7.4,0.1-7.2,10.9,0,11.4
				c25.9,1.9,51.8,3.1,77.7,4.2c25.9,1.1,51.8,2.4,77.7,1.6C1579.8,1588.2,1579.6,1574.6,1570.2,1573.8z"/>
			<path class="st12" d="M1062.5,1682.4c-24.3,0.6-48.4,3.1-72.6,5.4c-9.4,0.9-9.6,15.8,0,14.9c24.8-2.3,49.6-4.4,74.2-8.4
				C1070.9,1693.3,1069.2,1682.3,1062.5,1682.4z"/>
			<path class="st12" d="M746.3,1722.5c0.8-0.1,0.5-0.4-0.6-1c-1.2-1.2-2.7-2.1-4.3-2.5c-2.1-0.7-4.4-0.7-6.6-0.8
				c-4.6-0.2-9.3,0.1-14,0.2c-9.3,0.2-18.6,0.3-28,0.5c-18.6,0.4-37.3,1.1-55.9,1.6c-18.6,0.5-37.3,1.4-55.9,2.2
				c-18.2,0.8-37.6,0.1-55.3,4.7c-5,1.3-5.3,9.2,0,10.4c17.9,3.9,37.1,2.5,55.3,2.6c19,0,37.9,0.2,56.9,0
				c18.6-0.2,37.3-0.2,55.9-0.6c9.3-0.2,18.6-0.4,28-0.6c4.6-0.1,9.3,0,14-0.4c2.7-0.2,5.6-0.5,7.9-1.9c1.1-0.7,2.1-1.6,3-2.6
				c1.2-2.1,1.6-2.3,1.1-0.8C753,1731,750.5,1724.2,746.3,1722.5z"/>
			<path class="st12" d="M1411.3,1839.2c-23-2.3-46-3.2-69.1-4.4c-7.2-0.3-7.1,10.8,0,11.1c23,1.2,46,2.5,69.1,2.5
				C1417.4,1848.4,1417.1,1839.8,1411.3,1839.2z"/>
			<path class="st12" d="M1870.9,1684.5c-28.6,1.4-56.9,0.5-85-5.7c-6.7-1.5-9.6,8.8-2.9,10.4c29.1,6.8,59.4,9.2,89.1,4.9
				C1877.6,1693.3,1876.3,1684.3,1870.9,1684.5z"/>
			<path class="st12" d="M2168.1,1539.4c-16.2-0.4-32.1,2.2-48.1,4.3c-16.1,2-32.3,3.5-48.4,4.7c-16.2,1.2-32.4,1.8-48.6,2
				c-16.1,0.2-32.5-0.6-48.6,0.8c-5.4,0.5-7.4,8.8-1.4,10.1c15.9,3.4,32.8,3.9,49,4.1c16.5,0.2,33.1,0,49.6-0.9
				c16.2-0.8,32.3-2.3,48.4-4.2c16.8-2,33.7-4.2,49.4-10.7C2174.6,1547.5,2174.4,1539.6,2168.1,1539.4z"/>
			<path class="st12" d="M2192.3,1493.5c-7.7,0.1-14.6,0-21.2-4.4c-5.4-3.6-12.1,4.8-7,9.1c8.8,7.5,20.3,11.1,31.2,6.1
				C2200.6,1501.9,2197.8,1493.5,2192.3,1493.5z"/>
			<path class="st12" d="M2129.8,1724c-9.2,0-18.4,0-27.6-0.1c-7.1,0-7.1,11,0,11c9.2,0,18.4,0,27.6-0.1
				C2136.8,1734.9,2136.8,1724,2129.8,1724z"/>
			<path class="st12" d="M528.7,1605.1c-20.8-1.1-41.6-1.1-62.4-1.2c-8.6,0-8.6,13.4,0,13.4c20.8-0.1,41.6-0.1,62.4-1.2
				C535.7,1615.7,535.7,1605.5,528.7,1605.1z"/>
			<path class="st12" d="M715.8,1611.5c-16.6,1.6-33.9-0.1-49.9-5.3c-7.1-2.3-10,8.6-3.1,11.1c17.8,6.3,35.8,7.2,54.1,2.7
				C721.5,1618.8,720.7,1611,715.8,1611.5z"/>
			<path class="st12" d="M1691.5,1446.3c-26.5-0.7-52.9-1.2-79.4-1.2c-8.6,0-8.6,13.4,0,13.4c26.5-0.1,52.9-0.5,79.4-1.2
				C1698.5,1457,1698.5,1446.5,1691.5,1446.3z"/>
		</g>
		<path class="st3" d="M1677.9,1364.3"/>
	</g>
</g>
<g id="object">
	<g>
		<path class="st14" d="M999.3,1126.6c0,0,16,2.6,17.3,3c1.3,0.4,17.3-3,17.3-3l16,18.5l-6.9,7.5l-1.3,9.8l-9.1,5.6h-8
			c0,0-9.3-3.4-21.4-9.2C991.1,1153,999.3,1126.6,999.3,1126.6z"/>
		<g>
			<path class="st15" d="M863.2,1449.4l10.8,11.3l-10.8,73.9v15.5c0,0,21.8,11.8,22.5,22.9H820c0,0-0.7-20.7,0-24.4
				s-0.3-37.4-0.3-37.4v-58.6C819.7,1452.6,852.5,1438.1,863.2,1449.4z"/>
			<path class="st14" d="M819.7,1452.6c0,0,12.8-5.7,25-7.1c-1.3,9.5-2.2,18.3-2.7,20.8c-4.8,23.8-6.7,48.2-5.6,72.5
				c0.2,4,0.6,8.2,3.2,11.2c2,2.3,5.1,3.4,8,4.5c13.2,4.9,25.9,10.8,38.1,17.7c0,0.3,0.1,0.6,0.1,0.9H820c0,0-0.7-20.7,0-24.4
				s-0.3-37.4-0.3-37.4V1452.6z"/>
			<path class="st15" d="M784.9,1449.4l10.8,11.3l-10.8,73.9v15.5c0,0,21.8,11.8,22.5,22.9h-65.7c0,0-0.7-20.7,0-24.4
				s-0.3-37.4-0.3-37.4v-58.6C741.4,1452.6,774.2,1438.1,784.9,1449.4z"/>
			<path class="st14" d="M741.4,1452.6c0,0,9.4-4.2,19.8-6.3c0.4,37.4,2.6,74.7,6.7,111.9c13.4,4.1,26.6,8.9,39.5,14.3
				c0,0.2,0,0.3,0.1,0.5h-65.7c0,0-0.7-20.7,0-24.4s-0.3-37.4-0.3-37.4V1452.6z"/>
			<path class="st14" d="M835.8,949.7c0,0,23.8-51.5-10-68.4s-62.8,5.6-60,48.7C765.8,930,810.2,956.3,835.8,949.7z"/>
			<path class="st14" d="M848.6,972.3c3.3,2.2,29.4,23.9,32.6,38.1c3.3,14.1,18.5,208.8,18.5,208.8s-13,54.4-17.4,62l-13,15.2
				l4.9,51.1l6,26.1l4.3,34.8l-10.3,15.2v22.3c0,8.1-5.9,14.9-13.8,16.2c-10.4,1.6-24.7,3.1-36.1,1.5c-7.3-1-13-7.1-13.8-14.4
				l-13-120.2c0,0,3.3,108.7,0,122.9c-2.5,10.7-30.5,12.7-48.7,9.2c-7.8-1.5-13.7-7.8-14.9-15.7l-6.1-42.5v-37l5.4-77.2
				c0,0-12-26.1-12-55.5c0,0-18.5,4.3-22.8-5.4c-4.3-9.8,9.8-193.6,34.8-243.6c0,0-10.9-38.1,5.4-55.5c16.3-17.4,70.7-22.8,117.4,25
				L848.6,972.3z"/>
			<g>
				<path class="st15" d="M855.5,1257.1c-3.1-1.6-6.1-4-6.8-7.4c-0.7-3,0.6-6.1,0.3-9.1c-0.4-6.3-6.6-10.6-9.5-16.2
					c-3.8-7.5-1.4-16.8,3.1-23.8c4.5-7.1,10.9-12.7,16-19.4c19.7-25.9,16.3-61.9,12.1-94.2c-3.7-28.2-7.4-56.4-11.2-84.6
					c-0.4-3.4-0.9-6.8-2.5-9.8c-2.3-4.3-6.5-7.2-10.7-9.6c-11.8-6.8-24.8-11.5-38.2-13.8c-4-0.7-8.3-1.4-10.9-4.4
					c-2.9-3.4-2.4-8.5-1.5-13c2.2-10.5,6.1-20.7,11.4-30.1c16,5.5,33,15.7,49.1,32.1l-7.6,18.5c3.3,2.2,29.4,23.9,32.6,38.1
					c3.3,14.1,18.5,208.8,18.5,208.8s-4.8,20.2-9.6,37.7C878.4,1261,866.3,1262.6,855.5,1257.1z"/>
				<path class="st15" d="M857.1,992.6l24.2,17.8l22.6,43.2l14.8,5v12.8l17.7,25.2l51.2,17.4c0,0,11.9-3.7,12.8,0
					s23.6,45.4-5.5,65.4l-34.6-0.6l-21-4.3l-53.3-32.2L857.1,992.6z"/>
				<path class="st14" d="M907.3,1073c0.8-1.5,1.7-3,2.9-4.3c1-1,2.1-1.8,3.2-2.7c2.1-1.8,3.9-3.9,5.3-6.4v10.1
					c-7.8,8.4-15.6,16.8-23.5,25.2C899.2,1087.7,903.2,1080.4,907.3,1073z"/>
				<path class="st14" d="M924,1126.5c-7.4,4.5-15.4,8-23.7,10.4c11,9.7,24.8,15.6,38.3,21.2c7.3,3.1,14.7,6.2,22,9.2
					c2,0.8,4.2,1.7,6.3,1.2c2.3-0.5,4-2.5,5.4-4.4c6.6-8.9,11.1-19.4,13-30.3c2.5,13,0.7,26.8-5,38.7c8.3-8.7,12.4-21,12.4-33
					c0-8.8-1.9-17.6-5.1-25.8c1.6-0.5,11.7-3.4,12.6,0.1c1,3.7,23.6,45.4-5.5,65.4l-34.6-0.6l-21-4.3l-53.3-32.2l-4.1-21.2
					C894.5,1128.2,910,1130.3,924,1126.5z"/>
				<path class="st15" d="M835.5,1292.4c-5.5,0.5-10.9,1.8-16.4,1.8c-5.5,0-11.3-1.6-14.8-5.9c3.9-2.4,8.7-3.1,13.2-3.6
					c14.3-1.5,28.8-1.4,42.8-4.4c8.9-1.9,17.5-5.1,25.6-9.2c-1.5,4.8-2.8,8.6-3.7,10.2l-13,15.2
					C858,1294.2,846.8,1291.4,835.5,1292.4z"/>
			</g>
			<path class="st16" d="M862.1,1435.1c-4.3-11.1-12.4-20.5-16.5-31.7c-3.7-10-4-20.9-4.3-31.6c-0.6-23.5-1.1-46.9-1.5-70.4
				c9.9-0.6,19.8-1.2,29.8-1.8l4.6,47.8l2.5,10.7c-7.4,0.7-14.8,1.4-22.2,2.1c-0.7,4.8-1.4,9.8-0.1,14.6c1.3,4.7,5.1,9.1,10,9.5
				c3.8,0.3,8-1.7,11.1,0.5c-5.5,2.6-11.5,4.1-17.6,4.4c-1.4,13.3,5.3,27.1,16.4,34.5v22.2c0,7.8-5.4,14.4-13,16
				C865.8,1454.5,865.4,1443.7,862.1,1435.1z"/>
			<path class="st17" d="M813.9,986.6l25.9-0.6c0,0,12.3,32.9,10.5,47.5l10.2,12.4c4.5,5.4,6.8,12.3,6.4,19.3l-2.7,61.6
				c-0.4,9.5-5.6,18.3-13.8,23.1c-4.3,2.5-9.4,4.7-14.6,5.3c0,0,0,48-6.9,58.2c-6.9,10.3-94.2,17.1-110.5,6
				c-16.3-11.1-17-117.3-3.4-168.7L813.9,986.6z"/>
			<path class="st18" d="M800.2,1186.4c3.4-0.8,7-1.9,9.6-4.2c7.8-7.1,2.9-19.9,4.3-30.4c0.2-1.7,0.8-3.6,2.3-4.4
				c2.4-1.2,5,0.9,7,2.6c3.5,2.9,7.9,4.7,12.4,5.3c0,3.6-0.3,48.1-6.9,58c-6.9,10.3-94.2,17.1-110.5,6c-5.2-3.6-8.8-16.8-10.9-34.9
				C737.6,1193,769.8,1193.9,800.2,1186.4z"/>
			<path class="st18" d="M818.9,1151.1c-4.9-6-4.7-14.6-4.3-22.4c1.2-21.4,2.5-42.7,3.7-64.1c0.6-10.7,2.4-23.2,11.9-28.2
				c4.4-2.3,9.6-2.4,14.6-2.4c2.4,0,5.2,0.3,7.3,1.4l2.2,2.7c-6-0.7-12.2-1.4-17.8,0.7c-5.7,2.1-10.6,7.9-9.5,13.8
				c0.7,3.8,3.6,6.8,6.8,9.1c9.5,6.6,21.3,7.7,33,7.1l-0.3,6.8c-5.6,2.4-11.7,3.6-17.8,3.5c-8.8-0.2-18.3-4-22-12
				c-1.2,19.8-2.3,39.7-3.3,59.5c-0.3,5.4-0.1,11.7,4.2,14.9c1.9,1.4,4.4,1.9,6.7,2.2c8.7,1.1,17.7-0.2,25.8-3.6
				c-2.4,3.9-5.7,7.2-9.7,9.6c-4.3,2.5-9.4,4.7-14.6,5.3c0,0,0,1.4,0,3.8c-0.6-0.1-1.2-0.1-1.8-0.2
				C828.3,1157.7,822.5,1155.6,818.9,1151.1z"/>
			<path class="st18" d="M715.1,1050.6l98.8-64l21.9-0.5c-7.7,10.8-13.1,23.3-15.5,36.3c-2.4,12.5-2.6,26.4-10.9,35.9
				c-9,10.3-24.2,11.7-37.9,12.4c-15.5,0.8-30.9,1.6-46.4,2.4c-2.8,22.4-4.3,45-4.5,67.6c17.7,4.7,35.9,7.9,54.2,9.5
				c1.6,3.7-3.9,6.2-7.9,6.5c-12.1,0.9-24.3,1.9-36.4,2.8c-1.5,0.1-3.1,0.3-4.2,1.2c-1.4,1.1-1.8,3.1-2,4.8c-2,15.6,2.1,31.4,9,45.6
				c2.2,4.6,4.8,9,7.5,13.3c-10.1-0.8-18.1-2.4-22-5.1C702.2,1208.1,701.4,1102,715.1,1050.6z"/>
			<path class="st16" d="M839.8,985.9c0,0-30.6,2-32.4,46.4c0,0-12,32.5-92.4,18.2c0,0-25.5-36.4,18.2-66.4
				C733.3,984.2,815.6,963.2,839.8,985.9z"/>
			<path class="st19" d="M792.1,1025.8c1.8-5.1,2.7-10.6,4.5-15.7c4.9-14.4,16.9-26,31.2-30.9c4.8,1.6,8.9,3.8,12,6.8
				c0,0-30.6,2-32.4,46.4c0,0-6.5,17.4-41.6,21.1C777.8,1048.1,787.7,1038.1,792.1,1025.8z"/>
			<path class="st18" d="M791.8,1126.7c-0.4,6.9-1.2,14.5-6.4,19c-3.8,3.4-9.3,4.2-14.3,4.7c-6.5,0.6-13,1-19.5,1.1
				c11.1,4.8,24,5.5,35.6,1.8c3-1,6-2.3,8.1-4.6c3.2-3.6,3.7-8.7,4.1-13.5c0.5-6.2,6.5-49.2,1.4-50.2
				C790.5,1082.9,792.1,1121.8,791.8,1126.7z"/>
			<path class="st18" d="M765.7,1094c-6.5,17-9.6,35.4-8.9,53.7c0,0.8,0.1,1.7-0.4,2.4c-0.4,0.7-1.2,1-1.9,1.3
				c-6.6,2.6-14.6,1.4-20.1-3c4.2,0.1,8.3,0,12.5-0.3c1.6-0.1,3.3-0.4,4.3-1.6c0.6-0.8,0.8-1.9,0.9-2.9c1.9-17.6-1.9-36.5,5.8-52.4
				c1.2-2.5,2.9-5.1,5.4-6.3C773.2,1079.8,766.9,1090.9,765.7,1094z"/>
			<path class="st18" d="M742.4,1112.4c5.2,0.8,10.5,0.9,15.8,0.3c-0.1,1.4-0.3,2.8-0.4,4.3c0,0.5-0.1,1-0.4,1.3
				c-0.5,0.6-1.5,0.5-2.3,0.3c-3.8-0.9-7.8-1.2-11.7-0.8c-0.6,0-1.2,0.1-1.6,0.5c-0.4,0.4-0.5,1.1-0.5,1.7
				c-0.9,11.5-1.9,23-2.8,34.4c-4.4-21.1-3.6-43.4,2.4-64.1c0.6-2,1.2-4,2.5-5.6c2.4-3.1,6.6-4.2,10.4-3.8c3.8,0.4,7.4,2.1,10.9,3.7
				c1.4,0.6,2.9,1.5,3.2,2.9c-5.4-0.1-17-2.8-21.4,1.4C744.4,1090.8,741,1112.1,742.4,1112.4z"/>
			<path class="st14" d="M851.1,916.3l12.5,10.8v9.5l-41.6-20.3l-27-39.5C795.1,876.8,835.8,856.2,851.1,916.3z"/>
		</g>
		<path class="st14" d="M1016.2,929c0-4,3.3-7.3,7.4-7.3c4.1,0,7.4,3.4,7.4,7.5l-7.3,640.6h-14.7L1016.2,929z"/>
	</g>
	<g>
		<g>
			<path class="st12" d="M842.9,1579.3c53.3,0.3,106.5,2.2,159.7,2.7c53.2,0.5,106.5,1,159.7,0.7c30-0.2,59.9-1.7,89.9-2.7
				c7.2-0.2,7.2-11,0-11.2c-26.6-0.9-53.2-2-79.9-2.6c-26.6-0.6-53.3-0.1-79.9,0c-53.2,0.2-106.5,0.3-159.7,1.4
				c-30,0.6-59.9,1.7-89.9,1.9C836.5,1569.5,836.5,1579.3,842.9,1579.3L842.9,1579.3z"/>
		</g>
		<g>
			<path class="st12" d="M698.4,1579.3c17.7,0,35.4,0.4,53.1,0.1c17.4-0.3,34.7-2.5,52.1-3.2c5.5-0.2,5.5-8.3,0-8.5
				c-17.4-0.9-34.8,0.6-52.1,0.9c-17.7,0.2-35.4-0.1-53.1-0.2C691.3,1568.4,691.3,1579.3,698.4,1579.3L698.4,1579.3z"/>
		</g>
		<g>
			<path class="st12" d="M1059,1542.4c33.5,0.5,67.1,1.4,100.7,1.1c16.7-0.2,33.4-1,50.2-1c16.6,0,33.3,0.5,50,0.2
				c18.6-0.3,37.1-3.1,55.5-5.1c6.6-0.7,7-10.5,0-10.6c-16.3-0.2-32.5,1.8-48.8,2.4c-16.6,0.6-33.2-0.2-49.8,0
				c-33.5,0.5-66.9,2.6-100.4,3.3c-19.1,0.4-38.2,0.6-57.3,0.9C1053.3,1533.7,1053.3,1542.4,1059,1542.4L1059,1542.4z"/>
		</g>
		<g>
			<path class="st12" d="M1045.6,1598.6c31.8,0.3,63.6,2.5,95-4.5c5-1.1,4-9.8-1.2-9.1c-31,4.1-62.5,3.1-93.7,3.4
				C1039,1588.5,1039,1598.6,1045.6,1598.6L1045.6,1598.6z"/>
		</g>
	</g>
</g>
<g id="texsture">
	<g>
		<g>
			<path class="st1" d="M426.9,384.9c5.5,0,5.6-8.6,0-8.6C421.4,376.3,421.4,384.9,426.9,384.9L426.9,384.9z"/>
		</g>
		<g>
			<path class="st1" d="M718.7,464c4.2,0,4.2-6.6,0-6.6C714.5,457.5,714.5,464,718.7,464L718.7,464z"/>
		</g>
		<g>
			<path class="st1" d="M172.8,409.7c4.9,0,5-7.7,0-7.7C167.9,402,167.9,409.7,172.8,409.7L172.8,409.7z"/>
		</g>
		<g>
			<path class="st1" d="M185,220.9c5.2,0,5.3-8.2,0-8.2C179.8,212.7,179.8,220.9,185,220.9L185,220.9z"/>
		</g>
		<g>
			<path class="st1" d="M354.8,178c-0.3-1.3-0.5-2.6-0.8-3.9c-0.3-1.5-2-2.8-3.6-2.7c-1.5,0.1-3.2,1.1-3.6,2.7
				c-0.3,1.3-0.5,2.6-0.8,3.9c-0.3,1.6-0.1,3.2,1.2,4.4c0.9,0.8,2,1.3,3.2,1.3c1.2,0,2.4-0.5,3.2-1.3
				C354.8,181.2,355.1,179.6,354.8,178L354.8,178z"/>
		</g>
		<g>
			<path class="st1" d="M576.6,109.2c5.1,0,5.1-8,0-8C571.5,101.2,571.4,109.2,576.6,109.2L576.6,109.2z"/>
		</g>
		<g>
			<path class="st1" d="M489.1,512.3c-1.3,0.3-2.6,0.5-3.9,0.8c-1.4,0.3-2.6,1.9-2.5,3.3c0.1,1.4,1,3,2.5,3.3
				c1.3,0.3,2.6,0.5,3.9,0.8c1.5,0.3,3.1,0.1,4.2-1.1c0.8-0.8,1.2-1.9,1.2-3c0-1.1-0.5-2.2-1.2-3C492.1,512.2,490.6,512,489.1,512.3
				L489.1,512.3z"/>
		</g>
		<g>
			<path class="st1" d="M128.4,921.2c7.7,0,7.7-11.9,0-11.9C120.7,909.3,120.7,921.2,128.4,921.2L128.4,921.2z"/>
		</g>
		<g>
			<path class="st1" d="M231.2,901.8c3.9,0,3.9-6.1,0-6.1C227.3,895.7,227.3,901.8,231.2,901.8L231.2,901.8z"/>
		</g>
		<g>
			<path class="st1" d="M334,932.2c0.7,0,0.7-1,0-1C333.3,931.2,333.3,932.2,334,932.2L334,932.2z"/>
		</g>
		<g>
			<path class="st1" d="M350.4,1157.7c5.1,0,5.1-8,0-8C345.3,1149.7,345.3,1157.7,350.4,1157.7L350.4,1157.7z"/>
		</g>
		<g>
			<path class="st1" d="M412.1,1305.1c4.3,0,4.4-6.8,0-6.8C407.8,1298.4,407.8,1305.1,412.1,1305.1L412.1,1305.1z"/>
		</g>
		<g>
			<path class="st1" d="M593,1391.6c4.5,0,4.5-7,0-7C588.5,1384.6,588.5,1391.6,593,1391.6L593,1391.6z"/>
		</g>
		<g>
			<path class="st1" d="M99.6,1119.2c3.2,0,3.2-5,0-5C96.4,1114.2,96.4,1119.2,99.6,1119.2L99.6,1119.2z"/>
		</g>
		<g>
			<path class="st1" d="M66.7,1045.6c3.7,0,3.7-5.7,0-5.7C63,1039.8,63,1045.6,66.7,1045.6L66.7,1045.6z"/>
		</g>
		<g>
			<path class="st1" d="M106.9,1026.9c-1.3,0.2-2.6,0.4-4,0.5c-1.3,0.2-2.3,1.7-2.2,2.9c0.1,1.2,0.9,2.8,2.2,2.9
				c1.3,0.2,2.6,0.4,4,0.5c1.3,0.2,2.6,0.1,3.5-0.9c0.6-0.7,1.1-1.6,1.1-2.6c0-0.9-0.4-1.9-1.1-2.6
				C109.4,1026.8,108.2,1026.7,106.9,1026.9L106.9,1026.9z"/>
		</g>
		<g>
			<path class="st1" d="M272.3,955.7c4.5,0,4.5-6.9,0-6.9C267.8,948.8,267.8,955.7,272.3,955.7L272.3,955.7z"/>
		</g>
		<g>
			<path class="st1" d="M1016.5,453c3.1,0,3.1-4.8,0-4.8C1013.5,448.2,1013.5,453,1016.5,453L1016.5,453z"/>
		</g>
		<g>
			<path class="st1" d="M1189.2,534.2c1.7,0,1.8-2.7,0-2.7C1187.5,531.5,1187.5,534.2,1189.2,534.2L1189.2,534.2z"/>
		</g>
		<g>
			<path class="st1" d="M975.4,651.4c4.4,0,4.4-6.8,0-6.8C971,644.5,971,651.4,975.4,651.4L975.4,651.4z"/>
		</g>
		<g>
			<path class="st1" d="M1230.4,675.7c3.9,0,3.9-6.1,0-6.1C1226.4,669.6,1226.4,675.7,1230.4,675.7L1230.4,675.7z"/>
		</g>
		<g>
			<path class="st1" d="M1444.2,475c4.9,0,5-7.7,0-7.7C1439.2,467.3,1439.2,475,1444.2,475L1444.2,475z"/>
		</g>
		<g>
			<path class="st1" d="M1452.4,264.7c4.2,0,4.2-6.6,0-6.6C1448.2,258.2,1448.2,264.7,1452.4,264.7L1452.4,264.7z"/>
		</g>
		<g>
			<path class="st1" d="M1193.4,281.5c4.6,0,4.7-7.2,0-7.2C1188.7,274.3,1188.7,281.5,1193.4,281.5L1193.4,281.5z"/>
		</g>
		<g>
			<path class="st1" d="M1016.5,160.6c2.5,0,2.5-3.8,0-3.8C1014.1,156.7,1014.1,160.6,1016.5,160.6L1016.5,160.6z"/>
		</g>
		<g>
			<path class="st1" d="M1452.4,161.7c4,0,4-6.2,0-6.2C1448.4,155.6,1448.4,161.7,1452.4,161.7L1452.4,161.7z"/>
		</g>
		<g>
			<path class="st1" d="M1575.8,83.6c3.9,0,3.9-6.1,0-6.1C1571.8,77.5,1571.8,83.6,1575.8,83.6L1575.8,83.6z"/>
		</g>
		<g>
			<path class="st1" d="M1682.7,334.2c3.7,0,3.7-5.7,0-5.7C1679,328.5,1679,334.2,1682.7,334.2L1682.7,334.2z"/>
		</g>
		<g>
			<path class="st1" d="M1669.4,377.2c-1.3,0.2-2.6,0.4-3.9,0.6c-1.2,0.2-2.3,1.7-2.2,2.9c0.1,1.2,0.9,2.7,2.2,2.9
				c1.3,0.2,2.6,0.4,3.9,0.6c1.3,0.2,2.6,0.1,3.5-0.9c0.6-0.7,1.1-1.6,1.1-2.6c0-0.9-0.4-1.9-1.1-2.6
				C1671.9,377.1,1670.7,377,1669.4,377.2L1669.4,377.2z"/>
		</g>
		<g>
			<path class="st1" d="M1764.9,425.5c4.7,0,4.7-7.3,0-7.3C1760.2,418.2,1760.2,425.5,1764.9,425.5L1764.9,425.5z"/>
		</g>
		<g>
			<path class="st1" d="M1834.8,514.1c7.7,0,7.7-11.9,0-11.9C1827.1,502.2,1827.1,514.1,1834.8,514.1L1834.8,514.1z"/>
		</g>
		<g>
			<path class="st1" d="M1801.9,672.4c4.9,0,5-7.7,0-7.7C1797,664.7,1797,672.4,1801.9,672.4L1801.9,672.4z"/>
		</g>
		<g>
			<path class="st1" d="M1982.8,688.2c4.1,0,4.1-6.4,0-6.4C1978.7,681.8,1978.7,688.2,1982.8,688.2L1982.8,688.2z"/>
		</g>
		<g>
			<path class="st1" d="M1954,534.3c1.9,0,1.9-2.9,0-2.9C1952.2,531.4,1952.2,534.3,1954,534.3L1954,534.3z"/>
		</g>
		<g>
			<path class="st1" d="M1863.6,367.6c4.3,0,4.4-6.8,0-6.8C1859.2,360.9,1859.2,367.6,1863.6,367.6L1863.6,367.6z"/>
		</g>
		<g>
			<path class="st1" d="M2023.9,342.6c3.9,0,3.9-6,0-6C2020.1,336.6,2020.1,342.6,2023.9,342.6L2023.9,342.6z"/>
		</g>
		<g>
			<path class="st1" d="M2098,306.1c4.6,0,4.6-7.1,0-7.1C2093.4,299,2093.4,306.1,2098,306.1L2098,306.1z"/>
		</g>
		<g>
			<path class="st1" d="M2167.9,705.2c4.9,0,4.9-7.6,0-7.6C2163,697.6,2163,705.2,2167.9,705.2L2167.9,705.2z"/>
		</g>
		<g>
			<path class="st1" d="M2217.2,876.9c3.6,0,3.6-5.6,0-5.6C2213.6,871.3,2213.6,876.9,2217.2,876.9L2217.2,876.9z"/>
		</g>
		<g>
			<path class="st1" d="M2073.3,1004.6c3.9,0,3.9-6.1,0-6.1C2069.4,998.5,2069.4,1004.6,2073.3,1004.6L2073.3,1004.6z"/>
		</g>
		<g>
			<path class="st1" d="M1933.5,1046.4c4.8,0,4.8-7.5,0-7.5C1928.7,1038.9,1928.7,1046.4,1933.5,1046.4L1933.5,1046.4z"/>
		</g>
		<g>
			<path class="st1" d="M1900.6,1132.6c4.6,0,4.6-7.1,0-7.1C1896,1125.5,1896,1132.6,1900.6,1132.6L1900.6,1132.6z"/>
		</g>
		<g>
			<path class="st1" d="M1752.6,1178.1c4.9,0,4.9-7.6,0-7.6C1747.7,1170.5,1747.7,1178.1,1752.6,1178.1L1752.6,1178.1z"/>
		</g>
		<g>
			<path class="st1" d="M1752.6,1247.9c4.8,0,4.8-7.5,0-7.5C1747.7,1240.4,1747.7,1247.9,1752.6,1247.9L1752.6,1247.9z"/>
		</g>
		<g>
			<path class="st1" d="M1966.4,1293.3c5,0,5-7.8,0-7.8C1961.4,1285.5,1961.4,1293.3,1966.4,1293.3L1966.4,1293.3z"/>
		</g>
		<g>
			<path class="st1" d="M2106.2,1222.4c3.7,0,3.7-5.7,0-5.7C2102.5,1216.6,2102.5,1222.4,2106.2,1222.4L2106.2,1222.4z"/>
		</g>
		<g>
			<path class="st1" d="M2130.9,1396.1c5.1,0,5.1-7.9,0-7.9C2125.8,1388.3,2125.8,1396.1,2130.9,1396.1L2130.9,1396.1z"/>
		</g>
		<g>
			<path class="st1" d="M2070.3,1475.6c-1.3,1.4-2.7,2.8-4,4.2c-1.4,1.5-1.6,4.2,0,5.7c1.7,1.5,4.1,1.5,5.7,0c1.4-1.3,2.8-2.7,4.2-4
				c1.6-1.5,1.6-4.5,0-6C2074.6,1474.1,2071.9,1473.8,2070.3,1475.6L2070.3,1475.6z"/>
		</g>
		<g>
			<path class="st1" d="M1781.3,1519.7c5.3,0,5.3-8.2,0-8.2C1776,1511.4,1776,1519.7,1781.3,1519.7L1781.3,1519.7z"/>
		</g>
		<g>
			<path class="st1" d="M1674.4,1530.9c3.9,0,3.9-6.1,0-6.1C1670.5,1524.8,1670.5,1530.9,1674.4,1530.9L1674.4,1530.9z"/>
		</g>
		<g>
			<path class="st1" d="M1641.5,1649.2c2.7,0,2.7-4.1,0-4.1C1638.9,1645.1,1638.9,1649.2,1641.5,1649.2L1641.5,1649.2z"/>
		</g>
		<g>
			<path class="st1" d="M171,1809c-1.4,1.4-2.7,2.8-4.1,4.1c-1.4,1.4-1.5,3.9,0,5.2c1.5,1.4,3.8,1.5,5.2,0c1.4-1.4,2.8-2.7,4.1-4.1
				c1.4-1.4,1.5-3.9,0-5.3C174.8,1807.6,172.4,1807.5,171,1809L171,1809z"/>
		</g>
		<g>
			<path class="st1" d="M54.4,1774.1c4.6,0,4.7-7.2,0-7.2C49.7,1766.9,49.7,1774.1,54.4,1774.1L54.4,1774.1z"/>
		</g>
		<g>
			<path class="st1" d="M79,1843.4c3.9,0,3.9-6,0-6C75.2,1837.4,75.2,1843.4,79,1843.4L79,1843.4z"/>
		</g>
		<g>
			<path class="st1" d="M325.3,1823.9c-0.1-1.4-0.1-2.7-0.2-4.1c-0.1-1.8-1.6-3.6-3.5-3.5c-2,0.1-3.4,1.5-3.5,3.5
				c-0.1,1.4-0.1,2.7-0.2,4.1c-0.1,1.9,1.8,3.8,3.7,3.7C323.6,1827.6,325.4,1826,325.3,1823.9L325.3,1823.9z"/>
		</g>
		<g>
			<path class="st1" d="M148.9,1420.5c4.6,0,4.7-7.2,0-7.2C144.3,1413.3,144.3,1420.5,148.9,1420.5L148.9,1420.5z"/>
		</g>
		<g>
			<path class="st1" d="M87.3,1321.8c4.7,0,4.7-7.3,0-7.3C82.6,1314.5,82.6,1321.8,87.3,1321.8L87.3,1321.8z"/>
		</g>
		<g>
			<path class="st1" d="M251.7,1407.9c-1.4,0.1-2.7,0.1-4.1,0.2c-2.4,0.1-4.8,2.1-4.6,4.6c0.1,2.6,2,4.5,4.6,4.6
				c1.4,0.1,2.7,0.1,4.1,0.2c2.5,0.1,4.9-2.3,4.8-4.8C256.5,1410.2,254.4,1407.8,251.7,1407.9L251.7,1407.9z"/>
		</g>
		<g>
			<path class="st1" d="M457.3,1469.5c4.2,0,4.2-6.6,0-6.6C453.1,1462.9,453.1,1469.5,457.3,1469.5L457.3,1469.5z"/>
		</g>
		<g>
			<path class="st1" d="M1144,1457.6c1.7-0.1,3.3-0.2,5-0.5c1.3-0.3,2.5-1.8,2.4-3.2c-0.1-1.4-1-2.9-2.4-3.2c-1.6-0.3-3.3-0.4-5-0.5
				c-1.9-0.2-3.8,1.8-3.7,3.7C1140.4,1455.8,1141.9,1457.8,1144,1457.6L1144,1457.6z"/>
		</g>
		<g>
			<path class="st1" d="M1139.9,1400.1c4.9,0,4.9-7.6,0-7.6C1135,1392.5,1135,1400.1,1139.9,1400.1L1139.9,1400.1z"/>
		</g>
		<g>
			<path class="st1" d="M1366.1,1400.3c5.1,0,5.1-8,0-8C1360.9,1392.3,1360.9,1400.3,1366.1,1400.3L1366.1,1400.3z"/>
		</g>
		<g>
			<path class="st1" d="M1246.8,1243.9c4.9,0,5-7.7,0-7.7C1241.9,1236.2,1241.9,1243.9,1246.8,1243.9L1246.8,1243.9z"/>
		</g>
		<g>
			<path class="st1" d="M1440.1,1210.8c4.6,0,4.7-7.2,0-7.2C1435.4,1203.6,1435.4,1210.8,1440.1,1210.8L1440.1,1210.8z"/>
		</g>
		<g>
			<path class="st1" d="M1563.4,1173.9c4.8,0,4.8-7.4,0-7.4C1558.7,1166.5,1558.6,1173.9,1563.4,1173.9L1563.4,1173.9z"/>
		</g>
		<g>
			<path class="st1" d="M1518.2,1266.6c7.7,0,7.7-11.9,0-11.9C1510.5,1254.7,1510.5,1266.6,1518.2,1266.6L1518.2,1266.6z"/>
		</g>
		<g>
			<path class="st1" d="M1329,1198.6c4.9,0,4.9-7.6,0-7.6C1324.2,1191,1324.2,1198.6,1329,1198.6L1329,1198.6z"/>
		</g>
		<g>
			<path class="st1" d="M1139.9,991.1c7.7,0,7.7-11.9,0-11.9C1132.2,979.2,1132.2,991.1,1139.9,991.1L1139.9,991.1z"/>
		</g>
		<g>
			<path class="st1" d="M1061.8,921.2c7.7,0,7.7-11.9,0-11.9C1054.1,909.3,1054.1,921.2,1061.8,921.2L1061.8,921.2z"/>
		</g>
		<g>
			<path class="st1" d="M1316.7,835.9c3.7,0,3.7-5.8,0-5.8C1313,830.1,1313,835.9,1316.7,835.9L1316.7,835.9z"/>
		</g>
		<g>
			<path class="st1" d="M1534.6,758.4c4.6,0,4.6-7.1,0-7.1C1530.1,751.3,1530,758.4,1534.6,758.4L1534.6,758.4z"/>
		</g>
		<g>
			<path class="st1" d="M1234.5,540.6c4.8,0,4.8-7.4,0-7.4C1229.7,533.2,1229.7,540.6,1234.5,540.6L1234.5,540.6z"/>
		</g>
		<g>
			<path class="st1" d="M745.2,351.3c4.5,0,4.5-7,0-7C740.6,344.3,740.6,351.3,745.2,351.3L745.2,351.3z"/>
		</g>
		<g>
			<path class="st1" d="M490.2,540.3c4.3,0,4.3-6.7,0-6.7C485.9,533.6,485.9,540.3,490.2,540.3L490.2,540.3z"/>
		</g>
		<g>
			<path class="st1" d="M2122.6,1099.5c4.3,0,4.3-6.7,0-6.7C2118.3,1092.8,2118.3,1099.5,2122.6,1099.5L2122.6,1099.5z"/>
		</g>
		<g>
			<path class="st1" d="M1954,1381.7c7.7,0,7.7-11.9,0-11.9C1946.4,1369.8,1946.4,1381.7,1954,1381.7L1954,1381.7z"/>
		</g>
		<g>
			<path class="st1" d="M1819.4,1370.8c-0.2,1.4-0.5,2.8-0.6,4.2c0.5-0.8,0.9-1.6,1.4-2.4c-1,0.5-2,0.9-3,1.4
				c-1.9,0.9-0.9,4,1.1,3.9c1.1,0,2.2,0,3.3-0.1c1.4,0,2.3-0.9,2.7-2.1c0.4-1.1,0.7-2.2,1.1-3.2c0.5-1.6-0.6-3.5-2.2-3.9
				C1821.8,1368.3,1819.7,1369.1,1819.4,1370.8L1819.4,1370.8z"/>
		</g>
		<g>
			<path class="st1" d="M1719.7,1385.9c2.5,0,2.5-3.9,0-3.9C1717.1,1382,1717.1,1385.9,1719.7,1385.9L1719.7,1385.9z"/>
		</g>
		<g>
			<path class="st1" d="M1760.8,1386c2.6,0,2.6-4,0-4C1758.2,1382,1758.2,1386,1760.8,1386L1760.8,1386z"/>
		</g>
		<g>
			<path class="st1" d="M1748.5,1343.2c5.7,0,5.8-8.9,0-8.9C1742.7,1334.3,1742.7,1343.2,1748.5,1343.2L1748.5,1343.2z"/>
		</g>
		<g>
			<path class="st1" d="M1801.9,1326.8c5.7,0,5.8-8.9,0-8.9C1796.2,1317.8,1796.2,1326.8,1801.9,1326.8L1801.9,1326.8z"/>
		</g>
		<g>
			<path class="st1" d="M835.6,1330.9c5.7,0,5.8-8.9,0-8.9C829.9,1321.9,829.9,1330.9,835.6,1330.9L835.6,1330.9z"/>
		</g>
		<g>
			<path class="st1" d="M839.7,1265.1c5.7,0,5.8-8.9,0-8.9C834,1256.2,834,1265.1,839.7,1265.1L839.7,1265.1z"/>
		</g>
		<g>
			<path class="st1" d="M852.1,1196.3c1.9,0,1.9-3,0-3C850.2,1193.4,850.2,1196.3,852.1,1196.3L852.1,1196.3z"/>
		</g>
		<g>
			<path class="st1" d="M609.5,1131.4c3,0,3-4.7,0-4.7C606.4,1126.7,606.4,1131.4,609.5,1131.4L609.5,1131.4z"/>
		</g>
		<g>
			<path class="st1" d="M761.6,913c2.4,0,2.4-3.7,0-3.7C759.2,909.3,759.2,913,761.6,913L761.6,913z"/>
		</g>
		<g>
			<path class="st1" d="M823.3,893.6c3.9,0,3.9-6,0-6C819.4,887.5,819.4,893.6,823.3,893.6L823.3,893.6z"/>
		</g>
		<g>
			<path class="st1" d="M930.2,1100.6c5.7,0,5.8-8.9,0-8.9C924.5,1091.7,924.4,1100.6,930.2,1100.6L930.2,1100.6z"/>
		</g>
		<g>
			<path class="st1" d="M934.3,1169.1c3.9,0,3.9-6,0-6C930.4,1163,930.4,1169.1,934.3,1169.1L934.3,1169.1z"/>
		</g>
		<g>
			<path class="st1" d="M753.4,1348c-1.4,0.1-2.7,0.2-4.1,0.3c-1.4,0.1-2.8,1.2-2.7,2.7c0.1,1.6,1.2,2.6,2.7,2.7
				c1.4,0.1,2.7,0.2,4.1,0.3c1.6,0.1,3.1-1.5,3.1-3.1C756.4,1349.5,755.1,1347.9,753.4,1348L753.4,1348z"/>
		</g>
		<g>
			<path class="st1" d="M514.9,1448.5c3.6,0,3.6-5.6,0-5.6C511.3,1442.8,511.3,1448.5,514.9,1448.5L514.9,1448.5z"/>
		</g>
		<g>
			<path class="st1" d="M694.7,1544.3c0-1.4-0.1-2.7-0.1-4.1c-0.1-1.5-1.3-3-2.9-2.9c-1.6,0.1-2.8,1.3-2.9,2.9
				c0,1.4-0.1,2.7-0.1,4.1c-0.1,1.6,1.4,3.1,3,3C693.3,1547.3,694.8,1546,694.7,1544.3L694.7,1544.3z"/>
		</g>
		<g>
			<path class="st1" d="M1526.4,1211.6c5.7,0,5.8-8.9,0-8.9C1520.7,1202.7,1520.7,1211.6,1526.4,1211.6L1526.4,1211.6z"/>
		</g>
		<g>
			<path class="st1" d="M1645.7,1269.8c-1.4,0.1-2.7,0.1-4.1,0.2c-1.6,0.1-3.1,1.3-3,3c0.1,1.7,1.3,2.9,3,3c1.4,0.1,2.7,0.1,4.1,0.2
				c1.7,0.1,3.3-1.5,3.2-3.2C1648.8,1271.3,1647.4,1269.7,1645.7,1269.8L1645.7,1269.8z"/>
		</g>
		<g>
			<path class="st1" d="M2266.5,1289.1c4.9,0,4.9-7.6,0-7.6C2261.7,1281.5,2261.7,1289.1,2266.5,1289.1L2266.5,1289.1z"/>
		</g>
		<g>
			<path class="st1" d="M930.2,549.6c5.7,0,5.8-8.9,0-8.9C924.5,540.7,924.4,549.6,930.2,549.6L930.2,549.6z"/>
		</g>
		<g>
			<path class="st1" d="M1291,511.4c-1.4-4.1-2.8-8.2-4.2-12.3c-1.3-3.7-7.2-2.2-6,1.6c1.3,4.1,2.7,8.2,4,12.4
				C1286.1,517,1292.3,515.3,1291,511.4L1291,511.4z"/>
		</g>
		<g>
			<path class="st1" d="M1423.6,335.8c5.7,0,5.8-8.9,0-8.9C1417.9,326.9,1417.9,335.8,1423.6,335.8L1423.6,335.8z"/>
		</g>
		<g>
			<path class="st1" d="M2241.9,1572c3.8,0,3.8-5.9,0-5.9C2238.1,1566.1,2238.1,1572,2241.9,1572L2241.9,1572z"/>
		</g>
		<g>
			<path class="st1" d="M2241.9,1813.4c2.4,0,2.4-3.7,0-3.7C2239.5,1809.8,2239.5,1813.4,2241.9,1813.4L2241.9,1813.4z"/>
		</g>
	</g>
</g>
</svg>
