<?xml version="1.0"?>
<svg xmlns="http://www.w3.org/2000/svg" height="512px" viewBox="0 0 512 512" width="512px"><path d="m404.679688 331.253906v-116.097656h-30.070313v116.097656c-10.125 2.589844-19.707031 7.828125-27.617187 15.738282-23.519532 23.519531-23.519532 61.785156 0 85.304687 11.757812 11.761719 27.203124 17.640625 42.652343 17.640625 15.445313 0 30.890625-5.882812 42.652344-17.640625 23.515625-23.519531 23.515625-61.785156 0-85.304687-7.910156-7.914063-17.492187-13.148438-27.617187-15.738282zm6.355468 79.78125c-11.796875 11.796875-30.988281 11.792969-42.78125 0-11.796875-11.792968-11.796875-30.988281 0-42.78125 5.898438-5.898437 13.644532-8.847656 21.390625-8.847656 7.746094 0 15.496094 2.949219 21.390625 8.847656 11.796875 11.792969 11.796875 30.988282 0 42.78125zm0 0" fill="#FFFFFF"/><path d="m479.847656 307.050781v-218.210937c0-49.738282-40.464844-88.839844-90.203125-88.839844-44.84375 0-82.148437 31.535156-89.050781 74.464844l-39.136719 10.183594-45.742187-45.042969-45.738282 45.042969-62.160156-16.175782-17.019531 61.925782-61.925781 17.019531 16.171875 62.160156-45.042969 45.742187 45.042969 45.738282-16.175781 62.160156 61.929687 17.019531 17.019531 61.925781 62.160156-16.171874 45.738282 45.042968 45.742187-45.042968 12.402344 3.226562c16.484375 48.105469 62.160156 82.78125 115.785156 82.78125 67.464844 0 122.355469-54.890625 122.355469-122.355469 0-30.878906-11.371094-59.964843-32.152344-82.59375zm-264.132812 31.996094c-46.167969 0-83.726563-37.5625-83.726563-83.730469 0-46.164062 37.558594-83.722656 83.726563-83.722656 46.167968 0 83.726562 37.558594 83.726562 83.722656 0 46.167969-37.558594 83.730469-83.726562 83.730469zm36.800781 53.550781-36.800781 36.238282-36.800782-36.238282-49.964843 13-13.691407-49.820312-49.820312-13.691406 13.003906-49.96875-36.242187-36.796876 36.242187-36.800781-13.003906-49.96875 49.820312-13.6875 13.691407-49.824219 49.96875 13.003907 36.796875-36.238281 36.800781 36.238281 46.925781-12.210938v72.511719c-20.808594-22.621094-50.640625-36.816406-83.726562-36.816406-62.746094 0-113.792969 51.046875-113.792969 113.792968 0 62.746094 51.046875 113.792969 113.792969 113.792969 20.707031 0 40.136718-5.5625 56.878906-15.265625-3.492188 11.449219-5.308594 23.480469-5.308594 35.796875 0 2.296875.070313 4.578125.195313 6.84375zm137.128906 89.335938c-50.886719 0-92.289062-41.402344-92.289062-92.289063 0-24.910156 9.820312-48.277343 27.65625-65.800781l4.496093-4.417969v-15.871093h22.230469v-30.066407h-22.230469v-30.070312h22.230469v-30.066407h-22.230469v-30.070312h22.230469v-30.066406h-22.230469v-30.074219h22.230469v-30.066406h-22.230469v-4.234375c0-33.15625 26.976563-58.773438 60.136719-58.773438 33.160157 0 60.132813 25.617188 60.132813 58.773438v230.589844l4.5 4.417968c17.832031 17.523438 27.65625 40.890625 27.65625 65.796875 0 50.886719-41.402344 92.289063-92.289063 92.289063zm0 0" fill="#FFFFFF"/></svg>
