<?xml version="1.0" encoding="UTF-8"?>
<svg width="512px" height="500px" viewBox="0 0 512 500" version="1.1" xmlns="http://www.w3.org/2000/svg" xmlns:xlink="http://www.w3.org/1999/xlink">
    <!-- Generator: Sketch 52.3 (67297) - http://www.bohemiancoding.com/sketch -->
    <title>humidity</title>
    <desc>Created with Sketch.</desc>
    <g id="Page-1" stroke="none" stroke-width="1" fill="none" fill-rule="evenodd">
        <g id="humidity" transform="translate(-1.363632, -0.545474)" fill="#4897BF">
            <path d="M513.362268,198.221569 C513.362268,134.687249 421.202595,28.6798982 402.700843,8.08360766 C393.627239,-1.55590357 378.456838,-2.01544739 368.815963,7.05952039 C368.464146,7.39088284 368.121875,7.73179073 367.791876,8.08360766 C335.488809,44.4489331 306.660275,83.7569753 281.682636,125.493645 C266.555872,106.991893 254.91864,93.842394 251.078654,89.5374093 C242.00505,79.8978981 226.834649,79.4383543 217.193774,88.513322 C216.841957,88.8446845 216.499686,89.1855924 216.169687,89.5374093 C184.424345,125.5141 154.965813,163.444874 127.965909,203.107461 C117.260038,185.070706 106.90462,169.710761 101.319186,161.681699 C94.0087571,151.109463 79.5119904,148.466746 68.9411188,155.777174 C66.6324907,157.373987 64.6320432,159.374434 63.0365943,161.681699 C49.0730076,182.86026 1.36363152,254.772732 1.36363152,291.309875 C1.16999585,333.418816 33.1048824,368.734145 75.0215518,372.763676 C94.4410283,460.614273 181.39981,516.089531 269.251771,496.671418 C343.781052,480.197386 396.880863,414.183984 396.998136,337.854709 C396.927227,333.960178 396.616319,330.073828 396.066775,326.218842 C462.549267,320.641589 513.596813,264.935877 513.362268,198.221569 Z M82.8187968,326.221569 C63.5397744,326.221569 47.9098299,310.591624 47.9098299,291.312602 C47.9098299,279.676734 63.852046,248.607754 82.8187968,217.654682 C101.785548,248.607754 117.727764,279.676734 117.727764,291.312602 C117.727764,310.591624 102.097819,326.221569 82.8187968,326.221569 Z M234.090532,454.220205 C179.76618,453.92157 132.786347,416.289431 120.63639,363.340982 C147.427658,349.296941 164.230326,321.56204 164.272598,291.312602 C163.361693,278.213557 160.048068,265.394058 154.498088,253.495009 C155.430812,248.370482 157.498077,243.520044 160.548521,239.298241 C183.101623,205.02609 207.657899,172.116207 234.090532,140.739046 C285.057624,201.01565 350.453301,293.524412 350.453301,337.8588 C350.454665,402.122663 298.357122,454.220205 234.090532,454.220205 Z M385.363632,279.67537 L382.570914,279.67537 C363.90689,239.336423 340.802881,201.205195 313.684341,165.988047 C314.117975,164.553507 314.745246,163.183057 315.545698,161.91488 C335.160173,125.426827 358.562818,91.1042219 385.363632,59.5156977 C423.530314,106.060532 466.817433,169.129854 466.817433,198.220205 C466.817433,243.207773 430.348472,279.67537 385.363632,279.67537 Z" id="Shape" fill-rule="nonzero"></path>
            <path d="M445.531145,171.486209 C445.362055,171.038938 445.164328,170.601212 444.942056,170.178487 C443.080699,166.105319 440.986161,161.916243 438.774351,157.727167 C435.333909,152.29855 428.144843,150.686738 422.716226,154.12718 C417.766244,157.263532 415.92125,163.592146 418.409878,168.898037 C420.388507,172.504842 422.249864,176.22892 423.762132,179.719816 C426.035305,185.730704 432.751191,188.760693 438.762078,186.486156 C444.772966,184.211619 447.804319,177.497097 445.531145,171.486209 Z" id="Path"></path>
            <path d="M423.879404,133.522708 C414.220802,119.32594 403.981293,106.293713 397.115408,97.7996527 C393.314967,92.6178529 386.033175,91.4969478 380.850011,95.2973889 C375.668211,99.0978299 374.547306,106.379622 378.347747,111.562786 C378.575474,111.873694 378.819564,112.173693 379.078654,112.461419 C385.711358,120.60639 395.485868,133.057709 404.5622,146.556298 C408.160823,151.890824 415.40307,153.296728 420.736233,149.698105 C426.072123,146.099481 427.478027,138.857234 423.879404,133.522708 Z" id="Path"></path>
            <path d="M268.593137,412.619898 C266.76178,406.450829 260.274985,402.934024 254.105916,404.765381 C247.610939,406.701738 240.869145,407.680825 234.091896,407.674007 C227.665101,407.674007 222.456028,412.883079 222.456028,419.309875 C222.456028,425.73667 227.665101,430.945742 234.091896,430.945742 C243.113682,430.96347 252.089105,429.670747 260.73862,427.105756 C266.907689,425.275763 270.424494,418.790331 268.593137,412.619898 Z" id="Path"></path>
            <path d="M323.806577,311.326622 C321.97522,305.157553 315.488425,301.640747 309.319356,303.472104 C303.150287,305.303461 299.633481,311.790256 301.464839,317.959325 C308.715267,342.267421 302.210745,368.595055 284.475353,386.72999 C279.971279,391.313156 280.035369,398.680857 284.618535,403.186296 C286.6708,405.203107 289.3967,406.388102 292.271235,406.512193 C295.380315,406.49992 298.355759,405.242652 300.533478,403.021296 C324.401121,378.969563 333.31518,343.849233 323.806577,311.326622 Z" id="Path"></path>
        </g>
    </g>
</svg>