<?xml version="1.0"?><svg width="640" height="480" xmlns="http://www.w3.org/2000/svg">
 <title>Mountain snow navy</title>

 <g>
  <title>Layer 1</title>
  <path transform="rotate(6.5625, 312.725, 202.211)" d="m399.549011,124.573997l10.28299,-5.116997l14.559998,9.347c4.321991,0.992996 4.756012,7.763 14.300995,10.953995c9.545013,3.19101 16.389008,5.957001 20.531006,8.296997c4.141998,2.341003 7.563995,4.326004 10.265991,5.957001c2.701019,1.632004 5.763,3.334 9.184998,5.10701c3.421021,1.772003 8.554016,3.722992 15.39801,5.849991c6.843994,2.128006 -2.487,0.869003 14.347992,4.695999c-4.768982,-0.824997 6.100006,3.400009 14.644989,7.458008c2.968018,5.809998 9.856018,9.567001 13.387024,14.057999c2.606995,5.016998 42.10498,16.048004 46.609009,22.296005c-8.514038,2.261002 -55.647034,-4.294006 -49.903015,-2.197998l-11.598999,-4.67601l-6.882996,1.216003c-28.369995,0.084 -13.595001,-0.709 -22.363007,-2.848007l10.609009,-2.270996c4.274994,-1.860001 16.368011,-7.994995 22.225983,-11.488998c-3.44696,-4.069 -8.268005,-10.194 -13.231995,-11.733994c-5.763,-1.134003 2.512024,0.112991 -8.653992,-1.589005c-11.166016,-1.701996 -9.369995,-1.643005 -12.972015,-2.494003c-3.60199,-0.850998 -8.013977,-2.020996 -13.237,-3.509995c-5.222992,-1.488998 -10.265991,-3.050003 -15.128998,-4.681c-4.862,-1.630997 -7.384003,-2.48201 -7.563995,-2.553009l-0.269989,-0.105988l-0.269989,0.105988c-0.180023,0.070999 -3.332001,-0.070999 -9.455017,-0.424988l-9.184998,-0.532013l-2.701996,-1.80899c-1.800995,-1.205002 -3.692017,-2.48201 -5.673004,-3.82901c-1.980988,-1.347992 -4.321991,-2.623993 -7.02301,-3.829987c-2.701996,-1.205002 -5.132996,-1.986008 -7.293976,-2.340012l-3.242004,-0.531998l1.079987,6.169998l1.080994,6.169998l5.403015,1.170013c3.60199,0.779999 8.104004,1.559998 13.506989,2.339996l7.300995,2.798004l3.775024,0.5c1.980988,1.417999 3.511993,2.481995 4.592987,3.190994l1.621002,1.063995l4.59201,0.957001c3.061981,0.639008 6.303986,1.419006 9.724976,2.341003c3.421997,0.921997 5.223022,1.595001 5.403015,2.020996l2.944,6.37001l-27.527008,-4.562012c-16.569,0.779999 -26.834991,0.887009 -30.796997,0.319c-3.962006,-0.567001 -6.03299,-0.886002 -6.213013,-0.957001l-0.269989,-0.105988l1.621002,-2.128006c1.079987,-1.417999 2.700989,-2.553009 4.862,-3.404007l3.242004,-1.276993l-4.59201,-0.957001c-3.061981,-0.638 -6.843994,-1.347 -11.346985,-2.126999l-6.753021,-1.171005l-2.161987,-2.552994c-1.440002,-1.701996 -3.151001,-3.865005 -5.131989,-6.488998l-2.972015,-3.936005l-2.431,0.531998c-1.621002,0.354996 -3.332001,1.667007 -5.132996,3.936005c-1.800995,2.270004 -5.583008,7.162994 -11.346008,14.679993c-5.763,7.518005 -11.255981,12.872009 -16.479004,16.063004c-5.222992,3.192001 -10.445984,6.098999 -15.668976,8.723007c-5.223022,2.623993 -10.085022,5.248001 -14.588013,7.871994c-4.501984,2.623993 -7.563995,4.539001 -9.184998,5.744003c-1.621002,1.205994 -3.151001,2.802002 -4.59201,4.787003c-1.440979,1.985992 -2.791992,4.077988 -4.052002,6.276993c-1.260986,2.197998 -2.431976,3.333008 -3.511993,3.404007l-6.790009,10.269989l-0.800995,-3.46199c0.562012,-6.828003 4.889008,-10.177002 5.970001,-13.723007c1.080017,-3.54599 2.971008,-6.985001 5.673004,-10.317993c2.700989,-3.334 5.042999,-5.674011 7.024017,-7.021011c1.980988,-1.347992 5.222992,-3.332993 9.724976,-5.956985c4.503021,-2.624008 8.464996,-4.894012 11.887024,-6.809006c3.42099,-1.914001 5.852997,-3.652008 7.292999,-5.212006c1.440979,-1.559998 3.151978,-4.644989 5.132996,-9.25499l2.971985,-6.914001l-4.321991,0c-2.881989,0 -5.674011,0.460999 -8.375,1.382996c-2.700989,0.921005 -5.493011,2.516998 -8.375,4.787003c-2.881989,2.270004 -8.283997,7.942001 -16.208008,17.020004c-7.924988,9.076996 -15.57901,16.487991 -22.962982,22.232986c-7.384003,5.744003 -12.247009,9.361008 -14.588013,10.850006c-2.341003,1.488998 -6.122986,3.972 -11.346008,7.447006c-5.222992,3.474991 -11.165985,6.807999 -17.829987,9.998993c-6.66301,3.190994 -10.806,5.177002 -12.42601,5.957001c-1.621002,0.779999 -3.151993,1.453995 -4.593002,2.020996c-1.440994,0.568008 -6.302994,2.199005 -14.587997,4.893997c-8.283997,2.695007 -18.909988,5.248016 -31.876999,7.658997c-12.966995,2.411011 -23.772995,4.397003 -32.417999,5.957001c-8.645004,1.559998 -14.498001,2.658997 -17.558998,3.298004l-4.593002,0.957001l1.621002,-1.488983c1.081001,-0.993011 2.611,-1.986023 4.592003,-2.979004c1.981995,-0.993011 4.143005,-1.701996 6.483994,-2.127014c2.341003,-0.425995 5.763,-1.311981 10.266006,-2.660004c4.501999,-1.346985 8.914001,-2.516998 13.237,-3.509979c4.322006,-0.993011 8.283997,-1.915009 11.886002,-2.766022c3.60199,-0.850983 8.735001,-2.162994 15.399002,-3.935989c6.662994,-1.772995 13.326996,-3.688004 19.98999,-5.744003c6.664001,-2.056992 12.067001,-4.042999 16.209,-5.957001c4.143005,-1.914993 7.473999,-3.582001 9.996002,-5c2.520996,-1.418991 5.403,-3.403992 8.643997,-5.957001c3.242004,-2.552994 8.645004,-6.595993 16.209,-12.126999c7.564011,-5.531998 11.977005,-9.362 13.237015,-11.488998l1.891998,-3.190994l-1.891998,-0.42601c-1.26001,-0.283997 -2.611023,-0.709 -4.052002,-1.275986c-1.440002,-0.568008 -4.951996,-1.951004 -10.535004,-4.149002c-5.583008,-2.199005 -9.996002,-3.581009 -13.238007,-4.149002l-4.862,-0.850998l-3.781998,0l-3.781998,0l-9.456009,2.020996c-6.302994,1.347992 -11.79599,3.723999 -16.478989,7.128006c-4.682007,3.403992 -8.283997,7.019989 -10.805008,10.849991c-2.522003,3.830002 -3.962997,6.240997 -4.322998,7.234009c-0.360001,0.992996 -1.080002,2.126999 -2.160995,3.403992c-1.081009,1.276001 -2.070999,2.587997 -2.972,3.936005c-0.900009,1.347 -1.710007,2.056 -2.431,2.126999c-0.720001,0.070999 -1.981003,1.951004 -3.781998,5.638c-1.80101,3.688004 -3.332001,5.744995 -4.59201,6.169998c-1.261002,0.425995 -2.972,1.419006 -5.132996,2.979004l-3.242004,2.339996l0.540009,-4.893005l0.541,-4.893997l-4.593002,2.234009c-3.061996,1.48999 -6.934006,3.368988 -11.615997,5.637985c-4.682999,2.270004 -7.744003,3.759003 -9.184998,4.468002c-1.44101,0.709 -4.682999,1.45401 -9.726013,2.234009l-7.563995,1.169998l1.621002,-1.915009c1.081001,-1.276001 2.250999,-2.126999 3.512001,-2.552994c1.260994,-0.425003 3.152,-1.417999 5.672997,-2.977997c2.522003,-1.559998 9.005005,-6.169998 19.451004,-13.82901c10.445999,-7.658997 16.028992,-12.481995 16.748993,-14.467987c0.720001,-1.985001 0.630005,-3.368011 -0.269989,-4.14801l-1.350998,-1.169998l-4.59201,2.445999c-3.061996,1.630997 -7.474991,4.503998 -13.237991,8.617004c-5.763,4.113007 -15.938004,11.453003 -30.526009,22.020004c-14.587997,10.566986 -23.412598,16.737 -26.474693,18.51001c-3.060905,1.771973 -6.123001,3.580994 -9.185005,5.424988c-3.060997,1.843994 -5.672997,3.084991 -7.834,3.722992c-2.160995,0.638 -7.383995,2.304993 -15.667999,5c-8.285,2.695007 -13.237999,4.218994 -14.859001,4.574005l-2.431,0.532013l1.621002,-1.277008c1.080997,-0.851013 4.321999,-2.623993 9.724998,-5.319c5.403,-2.694 12.156998,-6.772003 20.261002,-12.233002c8.104996,-5.460999 12.967003,-8.794006 14.587997,-9.998993c1.621002,-1.206009 6.394005,-4.929016 14.317703,-11.170013c7.923996,-6.240997 12.607002,-9.929001 14.047997,-11.063004c1.441002,-1.134995 9.544998,-7.729996 24.313004,-19.785995c14.768005,-12.056992 23.682999,-18.828995 26.744003,-20.319l4.593002,-2.233002l8.103989,-0.425995l8.105011,-0.425003l4.051987,-2.446991c2.702011,-1.631012 6.484009,-4.113007 11.346008,-7.447006c4.862991,-3.333008 9.634995,-5.921005 14.317993,-7.764999c3.597,-0.542007 3.807007,-6.007996 7.55101,0.457993l4.858994,0.627014l3.238007,1.676987c3.241989,0.42601 8.022995,-1.312988 8.92099,0.246002c0.897003,1.559998 3.249008,0.952011 11.361008,2.630005c5.942993,3.759003 11.79599,6.843994 17.55899,9.255005c5.763,2.410995 9.725006,3.935989 11.886993,4.57399l3.241028,0.957001l2.971985,-3.828995c1.980988,-2.553009 4.411987,-5.248001 7.294006,-8.085007c2.881989,-2.83699 4.231995,-4.502991 4.052002,-5l-0.27002,-0.743988l1.351013,-0.532013c0.899994,-0.354996 2.610992,-1.382996 5.132996,-3.084991c2.520996,-1.701996 5.312012,-3.298004 8.373993,-4.787003c3.062012,-1.488998 7.473999,-3.085007 13.237,-4.787003c5.763,-1.701996 10.536011,-3.155991 14.318024,-4.360992c3.781982,-1.206009 7.293976,-2.731003 10.53598,-4.575012c3.242004,-1.843994 5.852997,-3.828995 7.834015,-5.957001c1.980988,-2.126999 3.421997,-3.403992 4.321991,-3.828995c0.901001,-0.425995 3.60199,-1.666992 8.105011,-3.723999c4.501984,-2.056 7.653992,-3.438995 9.454987,-4.147995c1.800995,-0.710007 4.141998,-1.419006 7.024017,-2.128006c2.880981,-0.709 3.268982,-9.048996 8.671997,-9.333l0,0l0,0z" id="path2" stroke-width="2px" stroke="#000000" fill-rule="evenodd" fill="#010163"/>
  <text fill="#000000" stroke="#000000" stroke-width="0" stroke-dasharray="null" stroke-linejoin="null" stroke-linecap="null" opacity="0.5" x="104" y="114" id="svg_1" font-size="24" font-family="serif" text-anchor="middle" xml:space="preserve"/>
  <text fill="#000000" stroke="#000000" stroke-width="0" stroke-dasharray="null" stroke-linejoin="null" stroke-linecap="null" opacity="0.5" x="87" y="105" id="svg_2" font-size="24" font-family="serif" text-anchor="middle" xml:space="preserve"/>
  <text fill="#000000" stroke="#000000" stroke-width="0" stroke-dasharray="null" stroke-linejoin="null" stroke-linecap="null" opacity="0.5" x="74" y="106" id="svg_3" font-size="24" font-family="serif" text-anchor="middle" xml:space="preserve"/>
  <text fill="#000000" stroke="#000000" stroke-width="0" stroke-dasharray="null" stroke-linejoin="null" stroke-linecap="null" opacity="0.5" x="121.5" y="128" id="svg_4" font-size="24" font-family="serif" text-anchor="middle" xml:space="preserve"/>
 </g>
</svg>