<?xml version="1.0" encoding="UTF-8"?>
<svg width="552px" height="125px" viewBox="0 0 552 125" version="1.1" xmlns="http://www.w3.org/2000/svg" xmlns:xlink="http://www.w3.org/1999/xlink">
    <!-- Generator: Sketch 52.3 (67297) - http://www.bohemiancoding.com/sketch -->
    <title>mountain_range</title>
    <desc>Created with Sketch.</desc>
    <g id="Page-1" stroke="none" stroke-width="1" fill="none" fill-rule="evenodd">
        <g id="mountain_range" transform="translate(4.000000, -41.000000)" fill="#FFFFFF" stroke="#FFFFFF" stroke-width="2">
            <path d="M365.549127,35.5739643 L375.832117,30.4569673 L390.392115,39.8039673 C394.714106,40.7969633 395.148127,47.5669673 404.69311,50.7579623 C414.238123,53.9489723 421.082118,56.7149633 425.224116,59.0549593 C429.366114,61.3959623 432.788111,63.3809633 435.490107,65.0119603 C438.191126,66.6439643 441.253107,68.3459603 444.675105,70.1189703 C448.096126,71.8909733 453.229121,73.8419623 460.073115,75.9689613 C466.917109,78.0969673 457.586115,76.8379643 474.421107,80.6649603 C469.652125,79.8399633 480.521113,84.0649693 489.066096,88.1229683 C492.034114,93.9329663 498.922114,97.6899693 502.45312,102.180967 C505.060115,107.197965 544.5581,118.228971 549.062129,124.476972 C540.548091,126.737974 493.415095,120.182966 499.159114,122.278974 L487.560115,117.602964 L480.677119,118.818967 C452.307124,118.902967 467.082118,118.109967 458.314112,115.97096 L468.923121,113.699964 C473.198115,111.839963 485.291132,105.704969 491.149104,102.210966 C487.702144,98.1419663 482.881099,92.0169663 477.917109,90.4769723 C472.154109,89.3429693 480.429133,90.5899633 469.263117,88.8879673 C458.097101,87.1859713 459.893122,87.2449623 456.291102,86.3939643 C452.689112,85.5429663 448.277125,84.3729683 443.054102,82.8839693 C437.83111,81.3949713 432.788111,79.8339663 427.925104,78.2029693 C423.063104,76.5719723 420.541101,75.7209593 420.361109,75.6499603 L420.09112,75.5439723 L419.821131,75.6499603 C419.641108,75.7209593 416.48913,75.5789613 410.366114,75.2249723 L401.181116,74.6929593 L398.47912,72.8839693 C396.678125,71.6789673 394.787103,70.4019593 392.806116,69.0549593 C390.825128,67.7069673 388.484125,66.4309663 385.783106,65.2249723 C383.08111,64.0199703 380.65011,63.2389643 378.48913,62.8849603 L375.247126,62.3529623 L376.327113,68.5229603 L377.408107,74.6929583 L382.811122,75.8629713 C386.413112,76.6429703 390.915126,77.4229693 396.318111,78.2029673 L403.619106,81.0009713 L407.39413,81.5009713 C409.375118,82.9189703 410.906123,83.9829663 411.987117,84.6919653 L413.608119,85.7559603 L418.200129,86.7129613 C421.26211,87.3519693 424.504115,88.1319673 427.925105,89.0539643 C431.347102,89.9759613 433.148127,90.6489653 433.32812,91.0749603 L436.27212,97.4449703 L408.745112,92.8829583 C392.176112,93.6629573 381.910121,93.7699673 377.948115,93.2019583 C373.986109,92.6349573 371.915125,92.3159563 371.735102,92.2449573 L371.465113,92.1389693 L373.086115,90.0109633 C374.166102,88.5929643 375.787104,87.4579543 377.948115,86.6069563 L381.190119,85.3299633 L376.598109,84.3729623 C373.536128,83.7349623 369.754115,83.0259623 365.251124,82.2459633 L358.498103,81.0749583 L356.336116,78.5219643 C354.896114,76.8199683 353.185115,74.6569593 351.204127,72.0329663 L348.232112,68.0969613 L345.801112,68.6289593 C344.18011,68.9839553 342.469111,70.2959663 340.668116,72.5649643 C338.867121,74.8349683 335.085108,79.7279583 329.322108,87.2449573 C323.559108,94.7629623 318.066127,100.116966 312.843104,103.307961 C307.620112,106.499962 302.39712,109.40696 297.174128,112.030968 C291.951106,114.654961 287.089106,117.278969 282.586115,119.902962 C278.084131,122.526955 275.02212,124.441963 273.401117,125.646965 C271.780115,126.852959 270.250116,128.448967 268.809107,130.433968 C267.368128,132.41996 266.017115,134.511956 264.757105,136.710961 C263.496119,138.908959 262.325129,140.043969 261.245112,140.114968 L254.455103,150.384957 L253.654108,146.922967 C254.21612,140.094964 258.543116,136.745965 259.624109,133.19996 C260.704126,129.65397 262.595117,126.214959 265.297113,122.881967 C267.998102,119.547967 270.340112,117.207956 272.32113,115.860956 C274.302118,114.512964 277.544122,112.527963 282.046106,109.903971 C286.549127,107.279963 290.511102,105.009959 293.93313,103.094965 C297.35412,101.180964 299.786127,99.4429573 301.226129,97.8829593 C302.667108,96.3229613 304.378107,93.2379703 306.359125,88.6279693 L309.33111,81.7139683 L305.009119,81.7139683 C302.12713,81.7139683 299.335108,82.1749673 296.634119,83.0969643 C293.93313,84.0179693 291.141108,85.6139623 288.259119,87.8839673 C285.37713,90.1539713 279.975122,95.8259683 272.051111,104.903971 C264.126123,113.980967 256.472101,121.391962 249.088129,127.136957 C241.704126,132.88096 236.84112,136.497965 234.500116,137.986963 C232.159113,139.475961 228.37713,141.958963 223.154108,145.433969 C217.931116,148.90896 211.988123,152.241968 205.324121,155.432962 C198.661111,158.623956 194.518121,160.609964 192.898111,161.389963 C191.277109,162.169962 189.746118,162.843958 188.305109,163.410959 C186.864115,163.978967 182.002115,165.609964 173.717112,168.304956 C165.433115,170.999963 154.807124,173.552972 141.840113,175.963953 C128.873118,178.374964 118.067118,180.360956 109.422114,181.920954 C100.77711,183.480952 94.924113,184.579951 91.863116,185.218958 L87.270114,186.175959 L88.891116,184.686976 C89.972117,183.693965 91.502116,182.700953 93.483119,181.707972 C95.465114,180.714961 97.626124,180.005976 99.967113,179.580958 C102.308116,179.154963 105.730113,178.268977 110.233119,176.920954 C114.735118,175.573969 119.14712,174.403956 123.470119,173.410975 C127.792125,172.417964 131.754116,171.495966 135.356121,170.644953 C138.958111,169.79397 144.091122,168.481959 150.755123,166.708964 C157.418117,164.935969 164.082119,163.02096 170.745113,160.964961 C177.409114,158.907969 182.812114,156.921962 186.954113,155.00796 C191.097118,153.092967 194.428112,151.425959 196.950115,150.00796 C199.471111,148.588969 202.353115,146.603968 205.594112,144.050959 C208.836116,141.497965 214.239116,137.454966 221.803112,131.92396 C229.367123,126.391962 233.780117,122.56196 235.040127,120.434962 L236.932125,117.243968 L235.040127,116.817958 C233.780117,116.533961 232.429104,116.108958 230.988125,115.541972 C229.548123,114.973964 226.036129,113.590968 220.453121,111.39297 C214.870113,109.193965 210.457119,107.811961 207.215114,107.243968 L202.353114,106.39297 L198.571116,106.39297 L194.789118,106.39297 L185.333109,108.413966 C179.030115,109.761958 173.537119,112.137965 168.85412,115.541972 C164.172113,118.945964 160.570123,122.561961 158.049112,126.391963 C155.527109,130.221965 154.086115,132.63296 153.726114,133.625972 C153.366113,134.618968 152.646112,135.752971 151.565119,137.029964 C150.48411,138.305965 149.49412,139.617961 148.593119,140.965969 C147.69311,142.312969 146.883112,143.021969 146.162119,143.092968 C145.442118,143.163967 144.181116,145.043972 142.380121,148.730968 C140.579111,152.418972 139.04812,154.475963 137.788111,154.900966 C136.527109,155.326961 134.816111,156.319972 132.655115,157.87997 L129.413111,160.219966 L129.95312,155.326961 L130.49412,150.432964 L125.901118,152.666973 C122.839122,154.156963 118.967112,156.035961 114.285121,158.304958 C109.602122,160.574962 106.541118,162.063961 105.100123,162.77296 C103.659113,163.48196 100.417124,164.22697 95.37411,165.006969 L87.810115,166.176967 L89.431117,164.261958 C90.512118,162.985957 91.682116,162.134959 92.943118,161.708964 C94.204112,161.283961 96.095118,160.290965 98.616115,158.730967 C101.138118,157.170969 107.62112,152.560969 118.067119,144.901957 C128.513118,137.24296 134.096111,132.419962 134.816112,130.43397 C135.536113,128.448969 135.446117,127.065959 134.546123,126.28596 L133.195125,125.115962 L128.603115,127.561961 C125.541119,129.192958 121.128124,132.065959 115.365124,136.178965 C109.602124,140.291972 99.42712,147.631968 84.839115,158.198969 C70.251118,168.765955 61.426517,174.935969 58.364422,176.708979 C55.303517,178.480952 52.241421,180.289973 49.179417,182.133967 C46.11842,183.977961 43.50642,185.218958 41.345417,185.856959 C39.184422,186.494959 33.961422,188.161952 25.677418,190.856959 C17.392418,193.551966 12.439419,195.075953 10.818417,195.430964 L8.38741696,195.962977 L10.008419,194.685969 C11.089416,193.834956 14.330418,192.061976 19.733417,189.366969 C25.136417,186.672969 31.890415,182.594966 39.994419,177.133967 C48.099415,171.672968 52.961422,168.339961 54.582416,167.134974 C56.203418,165.928965 60.976421,162.205958 68.900119,155.964961 C76.824115,149.723964 81.507121,146.03596 82.948116,144.901957 C84.389118,143.766962 92.493114,137.171961 107.26112,125.115962 C122.029125,113.05897 130.944119,106.286967 134.005123,104.796962 L138.598125,102.56396 L146.702114,102.137965 L154.807125,101.712962 L158.859112,99.2659713 C161.561123,97.6349593 165.343121,95.1529643 170.20512,91.8189653 C175.068111,88.4859573 179.840115,85.8979603 184.523113,84.0539663 C188.120113,83.5119593 188.33012,78.0459703 192.074123,84.5119593 L196.933117,85.1389733 L200.171124,86.8159603 C203.413113,87.2419703 208.194119,85.5029723 209.092114,87.0619623 C209.989117,88.6219603 212.341122,88.0139733 220.453122,89.6919673 C226.396115,93.4509703 232.249112,96.5359613 238.012112,98.9469723 C243.775112,101.357967 247.737118,102.882961 249.899105,103.520962 L253.140133,104.477963 L256.112118,100.648968 C258.093106,98.0959593 260.524105,95.4009673 263.406124,92.5639613 C266.288113,89.7269713 267.638119,88.0609703 267.458126,87.5639613 L267.188106,86.8199733 L268.539119,86.2879603 C269.439113,85.9329643 271.150111,84.9049643 273.672115,83.2029693 C276.193111,81.5009733 278.984127,79.9049653 282.046108,78.4159663 C285.10812,76.9269683 289.520107,75.3309593 295.283108,73.6289633 C301.046108,71.9269673 305.819119,70.4729723 309.601132,69.2679713 C313.383114,68.0619623 316.895108,66.5369683 320.137112,64.6929593 C323.379116,62.8489653 325.990109,60.8639643 327.971127,58.7359583 C329.952115,56.6089593 331.393124,55.3319663 332.293118,54.9069633 C333.194119,54.4809683 335.895108,53.2399713 340.398129,51.1829643 C344.900113,49.1269643 348.052121,47.7439693 349.853116,47.0349693 C351.654111,46.3249623 353.995114,45.6159633 356.877133,44.9069633 C359.758114,44.1979633 360.146115,35.8579673 365.54913,35.5739633 L365.549127,35.5739643 Z" id="path2" transform="translate(278.724773, 113.209972) rotate(6.562500) translate(-278.724773, -113.209972) "></path>
        </g>
    </g>
</svg>