<?xml version="1.0" encoding="utf-8"?>
<!-- Generator: Adobe Illustrator 14.0.0, SVG Export Plug-In . SVG Version: 6.00 Build 43363)  -->
<!DOCTYPE svg PUBLIC "-//W3C//DTD SVG 1.1//EN" "http://www.w3.org/Graphics/SVG/1.1/DTD/svg11.dtd">
<svg version="1.1" xmlns="http://www.w3.org/2000/svg" xmlns:xlink="http://www.w3.org/1999/xlink" x="0px" y="0px" width="2272px"
	 height="1872px" viewBox="0 0 2272 1872" enable-background="new 0 0 2272 1872" xml:space="preserve">
<g id="back">
	<linearGradient id="SVGID_1_" gradientUnits="userSpaceOnUse" x1="1136.0005" y1="1873.2012" x2="1136.0004" y2="0.2012">
		<stop  offset="0.6026" style="stop-color:#BFEAFF"/>
		<stop  offset="0.8154" style="stop-color:#8ED3FF"/>
		<stop  offset="1" style="stop-color:#6A95FF"/>
	</linearGradient>
	<rect y="0.201" fill="url(#SVGID_1_)" width="2272" height="1873"/>
</g>
<g id="Mountain_Landscape_View">
	<g id="back_mountains">
		<polygon fill="#00797C" points="994.517,1321.335 1848.486,729.101 2154.539,879.093 2217.536,838.595 2272,864.851 
			2272,1308.072 1245.585,1308.072 		"/>
		<polygon fill="#00A7B0" points="2154.539,879.093 2242.729,920 2247,864.851 2217.536,838.595 		"/>
		<polygon fill="#00A7B0" points="1848.486,729.101 1916.51,762.438 1872.142,887.146 1889.094,935.165 1819.502,953 
			1682.104,931.853 1606.451,953 1550.148,936 		"/>
	</g>
	<g id="clouds">
		<path opacity="0.8" fill="#FFEFF2" d="M1254.051,860.981c0-26.065-21.13-47.195-47.195-47.195c-9.029,0-17.467,2.538-24.639,6.936
			c-4.818-21.3-23.858-37.205-46.616-37.205c-17.435,0-32.687,9.337-41.035,23.282c-0.894-0.063-1.795-0.096-2.704-0.096
			c-15.106,0-28.176,8.712-34.464,21.385c-6.674-4.361-14.648-6.898-23.216-6.898c-22.562,0-41.015,17.582-42.413,39.792H1254.051z"
			/>
		<path fill="#FFEFF2" d="M428.942,879.298c0,0,753.963-55.008,915.828-38.248l-183.17,38.248H428.942z"/>
		<polygon opacity="0.8" fill="#FFEFF2" points="0,225.252 1085.119,254.759 0,292.791 		"/>
		<polygon opacity="0.8" fill="#FFEFF2" points="0,782.499 944.032,658.499 0,822.249 		"/>
		<polygon opacity="0.8" fill="#FFEFF2" points="2176.436,592.015 1429.159,673.89 1971.958,673.89 2267.314,592.015 		"/>
		<polygon opacity="0.5" fill="#FFEFF2" points="2272,111 1343,141 2272,159 		"/>
		<polygon opacity="0.8" fill="#FFEFF2" points="2272,491.021 1295,478.812 2272,536.803 		"/>
		<path opacity="0.8" fill="#FFEFF2" d="M681.294,267.235c3.307-41.905-27.983-78.556-69.888-81.863
			c-14.518-1.146-28.403,1.864-40.491,8.026c-5.044-34.855-33.638-62.842-70.225-65.729c-28.03-2.212-53.735,10.864-68.926,32.224
			c-1.429-0.213-2.873-0.382-4.335-0.498c-24.287-1.917-46.404,10.433-58.121,30.009c-10.177-7.858-22.675-12.949-36.449-14.036
			c-36.273-2.862-68.17,23.063-73.235,58.593L681.294,267.235z"/>
		<path opacity="0.8" fill="#FFEFF2" d="M1764.267,493.217c0.849-43.693,37.038-78.427,80.832-77.58
			c15.171,0.293,29.264,4.821,41.171,12.428c8.789-35.549,41.298-61.593,79.533-60.853c29.293,0.566,54.615,16.713,68.188,40.36
			c1.503-0.075,3.019-0.103,4.547-0.073c25.381,0.491,47.056,15.52,57.208,36.968c11.356-7.093,24.836-11.088,39.231-10.81
			c37.908,0.733,68.339,30.805,69.964,68.082L1764.267,493.217z"/>
	</g>
	<g id="mountain">
		<g>
			<path fill="#008A95" d="M0,1011l171,8.305l183.016-82.604l220.418,41.302L955,793l478,188l48-20.5c0,0,580,233.496,630,271.998
				l161,114.896L0,1415.144V1011z"/>
			<path fill="#00A7B0" d="M153.758,1089.083l143.141,37.498l404.214-37.498c0,0-112.152-44.998-114.573-52.497
				c-2.421-7.5,35.077-31.499,35.077-31.499l-25.549-37.601l0,0l-21.633,10.517l-220.418-41.302L171,1019.305L0,1011v97
				l80.143,32.471L153.758,1089.083z"/>
		</g>
		<polygon fill="#00A7B0" points="1569.085,1137.463 1631.981,1125.438 1640.921,1068.192 1588.026,1053.44 1592.816,1101.545 
			1533.167,1141.312 		"/>
		<polygon fill="#00A7B0" points="955,793 904,895 659.396,936.701 		"/>
		<polygon fill="#00A7B0" points="928.001,991.002 995.001,1034.199 1054.001,1117.002 933.001,1117.002 885.001,1089.002 
			776.001,1075.002 766.001,1034.199 		"/>
		<path fill="#00A7B0" d="M1433,981l137,57.586c0,0-50.705-61.349-56.705-65.349s-22.37-8.719-22.37-8.719L1481,960.5L1433,981z"/>
	</g>
	<g id="front_mountains">
		<polygon fill="#016868" points="0,1186.639 394.985,1038.586 639.359,1168.16 787,1168.16 977,1209.562 1401,1168.16 
			1707,1213.051 1785,1189.323 1983.538,1296.73 0,1457.083 		"/>
		<polygon fill="#0E9995" points="0,1186.639 0,1252.014 104.482,1186.639 115.814,1161 238.141,1097.376 		"/>
		<polygon fill="#0E9995" points="394.985,1038.586 512.122,1168.16 609.905,1179 639.359,1168.16 		"/>
		<polygon fill="#0E9995" points="787,1168.16 932,1217.23 1040,1229.416 1184.97,1189.254 977,1209.562 		"/>
		<polygon fill="#0E9995" points="1785,1189.323 1791,1209.562 1707,1213.051 		"/>
	</g>
	<g id="grassland_with_trees">
		<g>
			<g>
				<polygon fill="#78572E" points="1913.402,1229.416 1902.495,1229.416 1905.783,1196.338 1911.236,1196.338 				"/>
				<polygon fill="#78572E" points="1907.948,1212.42 1900.329,1196.059 1898.511,1196.059 1906.113,1217.23 				"/>
				<polygon fill="#78572E" points="1909.204,1212.42 1916.824,1196.059 1918.642,1196.059 1911.039,1217.23 				"/>
			</g>
			<polygon fill="#627A26" points="1905.961,1123.442 1933.669,1125.932 1961.049,1157.987 1958.561,1191.478 1931.595,1212.877 
				1894.259,1212.877 1862.315,1196.744 1854.848,1153.312 1876.835,1131.288 			"/>
			<polygon fill="#D1E053" points="1933.669,1125.932 1952.101,1160.9 1949.335,1187.176 1931.595,1212.877 1958.561,1191.478 
				1961.049,1157.987 			"/>
		</g>
		<path fill="#627A26" d="M825.463,1340.695c0,0,2.116-27.683,36.996-35.936s10.019-26.684,48.702-32.619
			c38.684-5.935,53.288,23.254,73.158,21.349c19.871-1.905,36.751-22.804,57.781-6.471c21.03,16.333,20.5,27.247,20.5,27.247
			L825.463,1340.695z"/>
		<g>
			<g>
				<polygon fill="#78572E" points="598.212,1360.775 587.305,1360.775 590.592,1327.697 596.046,1327.697 				"/>
				<polygon fill="#78572E" points="592.758,1343.779 585.139,1327.418 583.32,1327.418 590.923,1348.591 				"/>
				<polygon fill="#78572E" points="594.014,1343.779 601.633,1327.418 603.452,1327.418 595.849,1348.591 				"/>
			</g>
			<polygon fill="#627A26" points="590.77,1254.803 618.479,1257.292 645.859,1289.347 643.37,1322.838 616.405,1344.236 
				579.068,1344.236 547.125,1328.104 539.658,1284.672 561.645,1262.648 			"/>
			<polygon fill="#D1E053" points="618.479,1257.292 636.911,1292.26 634.145,1318.535 616.405,1344.236 643.37,1322.838 
				645.859,1289.347 			"/>
		</g>
		<g>
			<g>
				<polygon fill="#78572E" points="2042.093,1212.877 2031.186,1212.877 2034.474,1179.799 2039.927,1179.799 				"/>
				<polygon fill="#78572E" points="2036.639,1195.881 2029.02,1179.52 2027.201,1179.52 2034.804,1200.691 				"/>
				<polygon fill="#78572E" points="2037.895,1195.881 2045.515,1179.52 2047.332,1179.52 2039.729,1200.691 				"/>
			</g>
			<polygon fill="#627A26" points="2034.65,1106.903 2062.359,1109.393 2089.739,1141.448 2087.25,1174.938 2060.285,1196.338 
				2022.949,1196.338 1991.006,1180.205 1983.538,1136.772 2005.525,1114.749 			"/>
			<polygon fill="#D1E053" points="2062.359,1109.393 2080.791,1144.361 2078.025,1170.637 2060.285,1196.338 2087.25,1174.938 
				2089.739,1141.448 			"/>
		</g>
		<g>
			<g>
				<polygon fill="#78572E" points="728.644,1349.717 717.736,1349.717 721.024,1316.639 726.478,1316.639 				"/>
				<polygon fill="#78572E" points="723.189,1332.721 715.57,1316.359 713.752,1316.359 721.354,1337.532 				"/>
				<polygon fill="#78572E" points="724.445,1332.721 732.065,1316.359 733.883,1316.359 726.28,1337.532 				"/>
			</g>
			<polygon fill="#627A26" points="721.202,1243.744 748.91,1246.233 776.29,1278.288 773.801,1311.779 746.836,1333.178 
				709.5,1333.178 677.556,1317.045 670.089,1273.613 692.076,1251.59 			"/>
			<polygon fill="#D1E053" points="748.91,1246.233 767.342,1281.202 764.576,1307.477 746.836,1333.178 773.801,1311.779 
				776.29,1278.288 			"/>
		</g>
		<g>
			<g>
				<polygon fill="#78572E" points="2191.736,1209.562 2178.391,1209.562 2182.413,1169.086 2189.087,1169.086 				"/>
				<polygon fill="#78572E" points="2185.063,1188.765 2175.739,1168.743 2173.516,1168.743 2182.817,1194.651 				"/>
				<polygon fill="#78572E" points="2186.6,1188.765 2195.924,1168.743 2198.148,1168.743 2188.846,1194.651 				"/>
			</g>
			<polygon fill="#627A26" points="2182.631,1079.888 2216.536,1082.934 2250.04,1122.158 2246.994,1163.139 2213.998,1189.323 
				2168.312,1189.323 2129.225,1169.583 2120.087,1116.437 2146.991,1089.487 			"/>
			<polygon fill="#D1E053" points="2216.536,1082.934 2239.09,1125.723 2235.706,1157.874 2213.998,1189.323 2246.994,1163.139 
				2250.04,1122.158 			"/>
		</g>
		<path fill="#E4DF3B" d="M2272,1182.496c0,0-1646.232,184.492-1913.259,190.674C91.715,1379.352,0,1357.034,0,1357.034v320.505
			h2272V1182.496z"/>
		<path fill="#627A26" d="M1344.219,1321.753c0,0,2.116-27.682,36.996-35.935c34.88-8.254,10.019-26.685,48.702-32.619
			s53.288,23.254,73.158,21.348c19.871-1.905,36.752-22.803,57.781-6.471c21.03,16.333,20.5,27.248,20.5,27.248L1344.219,1321.753z"
			/>
		<path fill="#A3BF44" d="M2272,1209.562c0,0-1646.232,184.492-1913.259,190.674C91.715,1406.417,0,1384.1,0,1384.1v320.505h2272
			V1209.562z"/>
		<path fill="#627A26" d="M520.833,1503.484c0,0,7.449-36.614,55.408-41.811c47.958-5.195,17.835-33.961,70.486-35.426
			s67.279,39.953,94.133,40.728c26.854,0.773,52.887-24.315,78.244,1.009c25.356,25.323,22.826,39.812,22.826,39.812
			L520.833,1503.484z"/>
		<path fill="#536321" d="M1186.635,1532.121c0,0,7.209-37.672,56.373-43.579s17.9-35.072,71.926-37.206
			c54.025-2.133,69.535,40.205,97.108,40.679c27.573,0.473,53.994-25.59,80.324,0.1c26.329,25.689,23.905,40.591,23.905,40.591
			L1186.635,1532.121z"/>
		<g>
			<g>
				<polygon fill="#78572E" points="198.305,1507.363 165.308,1507.363 175.254,1407.296 191.754,1407.296 				"/>
				<polygon fill="#78572E" points="181.807,1455.947 158.755,1406.45 153.256,1406.45 176.254,1470.501 				"/>
				<polygon fill="#78572E" points="185.604,1455.947 208.656,1406.45 214.155,1406.45 191.157,1470.501 				"/>
			</g>
			<g>
				<path fill="#627A26" d="M298.068,1416.912c-79.857,12.46-157.514,13.27-232.51,0l116.255-417.369l0,0L298.068,1416.912z"/>
				<path fill="#D1E053" d="M81.689,1419.535c69.985,10.463,142.232,8.945,216.379-2.623L181.813,999.543l96.369,401.939
					C278.182,1401.482,172.08,1431.457,81.689,1419.535z"/>
			</g>
		</g>
		<g>
			<g>
				<polygon fill="#78572E" points="417.398,1501.43 393.366,1501.43 400.61,1428.55 412.627,1428.55 				"/>
				<polygon fill="#78572E" points="405.382,1463.983 388.594,1427.934 384.588,1427.934 401.339,1474.583 				"/>
				<polygon fill="#78572E" points="408.148,1463.983 424.937,1427.934 428.942,1427.934 412.192,1474.583 				"/>
			</g>
			<g>
				<path fill="#627A26" d="M490.058,1435.553c-58.161,9.075-114.72,9.665-169.341,0l84.671-303.977l0,0L490.058,1435.553z"/>
				<path fill="#D1E053" d="M332.465,1437.464c50.971,7.62,103.59,6.515,157.592-1.911l-84.67-303.977l70.187,292.739
					C475.574,1424.315,398.298,1446.147,332.465,1437.464z"/>
			</g>
		</g>
		<g>
			<g>
				<polygon fill="#78572E" points="2200.206,1502.9 2184.536,1502.9 2189.26,1455.379 2197.095,1455.379 				"/>
				<polygon fill="#78572E" points="2192.371,1478.482 2181.424,1454.977 2178.813,1454.977 2189.734,1485.395 				"/>
				<polygon fill="#78572E" points="2194.175,1478.482 2205.121,1454.977 2207.733,1454.977 2196.811,1485.395 				"/>
			</g>
			<g>
				<path fill="#627A26" d="M2247.583,1459.945c-37.924,5.917-74.803,6.302-110.418,0l55.209-198.207l0,0L2247.583,1459.945z"/>
				<path fill="#D1E053" d="M2144.826,1461.191c33.234,4.969,67.545,4.248,102.757-1.246l-55.209-198.207l45.765,190.879
					C2238.139,1452.617,2187.752,1466.853,2144.826,1461.191z"/>
			</g>
		</g>
		<path fill="#95B53C" d="M0,1457.083c0,0,1061,70.263,1497,63.099c436-7.165,775-32.568,775-32.568v384.415L0,1872.107V1457.083z"
			/>
		<path fill="#79A023" d="M0,1481.437v390.671l2272-0.079v-360.061c0,0-339,25.402-775,32.567S0,1481.437,0,1481.437z"/>
		<g>
			<g>
				<polygon fill="#78572E" points="1861.234,1619.668 1827.465,1619.668 1837.645,1517.257 1854.53,1517.257 				"/>
				<polygon fill="#78572E" points="1844.35,1567.048 1820.759,1516.392 1815.131,1516.392 1838.668,1581.942 				"/>
				<polygon fill="#78572E" points="1848.237,1567.048 1871.828,1516.392 1877.456,1516.392 1853.919,1581.942 				"/>
			</g>
			<polygon fill="#627A26" points="1838.194,1291.572 1923.981,1299.279 2008.751,1398.523 2001.044,1502.211 1917.56,1568.462 
				1801.965,1568.462 1703.068,1518.516 1679.949,1384.048 1748.021,1315.862 			"/>
			<polygon fill="#D1E053" points="1923.981,1299.279 1981.047,1407.543 1972.483,1488.891 1917.56,1568.462 2001.044,1502.211 
				2008.751,1398.523 			"/>
		</g>
		<g>
			<g>
				<polygon fill="#78572E" points="2086.107,1597.911 2063.918,1597.911 2070.606,1530.617 2081.702,1530.617 				"/>
				<polygon fill="#78572E" points="2075.013,1563.334 2059.511,1530.048 2055.813,1530.048 2071.279,1573.122 				"/>
				<polygon fill="#78572E" points="2077.566,1563.334 2093.068,1530.048 2096.767,1530.048 2081.301,1573.122 				"/>
			</g>
			<polygon fill="#627A26" points="2070.968,1382.319 2127.339,1387.383 2183.041,1452.597 2177.977,1520.73 2123.119,1564.264 
				2047.161,1564.264 1982.176,1531.443 1966.984,1443.085 2011.715,1398.28 			"/>
			<polygon fill="#D1E053" points="2127.339,1387.383 2164.836,1458.523 2159.209,1511.978 2123.119,1564.264 2177.977,1520.73 
				2183.041,1452.597 			"/>
		</g>
		<g>
			<g>
				<polygon fill="#78572E" points="1558.453,1626.359 1534.133,1626.359 1541.464,1552.602 1553.625,1552.602 				"/>
				<polygon fill="#78572E" points="1546.293,1588.461 1529.303,1551.978 1525.249,1551.978 1542.201,1599.188 				"/>
				<polygon fill="#78572E" points="1549.093,1588.461 1566.083,1551.978 1570.137,1551.978 1553.185,1599.188 				"/>
			</g>
			<polygon fill="#627A26" points="1541.859,1390.06 1603.645,1395.609 1664.697,1467.087 1659.147,1541.765 1599.02,1589.48 
				1515.768,1589.48 1444.539,1553.508 1427.889,1456.662 1476.916,1407.554 			"/>
			<polygon fill="#D1E053" points="1603.645,1395.609 1644.744,1473.583 1638.577,1532.172 1599.02,1589.48 1659.147,1541.765 
				1664.697,1467.087 			"/>
		</g>
		<path fill="#536321" d="M350.556,1680.073c0,0,4.766-28.351,41.508-33.606c36.742-5.255,12.823-26.583,53.271-29.093
			c40.448-2.51,52.785,28.955,73.455,28.845s40.03-20.086,60.193-1.279c20.164,18.807,18.598,30.014,18.598,30.014L350.556,1680.073
			z"/>
		<path fill="#627A26" d="M168.22,1682.498c0,0,4.767-28.351,41.508-33.606s12.822-26.583,53.271-29.093
			s52.785,28.955,73.455,28.845c20.67-0.11,40.03-20.087,60.193-1.28c20.164,18.807,18.598,30.014,18.598,30.014L168.22,1682.498z"
			/>
		<path fill="#79B73E" d="M2272,1572.648c0,0-949.821,67.887-1385.206,85.439C466.752,1675.022,0,1676.839,0,1676.839v196.305
			l2272,0.057V1572.648z"/>
		<path fill="#52882A" d="M0,1702.102v171.042l2272,0.057v-275.289c0,0-949.821,67.887-1385.206,85.439
			C466.752,1700.285,0,1702.102,0,1702.102z"/>
		<path fill="#423D36" d="M428.942,1873.2c0,0,423.487-213.713,450.693-214.827l205.462-9.721L843.605,1873.2H428.942z"/>
		<polygon fill="#443F3A" points="944.032,1508.209 1035.741,1650.987 1186.635,1643.105 1054.34,1512.467 		"/>
		<polygon fill="#514C45" points="1020.596,1513.562 1238.03,1321.129 1303.846,1314.289 1161.278,1515.999 		"/>
		<g>
			<g>
				<polygon fill="#78572E" points="123.778,1682.448 103.088,1682.448 109.325,1619.705 119.67,1619.705 				"/>
				<polygon fill="#78572E" points="113.433,1650.21 98.98,1619.175 95.532,1619.175 109.952,1659.336 				"/>
				<polygon fill="#78572E" points="115.814,1650.21 130.268,1619.175 133.716,1619.175 119.296,1659.336 				"/>
			</g>
			<polygon fill="#627A26" points="109.662,1481.437 162.221,1486.158 214.155,1546.961 209.434,1610.487 158.286,1651.077 
				87.466,1651.077 26.875,1620.477 12.711,1538.093 54.416,1496.318 			"/>
			<polygon fill="#D1E053" points="162.221,1486.158 197.182,1552.487 191.936,1602.326 158.286,1651.077 209.434,1610.487 
				214.155,1546.961 			"/>
		</g>
		<path fill="#536321" d="M1872.696,1873.214c0,0,7.739-46.034,67.398-54.567c59.659-8.534,20.82-43.165,86.497-47.24
			c65.678-4.075,85.709,47.016,119.271,46.837c33.563-0.18,64.998-32.615,97.738-2.078c32.739,30.537,22.765,57.049,22.765,57.049
			H1872.696z"/>
		<path fill="#627A26" d="M1570.137,1873.214c0,0,7.739-46.034,67.398-54.567c59.659-8.534,20.82-43.165,86.498-47.24
			c65.677-4.075,85.708,47.016,119.271,46.837c33.563-0.18,64.998-32.615,97.738-2.078c32.739,30.537,22.765,57.049,22.765,57.049
			H1570.137z"/>
	</g>
</g>
</svg>
