<?xml version="1.0" encoding="iso-8859-1"?>
<!-- Generator: Adobe Illustrator 19.0.0, SVG Export Plug-In . SVG Version: 6.00 Build 0)  -->
<svg version="1.1" id="Layer_1" xmlns="http://www.w3.org/2000/svg" xmlns:xlink="http://www.w3.org/1999/xlink" x="0px" y="0px"
	 viewBox="0 0 512.001 512.001" style="enable-background:new 0 0 512.001 512.001;" xml:space="preserve">
<path style="fill:#E6F4F3;" d="M420.402,73.261c-4.743-6.919-12.19-10.343-19.619-10.343c-7.874,0-15.733,3.843-20.351,11.44
	l-43.362,74.704l161.341,342.898v-304.92L420.402,73.261z"/>
<path style="fill:#FFFFFF;" d="M420.402,73.261c-4.743-6.919-12.19-10.343-19.619-10.343c-7.874,0-15.733,3.843-20.351,11.44
	l-43.362,74.704l161.341,342.898v-304.92L420.402,73.261z"/>
<path style="fill:#E4E4EA;" d="M420.402,73.261c-4.743-6.919-12.19-10.343-19.619-10.343c-0.087,0-0.175,0.007-0.261,0.008v220.99
	l97.889,208.044v-304.92L420.402,73.261z"/>
<path style="fill:#FFFFFF;" d="M496.327,487.135L271.563,10.005C268.686,3.897,262.541,0,255.79,0s-12.896,3.897-15.773,10.005
	L15.253,487.135c-2.544,5.4-2.148,11.728,1.05,16.769c3.198,5.041,8.753,8.097,14.724,8.097h449.528
	c5.97,0,11.526-3.054,14.724-8.097C498.475,498.863,498.871,492.535,496.327,487.135z"/>
<path style="fill:#E4E4EA;" d="M496.327,487.135L271.563,10.005c-2.795-5.934-8.677-9.77-15.199-9.985V512h224.19
	c5.97,0,11.526-3.054,14.724-8.097C498.475,498.863,498.871,492.535,496.327,487.135z"/>
<path style="fill:#78B9EB;" d="M31.026,512h449.528c5.97,0,11.526-3.054,14.724-8.097c3.198-5.041,3.594-11.369,1.05-16.769
	l-94.664-200.953c-34.681-20.956-107.551-61.027-107.551-61.027l-33.45,12.016l-33.858-32.962l-54.81,21.893
	c0,0-11.313-12.379-22.056-24.873L15.253,487.135c-2.544,5.4-2.148,11.728,1.05,16.769C19.501,508.946,25.056,512,31.026,512z"/>
<polygon style="fill:#1E81CE;" points="363.841,205.959 406.988,200.505 438.741,157.592 498.41,187.041 498.41,491.961 "/>
<path style="fill:#5AAAE7;" d="M496.327,487.135l-94.664-200.953c-34.681-20.956-107.551-61.027-107.551-61.027l-33.45,12.016
	l-4.299-4.184V512h224.19c5.97,0,11.526-3.054,14.724-8.097C498.475,498.863,498.871,492.535,496.327,487.135z"/>
<polygon style="fill:#1A6FB0;" points="438.741,157.592 406.988,200.505 400.52,201.322 400.52,283.916 498.41,491.961 
	498.41,187.041 "/>
<g>
</g>
<g>
</g>
<g>
</g>
<g>
</g>
<g>
</g>
<g>
</g>
<g>
</g>
<g>
</g>
<g>
</g>
<g>
</g>
<g>
</g>
<g>
</g>
<g>
</g>
<g>
</g>
<g>
</g>
</svg>
