<?xml version="1.0" encoding="iso-8859-1"?>
<!-- Generator: Adobe Illustrator 19.0.0, SVG Export Plug-In . SVG Version: 6.00 Build 0)  -->
<svg version="1.1" id="Layer_1" xmlns="http://www.w3.org/2000/svg" xmlns:xlink="http://www.w3.org/1999/xlink" x="0px" y="0px"
	 viewBox="0 0 512 512" style="enable-background:new 0 0 512 512;" xml:space="preserve">
<path style="fill:#806749;" d="M288.208,2.777h-77.744c-9.2,0-16.659,7.459-16.659,16.659v473.128c0,9.2,7.459,16.659,16.659,16.659
	h77.744c9.2,0,16.659-7.459,16.659-16.659V19.436C304.868,10.236,297.409,2.777,288.208,2.777z"/>
<path style="fill:#6A563D;" d="M288.208,2.777h-38.872v506.447h38.872c9.2,0,16.659-7.459,16.659-16.659V19.436
	C304.868,10.236,297.409,2.777,288.208,2.777z"/>
<path d="M506.157,103.39l-45.536-38.872c-3.016-2.574-6.851-3.988-10.816-3.988H97.735c-9.2,0-16.659,7.459-16.659,16.659v77.744
	c0,9.2,7.459,16.659,16.659,16.659h352.069c3.965,0,7.8-1.414,10.816-3.988l45.536-38.872c3.707-3.165,5.843-7.796,5.843-12.671
	C512,111.185,509.864,106.555,506.157,103.39z"/>
<g>
	<path style="fill:#B39A7C;" d="M506.157,103.39l-45.536-38.872c-3.016-2.574-6.851-3.988-10.816-3.988H97.735
		c-9.2,0-16.659,7.459-16.659,16.659v77.744c0,9.2,7.459,16.659,16.659,16.659h352.069c3.965,0,7.8-1.414,10.816-3.988
		l45.536-38.872c3.707-3.165,5.843-7.796,5.843-12.671C512,111.185,509.864,106.555,506.157,103.39z"/>
	<path style="fill:#B39A7C;" d="M428.703,217.128H62.195c-3.965,0-7.8,1.414-10.816,3.988L5.843,259.988
		C2.136,263.154,0,267.784,0,272.659c0,4.876,2.136,9.506,5.843,12.671l45.536,38.872c3.015,2.574,6.85,3.988,10.816,3.988h366.508
		c9.2,0,16.659-7.459,16.659-16.659v-77.744C445.362,224.587,437.903,217.128,428.703,217.128z"/>
</g>
<g>
	<path style="fill:#A78966;" d="M506.157,103.39l-45.536-38.872c-3.016-2.574-6.851-3.988-10.816-3.988H249.336v111.063h200.469
		c3.965,0,7.8-1.414,10.816-3.988l45.536-38.872c3.707-3.165,5.843-7.796,5.843-12.671C512,111.185,509.864,106.555,506.157,103.39z
		"/>
	<path style="fill:#A78966;" d="M428.703,217.128H249.336v111.063h179.367c9.2,0,16.659-7.459,16.659-16.659v-77.744
		C445.362,224.587,437.903,217.128,428.703,217.128z"/>
</g>
<g>
	<rect x="193.805" y="328.191" style="fill:#6A563D;" width="111.063" height="30.109"/>
	<rect x="193.805" y="171.592" style="fill:#6A563D;" width="111.063" height="30.109"/>
</g>
<g>
</g>
<g>
</g>
<g>
</g>
<g>
</g>
<g>
</g>
<g>
</g>
<g>
</g>
<g>
</g>
<g>
</g>
<g>
</g>
<g>
</g>
<g>
</g>
<g>
</g>
<g>
</g>
<g>
</g>
</svg>
