<?xml version="1.0" encoding="UTF-8"?>
<svg width="100px" height="100px" viewBox="0 0 100 100" version="1.1" xmlns="http://www.w3.org/2000/svg" xmlns:xlink="http://www.w3.org/1999/xlink">
    <!-- Generator: Sketch 52.3 (67297) - http://www.bohemiancoding.com/sketch -->
    <title>Artboard</title>
    <desc>Created with Sketch.</desc>
    <g id="Artboard" stroke="none" stroke-width="1" fill="none" fill-rule="evenodd">
        <g id="rain" transform="translate(12.000000, 4.000000)">
            <path d="M43.5222679,39.818924 C43.5152428,39.8000703 43.507137,39.7821144 43.4979504,39.7643381 L22.9403061,0.266824139 C22.8549247,0.103066659 22.6854228,1.42108547e-14 22.5000695,1.42108547e-14 C22.3147162,1.42108547e-14 22.1452143,0.103066659 22.0598329,0.266824139 L1.50218867,39.7643381 C1.49282193,39.7821144 1.4847161,39.8002499 1.47787118,39.818924 C-0.68872695,45.60161 -0.466987484,51.8788004 2.10274056,57.4941378 C4.67228848,63.1098342 9.28216372,67.39141 15.0830555,69.5507822 C17.4589642,70.4352881 19.9490749,70.9229693 22.4849386,70.9998204 C22.4899823,71 22.4950259,71 22.5000695,71 C22.5051131,71 22.5101568,71 22.5152004,70.9998204 C25.050884,70.9226102 27.5411749,70.4351085 29.9167233,69.5507822 C35.7174349,67.39141 40.3274903,63.1096547 42.8972184,57.4941378 C45.4667663,51.8788004 45.688866,45.60161 43.5222679,39.818924 Z" id="Path" fill="#68CCEA"></path>
            <g id="Group" transform="translate(0.000000, 1.000000)" fill="#5ABCE2">
                <path d="M24.1135094,65.9645802 C19.2098962,61.1629008 16.4816038,54.7505089 16.4308774,47.9086768 C16.4306981,47.8867684 16.4319528,47.8645038 16.4346415,47.8425954 L21.9326321,0.0473791349 L1.64134906,38.9107379 C1.6320283,38.9283715 1.62396226,38.9463613 1.61715094,38.9648855 C-0.538811321,44.701145 -0.318160377,50.9279389 2.23895283,56.4981934 C4.79588679,62.0688041 9.38313208,66.3160051 15.1555472,68.4580407 C17.5197925,69.3354453 19.9976792,69.8192112 22.5210943,69.8954453 C22.5261132,69.8956234 22.5311321,69.8956234 22.5361509,69.8956234 C22.5411698,69.8956234 22.5461887,69.8956234 22.5512075,69.8954453 C24.3908019,69.8396947 26.2058396,69.5648601 27.9706887,69.0814504 C26.6021509,68.176972 25.3105094,67.1362341 24.1135094,65.9645802 Z" id="Path"></path>
                <path d="M75.1188302,49.4773537 C75.1118396,49.4588295 75.1037736,49.4408397 75.0946321,49.4232061 L65.0079623,30.1044529 C64.923,29.9420102 64.7543302,29.839771 64.5698868,29.839771 C64.3854434,29.839771 64.2167736,29.9418321 64.1318113,30.1044529 L54.0451415,49.4232061 C54.0358208,49.4408397 54.0277547,49.4588295 54.0209434,49.4773537 C52.9345377,52.3678372 53.0458491,55.5055471 54.3344434,58.3123155 C55.6226792,61.1192621 57.9342264,63.2595165 60.8433774,64.339084 C62.0346415,64.7809924 63.2834434,65.0246565 64.5548302,65.0633079 C64.5598491,65.063486 64.5648679,65.063486 64.5698868,65.063486 C64.5749057,65.063486 64.5799245,65.063486 64.5849434,65.0633079 C65.8559717,65.0246565 67.1047736,64.7809924 68.296217,64.339084 C74.3000377,62.1110178 77.3608302,55.4439186 75.1188302,49.4773537 Z" id="Path"></path>
            </g>
            <path d="M75.2785252,50.7357088 C75.2716629,50.7170921 75.2637449,50.6990124 75.2547712,50.6812907 L65.3532294,31.2660045 C65.2698265,31.1027501 65.1042524,31 64.9231943,31 C64.9223145,31 64.9212588,31.000358 64.920203,31.000358 L61.0224376,54.0602282 C61.0187425,54.0818881 61.0164551,54.1037269 61.0155753,54.1255658 C60.8505291,57.5388727 62.0016298,60.812554 64.2570269,63.3442511 C65.2233743,64.4290339 66.3438587,65.3201311 67.5720278,66 C67.9123257,65.9062003 68.2491044,65.79808 68.5811324,65.67188 C74.4747606,63.4325015 77.4793761,56.7320878 75.2785252,50.7357088 Z" id="Path" fill="#68CCEA"></path>
            <path d="M54.4878821,81.2484713 L47.9278523,68.2669201 C47.8449224,68.1031037 47.6802875,68 47.5002563,68 C47.320225,68 47.1555901,68.1031037 47.0726602,68.2669201 L40.5117557,81.2484713 C40.5026579,81.266254 40.4947848,81.2847552 40.4881364,81.3032564 C38.9990735,85.3979478 41.0319042,89.973311 45.0202343,91.5028029 C45.8115669,91.8056477 46.6410402,91.9730565 47.4853849,91.9998204 C47.4904586,92 47.4953574,92 47.5002563,92 C47.5051551,92 47.5100539,92 47.5151276,91.9998204 C48.3587725,91.9730565 49.1880708,91.8060069 49.9801032,91.5026232 C53.9682584,89.9734906 56.0010891,85.3979478 54.5116763,81.3030768 C54.5048529,81.2842164 54.4968049,81.2660744 54.4878821,81.2484713 Z" id="Path" fill="#5ABCE2"></path>
            <path d="M55.4812888,81.329014 C55.4740423,81.3101168 55.4656808,81.2919394 55.4562046,81.274302 L48.4892796,68.2674406 C48.401206,68.1033048 48.2263593,68 48.0351614,68 C47.9807192,68 47.9285067,68.0102585 47.8783382,68.0260962 L45.0179877,84.325572 C45.0138999,84.3475287 45.0116702,84.3703854 45.0103695,84.392882 C44.8606071,87.4765472 46.3444813,90.2747745 48.7211698,92 C49.3856244,91.9274707 50.0385587,91.776293 50.6688244,91.5486266 C54.9043505,90.0161526 57.0632704,85.4316888 55.4812888,81.329014 Z" id="Path" fill="#68CCEA"></path>
        </g>
    </g>
</svg>