<?xml version="1.0"?><svg width="1100" height="1200" xmlns="http://www.w3.org/2000/svg">
 <title>Shoe Prints grey</title>
 <metadata id="metadata7">image/svg+xmlShoe PrintTavin12. Sep. 2010</metadata>
 <g>
  <title>Layer 1</title>
  <g transform="rotate(46.48712921142578 91.00990295410166,1088.0572509765625) " id="layer1">
   <path d="m73.472122,1067.80542c-10.969994,3.887939 -20.656422,6.367065 -34.571232,10.792236c5.455769,69.546753 69.326618,41.819458 34.571232,-10.792236zm-3.16423,-12.619019c0.186844,-9.66333 -0.311012,-18.977295 3.781052,-28.163696c4.648392,-9.850708 5.391251,-18.491028 2.819672,-32.796387c-4.677292,-26.019287 -14.564774,-42.241028 -27.917824,-45.80304c-28.482491,-4.244751 -32.010481,24.309204 -32.700882,45.195435c-1.572269,11.689026 8.106701,61.711853 19.81144,70.18512c11.502331,-3.00354 22.79546,-5.950439 34.206543,-8.617432z" id="path2890" fill="#cccccc"/>
   <path d="m108.547661,1151.597046c10.970001,3.887817 20.656425,6.366943 34.571236,10.792114c-5.455765,69.546875 -69.326614,41.81958 -34.571236,-10.792114zm3.164238,-12.619141c-0.186836,-9.663208 0.311012,-18.977173 -3.781052,-28.163696c-4.648399,-9.850708 -5.391251,-18.490967 -2.819664,-32.796387c4.677284,-26.019287 14.564766,-42.240967 27.917824,-45.802979c28.482483,-4.244751 32.010468,24.309204 32.700867,45.195435c1.572281,11.688965 -8.106689,61.711792 -19.811432,70.185059c-11.502335,-3.00354 -22.795471,-5.950317 -34.206543,-8.617432l0,0z" id="path2890-7" fill="#cccccc"/>
  </g>
  <g id="svg_4" transform="rotate(40.236358642578125 647.0000000000001,545) ">
   <path id="svg_5" d="m629.462219,524.748169c-10.969971,3.887939 -20.656433,6.367065 -34.571228,10.792236c5.455811,69.546753 69.32666,41.819458 34.571228,-10.792236zm-3.164246,-12.619019c0.18689,-9.66333 -0.310974,-18.977295 3.781067,-28.163818c4.648438,-9.850586 5.391235,-18.490967 2.819702,-32.796265c-4.677307,-26.019287 -14.564758,-42.241089 -27.917847,-45.803101c-28.482483,-4.24472 -32.010498,24.309204 -32.700867,45.195435c-1.572266,11.689087 8.106689,61.711914 19.811462,70.185181c11.502319,-3.00354 22.79541,-5.950439 34.206482,-8.617432z" fill="#cccccc"/>
   <path id="svg_6" d="m664.537781,608.539795c10.969971,3.887817 20.656433,6.366943 34.571228,10.792114c-5.45575,69.546875 -69.326599,41.81958 -34.571228,-10.792114zm3.164246,-12.619141c-0.186829,-9.663208 0.310974,-18.977173 -3.781067,-28.163696c-4.648376,-9.850708 -5.391235,-18.490967 -2.819641,-32.796387c4.677246,-26.019287 14.564758,-42.240967 27.917786,-45.802979c28.482483,-4.244751 32.010498,24.309204 32.700867,45.195435c1.572266,11.688965 -8.106689,61.711792 -19.811401,70.185059c-11.502319,-3.00354 -22.795471,-5.950317 -34.206543,-8.617432l0,0z" fill="#cccccc"/>
  </g>
  <g id="svg_7" transform="rotate(36.44816970825195 815.0000000000002,352.9999999999999) ">
   <path id="svg_8" d="m797.462158,332.748169c-10.969971,3.887939 -20.656372,6.367065 -34.571167,10.792236c5.455811,69.546753 69.32666,41.819458 34.571167,-10.792236zm-3.164185,-12.619019c0.18689,-9.66333 -0.310913,-18.977295 3.781128,-28.163818c4.648438,-9.850586 5.391113,-18.490967 2.81958,-32.796295c-4.677246,-26.019287 -14.564697,-42.241028 -27.917725,-45.80304c-28.482544,-4.244751 -32.010498,24.309204 -32.700928,45.195435c-1.572266,11.689056 8.106689,61.711884 19.811523,70.18515c11.502197,-3.00354 22.79541,-5.950439 34.206421,-8.617432z" fill="#cccccc"/>
   <path id="svg_9" d="m832.537842,416.539795c10.969971,3.887817 20.656372,6.366943 34.571167,10.792114c-5.455688,69.546875 -69.326538,41.81958 -34.571167,-10.792114zm3.164185,-12.619141c-0.18689,-9.663208 0.310913,-18.977173 -3.781128,-28.163696c-4.648315,-9.850708 -5.391113,-18.490967 -2.81958,-32.796387c4.677246,-26.019287 14.564697,-42.240967 27.917725,-45.802979c28.482544,-4.244751 32.010498,24.309204 32.700928,45.195435c1.572266,11.688965 -8.106689,61.711792 -19.811401,70.185059c-11.502319,-3.00354 -22.795532,-5.950317 -34.206543,-8.617432l0,0z" fill="#cccccc"/>
  </g>
  <g id="svg_10" transform="rotate(34.525760650634766 972.9999999999998,169.00001525878895) ">
   <path id="svg_11" d="m955.462158,148.748169c-10.969971,3.887939 -20.656372,6.367065 -34.571167,10.792236c5.455811,69.546753 69.32666,41.819458 34.571167,-10.792236zm-3.164185,-12.619019c0.18689,-9.66333 -0.310913,-18.977295 3.781128,-28.163818c4.648438,-9.850586 5.391113,-18.490967 2.81958,-32.796295c-4.677246,-26.019287 -14.564697,-42.241028 -27.917725,-45.80304c-28.482544,-4.244751 -32.010498,24.309204 -32.700928,45.195435c-1.572266,11.689056 8.106689,61.711884 19.811523,70.18515c11.502197,-3.00354 22.79541,-5.950439 34.206421,-8.617432z" fill="#cccccc"/>
   <path id="svg_12" d="m990.537842,232.539795c10.969971,3.887817 20.656372,6.366943 34.571167,10.792114c-5.455688,69.546875 -69.326538,41.81958 -34.571167,-10.792114zm3.164185,-12.619141c-0.18689,-9.663208 0.310913,-18.977173 -3.781128,-28.163696c-4.648315,-9.850708 -5.391113,-18.490967 -2.81958,-32.796387c4.677246,-26.019287 14.564697,-42.240967 27.917725,-45.802979c28.482544,-4.244751 32.010498,24.309204 32.700928,45.195435c1.572266,11.688965 -8.106689,61.711792 -19.811401,70.185059c-11.502319,-3.00354 -22.795532,-5.950317 -34.206543,-8.617432l0,0z" fill="#cccccc"/>
  </g>
  <g id="svg_1" transform="rotate(42.37759780883789 461,733) ">
   <path id="svg_2" d="m443.462219,712.748169c-10.969971,3.887939 -20.656433,6.367065 -34.571228,10.792236c5.455811,69.546753 69.32666,41.819458 34.571228,-10.792236zm-3.164246,-12.619019c0.18689,-9.66333 -0.310974,-18.977295 3.781067,-28.163818c4.648438,-9.850586 5.391235,-18.490967 2.819702,-32.796265c-4.677307,-26.019287 -14.564758,-42.241089 -27.917847,-45.803101c-28.482483,-4.244751 -32.010498,24.309204 -32.700867,45.195435c-1.572266,11.689087 8.106689,61.711914 19.811462,70.185181c11.502319,-3.00354 22.79541,-5.950439 34.206482,-8.617432z" fill="#cccccc"/>
   <path id="svg_3" d="m478.537781,796.539795c10.969971,3.887817 20.656433,6.366943 34.571228,10.792114c-5.45575,69.546875 -69.326599,41.81958 -34.571228,-10.792114zm3.164246,-12.619141c-0.186829,-9.663208 0.310974,-18.977173 -3.781067,-28.163696c-4.648376,-9.850708 -5.391235,-18.490967 -2.819641,-32.796387c4.677246,-26.019287 14.564758,-42.240967 27.917786,-45.802979c28.482483,-4.244751 32.010498,24.309204 32.700867,45.195435c1.572266,11.688965 -8.106689,61.711792 -19.811401,70.185059c-11.502319,-3.00354 -22.795471,-5.950317 -34.206543,-8.617432l0,0z" fill="#cccccc"/>
  </g>
  <g id="svg_13" transform="rotate(42.336997985839844 274.9999999999996,911.0000000000001) ">
   <path id="svg_14" d="m257.462219,890.748169c-10.969971,3.887939 -20.656433,6.367065 -34.571228,10.792236c5.455811,69.546753 69.32666,41.819458 34.571228,-10.792236zm-3.164246,-12.619019c0.18689,-9.66333 -0.310974,-18.977295 3.781067,-28.163818c4.648438,-9.850586 5.391235,-18.490967 2.819702,-32.796265c-4.677307,-26.019287 -14.564758,-42.241089 -27.917847,-45.803101c-28.482483,-4.244751 -32.010498,24.309204 -32.700867,45.195435c-1.572266,11.689087 8.106689,61.711914 19.811462,70.185181c11.502319,-3.00354 22.79541,-5.950439 34.206482,-8.617432z" fill="#cccccc"/>
   <path id="svg_15" d="m292.537781,974.539795c10.969971,3.887817 20.656433,6.366943 34.571228,10.792114c-5.45575,69.546875 -69.326599,41.81958 -34.571228,-10.792114zm3.164246,-12.619141c-0.186829,-9.663208 0.310974,-18.977173 -3.781067,-28.163696c-4.648376,-9.850708 -5.391235,-18.490967 -2.819641,-32.796387c4.677246,-26.019287 14.564758,-42.240967 27.917786,-45.802979c28.482483,-4.244751 32.010498,24.309204 32.700867,45.195435c1.572266,11.688965 -8.106689,61.711792 -19.811401,70.185059c-11.502319,-3.00354 -22.795471,-5.950317 -34.206543,-8.617432l0,0z" fill="#cccccc"/>
  </g>
 </g>
</svg>