<?xml version="1.0" encoding="UTF-8"?>
<svg width="100px" height="100px" viewBox="0 0 100 100" version="1.1" xmlns="http://www.w3.org/2000/svg" xmlns:xlink="http://www.w3.org/1999/xlink">
    <!-- Generator: Sketch 52.3 (67297) - http://www.bohemiancoding.com/sketch -->
    <title>Artboard</title>
    <desc>Created with Sketch.</desc>
    <g id="Artboard" stroke="none" stroke-width="1" fill="none" fill-rule="evenodd">
        <g id="smoke" transform="translate(13.000000, 5.000000)">
            <path d="M1.26755859,43.8925781 C1.26755859,43.8925781 4.82326172,49.1162695 12.2756836,53.5378711 C12.2756836,53.5378711 6.87832031,7.92228516 42.0456445,-5.68434189e-14 C33.035625,33.0681445 53.506582,42.3938672 60.9686719,24.9233203 C73.430332,41.5611914 63.9685547,56.0768555 63.9685547,56.0768555 C69.0783398,56.8130273 73.3705664,51.2305664 73.3705664,51.2305664 C73.4088867,51.9182227 73.430332,52.610625 73.430332,53.3079492 C73.4305078,73.5723633 57.0028711,90 36.7382813,90 C16.4736914,90 0.0460546875,73.5723633 0.0460546875,53.3077734 C0.0460546875,50.0526562 0.472148438,46.8973828 1.26755859,43.8925781 Z" id="Path" fill="#FF6536"></path>
            <path d="M73.3707422,51.2305664 C73.3707422,51.2305664 69.0785156,56.8130273 63.9687305,56.0768555 C63.9687305,56.0768555 73.4305078,41.5611914 60.9688477,24.9233203 C53.5067578,42.3938672 33.0358008,33.0681445 42.0458203,0 C40.1623242,0.424335938 38.3960742,0.957480469 36.7382812,1.58519531 L36.7382812,90 C57.0028711,90 73.4305078,73.5723633 73.4305078,53.3077734 C73.4305078,52.6104492 73.4090625,51.9182227 73.3707422,51.2305664 Z" id="Path" fill="#FF421D"></path>
            <path d="M20.6465625,73.9082812 C20.6465625,82.7954297 27.8511328,90 36.7382812,90 C45.6254297,90 52.83,82.7954297 52.83,73.9082812 C52.83,69.1514648 50.7661523,64.8768164 47.4848437,61.9308984 C41.2632422,70.3833398 32.3971875,57.5616797 39.3067969,48.1985156 C39.3067969,48.1985156 20.6465625,50.5369336 20.6465625,73.9082812 Z" id="Path" fill="#FBBF00"></path>
            <path d="M52.83,73.9082812 C52.83,69.1514648 50.7661523,64.8768164 47.4848437,61.9308984 C41.2632422,70.3833398 32.3971875,57.5616797 39.3067969,48.1985156 C39.3067969,48.1985156 38.2928906,48.325957 36.7382812,48.8165625 L36.7382812,90 C45.6254297,90 52.83,82.7954297 52.83,73.9082812 Z" id="Path" fill="#FFA900"></path>
        </g>
    </g>
</svg>