<?xml version="1.0" encoding="iso-8859-1"?>
<!-- Generator: Adobe Illustrator 19.0.0, SVG Export Plug-In . SVG Version: 6.00 Build 0)  -->
<svg version="1.1" id="Layer_1" xmlns="http://www.w3.org/2000/svg" xmlns:xlink="http://www.w3.org/1999/xlink" x="0px" y="0px"
	 viewBox="0 0 511.999 511.999" style="enable-background:new 0 0 511.999 511.999;" xml:space="preserve">
<path style="fill:#4E901E;" d="M510.662,381.925L397.57,117.002c-2.618-6.133-8.643-10.112-15.311-10.112h-252.52
	c-6.668,0-12.694,3.979-15.311,10.112L1.337,381.925c-2.195,5.143-1.663,11.045,1.42,15.711c3.081,4.667,8.3,7.474,13.893,7.474
	h204.188h21.995h252.519c5.593,0,10.81-2.807,13.893-7.474C512.325,392.97,512.859,387.068,510.662,381.925z"/>
<path style="fill:#3E6D18;" d="M510.662,381.925L397.57,117.002c-2.618-6.133-8.643-10.112-15.311-10.112h-246.97l113.092,298.22
	H495.35c5.593,0,10.81-2.807,13.893-7.474C512.325,392.97,512.859,387.068,510.662,381.925z"/>
<polygon style="fill:#6AB232;" points="169.124,405.11 129.739,200.792 90.355,405.11 "/>
<polygon style="fill:#233D09;" points="129.739,200.792 129.739,405.11 169.124,405.11 "/>
<polygon style="fill:#4E901E;" points="403.408,311.73 287.507,311.73 243.88,195.828 359.782,195.828 "/>
<g>
	<polygon style="fill:#233D09;" points="328.888,245.455 365.464,245.455 351.676,208.826 315.329,208.826 	"/>
	<polygon style="fill:#233D09;" points="371.731,262.103 335.05,262.103 348.607,298.732 385.518,298.732 	"/>
	<polygon style="fill:#233D09;" points="312.239,245.455 298.681,208.826 261.77,208.826 275.557,245.455 	"/>
	<polygon style="fill:#233D09;" points="318.402,262.103 281.825,262.103 295.612,298.732 331.959,298.732 	"/>
</g>
<g>
</g>
<g>
</g>
<g>
</g>
<g>
</g>
<g>
</g>
<g>
</g>
<g>
</g>
<g>
</g>
<g>
</g>
<g>
</g>
<g>
</g>
<g>
</g>
<g>
</g>
<g>
</g>
<g>
</g>
</svg>
