<?xml version="1.0" encoding="iso-8859-1"?>
<!-- Generator: Adobe Illustrator 19.0.0, SVG Export Plug-In . SVG Version: 6.00 Build 0)  -->
<svg xmlns="http://www.w3.org/2000/svg" xmlns:xlink="http://www.w3.org/1999/xlink" version="1.1" id="Layer_1" x="0px" y="0px" viewBox="0 0 470.1 470.1" style="enable-background:new 0 0 470.1 470.1;" xml:space="preserve" width="512px" height="512px">
<g transform="translate(0 -540.36)">
	<g>
		<g>
			<path d="M278.324,739.26c-5.5,0-10,4.5-10,10c0,17.5-14.9,31.7-33.2,31.7c-17.6,0-32.4-14.5-32.4-31.7c0-5.5-4.5-10-10-10     s-10,4.5-10,10c0,28.5,23.5,51.7,52.4,51.7c29.3,0,53.2-23.2,53.2-51.7C288.324,743.76,283.824,739.26,278.324,739.26z" fill="#FFFFFF"/>
			<path d="M395.124,623.66L395.124,623.66l-22,0v-11.2c0-13-6.1-24.7-15.7-32.3l12.7-12.5c3.9-3.9,4-10.2,0.1-14.1     c-3.9-3.9-10.2-4-14.1-0.1l-15,14.7v-17.8c0-5.5-4.5-10-10-10s-10,4.5-10,10v17.3l-15.1-14.3c-4-3.8-10.3-3.6-14.1,0.4     c-3.8,4-3.6,10.3,0.4,14.1l12.8,12.2c-9.7,7.6-16,19.3-16,32.5v84.4h-71.6c-0.1-0.1-0.3-0.2-0.4-0.4l-136-102.3     c-4.4-3.3-10.7-2.4-14,2c-3.3,4.4-2.4,10.7,2,14l115.2,86.6h-19.6c-0.2-0.2-0.4-0.3-0.6-0.4l-83.2-60.6c-4.5-3.3-10.7-2.3-14,2.2     c-3.3,4.5-2.3,10.7,2.2,14l61.6,44.9h-20.8l-29.5-18.9c-4.7-3-10.8-1.6-13.8,3c-3,4.7-1.6,10.8,3,13.8l27.5,17.6     c1.4,34.4,15.6,66.5,40.5,90.8c23.7,23.2,54.4,36.9,87.4,39.2v74.8h-92.3l-39.5-38.8c-3.9-3.9-10.3-3.8-14.1,0.1     c-3.9,3.9-3.8,10.3,0.1,14.1l35.2,34.6l-35.3,35.4c-3.9,3.9-3.9,10.2,0,14.1c2,1.9,4.5,2.9,7.1,2.9c2.6,0,5.1-1,7.1-2.9     l39.5-39.5h92.3v63.2c0,5.5,4.5,10,10,10s10-4.5,10-10v-63.2h104.8l-25.8,25.4c-3.9,3.9-4,10.2-0.1,14.1c2,2,4.5,3,7.1,3     c2.5,0,5.1-1,7-2.9l43.2-42.5c1.9-1.9,3-4.5,3-7.2s-1.1-5.3-3.1-7.1l-43.2-41.7c-4-3.8-10.3-3.7-14.1,0.3     c-3.8,4-3.7,10.3,0.3,14.1l25.4,24.5h-104.5v-74.8c33.3-2.3,64.1-16,87.7-39.2c26-25.5,40.3-59.8,40.3-96.3v-63.2h22     c5.5,0,10-4.5,10-10S400.624,623.66,395.124,623.66z M235.124,822.66c-61.6,0-112.4-46.6-117.6-105.9h181.6h53.6     C347.724,776.96,297.824,822.66,235.124,822.66z M353.124,696.86h-44v-84.4c0-11.8,9.9-21.5,22-21.5c12.1,0,22,9.6,22,21.5     V696.86z" fill="#FFFFFF"/>
		</g>
	</g>
</g>
<g>
</g>
<g>
</g>
<g>
</g>
<g>
</g>
<g>
</g>
<g>
</g>
<g>
</g>
<g>
</g>
<g>
</g>
<g>
</g>
<g>
</g>
<g>
</g>
<g>
</g>
<g>
</g>
<g>
</g>
</svg>
