<?xml version="1.0" encoding="UTF-8"?>
<svg width="372px" height="512px" viewBox="0 0 372 512" version="1.1" xmlns="http://www.w3.org/2000/svg" xmlns:xlink="http://www.w3.org/1999/xlink">
    <!-- Generator: Sketch 52.3 (67297) - http://www.bohemiancoding.com/sketch -->
    <title>wind_vane_blue</title>
    <desc>Created with Sketch.</desc>
    <g id="Page-1" stroke="none" stroke-width="1" fill="none" fill-rule="evenodd">
        <g id="wind_vane_blue" fill="#FFFFFF">
            <path d="M233.13101,216.627951 C227.140795,216.627951 222.23971,221.529036 222.23971,227.519251 C222.23971,246.579026 206.011674,262.044671 186.080595,262.044671 C166.911908,262.044671 150.792784,246.252287 150.792784,227.519251 C150.792784,221.529036 145.891699,216.627951 139.901485,216.627951 C133.91127,216.627951 129.010185,221.529036 129.010185,227.519251 C129.010185,258.559455 154.604739,283.827271 186.080595,283.827271 C217.992104,283.827271 244.02231,258.559455 244.02231,227.519251 C244.02231,221.529036 239.121225,216.627951 233.13101,216.627951 Z" id="Path"></path>
            <path d="M360.341391,90.7245267 L336.380532,90.7245267 L336.380532,78.526271 C336.380532,64.3675814 329.736839,51.6247607 319.281191,43.3473729 L333.113142,29.7332482 C337.360749,25.4856414 337.469662,18.6241225 333.222055,14.3765156 C328.974448,10.1289087 322.112929,10.0199957 317.865322,14.2676026 L301.528372,30.2778132 L301.528372,10.8912997 C301.528372,4.90108488 296.627288,0 290.637073,0 C284.646858,0 279.745773,4.90108488 279.745773,10.8912997 L279.745773,29.7332482 L263.29991,14.1586896 C258.943391,10.0199957 252.081872,10.2378217 247.943178,14.5943416 C243.804484,18.9508615 244.02231,25.8123803 248.37883,29.9510742 L262.319693,43.2384599 C251.755133,51.5158477 244.893614,64.2586684 244.893614,78.635184 L244.893614,170.557754 L166.911908,170.557754 C166.802995,170.448841 166.585169,170.339928 166.476256,170.122102 L18.3545796,58.7041055 C13.5624078,55.1099766 6.70088894,56.0901936 3.10676003,60.8823655 C-0.48736888,65.6745373 0.4928481,72.5360562 5.28501998,76.1301851 L130.752793,170.448841 L109.405845,170.448841 C109.188019,170.231015 108.970193,170.122102 108.752367,170.013189 L18.1367537,104.011912 C13.2356688,100.417783 6.48306295,101.506913 2.88893404,106.407998 C-0.70519487,111.309083 0.383935103,118.061689 5.28501998,121.655818 L72.3754263,170.557754 L49.7215229,170.557754 L17.5921887,149.973197 C12.4732778,146.705807 5.82958496,148.230589 2.56219505,153.240587 C-0.70519487,158.359498 0.819587092,165.003191 5.82958496,168.270581 L35.7806592,187.439268 C37.3054412,224.905339 52.7710868,259.866411 79.8904231,286.33227 C105.702803,311.600085 139.139094,326.521166 175.080383,329.026165 L175.080383,410.493087 L74.5536862,410.493087 L31.5330523,368.234844 C27.2854454,363.987237 20.3150136,364.09615 16.1763197,368.343757 C11.9287128,372.591364 12.0376258,379.561795 16.2852327,383.700489 L54.6226077,421.384386 L16.1763197,459.939587 C11.9287128,464.187194 11.9287128,471.048713 16.1763197,475.29632 C18.3545796,477.365667 21.0774046,478.454797 23.9091425,478.454797 C26.7408804,478.454797 29.4637054,477.365667 31.6419653,475.29632 L74.6625992,432.275686 L175.189296,432.275686 L175.189296,501.1087 C175.189296,507.098915 180.090381,512 186.080595,512 C192.07081,512 196.971895,507.098915 196.971895,501.1087 L196.971895,432.275686 L311.112716,432.275686 L283.013163,459.939587 C278.765556,464.187194 278.656643,471.048713 282.90425,475.29632 C285.08251,477.47458 287.805335,478.56371 290.637073,478.56371 C293.359898,478.56371 296.191636,477.47458 298.260983,475.405233 L345.311397,429.117209 C347.380744,427.047862 348.578787,424.216124 348.578787,421.275473 C348.578787,418.334822 347.380744,415.503084 345.202484,413.54265 L298.15207,368.125931 C293.79555,363.987237 286.934031,364.09615 282.795337,368.45267 C278.656643,372.80919 278.765556,379.670708 283.122076,383.809402 L310.785977,410.493087 L196.971895,410.493087 L196.971895,329.026165 C233.239923,326.521166 266.785126,311.600085 292.488594,286.33227 C320.805973,258.559455 336.380532,221.202297 336.380532,181.449053 L336.380532,112.616039 L360.341391,112.616039 C366.331606,112.616039 371.232691,107.714954 371.232691,101.724739 C371.232691,95.7345246 366.331606,90.7245267 360.341391,90.7245267 Z M186.080595,307.461391 C118.990189,307.461391 63.6623865,256.707934 57.9989106,192.122527 L255.784914,192.122527 L314.16228,192.122527 C308.71663,257.688151 254.369045,307.461391 186.080595,307.461391 Z M314.597932,170.448841 L266.676213,170.448841 L266.676213,78.526271 C266.676213,65.6745373 277.4586,55.1099766 290.637073,55.1099766 C303.815545,55.1099766 314.597932,65.5656243 314.597932,78.526271 L314.597932,170.448841 Z" id="Shape" fill-rule="nonzero"></path>
        </g>
    </g>
</svg>