<?xml version="1.0" encoding="UTF-8"?>
<svg width="372px" height="512px" viewBox="0 0 372 512" version="1.1" xmlns="http://www.w3.org/2000/svg" xmlns:xlink="http://www.w3.org/1999/xlink">
    <!-- Generator: Sketch 52.3 (67297) - http://www.bohemiancoding.com/sketch -->
    <title>wind-vane</title>
    <desc>Created with Sketch.</desc>
    <g id="Page-1" stroke="none" stroke-width="1" fill="none" fill-rule="evenodd">
        <g id="wind-vane" transform="translate(0.704318, 0.000000)" fill="#4897BF">
            <path d="M232.426692,216.627951 C226.436477,216.627951 221.535392,221.529036 221.535392,227.519251 C221.535392,246.579026 205.307356,262.044671 185.376277,262.044671 C166.20759,262.044671 150.088466,246.252287 150.088466,227.519251 C150.088466,221.529036 145.187381,216.627951 139.197167,216.627951 C133.206952,216.627951 128.305867,221.529036 128.305867,227.519251 C128.305867,258.559455 153.900421,283.827271 185.376277,283.827271 C217.287786,283.827271 243.317992,258.559455 243.317992,227.519251 C243.317992,221.529036 238.416907,216.627951 232.426692,216.627951 Z" id="Path"></path>
            <path d="M359.637073,90.7245267 L335.676214,90.7245267 L335.676214,78.526271 C335.676214,64.3675814 329.032521,51.6247607 318.576873,43.3473729 L332.408824,29.7332482 C336.656431,25.4856414 336.765344,18.6241225 332.517737,14.3765156 C328.27013,10.1289087 321.408611,10.0199957 317.161004,14.2676026 L300.824054,30.2778132 L300.824054,10.8912997 C300.824054,4.90108488 295.92297,0 289.932755,0 C283.94254,0 279.041455,4.90108488 279.041455,10.8912997 L279.041455,29.7332482 L262.595592,14.1586896 C258.239073,10.0199957 251.377554,10.2378217 247.23886,14.5943416 C243.100166,18.9508615 243.317992,25.8123803 247.674512,29.9510742 L261.615375,43.2384599 C251.050815,51.5158477 244.189296,64.2586684 244.189296,78.635184 L244.189296,170.557754 L166.20759,170.557754 C166.098677,170.448841 165.880851,170.339928 165.771938,170.122102 L17.6502616,58.7041055 C12.8580898,55.1099766 5.99657094,56.0901936 2.40244203,60.8823655 C-1.19168688,65.6745373 -0.2114699,72.5360562 4.58070198,76.1301851 L130.048475,170.448841 L108.701527,170.448841 C108.483701,170.231015 108.265875,170.122102 108.048049,170.013189 L17.4324357,104.011912 C12.5313508,100.417783 5.77874495,101.506913 2.18461604,106.407998 C-1.40951287,111.309083 -0.320382897,118.061689 4.58070198,121.655818 L71.6711083,170.557754 L49.0172049,170.557754 L16.8878707,149.973197 C11.7689598,146.705807 5.12526696,148.230589 1.85787705,153.240587 C-1.40951287,158.359498 0.115269092,165.003191 5.12526696,168.270581 L35.0763412,187.439268 C36.6011232,224.905339 52.0667688,259.866411 79.1861051,286.33227 C104.998485,311.600085 138.434776,326.521166 174.376065,329.026165 L174.376065,410.493087 L73.8493682,410.493087 L30.8287343,368.234844 C26.5811274,363.987237 19.6106956,364.09615 15.4720017,368.343757 C11.2243948,372.591364 11.3333078,379.561795 15.5809147,383.700489 L53.9182897,421.384386 L15.4720017,459.939587 C11.2243948,464.187194 11.2243948,471.048713 15.4720017,475.29632 C17.6502616,477.365667 20.3730866,478.454797 23.2048245,478.454797 C26.0365624,478.454797 28.7593874,477.365667 30.9376473,475.29632 L73.9582812,432.275686 L174.484978,432.275686 L174.484978,501.1087 C174.484978,507.098915 179.386063,512 185.376277,512 C191.366492,512 196.267577,507.098915 196.267577,501.1087 L196.267577,432.275686 L310.408398,432.275686 L282.308845,459.939587 C278.061238,464.187194 277.952325,471.048713 282.199932,475.29632 C284.378192,477.47458 287.101017,478.56371 289.932755,478.56371 C292.65558,478.56371 295.487318,477.47458 297.556665,475.405233 L344.607079,429.117209 C346.676426,427.047862 347.874469,424.216124 347.874469,421.275473 C347.874469,418.334822 346.676426,415.503084 344.498166,413.54265 L297.447752,368.125931 C293.091232,363.987237 286.229713,364.09615 282.091019,368.45267 C277.952325,372.80919 278.061238,379.670708 282.417758,383.809402 L310.081659,410.493087 L196.267577,410.493087 L196.267577,329.026165 C232.535605,326.521166 266.080808,311.600085 291.784276,286.33227 C320.101655,258.559455 335.676214,221.202297 335.676214,181.449053 L335.676214,112.616039 L359.637073,112.616039 C365.627288,112.616039 370.528373,107.714954 370.528373,101.724739 C370.528373,95.7345246 365.627288,90.7245267 359.637073,90.7245267 Z M185.376277,307.461391 C118.285871,307.461391 62.9580685,256.707934 57.2945926,192.122527 L255.080596,192.122527 L313.457962,192.122527 C308.012312,257.688151 253.664727,307.461391 185.376277,307.461391 Z M313.893614,170.448841 L265.971895,170.448841 L265.971895,78.526271 C265.971895,65.6745373 276.754282,55.1099766 289.932755,55.1099766 C303.111227,55.1099766 313.893614,65.5656243 313.893614,78.526271 L313.893614,170.448841 Z" id="Shape" fill-rule="nonzero"></path>
        </g>
    </g>
</svg>