<?xml version="1.0" encoding="iso-8859-1"?>
<!-- Generator: Adobe Illustrator 19.0.0, SVG Export Plug-In . SVG Version: 6.00 Build 0)  -->
<svg version="1.1" id="Layer_1" xmlns="http://www.w3.org/2000/svg" xmlns:xlink="http://www.w3.org/1999/xlink" x="0px" y="0px"
	 viewBox="0 0 511.994 511.994" style="enable-background:new 0 0 511.994 511.994;" xml:space="preserve">
<rect x="113.165" y="296.73" style="fill:#6A563D;" width="66.977" height="215.264"/>
<rect x="146.654" y="296.73" style="fill:#554431;" width="33.488" height="215.264"/>
<path style="fill:#5EAC24;" d="M254.236,370.13L164.14,61.525c-2.268-7.769-9.391-13.11-17.483-13.11
	c-8.093,0-15.215,5.34-17.483,13.11L39.077,370.13c-1.606,5.503-0.528,11.443,2.911,16.031c3.439,4.587,8.839,7.287,14.572,7.287
	h180.193c5.734,0,11.133-2.7,14.572-7.287C254.766,381.573,255.844,375.633,254.236,370.13z"/>
<path style="fill:#4E901E;" d="M254.236,370.13L164.14,61.525c-2.268-7.769-9.39-13.11-17.483-13.11v345.032h90.097
	c5.733,0,11.133-2.7,14.572-7.287C254.766,381.573,255.844,375.633,254.236,370.13z"/>
<rect x="298.926" y="296.73" style="fill:#6A563D;" width="66.977" height="215.264"/>
<rect x="332.414" y="296.73" style="fill:#554431;" width="33.488" height="215.264"/>
<path style="fill:#7ED63E;" d="M192.031,373.61L318.31,10.036c4.647-13.381,23.571-13.381,28.218,0L472.808,373.61
	c3.371,9.705-3.836,19.837-14.11,19.837H206.139C195.866,393.448,188.659,383.315,192.031,373.61z"/>
<path style="fill:#6CC82A;" d="M472.808,373.61L346.528,10.036C344.204,3.346,338.311,0,332.42,0v393.448h126.279
	C468.972,393.448,476.179,383.315,472.808,373.61z"/>
<g>
	<rect x="298.926" y="393.445" style="fill:#554431;" width="66.977" height="26.202"/>
	<rect x="113.165" y="393.445" style="fill:#554431;" width="66.977" height="26.202"/>
</g>
<g>
</g>
<g>
</g>
<g>
</g>
<g>
</g>
<g>
</g>
<g>
</g>
<g>
</g>
<g>
</g>
<g>
</g>
<g>
</g>
<g>
</g>
<g>
</g>
<g>
</g>
<g>
</g>
<g>
</g>
</svg>
