<svg xmlns="http://www.w3.org/2000/svg" viewBox="0 0 61.53 87.29"><defs><style>.cls-1{fill:#6d6e71;}.cls-2{fill:#939598;}.cls-3{fill:#bcbec0;}</style></defs><title>Fire Gray</title><g id="Layer_2" data-name="Layer 2"><g id="Layer_2-2" data-name="Layer 2"><path class="cls-1" d="M30.77,0h0A126.25,126.25,0,0,1,48.32,20.53c6.91,10.13,13.22,22.95,13.22,36,0,19.27-13.77,30.77-30.77,30.77h0A30.8,30.8,0,0,1,0,56.53C0,28.68,30.77,0,30.77,0Z"/><path class="cls-2" d="M30.77,20h0s23.7,21.34,23.7,43.54c0,14.84-10.61,23.7-23.7,23.7h0a23.73,23.73,0,0,1-23.7-23.7C7.07,42.14,30.77,20,30.77,20Z"/><path class="cls-3" d="M30.77,52.07h0S43.18,63.25,43.18,74.88c0,7.77-5.56,12.42-12.42,12.42h0A12.43,12.43,0,0,1,18.35,74.88C18.35,63.64,30.77,52.07,30.77,52.07Z"/></g></g></svg>