<svg id="Layer_1" data-name="Layer 1" xmlns="http://www.w3.org/2000/svg" viewBox="0 0 1408.92 794"><defs><style>.cls-1{opacity:0.3;}.cls-2{fill:#fff;}.cls-3{opacity:0.4;}</style></defs><title>Artboard 1</title><g class="cls-1"><rect class="cls-2" x="33.8" y="130.84" width="0.32" height="71" transform="translate(-81.57 41.94) rotate(-31.35)"/><polygon class="cls-2" points="15.51 136.18 15.47 135.86 88.42 128.28 88.46 128.6 15.51 136.18"/><polygon class="cls-2" points="78.85 162.86 15.43 136.17 15.55 135.87 78.98 162.56 78.85 162.86"/><polygon class="cls-2" points="52.55 196.75 52.3 196.56 78.79 162.61 79.04 162.81 52.55 196.75"/><rect class="cls-2" x="52.43" y="196.5" width="52.52" height="0.32"/><polygon class="cls-2" points="151.81 234.81 104.84 196.78 105.05 196.53 152.02 234.56 151.81 234.81"/><rect class="cls-2" x="151.75" y="234.68" width="0.33" height="30.46"/><polygon class="cls-2" points="164.01 316.89 151.76 265.17 152.07 265.1 164.33 316.81 164.01 316.89"/><polygon class="cls-2" points="173.54 358.86 164.01 316.89 164.33 316.81 173.85 358.77 173.54 358.86"/><polygon class="cls-2" points="214.57 386.13 173.61 358.95 173.79 358.68 214.75 385.86 214.57 386.13"/><polygon class="cls-2" points="257.41 442.43 214.54 386.09 214.79 385.9 257.67 442.23 257.41 442.43"/><polygon class="cls-2" points="288.98 461.55 257.46 442.46 257.63 442.18 289.15 461.27 288.98 461.55"/><polygon class="cls-2" points="313.47 483.23 288.96 461.53 289.17 461.29 313.69 482.99 313.47 483.23"/><polygon class="cls-2" points="288.93 461.48 259.61 404.03 259.9 403.88 289.21 461.33 288.93 461.48"/><polygon class="cls-2" points="259.82 404.1 259.68 403.8 293.12 387.15 293.26 387.44 259.82 404.1"/><rect class="cls-2" x="291.99" y="379.93" width="44.62" height="0.32" transform="matrix(0.95, -0.32, 0.32, 0.95, -105.98, 121.99)"/><polygon class="cls-2" points="335.56 372.96 335.27 372.82 348.53 344.2 348.83 344.33 335.56 372.96"/><polygon class="cls-2" points="348.81 344.35 348.54 344.18 356.88 331.6 357.15 331.79 348.81 344.35"/><polygon class="cls-2" points="357.17 331.77 356.87 331.62 372.17 300.5 372.46 300.64 357.17 331.77"/><polygon class="cls-2" points="372.39 300.71 372.24 300.43 419.8 274.51 419.95 274.8 372.39 300.71"/><polygon class="cls-2" points="419.74 274.75 403.07 247.75 403.35 247.58 420.02 274.57 419.74 274.75"/><polygon class="cls-2" points="403.15 247.81 372.25 234.83 372.38 234.53 403.27 247.51 403.15 247.81"/><rect class="cls-2" x="360.98" y="202.33" width="0.33" height="36.21" transform="translate(-59.07 269.74) rotate(-38.09)"/><rect class="cls-2" x="349.82" y="206.19" width="0.32" height="44.6"/><polygon class="cls-2" points="332.66 293.26 332.36 293.14 349.83 250.73 350.13 250.85 332.66 293.26"/><polygon class="cls-2" points="332.4 293.32 300.36 262.82 300.58 262.59 332.62 293.08 332.4 293.32"/><polygon class="cls-2" points="300.37 262.83 274.5 239.56 274.71 239.32 300.58 262.59 300.37 262.83"/><polygon class="cls-2" points="274.45 239.47 268.37 201.44 268.69 201.4 274.77 239.41 274.45 239.47"/><polygon class="cls-2" points="268.69 201.44 268.37 201.4 273.13 169.97 273.45 170.02 268.69 201.44"/><polygon class="cls-2" points="273.43 170.09 273.16 169.9 288.94 147.33 289.2 147.52 273.43 170.09"/><polygon class="cls-2" points="289.08 147.59 289.04 147.26 320.6 143.37 320.64 143.69 289.08 147.59"/><rect class="cls-2" x="232.33" y="147.7" width="56.74" height="0.32" transform="translate(-2.41 4.34) rotate(-0.95)"/><polygon class="cls-2" points="186.44 161 186.36 160.69 232.29 148.14 232.38 148.45 186.44 161"/><rect class="cls-2" x="177.51" y="126.23" width="0.32" height="36.82" transform="translate(-47.35 101.61) rotate(-28.32)"/><polygon class="cls-2" points="130.68 156.21 130.49 155.95 168.84 128.3 169.03 128.56 130.68 156.21"/><rect class="cls-2" x="109.35" y="117.06" width="0.33" height="50.4" transform="translate(-69.5 155.78) rotate(-56.73)"/><rect class="cls-2" x="78.7" y="159.24" width="52.09" height="0.32" transform="translate(-19.49 14.68) rotate(-7.33)"/><polygon class="cls-2" points="104.82 196.75 78.79 162.81 79.04 162.61 105.08 196.56 104.82 196.75"/><polygon class="cls-2" points="105.01 196.81 104.88 196.51 186.34 160.7 186.47 160.99 105.01 196.81"/><rect class="cls-2" x="104.86" y="193.6" width="93.28" height="0.32" transform="translate(-8.76 7.18) rotate(-2.64)"/><polygon class="cls-2" points="197.97 191.01 130.51 156.23 130.66 155.94 198.12 190.72 197.97 191.01"/><polygon class="cls-2" points="273.21 170.14 232.26 148.44 232.41 148.15 273.37 169.85 273.21 170.14"/><polygon class="cls-2" points="222.97 223.9 222.65 223.85 232.17 148.27 232.5 148.32 222.97 223.9"/><polygon class="cls-2" points="198.18 190.97 197.92 190.76 232.21 148.19 232.46 148.4 198.18 190.97"/><polygon class="cls-2" points="222.88 224.02 222.74 223.73 268.46 201.27 268.6 201.57 222.88 224.02"/><polygon class="cls-2" points="268.4 201.51 232.2 148.39 232.47 148.2 268.66 201.33 268.4 201.51"/><polygon class="cls-2" points="243.53 261.08 243.35 260.81 274.51 239.31 274.7 239.57 243.53 261.08"/><rect class="cls-2" x="248.55" y="204.61" width="0.32" height="54.09" transform="translate(-44.72 403.18) rotate(-73.27)"/><polygon class="cls-2" points="198.68 262.79 198.4 262.62 222.67 223.79 222.95 223.96 198.68 262.79"/><polygon class="cls-2" points="198.55 262.87 198.53 262.55 243.43 260.79 243.44 261.11 198.55 262.87"/><polygon class="cls-2" points="152.03 234.8 151.81 234.56 197.93 190.75 198.16 190.99 152.03 234.8"/><polygon class="cls-2" points="151.94 234.84 151.89 234.52 222.78 223.72 222.83 224.03 151.94 234.84"/><polygon class="cls-2" points="151.92 265.29 151.91 264.97 198.53 262.55 198.55 262.87 151.92 265.29"/><polygon class="cls-2" points="211.94 312.26 198.38 262.75 198.7 262.67 212.25 312.18 211.94 312.26"/><polygon class="cls-2" points="212 312.35 151.81 265.26 152.02 265 212.2 312.09 212 312.35"/><polygon class="cls-2" points="243.4 334.61 164.13 317.01 164.21 316.7 243.47 334.3 243.4 334.61"/><polygon class="cls-2" points="173.75 358.97 173.64 358.67 243.38 334.3 243.49 334.61 173.75 358.97"/><polygon class="cls-2" points="214.82 386.02 214.5 385.98 219.27 356.38 219.59 356.42 214.82 386.02"/><polygon class="cls-2" points="173.7 358.98 173.69 358.65 219.42 356.24 219.43 356.56 173.7 358.98"/><polygon class="cls-2" points="219.44 356.56 219.42 356.24 279.36 352.11 279.38 352.43 219.44 356.56"/><polygon class="cls-2" points="279.3 352.41 243.37 334.6 243.51 334.31 279.44 352.13 279.3 352.41"/><polygon class="cls-2" points="243.34 334.59 212 312.35 212.19 312.09 243.53 334.32 243.34 334.59"/><polygon class="cls-2" points="212.24 312.3 211.96 312.13 243.3 260.87 243.57 261.03 212.24 312.3"/><polygon class="cls-2" points="270.54 288.45 270.21 288.42 274.44 239.43 274.77 239.46 270.54 288.45"/><polygon class="cls-2" points="243.57 334.54 243.3 334.38 270.23 288.35 270.51 288.51 243.57 334.54"/><rect class="cls-2" x="243.27" y="260.95" width="0.33" height="73.51"/><polygon class="cls-2" points="259.69 404.1 214.6 386.14 214.72 385.85 259.81 403.8 259.69 404.1"/><polygon class="cls-2" points="214.74 386.14 214.59 385.85 279.3 352.13 279.45 352.4 214.74 386.14"/><polygon class="cls-2" points="293.34 387.35 293.04 387.24 322.65 312.03 322.96 312.14 293.34 387.35"/><polygon class="cls-2" points="279.48 352.38 279.26 352.15 322.69 311.97 322.92 312.21 279.48 352.38"/><polygon class="cls-2" points="259.9 404.01 259.6 403.89 279.22 352.21 279.52 352.32 259.9 404.01"/><polygon class="cls-2" points="335.58 372.93 335.26 372.87 345.06 321.59 345.38 321.64 335.58 372.93"/><polygon class="cls-2" points="348.52 344.29 345.06 321.64 345.38 321.59 348.84 344.24 348.52 344.29"/><polygon class="cls-2" points="345.07 321.68 332.37 293.26 332.66 293.13 345.36 321.55 345.07 321.68"/><polygon class="cls-2" points="345.15 321.76 322.74 312.24 322.87 311.94 345.28 321.47 345.15 321.76"/><polygon class="cls-2" points="322.95 312.16 322.66 312.02 332.37 293.12 332.65 293.27 322.95 312.16"/><polygon class="cls-2" points="372.17 300.63 349.83 250.86 350.13 250.72 372.46 300.5 372.17 300.63"/><rect class="cls-2" x="372.15" y="234.68" width="0.32" height="65.89"/><polygon class="cls-2" points="349.96 251.21 349.76 250.94 372.22 234.55 372.41 234.81 349.96 251.21"/><polygon class="cls-2" points="268.65 201.53 268.41 201.31 320.5 143.42 320.74 143.64 268.65 201.53"/><polygon class="cls-2" points="383.6 187.88 364.99 173.04 365.19 172.78 383.8 187.62 383.6 187.88"/><polygon class="cls-2" points="365.13 173.07 365.03 172.76 396.86 161.97 396.97 162.27 365.13 173.07"/><polygon class="cls-2" points="383.84 187.82 383.56 187.68 396.77 162.05 397.06 162.2 383.84 187.82"/><polygon class="cls-2" points="364.92 172.93 358.99 120.99 359.31 120.95 365.25 172.89 364.92 172.93"/><polygon class="cls-2" points="396.8 162.23 359.03 121.08 359.27 120.86 397.03 162.01 396.8 162.23"/><polygon class="cls-2" points="359.13 121.13 321.88 116.37 321.92 116.05 359.17 120.81 359.13 121.13"/><polygon class="cls-2" points="322.06 116.23 321.74 116.19 325.22 83.18 325.54 83.21 322.06 116.23"/><polygon class="cls-2" points="359.03 121.08 325.26 83.3 325.5 83.08 359.27 120.86 359.03 121.08"/><polygon class="cls-2" points="463.04 201.21 462.77 201.03 489.27 160.76 489.55 160.93 463.04 201.21"/><polygon class="cls-2" points="489.5 160.97 489.31 160.72 519.26 138.31 519.45 138.57 489.5 160.97"/><polygon class="cls-2" points="519.4 138.59 519.3 138.29 552.74 127.36 552.84 127.67 519.4 138.59"/><polygon class="cls-2" points="552.63 127.56 544.34 93.73 544.65 93.66 552.95 127.48 552.63 127.56"/><polygon class="cls-2" points="544.64 93.77 544.35 93.63 560.5 61.25 560.8 61.4 544.64 93.77"/><polygon class="cls-2" points="560.81 61.34 560.49 61.31 565.25 15.58 565.57 15.61 560.81 61.34"/><polygon class="cls-2" points="565.38 15.76 502.45 2.54 502.52 2.22 565.44 15.44 565.38 15.76"/><polygon class="cls-2" points="445.24 7.31 445.21 6.98 502.48 2.22 502.5 2.54 445.24 7.31"/><polygon class="cls-2" points="397.82 8.16 397.81 7.84 445.23 6.98 445.23 7.31 397.82 8.16"/><polygon class="cls-2" points="420.36 35.07 397.69 8.1 397.94 7.9 420.6 34.86 420.36 35.07"/><polygon class="cls-2" points="445.95 86.35 420.33 35.04 420.62 34.89 446.24 86.2 445.95 86.35"/><polygon class="cls-2" points="455.46 156.1 445.93 86.3 446.25 86.25 455.78 156.06 455.46 156.1"/><rect class="cls-2" x="459.1" y="155.79" width="0.32" height="45.62" transform="translate(-22.62 75.6) rotate(-9.19)"/><rect class="cls-2" x="472.35" y="141.4" width="0.32" height="34.12" transform="translate(249.65 604.24) rotate(-81.98)"/><polygon class="cls-2" points="519.29 138.59 483.09 123.82 483.22 123.52 519.41 138.29 519.29 138.59"/><polygon class="cls-2" points="455.74 156.19 455.5 155.98 483.03 123.56 483.28 123.78 455.74 156.19"/><polygon class="cls-2" points="455.66 156.24 455.57 155.92 519.31 138.29 519.4 138.6 455.66 156.24"/><rect class="cls-2" x="470.97" y="108.52" width="30.62" height="0.32" transform="translate(280.88 562.66) rotate(-78.25)"/><polygon class="cls-2" points="483.04 123.79 445.98 86.39 446.2 86.16 483.27 123.55 483.04 123.79"/><polygon class="cls-2" points="489.29 93.81 453.61 53.79 453.85 53.58 489.53 93.59 489.29 93.81"/><polygon class="cls-2" points="489.53 93.8 489.28 93.6 526.1 45.4 526.36 45.59 489.53 93.8"/><rect class="cls-2" x="517.38" y="83.45" width="0.33" height="55.05" transform="matrix(1, -0.07, 0.07, 1, -6.18, 34.31)"/><polygon class="cls-2" points="544.44 93.85 515.68 83.66 515.78 83.35 544.55 93.54 544.44 93.85"/><polygon class="cls-2" points="483.28 123.77 483.03 123.57 515.6 83.4 515.86 83.61 483.28 123.77"/><polygon class="cls-2" points="515.89 83.55 515.57 83.47 526.08 45.45 526.39 45.54 515.89 83.55"/><polygon class="cls-2" points="515.8 83.65 515.66 83.36 560.58 61.18 560.72 61.47 515.8 83.65"/><polygon class="cls-2" points="560.58 61.47 526.16 45.64 526.3 45.35 560.72 61.17 560.58 61.47"/><polygon class="cls-2" points="487.97 40.89 487.87 40.58 565.36 15.44 565.47 15.75 487.97 40.89"/><polygon class="cls-2" points="526.21 45.66 487.89 40.89 487.94 40.57 526.25 45.34 526.21 45.66"/><polygon class="cls-2" points="487.82 40.86 445.13 7.27 445.33 7.02 488.02 40.6 487.82 40.86"/><polygon class="cls-2" points="488.07 40.79 487.77 40.68 502.34 2.33 502.64 2.44 488.07 40.79"/><polygon class="cls-2" points="453.65 53.83 420.4 35.1 420.56 34.82 453.8 53.54 453.65 53.83"/><polygon class="cls-2" points="453.56 53.93 445.06 7.17 445.38 7.12 453.88 53.87 453.56 53.93"/><polygon class="cls-2" points="453.78 53.84 453.67 53.53 487.86 40.9 487.97 41.2 453.78 53.84"/><polygon class="cls-2" points="446.25 86.31 445.93 86.24 453.57 53.64 453.88 53.72 446.25 86.31"/><polygon class="cls-2" points="489.25 93.7 487.76 40.74 488.08 40.73 489.57 93.69 489.25 93.7"/><polygon class="cls-2" points="489.38 93.86 446.06 86.43 446.12 86.12 489.44 93.54 489.38 93.86"/><polygon class="cls-2" points="570.41 203.7 568.76 180.6 569.08 180.58 570.73 203.68 570.41 203.7"/><polygon class="cls-2" points="568.98 180.74 568.86 180.44 589.68 171.94 589.81 172.24 568.98 180.74"/><polygon class="cls-2" points="570.71 203.78 570.43 203.61 589.61 172 589.88 172.17 570.71 203.78"/><polygon class="cls-2" points="205.66 127.34 193.13 96.76 193.43 96.64 205.97 127.22 205.66 127.34"/><rect class="cls-2" x="205.8" y="126.39" width="31.36" height="0.32" transform="translate(-5.99 11.11) rotate(-2.83)"/><polygon class="cls-2" points="236.99 125.86 229.18 94.31 229.5 94.23 237.3 125.79 236.99 125.86"/><polygon class="cls-2" points="193.3 96.86 193.28 96.54 229.33 94.11 229.35 94.43 193.3 96.86"/><polygon class="cls-2" points="205.95 127.37 205.69 127.19 229.21 94.18 229.47 94.37 205.95 127.37"/><polygon class="cls-2" points="368.59 791.65 368.27 791.58 377.99 747.25 378.3 747.31 368.59 791.65"/><polygon class="cls-2" points="378.31 747.3 377.98 747.27 382.75 702.65 383.07 702.68 378.31 747.3"/><polygon class="cls-2" points="383.02 702.78 382.8 702.53 406.18 680.91 406.4 681.16 383.02 702.78"/><polygon class="cls-2" points="406.42 681.13 406.17 680.93 419.75 664.7 420 664.9 406.42 681.13"/><polygon class="cls-2" points="419.96 664.95 419.8 664.66 436.88 655.14 437.04 655.43 419.96 664.95"/><polygon class="cls-2" points="437.11 655.33 436.81 655.22 447.88 622.83 448.18 622.93 437.11 655.33"/><polygon class="cls-2" points="448.11 623.03 447.96 622.75 467.13 612.63 467.28 612.9 448.11 623.03"/><polygon class="cls-2" points="467.35 612.84 467.07 612.69 483.66 584.99 483.94 585.15 467.35 612.84"/><polygon class="cls-2" points="483.64 585.08 478.88 544.25 479.19 544.22 483.96 585.05 483.64 585.08"/><polygon class="cls-2" points="478.95 544.37 441.64 520.62 441.81 520.35 479.12 544.1 478.95 544.37"/><polygon class="cls-2" points="441.64 520.62 410.98 503.08 411.14 502.8 441.8 520.35 441.64 520.62"/><polygon class="cls-2" points="411.02 503.1 392.59 498.04 392.68 497.73 411.1 502.79 411.02 503.1"/><polygon class="cls-2" points="392.55 498.03 374.65 488.01 374.81 487.72 392.71 497.74 392.55 498.03"/><polygon class="cls-2" points="348.73 497.23 348.63 496.92 374.68 487.72 374.79 488.02 348.73 497.23"/><polygon class="cls-2" points="356.63 518.56 348.53 497.13 348.83 497.02 356.93 518.45 356.63 518.56"/><polygon class="cls-2" points="337.05 535.14 336.84 534.89 356.68 518.39 356.88 518.63 337.05 535.14"/><polygon class="cls-2" points="350.83 580.35 336.8 535.06 337.11 534.96 351.14 580.26 350.83 580.35"/><polygon class="cls-2" points="385.06 617.64 350.87 580.41 351.11 580.2 385.3 617.42 385.06 617.64"/><polygon class="cls-2" points="368.58 660.11 368.28 659.98 385.03 617.46 385.33 617.58 368.58 660.11"/><rect class="cls-2" x="336.79" y="685.95" width="53.12" height="0.33" transform="translate(-378.84 913.99) rotate(-79.16)"/><polygon class="cls-2" points="355 757.11 354.68 757.09 358.1 712.17 358.43 712.19 355 757.11"/><polygon class="cls-2" points="368.28 791.68 354.69 757.16 354.99 757.03 368.58 791.56 368.28 791.68"/><polygon class="cls-2" points="354.9 757.24 354.77 756.95 378.08 747.14 378.21 747.44 354.9 757.24"/><polygon class="cls-2" points="378 747.37 358.13 712.26 358.41 712.1 378.29 747.21 378 747.37"/><polygon class="cls-2" points="358.32 712.33 358.21 712.03 382.85 702.5 382.97 702.81 358.32 712.33"/><polygon class="cls-2" points="382.76 702.71 368.27 660.1 368.58 659.99 383.07 702.61 382.76 702.71"/><polygon class="cls-2" points="368.47 660.2 368.39 659.89 393.53 652.86 393.62 653.17 368.47 660.2"/><polygon class="cls-2" points="406.15 681.1 393.43 653.08 393.72 652.94 406.44 680.97 406.15 681.1"/><rect class="cls-2" x="406.56" y="644.49" width="0.33" height="28.83" transform="translate(-360.9 760.56) rotate(-65.86)"/><polygon class="cls-2" points="393.42 653.04 385.02 617.56 385.33 617.49 393.73 652.97 393.42 653.04"/><polygon class="cls-2" points="437.12 655.28 436.8 655.28 437.58 590.77 437.9 590.78 437.12 655.28"/><polygon class="cls-2" points="447.88 622.93 437.59 590.83 437.89 590.73 448.19 622.84 447.88 622.93"/><polygon class="cls-2" points="385.25 617.67 385.11 617.38 437.67 590.64 437.81 590.93 385.25 617.67"/><polygon class="cls-2" points="393.7 653.11 393.44 652.92 437.61 590.68 437.88 590.88 393.7 653.11"/><polygon class="cls-2" points="351.05 580.45 350.93 580.15 387.61 564.55 387.74 564.85 351.05 580.45"/><polygon class="cls-2" points="413.03 575.69 387.61 564.85 387.74 564.55 413.15 575.39 413.03 575.69"/><polygon class="cls-2" points="385.31 617.62 385.05 617.44 412.95 575.45 413.22 575.63 385.31 617.62"/><polygon class="cls-2" points="336.95 535.17 336.95 534.85 399.49 532.98 399.5 533.3 336.95 535.17"/><polygon class="cls-2" points="356.92 518.59 356.64 518.43 374.6 487.78 374.88 487.95 356.92 518.59"/><rect class="cls-2" x="354.02" y="508.03" width="41.37" height="0.32" transform="translate(-204.01 255.7) rotate(-30.03)"/><polygon class="cls-2" points="399.65 533.2 399.34 533.09 410.91 502.88 411.21 503 399.65 533.2"/><polygon class="cls-2" points="351.1 580.41 350.87 580.18 399.38 533.03 399.61 533.26 351.1 580.41"/><polygon class="cls-2" points="387.83 565.07 387.52 564.96 399.34 533.09 399.65 533.2 387.83 565.07"/><rect class="cls-2" x="398.57" y="526.65" width="44.09" height="0.32" transform="translate(-133.76 143.25) rotate(-16.72)"/><rect class="cls-2" x="411.54" y="567.58" width="40.95" height="0.32" transform="translate(-184.08 208.04) rotate(-22.45)"/><polygon class="cls-2" points="451.02 560.08 450.87 559.8 478.96 544.1 479.11 544.37 451.02 560.08"/><polygon class="cls-2" points="437.89 590.84 437.59 590.71 450.8 559.87 451.1 560 437.89 590.84"/><polygon class="cls-2" points="483.7 585.2 450.85 560.06 451.04 559.81 483.89 584.94 483.7 585.2"/><polygon class="cls-2" points="450.79 559.97 441.56 520.52 441.88 520.44 451.11 559.9 450.79 559.97"/><polygon class="cls-2" points="450.87 560.08 399.42 533.28 399.57 533 451.02 559.8 450.87 560.08"/><polygon class="cls-2" points="754.24 660.44 712.99 637.82 713.14 637.53 754.39 660.16 754.24 660.44"/><polygon class="cls-2" points="712.91 637.72 699.55 589.41 699.87 589.32 713.22 637.63 712.91 637.72"/><polygon class="cls-2" points="699.55 589.38 693.99 528.73 694.31 528.7 699.87 589.35 699.55 589.38"/><polygon class="cls-2" points="694.04 528.82 655.42 492.42 655.63 492.18 694.26 528.59 694.04 528.82"/><polygon class="cls-2" points="605.8 494.41 605.78 494.09 655.52 492.14 655.53 492.46 605.8 494.41"/><polygon class="cls-2" points="605.64 494.32 588.95 462.28 589.24 462.13 605.93 494.17 605.64 494.32"/><polygon class="cls-2" points="589.25 462.24 588.94 462.17 597.86 426.25 598.17 426.32 589.25 462.24"/><polygon class="cls-2" points="598.15 426.39 597.89 426.19 624.35 390.67 624.6 390.85 598.15 426.39"/><polygon class="cls-2" points="624.63 390.76 624.32 390.75 625.32 340.8 625.63 340.8 624.63 390.76"/><polygon class="cls-2" points="665.43 356.52 625.42 340.95 625.53 340.64 665.55 356.21 665.43 356.52"/><polygon class="cls-2" points="665.34 356.39 656.11 301.6 656.43 301.55 665.65 356.33 665.34 356.39"/><polygon class="cls-2" points="656.37 301.7 656.16 301.45 680.43 280.55 680.64 280.79 656.37 301.7"/><polygon class="cls-2" points="731.2 306.49 680.46 280.81 680.61 280.52 731.35 306.2 731.2 306.49"/><rect class="cls-2" x="741.78" y="303.91" width="0.32" height="49.22" transform="translate(-69.07 354.3) rotate(-25.7)"/><polygon class="cls-2" points="787.7 414.55 752.47 350.77 752.76 350.61 787.98 414.4 787.7 414.55"/><polygon class="cls-2" points="824.57 462.3 787.71 414.56 787.96 414.38 824.83 462.1 824.57 462.3"/><polygon class="cls-2" points="775.35 486.14 775.2 485.84 824.63 462.05 824.76 462.34 775.35 486.14"/><polygon class="cls-2" points="775.27 486.15 775.27 485.83 841.19 485.34 841.19 485.66 775.27 486.15"/><polygon class="cls-2" points="814.14 513.01 813.91 512.78 841.07 485.39 841.29 485.62 814.14 513.01"/><polygon class="cls-2" points="796.26 576.92 795.94 576.83 813.87 512.85 814.18 512.93 796.26 576.92"/><polygon class="cls-2" points="777.37 622.43 777.08 622.31 795.95 576.82 796.25 576.94 777.37 622.43"/><polygon class="cls-2" points="754.45 660.37 754.17 660.21 777.09 622.28 777.37 622.44 754.45 660.37"/><polygon class="cls-2" points="713.2 637.77 712.94 637.58 743.01 596.34 743.27 596.52 713.2 637.77"/><rect class="cls-2" x="760.02" y="587.98" width="0.32" height="42.83" transform="translate(-185.09 845.41) rotate(-52.74)"/><polygon class="cls-2" points="754.16 660.32 742.98 596.46 743.3 596.4 754.47 660.26 754.16 660.32"/><polygon class="cls-2" points="699.83 589.85 699.59 589.64 749.34 532.51 749.59 532.73 699.83 589.85"/><polygon class="cls-2" points="699.73 589.91 699.69 589.59 796.08 576.71 796.13 577.04 699.73 589.91"/><rect class="cls-2" x="741.39" y="586.49" width="56.46" height="0.33" transform="translate(-155.35 302.22) rotate(-20.22)"/><polygon class="cls-2" points="743.11 596.6 699.68 589.54 699.74 589.21 743.16 596.27 743.11 596.6"/><polygon class="cls-2" points="795.99 576.99 749.35 532.74 749.58 532.5 796.21 576.76 795.99 576.99"/><polygon class="cls-2" points="749.61 532.7 749.32 532.54 775.13 485.92 775.42 486.07 749.61 532.7"/><polygon class="cls-2" points="749.51 532.78 749.41 532.47 813.98 512.74 814.08 513.05 749.51 532.78"/><polygon class="cls-2" points="749.45 532.78 694.14 528.87 694.16 528.54 749.47 532.46 749.45 532.78"/><polygon class="cls-2" points="694.31 528.74 693.99 528.67 707.25 464.11 707.57 464.18 694.31 528.74"/><polygon class="cls-2" points="707.56 464.21 707.26 464.09 728.93 406.26 729.23 406.39 707.56 464.21"/><polygon class="cls-2" points="707.45 464.31 707.36 463.99 759.04 450.89 759.12 451.2 707.45 464.31"/><polygon class="cls-2" points="758.95 451.14 728.94 406.42 729.22 406.23 759.22 450.95 758.95 451.14"/><polygon class="cls-2" points="759.2 451.14 758.96 450.94 787.71 414.37 787.96 414.57 759.2 451.14"/><polygon class="cls-2" points="787.81 414.63 729.05 406.48 729.09 406.16 787.85 414.31 787.81 414.63"/><polygon class="cls-2" points="665.51 356.53 665.48 356.21 752.61 350.54 752.63 350.86 665.51 356.53"/><polygon class="cls-2" points="660.8 398.9 660.47 398.85 665.33 356.35 665.66 356.38 660.8 398.9"/><rect class="cls-2" x="642.39" y="376.29" width="0.33" height="37.06" transform="translate(116.52 935.22) rotate(-77.34)"/><polygon class="cls-2" points="660.5 398.97 625.34 340.88 625.61 340.71 660.78 398.79 660.5 398.97"/><rect class="cls-2" x="598.01" y="425.64" width="31.87" height="0.32" transform="translate(-12.37 18.42) rotate(-1.7)"/><polygon class="cls-2" points="589.11 462.36 589.08 462.04 641.6 456.71 641.64 457.03 589.11 462.36"/><polygon class="cls-2" points="589.21 462.32 588.99 462.08 629.76 425.19 629.98 425.44 589.21 462.32"/><polygon class="cls-2" points="641.68 457.02 641.55 456.72 686.2 436.33 686.34 436.63 641.68 457.02"/><polygon class="cls-2" points="629.71 425.35 624.32 390.78 624.63 390.74 630.03 425.29 629.71 425.35"/><polygon class="cls-2" points="605.9 494.36 605.67 494.13 641.5 456.76 641.74 456.98 605.9 494.36"/><polygon class="cls-2" points="655.37 492.37 641.2 456.93 641.5 456.81 655.67 492.25 655.37 492.37"/><polygon class="cls-2" points="707.28 464.25 686.14 436.58 686.4 436.38 707.54 464.04 707.28 464.25"/><polygon class="cls-2" points="655.6 492.45 655.45 492.16 707.33 464 707.48 464.29 655.6 492.45"/><polygon class="cls-2" points="694.27 528.81 694.02 528.6 758.96 451.24 759.2 451.46 694.27 528.81"/><polygon class="cls-2" points="749.63 532.63 749.3 532.6 758.91 451.33 759.25 451.36 749.63 532.63"/><polygon class="cls-2" points="775.43 486.02 775.11 485.97 787.67 414.44 788 414.5 775.43 486.02"/><polygon class="cls-2" points="641.64 457.2 641.33 457.11 660.48 398.82 660.79 398.94 641.64 457.2"/><polygon class="cls-2" points="629.98 425.44 629.76 425.19 660.18 398.76 660.39 399 629.98 425.44"/><polygon class="cls-2" points="686.36 436.61 686.17 436.35 728.98 406.19 729.17 406.46 686.36 436.61"/><polygon class="cls-2" points="686.11 436.52 665.34 356.4 665.65 356.32 686.42 436.45 686.11 436.52"/><polygon class="cls-2" points="728.97 406.45 665.39 356.49 665.59 356.24 729.17 406.2 728.97 406.45"/><polygon class="cls-2" points="729.23 406.39 728.93 406.26 752.47 350.63 752.77 350.76 729.23 406.39"/><polygon class="cls-2" points="787.98 414.52 787.69 414.42 809.98 349.86 810.29 349.96 787.98 414.52"/><polygon class="cls-2" points="752.63 350.86 752.62 350.54 810.14 349.75 810.15 350.07 752.63 350.86"/><polygon class="cls-2" points="752.75 350.79 752.48 350.61 781.85 306.25 782.13 306.43 752.75 350.79"/><polygon class="cls-2" points="817.38 315.99 781.94 306.5 782.03 306.19 817.46 315.68 817.38 315.99"/><polygon class="cls-2" points="861.31 350.16 810.36 350.07 810.36 349.75 861.31 349.84 861.31 350.16"/><polygon class="cls-2" points="861.14 350.01 853.58 287.85 853.9 287.81 861.46 349.98 861.14 350.01"/><polygon class="cls-2" points="817.52 315.96 817.32 315.71 853.64 287.7 853.83 287.96 817.52 315.96"/><polygon class="cls-2" points="680.63 281.05 680.44 280.79 728.01 247.13 728.2 247.4 680.63 281.05"/><polygon class="cls-2" points="728.01 247.4 705.69 232.22 705.87 231.95 728.2 247.13 728.01 247.4"/><polygon class="cls-2" points="705.72 232.24 681.44 221.51 681.57 221.21 705.85 231.94 705.72 232.24"/><polygon class="cls-2" points="681.65 221.44 681.37 221.28 698.36 190.79 698.64 190.94 681.65 221.44"/><polygon class="cls-2" points="698.64 190.96 698.37 190.78 722.63 153.55 722.91 153.73 698.64 190.96"/><polygon class="cls-2" points="722.87 153.77 722.68 153.51 754.7 131.46 754.88 131.72 722.87 153.77"/><polygon class="cls-2" points="791.15 143.7 754.74 131.75 754.83 131.44 791.25 143.39 791.15 143.7"/><polygon class="cls-2" points="781.17 186.14 780.86 186.06 791.04 143.51 791.36 143.58 781.17 186.14"/><polygon class="cls-2" points="781.05 186.26 780.99 185.95 822.89 178.04 822.94 178.36 781.05 186.26"/><polygon class="cls-2" points="823.01 178.33 822.82 178.08 861.21 148.75 861.4 149.01 823.01 178.33"/><polygon class="cls-2" points="861.31 149.04 861.3 148.72 912.55 146.54 912.56 146.86 861.31 149.04"/><polygon class="cls-2" points="965.01 158.56 912.52 146.86 912.59 146.54 965.08 158.25 965.01 158.56"/><polygon class="cls-2" points="964.88 158.45 955.03 124.72 955.34 124.63 965.19 158.36 964.88 158.45"/><polygon class="cls-2" points="955.3 124.78 955.06 124.56 969.69 109.54 969.93 109.77 955.3 124.78"/><polygon class="cls-2" points="969.89 109.79 969.72 109.52 992.17 94.98 992.35 95.26 969.89 109.79"/><polygon class="cls-2" points="992.4 95.2 992.11 95.05 1011.34 58.14 1011.62 58.29 992.4 95.2"/><polygon class="cls-2" points="1011.57 58.35 1011.4 58.08 1066.08 24.73 1066.25 25 1011.57 58.35"/><polygon class="cls-2" points="1095.96 47.9 1066.06 24.99 1066.27 24.73 1096.16 47.64 1095.96 47.9"/><polygon class="cls-2" points="1071.06 81.75 1070.8 81.55 1095.93 47.67 1096.19 47.86 1071.06 81.75"/><polygon class="cls-2" points="1115.07 85.12 1070.91 81.81 1070.94 81.49 1115.1 84.8 1115.07 85.12"/><rect class="cls-2" x="1115.08" y="84.8" width="34" height="0.32"/><polygon class="cls-2" points="1182.42 114.54 1148.96 85.09 1149.18 84.84 1182.64 114.3 1182.42 114.54"/><polygon class="cls-2" points="1182.61 114.57 1182.45 114.27 1221.68 94.98 1221.83 95.27 1182.61 114.57"/><polygon class="cls-2" points="1248.83 113.34 1221.66 95.26 1221.85 94.99 1249 113.07 1248.83 113.34"/><rect class="cls-2" x="1272.92" y="97.7" width="0.32" height="53.15" transform="translate(629.99 1229.99) rotate(-65.39)"/><polygon class="cls-2" points="1297.25 135.5 1297.22 135.18 1343.51 130.42 1343.54 130.74 1297.25 135.5"/><polygon class="cls-2" points="1406.47 163.5 1343.45 130.72 1343.6 130.44 1406.62 163.22 1406.47 163.5"/><polygon class="cls-2" points="1406.53 163.52 1340.89 158.76 1340.91 158.44 1406.55 163.19 1406.53 163.52"/><polygon class="cls-2" points="1338.92 203.74 1338.6 203.73 1340.73 158.59 1341.07 158.6 1338.92 203.74"/><polygon class="cls-2" points="1280.73 280.23 1280.47 280.02 1338.63 203.63 1338.89 203.83 1280.73 280.23"/><polygon class="cls-2" points="1338.74 203.89 1277.76 200.74 1277.78 200.41 1338.77 203.57 1338.74 203.89"/><polygon class="cls-2" points="1280.44 280.13 1277.62 200.58 1277.94 200.57 1280.76 280.12 1280.44 280.13"/><polygon class="cls-2" points="1246.94 217.35 1246.79 217.07 1277.7 200.65 1277.85 200.93 1246.94 217.35"/><polygon class="cls-2" points="1198.63 242.37 1198.47 242.08 1246.79 217.06 1246.94 217.35 1198.63 242.37"/><polygon class="cls-2" points="1203.15 282.75 1198.39 242.24 1198.72 242.2 1203.48 282.71 1203.15 282.75"/><polygon class="cls-2" points="1190.75 320.65 1190.44 320.55 1203.16 282.68 1203.47 282.78 1190.75 320.65"/><polygon class="cls-2" points="1141.24 339.55 1141.13 339.24 1190.54 320.45 1190.66 320.75 1141.24 339.55"/><polygon class="cls-2" points="1118.99 379.78 1118.7 379.63 1141.04 339.31 1141.32 339.48 1118.99 379.78"/><polygon class="cls-2" points="1118.04 417.5 1117.71 417.5 1118.68 379.7 1119.01 379.71 1118.04 417.5"/><polygon class="cls-2" points="1083.23 429.75 1083.12 429.44 1117.82 417.35 1117.93 417.65 1083.23 429.75"/><polygon class="cls-2" points="1060.8 471.5 1060.52 471.35 1083.04 429.52 1083.32 429.67 1060.8 471.5"/><polygon class="cls-2" points="1060.55 471.55 1029.42 439.51 1029.65 439.28 1060.78 471.31 1060.55 471.55"/><rect class="cls-2" x="1021.62" y="397.04" width="0.32" height="43.77" transform="translate(-82.14 389.08) rotate(-20.74)"/><polygon class="cls-2" points="989.05 432.21 988.79 432.01 1013.9 398.36 1014.16 398.55 989.05 432.21"/><polygon class="cls-2" points="971.9 451.15 971.67 450.93 988.8 431.51 989.04 431.73 971.9 451.15"/><polygon class="cls-2" points="949.73 462.35 949.59 462.06 971.71 450.9 971.85 451.19 949.73 462.35"/><polygon class="cls-2" points="949.5 462.25 939.97 424.87 940.29 424.79 949.81 462.17 949.5 462.25"/><polygon class="cls-2" points="940.07 424.98 908.1 412.89 908.21 412.58 940.19 424.68 940.07 424.98"/><polygon class="cls-2" points="908.05 412.86 873.09 387.1 873.27 386.84 908.24 412.6 908.05 412.86"/><polygon class="cls-2" points="860.97 421.64 832.85 394.44 833.06 394.21 861.19 421.42 860.97 421.64"/><polygon class="cls-2" points="832.98 394.48 832.93 394.17 873.15 386.81 873.21 387.13 832.98 394.48"/><polygon class="cls-2" points="862.88 443.38 860.92 421.54 861.24 421.51 863.19 443.35 862.88 443.38"/><polygon class="cls-2" points="824.77 462.34 824.62 462.05 862.97 443.22 863.11 443.51 824.77 462.34"/><polygon class="cls-2" points="819.89 423.53 787.79 414.63 787.88 414.32 819.98 423.22 819.89 423.53"/><polygon class="cls-2" points="820.09 423.44 819.78 423.3 832.8 394.36 833.1 394.49 820.09 423.44"/><polygon class="cls-2" points="824.54 462.22 819.78 423.4 820.1 423.36 824.86 462.19 824.54 462.22"/><polygon class="cls-2" points="819.94 423.53 819.93 423.21 861.07 421.37 861.08 421.7 819.94 423.53"/><polygon class="cls-2" points="862.97 443.51 819.86 423.52 820 423.22 863.1 443.22 862.97 443.51"/><polygon class="cls-2" points="832.91 394.5 809.99 349.98 810.28 349.84 833.21 394.36 832.91 394.5"/><polygon class="cls-2" points="873.03 387.02 861.14 350.04 861.46 349.95 873.34 386.92 873.03 387.02"/><polygon class="cls-2" points="873.1 387.11 810.05 350.05 810.22 349.77 873.26 386.83 873.1 387.11"/><polygon class="cls-2" points="908.28 412.83 908.01 412.65 959.81 334.94 960.08 335.12 908.28 412.83"/><polygon class="cls-2" points="1013.88 398.51 998.33 356.33 998.62 356.22 1014.18 398.41 1013.88 398.51"/><polygon class="cls-2" points="998.4 356.41 959.86 335.18 960.02 334.89 998.55 356.13 998.4 356.41"/><polygon class="cls-2" points="1013.9 398.98 960.15 335.14 960.4 334.93 1014.15 398.78 1013.9 398.98"/><polygon class="cls-2" points="940.19 424.98 940.07 424.68 1013.97 398.73 1014.08 399.03 940.19 424.98"/><polygon class="cls-2" points="988.89 431.79 940.11 424.98 940.16 424.66 988.94 431.46 988.89 431.79"/><rect class="cls-2" x="955.8" y="417.39" width="0.32" height="41.09" transform="translate(8.89 894.77) rotate(-50.36)"/><polygon class="cls-2" points="960.16 335.15 929.92 303.87 930.15 303.65 960.39 334.92 960.16 335.15"/><polygon class="cls-2" points="873.32 387.06 873.05 386.87 929.9 303.67 930.17 303.85 873.32 387.06"/><polygon class="cls-2" points="873.26 387.11 873.1 386.83 960.2 335.07 960.36 335.35 873.26 387.11"/><rect class="cls-2" x="868.06" y="283.83" width="0.32" height="56.55" transform="translate(-37.28 489.01) rotate(-30.83)"/><polygon class="cls-2" points="873.34 387 873.02 386.94 882.55 336.36 882.87 336.42 873.34 387"/><polygon class="cls-2" points="882.8 336.52 882.62 336.26 929.78 303.92 929.97 304.19 882.8 336.52"/><polygon class="cls-2" points="930 304.21 853.71 288.43 853.77 288.11 930.06 303.89 930 304.21"/><rect class="cls-2" x="843.7" y="271.47" width="36.18" height="0.32" transform="translate(232.49 920.04) rotate(-63.35)"/><polygon class="cls-2" points="832.97 259.64 832.94 259.32 869.82 255.27 869.86 255.59 832.97 259.64"/><polygon class="cls-2" points="853.61 287.93 832.83 259.58 833.08 259.38 853.86 287.73 853.61 287.93"/><polygon class="cls-2" points="817.57 315.88 817.26 315.79 832.79 259.44 833.11 259.52 817.57 315.88"/><polygon class="cls-2" points="795.84 253.62 795.65 253.35 840.62 222.43 840.8 222.69 795.84 253.62"/><polygon class="cls-2" points="833.11 259.51 832.79 259.44 840.56 222.52 840.87 222.59 833.11 259.51"/><rect class="cls-2" x="761.19" y="279.64" width="55.35" height="0.33" transform="translate(321.23 974.01) rotate(-75.56)"/><polygon class="cls-2" points="832.93 259.64 795.72 253.16 795.77 252.84 832.98 259.32 832.93 259.64"/><polygon class="cls-2" points="782.1 306.46 781.88 306.22 832.85 259.36 833.06 259.6 782.1 306.46"/><polygon class="cls-2" points="731.11 306.35 727.95 247.28 728.27 247.26 731.43 306.34 731.11 306.35"/><polygon class="cls-2" points="728.16 247.41 728.05 247.12 779.9 227.17 780.02 227.47 728.16 247.41"/><polygon class="cls-2" points="795.6 253.08 779.82 227.41 780.1 227.24 795.88 252.91 795.6 253.08"/><polygon class="cls-2" points="731.38 306.46 731.16 306.22 795.64 252.87 795.85 253.13 731.38 306.46"/><rect class="cls-2" x="657.07" y="331.19" width="82.64" height="0.32" transform="translate(-58.32 489.26) rotate(-37.17)"/><polygon class="cls-2" points="705.62 232.12 698.34 190.9 698.66 190.84 705.95 232.06 705.62 232.12"/><polygon class="cls-2" points="705.94 232.12 705.63 232.05 722.61 153.6 722.93 153.68 705.94 232.12"/><polygon class="cls-2" points="728.27 247.29 727.95 247.24 739.6 181.31 739.92 181.37 728.27 247.29"/><polygon class="cls-2" points="781 186.27 739.73 181.5 739.77 181.18 781.04 185.94 781 186.27"/><polygon class="cls-2" points="779.84 227.43 739.63 181.45 739.88 181.24 780.09 227.22 779.84 227.43"/><polygon class="cls-2" points="780.12 227.33 779.8 227.32 780.85 186.1 781.17 186.1 780.12 227.33"/><polygon class="cls-2" points="739.91 181.38 739.6 181.29 754.64 131.54 754.95 131.64 739.91 181.38"/><polygon class="cls-2" points="739.62 181.43 722.63 153.73 722.91 153.56 739.9 181.25 739.62 181.43"/><polygon class="cls-2" points="739.86 181.47 739.66 181.21 791.1 143.41 791.29 143.68 739.86 181.47"/><polygon class="cls-2" points="780.09 227.43 779.84 227.22 822.8 178.1 823.04 178.31 780.09 227.43"/><rect class="cls-2" x="769.54" y="215.44" width="79.57" height="0.32" transform="translate(322.28 896.98) rotate(-69.36)"/><polygon class="cls-2" points="882.56 216.66 865.12 181.41 865.42 181.27 882.85 216.53 882.56 216.66"/><polygon class="cls-2" points="865.26 181.5 822.9 178.37 822.93 178.04 865.29 181.18 865.26 181.5"/><polygon class="cls-2" points="841.01 222.72 840.96 222.4 882.69 216.44 882.73 216.75 841.01 222.72"/><polygon class="cls-2" points="840.56 222.62 822.76 178.27 823.06 178.15 840.87 222.5 840.56 222.62"/><polygon class="cls-2" points="870 255.48 869.69 255.38 882.55 216.55 882.86 216.64 870 255.48"/><polygon class="cls-2" points="902.83 278.06 902.56 277.88 932.93 232 933.2 232.18 902.83 278.06"/><polygon class="cls-2" points="902.73 278.12 902.65 277.81 925.23 273.04 925.3 273.36 902.73 278.12"/><polygon class="cls-2" points="902.12 278.1 869.75 255.56 869.92 255.29 902.3 277.83 902.12 278.1"/><polygon class="cls-2" points="960.27 281.11 902.68 278.12 902.71 277.8 960.29 280.78 960.27 281.11"/><polygon class="cls-2" points="960.25 281.1 925.23 273.36 925.3 273.04 960.31 280.79 960.25 281.1"/><polygon class="cls-2" points="929.92 304.17 902.58 278.08 902.8 277.84 930.13 303.93 929.92 304.17"/><polygon class="cls-2" points="960.1 335.42 959.78 335.41 960.11 280.94 960.44 280.95 960.1 335.42"/><rect class="cls-2" x="922.08" y="194.04" width="23.72" height="0.32"/><polygon class="cls-2" points="932.91 232.13 921.93 194.24 922.24 194.15 933.22 232.04 932.91 232.13"/><polygon class="cls-2" points="933.22 231.91 932.91 231.8 945.65 194.14 945.96 194.25 933.22 231.91"/><polygon class="cls-2" points="869.89 255.58 869.78 255.28 932.94 231.7 933.05 232 869.89 255.58"/><polygon class="cls-2" points="932.95 232.01 882.67 216.75 882.76 216.44 933.04 231.7 932.95 232.01"/><polygon class="cls-2" points="921.98 194.33 861.21 149.01 861.4 148.75 922.18 194.07 921.98 194.33"/><polygon class="cls-2" points="865.11 181.36 861.14 148.9 861.46 148.86 865.43 181.32 865.11 181.36"/><polygon class="cls-2" points="922.04 194.35 865.24 181.5 865.31 181.18 922.12 194.04 922.04 194.35"/><polygon class="cls-2" points="921.92 194.23 912.4 146.73 912.71 146.67 922.24 194.17 921.92 194.23"/><polygon class="cls-2" points="945.94 194.27 945.66 194.12 964.89 158.33 965.18 158.48 945.94 194.27"/><polygon class="cls-2" points="945.82 194.36 945.78 194.03 985.84 190.71 985.86 191.03 945.82 194.36"/><rect class="cls-2" x="996.13" y="182.55" width="0.32" height="21.4" transform="translate(586.16 1121.55) rotate(-77.14)"/><polygon class="cls-2" points="985.72 190.96 964.91 158.49 965.17 158.32 985.99 190.78 985.72 190.96"/><polygon class="cls-2" points="965.21 158.42 964.88 158.39 969.65 109.64 969.97 109.67 965.21 158.42"/><polygon class="cls-2" points="1031.66 134.25 969.75 109.8 969.86 109.5 1031.78 133.96 1031.66 134.25"/><polygon class="cls-2" points="1031.6 134.22 992.14 95.24 992.37 95.01 1031.84 133.99 1031.6 134.22"/><polygon class="cls-2" points="992.33 95.27 992.19 94.97 1034.08 76.74 1034.21 77.03 992.33 95.27"/><rect class="cls-2" x="1022.66" y="53.07" width="0.32" height="29.21" transform="translate(324.77 818.32) rotate(-50.86)"/><rect class="cls-2" x="1052.37" y="60.73" width="0.33" height="37.09" transform="translate(838.76 1112.91) rotate(-82.62)"/><polygon class="cls-2" points="1034.29 76.97 1034.01 76.8 1065.77 24.78 1066.05 24.95 1034.29 76.97"/><polygon class="cls-2" points="1034.22 77.03 1034.07 76.74 1095.98 47.89 1096.13 48.18 1034.22 77.03"/><polygon class="cls-2" points="965.1 158.56 964.99 158.25 1031.66 133.95 1031.78 134.25 965.1 158.56"/><polygon class="cls-2" points="985.99 190.97 985.73 190.77 1031.59 134 1031.85 134.21 985.99 190.97"/><polygon class="cls-2" points="1031.88 134.11 1031.56 134.1 1033.98 76.88 1034.31 76.89 1031.88 134.11"/><polygon class="cls-2" points="1075.53 123.94 1070.76 81.67 1071.09 81.64 1075.85 123.91 1075.53 123.94"/><polygon class="cls-2" points="1053.47 183.02 1053.16 182.91 1075.54 123.87 1075.84 123.98 1053.47 183.02"/><polygon class="cls-2" points="1136.37 140.26 1075.65 124.08 1075.73 123.77 1136.47 139.94 1136.37 140.26"/><polygon class="cls-2" points="1105.47 158.52 1075.58 124.78 1075.81 124.57 1105.71 158.3 1105.47 158.52"/><polygon class="cls-2" points="1053.18 183.03 1031.57 134.17 1031.87 134.04 1053.46 182.91 1053.18 183.03"/><polygon class="cls-2" points="1075.8 124.04 1075.58 123.81 1114.96 84.85 1115.19 85.07 1075.8 124.04"/><polygon class="cls-2" points="1105.67 158.55 1105.51 158.27 1136.34 139.97 1136.5 140.24 1105.67 158.55"/><polygon class="cls-2" points="1053.39 183.12 1053.25 182.82 1105.52 158.26 1105.65 158.55 1053.39 183.12"/><polygon class="cls-2" points="1006.77 195.79 1006.67 195.47 1053.28 182.81 1053.36 183.12 1006.77 195.79"/><polygon class="cls-2" points="1001.76 242.66 933.04 232.25 933.08 231.93 1001.81 242.34 1001.76 242.66"/><polygon class="cls-2" points="960.39 281.06 960.16 280.83 1001.67 242.38 1001.89 242.62 960.39 281.06"/><polygon class="cls-2" points="925.32 273.35 925.21 273.05 1001.73 242.35 1001.85 242.65 925.32 273.35"/><polygon class="cls-2" points="1001.63 242.55 985.7 190.91 986.01 190.82 1001.94 242.46 1001.63 242.55"/><polygon class="cls-2" points="1053.27 260.92 1001.73 242.66 1001.84 242.35 1053.37 260.61 1053.27 260.92"/><polygon class="cls-2" points="1001.94 242.52 1001.62 242.48 1006.56 195.62 1006.88 195.65 1001.94 242.52"/><polygon class="cls-2" points="1053.19 260.86 1006.59 195.73 1006.85 195.54 1053.45 260.67 1053.19 260.86"/><polygon class="cls-2" points="1053.55 260.77 1053.15 182.97 1053.48 182.97 1053.87 260.77 1053.55 260.77"/><polygon class="cls-2" points="1053.41 260.9 1053.23 260.63 1086.42 238.26 1086.61 238.53 1053.41 260.9"/><polygon class="cls-2" points="1131.59 256.15 1086.45 238.55 1086.57 238.25 1131.71 255.85 1131.59 256.15"/><rect class="cls-2" x="1125.59" y="206.19" width="0.33" height="50.51" transform="translate(-22.91 269.68) rotate(-13.52)"/><polygon class="cls-2" points="1086.63 238.52 1086.4 238.28 1119.73 206.77 1119.95 207 1086.63 238.52"/><polygon class="cls-2" points="1120.15 207.04 1053.27 183.12 1053.37 182.82 1120.26 206.74 1120.15 207.04"/><polygon class="cls-2" points="1086.37 238.48 1053.19 183.05 1053.46 182.88 1086.65 238.32 1086.37 238.48"/><polygon class="cls-2" points="1120 206.93 1119.68 206.85 1136.26 140.06 1136.58 140.14 1120 206.93"/><polygon class="cls-2" points="1136.27 140.16 1114.93 85.02 1115.23 84.9 1136.57 140.04 1136.27 140.16"/><polygon class="cls-2" points="1136.58 140.13 1136.26 140.06 1148.92 84.93 1149.23 85 1136.58 140.13"/><polygon class="cls-2" points="1164.6 183.06 1136.28 140.19 1136.56 140.01 1164.88 182.87 1164.6 183.06"/><polygon class="cls-2" points="1164.9 183.01 1164.58 182.93 1182.37 114.38 1182.69 114.46 1164.9 183.01"/><polygon class="cls-2" points="1136.5 140.24 1136.34 139.96 1182.45 114.28 1182.61 114.56 1136.5 140.24"/><rect class="cls-2" x="1203.15" y="144.86" width="0.33" height="42.87"/><polygon class="cls-2" points="1164.86 183.08 1164.62 182.85 1203.2 144.75 1203.43 144.98 1164.86 183.08"/><polygon class="cls-2" points="1203.18 144.96 1182.4 114.52 1182.67 114.33 1203.45 144.77 1203.18 144.96"/><polygon class="cls-2" points="1203.47 144.92 1203.16 144.81 1221.11 95.31 1221.42 95.42 1203.47 144.92"/><polygon class="cls-2" points="1248.86 164.94 1203.25 145.01 1203.38 144.71 1248.98 164.64 1248.86 164.94"/><polygon class="cls-2" points="1203.39 187.87 1203.24 187.59 1248.85 164.64 1248.99 164.93 1203.39 187.87"/><rect class="cls-2" x="1244.62" y="149.7" width="56.63" height="0.32" transform="translate(101.66 670.37) rotate(-30.67)"/><polygon class="cls-2" points="1248.79 164.38 1248.45 164.37 1248.75 113.21 1249.07 113.21 1248.79 164.38"/><polygon class="cls-2" points="1277.65 200.68 1248.64 164.47 1248.9 164.27 1277.91 200.48 1277.65 200.68"/><polygon class="cls-2" points="1277.89 200.69 1277.66 200.47 1343.4 130.47 1343.64 130.69 1277.89 200.69"/><polygon class="cls-2" points="1277.87 200.71 1277.69 200.44 1340.81 158.46 1340.99 158.73 1277.87 200.71"/><polygon class="cls-2" points="1341.07 158.61 1340.73 158.58 1343.36 130.56 1343.68 130.59 1341.07 158.61"/><rect class="cls-2" x="1181.48" y="178.48" width="0.32" height="68.22" transform="translate(49.96 613.56) rotate(-29.71)"/><polygon class="cls-2" points="1246.78 217.34 1203.22 187.86 1203.41 187.59 1246.96 217.07 1246.78 217.34"/><polygon class="cls-2" points="1131.68 256.16 1131.62 255.84 1198.52 242.06 1198.58 242.38 1131.68 256.16"/><polygon class="cls-2" points="1131.82 256.01 1131.5 256 1136.26 140.09 1136.58 140.11 1131.82 256.01"/><polygon class="cls-2" points="1131.81 256.07 1131.51 255.93 1164.59 182.9 1164.89 183.03 1131.81 256.07"/><polygon class="cls-2" points="1202.71 282.88 1131.6 256.15 1131.71 255.85 1202.82 282.58 1202.71 282.88"/><polygon class="cls-2" points="1108.25 303.88 1053.22 260.9 1053.42 260.64 1108.45 303.63 1108.25 303.88"/><polygon class="cls-2" points="1108.19 303.81 1086.36 238.45 1086.67 238.35 1108.51 303.71 1108.19 303.81"/><polygon class="cls-2" points="1108.39 303.91 1108.31 303.6 1203.28 282.57 1203.36 282.89 1108.39 303.91"/><polygon class="cls-2" points="1141.06 339.12 1108.23 303.87 1108.47 303.65 1141.3 338.9 1141.06 339.12"/><polygon class="cls-2" points="1141.16 339.17 1051.11 325.48 1051.15 325.16 1141.21 338.86 1141.16 339.17"/><polygon class="cls-2" points="1118.84 379.87 1057.68 376.2 1057.7 375.88 1118.86 379.55 1118.84 379.87"/><polygon class="cls-2" points="1057.93 376.09 1050.97 325.34 1051.3 325.3 1058.25 376.05 1057.93 376.09"/><polygon class="cls-2" points="1058.03 376.2 998.43 356.42 998.53 356.13 1058.13 375.9 1058.03 376.2"/><polygon class="cls-2" points="998.56 356.41 998.4 356.13 1051.05 325.18 1051.22 325.46 998.56 356.41"/><rect class="cls-2" x="1005.54" y="252.57" width="0.33" height="101.12" transform="translate(291.95 1073.77) rotate(-63.97)"/><polygon class="cls-2" points="1051.3 325.32 1050.97 325.32 1053.15 260.76 1053.48 260.77 1051.3 325.32"/><polygon class="cls-2" points="1029.68 439.46 1029.38 439.32 1058.02 376.01 1058.32 376.14 1029.68 439.46"/><polygon class="cls-2" points="1083.03 429.67 1057.94 376.34 1058.23 376.2 1083.33 429.52 1083.03 429.67"/><polygon class="cls-2" points="1117.79 417.63 1057.6 376.18 1057.78 375.92 1117.97 417.37 1117.79 417.63"/><polygon class="cls-2" points="1044.19 531.17 1039.37 512.93 1039.68 512.85 1044.5 531.09 1044.19 531.17"/><polygon class="cls-2" points="1068.31 541.96 1044.28 531.28 1044.4 530.98 1068.44 541.66 1068.31 541.96"/><polygon class="cls-2" points="1068.27 541.92 1039.41 513.01 1039.64 512.78 1068.49 541.69 1068.27 541.92"/><polygon class="cls-2" points="1086.17 530.2 1085.96 529.95 1113.98 506.68 1114.19 506.93 1086.17 530.2"/><polygon class="cls-2" points="1110.82 538.57 1086.02 530.23 1086.12 529.92 1110.92 538.26 1110.82 538.57"/><polygon class="cls-2" points="1111.04 538.43 1110.71 538.39 1113.92 506.79 1114.24 506.82 1111.04 538.43"/><rect class="cls-2" x="1197.74" y="530.99" width="0.32" height="37.66" transform="translate(34.59 1169.48) rotate(-52.7)"/><polygon class="cls-2" points="1212.72 561.25 1209.94 538.43 1210.27 538.39 1213.04 561.21 1212.72 561.25"/><rect class="cls-2" x="1182.93" y="538.25" width="27.18" height="0.32"/><polygon class="cls-2" points="1212.89 561.39 1212.87 561.07 1231.46 560 1231.48 560.33 1212.89 561.39"/><polygon class="cls-2" points="1231.34 560.28 1209.99 538.53 1210.22 538.29 1231.58 560.05 1231.34 560.28"/><polygon class="cls-2" points="1108.5 660.71 1105.94 626.73 1106.27 626.7 1108.82 660.69 1108.5 660.71"/><polygon class="cls-2" points="1147.24 663.29 1108.64 660.87 1108.66 660.54 1147.26 662.97 1147.24 663.29"/><polygon class="cls-2" points="1187.29 665.63 1147.24 663.29 1147.26 662.97 1187.31 665.3 1187.29 665.63"/><polygon class="cls-2" points="1208.03 680.66 1187.2 665.59 1187.39 665.33 1208.21 680.4 1208.03 680.66"/><polygon class="cls-2" points="1225.56 690.2 1208.04 680.67 1208.19 680.39 1225.71 689.92 1225.56 690.2"/><polygon class="cls-2" points="1225.75 690.17 1225.53 689.94 1246.89 670.11 1247.11 670.34 1225.75 690.17"/><polygon class="cls-2" points="1187.35 665.61 1187.24 665.31 1214.82 655.78 1214.92 656.09 1187.35 665.61"/><polygon class="cls-2" points="1249.59 638.57 1221.58 622.09 1221.75 621.81 1249.74 638.29 1249.59 638.57"/><polygon class="cls-2" points="1247.16 670.24 1246.84 670.21 1249.51 638.43 1249.83 638.45 1247.16 670.24"/><polygon class="cls-2" points="1222.01 622.28 1216.74 601.66 1217.06 601.59 1222.33 622.2 1222.01 622.28"/><polygon class="cls-2" points="1216.85 601.77 1179.46 590.44 1179.57 590.13 1216.94 601.46 1216.85 601.77"/><polygon class="cls-2" points="1136.47 601.77 1136.37 601.46 1179.47 590.13 1179.55 590.45 1136.47 601.77"/><polygon class="cls-2" points="1106.21 626.83 1106.01 626.58 1136.31 601.49 1136.53 601.74 1106.21 626.83"/><rect class="cls-2" x="1115.07" y="622.4" width="0.33" height="25.09" transform="translate(-96.13 1058.62) rotate(-48.93)"/><polygon class="cls-2" points="1108.78 660.82 1108.54 660.59 1124.57 643.09 1124.81 643.3 1108.78 660.82"/><rect class="cls-2" x="1123.67" y="638.26" width="23.3" height="0.33" transform="translate(-161.87 520.79) rotate(-24.17)"/><polygon class="cls-2" points="1146.09 633.75 1145.81 633.59 1160.57 606.31 1160.85 606.46 1146.09 633.75"/><polygon class="cls-2" points="1160.47 606.5 1160.27 606.26 1179.72 590.16 1179.93 590.41 1160.47 606.5"/><polygon class="cls-2" points="1145.97 633.82 1145.93 633.5 1182.9 628.74 1182.95 629.07 1145.97 633.82"/><polygon class="cls-2" points="1147.09 663.14 1145.79 633.66 1146.12 633.65 1147.41 663.13 1147.09 663.14"/><rect class="cls-2" x="1171.49" y="601.7" width="0.32" height="31.87" transform="translate(-93.3 1010.24) rotate(-45.04)"/><polygon class="cls-2" points="1214.77 656.05 1182.82 629.03 1183.03 628.78 1214.97 655.81 1214.77 656.05"/><polygon class="cls-2" points="1187.52 665.35 1182.37 628.92 1182.69 628.87 1187.85 665.3 1187.52 665.35"/><polygon class="cls-2" points="1187.19 665.59 1145.85 633.79 1146.04 633.53 1187.39 665.33 1187.19 665.59"/><polygon class="cls-2" points="1182.55 629.06 1182.5 628.74 1221.63 622.09 1221.69 622.41 1182.55 629.06"/><polygon class="cls-2" points="1221.56 622.07 1179.42 590.42 1179.61 590.15 1221.76 621.81 1221.56 622.07"/><polygon class="cls-2" points="1182.5 629.15 1179.67 590.53 1179.99 590.51 1182.82 629.12 1182.5 629.15"/><polygon class="cls-2" points="1215.03 656.28 1214.72 656.21 1221.51 622.21 1221.82 622.27 1215.03 656.28"/><polygon class="cls-2" points="1214.94 656.39 1214.8 656.11 1249.59 638.29 1249.74 638.58 1214.94 656.39"/><polygon class="cls-2" points="1225.49 690.1 1214.72 655.98 1215.03 655.89 1225.8 690.01 1225.49 690.1"/><polygon class="cls-2" points="13.24 216.63 13.1 216.34 52.35 196.51 52.5 196.8 13.24 216.63"/><polygon class="cls-2" points="13.01 216.52 2.23 172.28 2.54 172.2 13.33 216.44 13.01 216.52"/><polygon class="cls-2" points="2.54 172.3 2.23 172.18 15.34 135.96 15.64 136.07 2.54 172.3"/><polygon class="cls-2" points="52.35 196.8 2.31 172.38 2.45 172.1 52.49 196.51 52.35 196.8"/><polygon class="cls-2" points="873.34 102.71 873.02 102.67 877.78 64.61 878.11 64.65 873.34 102.71"/><polygon class="cls-2" points="878.04 64.76 877.85 64.49 921.99 32.41 922.18 32.67 878.04 64.76"/></g><g id="dots" class="cls-3"><path class="cls-2" d="M17.87,136a2.38,2.38,0,1,1-2.38-2.38A2.38,2.38,0,0,1,17.87,136Z"/><path class="cls-2" d="M54.81,196.66a2.39,2.39,0,1,1-2.38-2.38A2.39,2.39,0,0,1,54.81,196.66Z"/><path class="cls-2" d="M90.82,128.43a2.38,2.38,0,1,1-2.38-2.38A2.38,2.38,0,0,1,90.82,128.43Z"/><path class="cls-2" d="M107.33,196.66a2.39,2.39,0,1,1-2.39-2.38A2.39,2.39,0,0,1,107.33,196.66Z"/><path class="cls-2" d="M133,156.08a2.38,2.38,0,1,1-2.38-2.38A2.37,2.37,0,0,1,133,156.08Z"/><circle class="cls-2" cx="78.91" cy="162.71" r="2.38"/><path class="cls-2" d="M154.3,234.68a2.39,2.39,0,1,1-2.39-2.38A2.39,2.39,0,0,1,154.3,234.68Z"/><path class="cls-2" d="M154.3,265.13a2.39,2.39,0,1,1-2.39-2.38A2.39,2.39,0,0,1,154.3,265.13Z"/><path class="cls-2" d="M188.79,160.85a2.39,2.39,0,1,1-2.39-2.39A2.39,2.39,0,0,1,188.79,160.85Z"/><path class="cls-2" d="M171.32,128.43a2.39,2.39,0,1,1-2.39-2.38A2.39,2.39,0,0,1,171.32,128.43Z"/><path class="cls-2" d="M200.43,190.87a2.38,2.38,0,1,1-2.38-2.38A2.38,2.38,0,0,1,200.43,190.87Z"/><path class="cls-2" d="M200.92,262.71a2.38,2.38,0,1,1-2.38-2.38A2.38,2.38,0,0,1,200.92,262.71Z"/><path class="cls-2" d="M277,239.44a2.39,2.39,0,1,1-2.38-2.38A2.38,2.38,0,0,1,277,239.44Z"/><path class="cls-2" d="M275.67,170a2.38,2.38,0,1,1-2.38-2.39A2.38,2.38,0,0,1,275.67,170Z"/><circle class="cls-2" cx="232.33" cy="148.29" r="2.38"/><path class="cls-2" d="M195.67,96.7a2.39,2.39,0,1,1-2.38-2.38A2.39,2.39,0,0,1,195.67,96.7Z"/><path class="cls-2" d="M231.72,94.27a2.38,2.38,0,1,1-2.38-2.38A2.38,2.38,0,0,1,231.72,94.27Z"/><path class="cls-2" d="M239.52,125.83a2.38,2.38,0,1,1-2.38-2.39A2.38,2.38,0,0,1,239.52,125.83Z"/><path class="cls-2" d="M208.2,127.28a2.39,2.39,0,1,1-2.39-2.38A2.38,2.38,0,0,1,208.2,127.28Z"/><circle class="cls-2" cx="289.06" cy="147.42" r="2.38"/><path class="cls-2" d="M323,143.53a2.38,2.38,0,1,1-2.38-2.38A2.37,2.37,0,0,1,323,143.53Z"/><path class="cls-2" d="M327.77,83.2a2.39,2.39,0,1,1-2.39-2.39A2.39,2.39,0,0,1,327.77,83.2Z"/><path class="cls-2" d="M400.2,8a2.38,2.38,0,1,1-2.38-2.38A2.39,2.39,0,0,1,400.2,8Z"/><path class="cls-2" d="M422.86,35a2.38,2.38,0,1,1-2.38-2.38A2.39,2.39,0,0,1,422.86,35Z"/><circle class="cls-2" cx="446.09" cy="86.27" r="2.38"/><path class="cls-2" d="M458,156.08a2.38,2.38,0,1,1-2.38-2.38A2.38,2.38,0,0,1,458,156.08Z"/><path class="cls-2" d="M465.28,201.12a2.38,2.38,0,1,1-2.38-2.38A2.38,2.38,0,0,1,465.28,201.12Z"/><path class="cls-2" d="M491.79,160.85a2.38,2.38,0,1,1-2.38-2.39A2.39,2.39,0,0,1,491.79,160.85Z"/><path class="cls-2" d="M521.73,138.44a2.38,2.38,0,1,1-2.38-2.38A2.38,2.38,0,0,1,521.73,138.44Z"/><path class="cls-2" d="M555.17,127.52a2.38,2.38,0,1,1-2.38-2.39A2.39,2.39,0,0,1,555.17,127.52Z"/><path class="cls-2" d="M592.13,172.09a2.38,2.38,0,1,1-2.38-2.39A2.39,2.39,0,0,1,592.13,172.09Z"/><path class="cls-2" d="M573,203.7a2.38,2.38,0,1,1-2.38-2.39A2.38,2.38,0,0,1,573,203.7Z"/><path class="cls-2" d="M571.3,180.59a2.38,2.38,0,1,1-2.38-2.38A2.39,2.39,0,0,1,571.3,180.59Z"/><path class="cls-2" d="M683.89,221.36a2.39,2.39,0,1,1-2.38-2.38A2.39,2.39,0,0,1,683.89,221.36Z"/><path class="cls-2" d="M700.88,190.87a2.38,2.38,0,1,1-2.38-2.38A2.38,2.38,0,0,1,700.88,190.87Z"/><path class="cls-2" d="M725.16,153.64a2.39,2.39,0,1,1-2.39-2.38A2.38,2.38,0,0,1,725.16,153.64Z"/><path class="cls-2" d="M757.17,131.59a2.39,2.39,0,1,1-2.38-2.38A2.38,2.38,0,0,1,757.17,131.59Z"/><path class="cls-2" d="M793.58,143.54a2.39,2.39,0,1,1-2.38-2.38A2.39,2.39,0,0,1,793.58,143.54Z"/><path class="cls-2" d="M783.4,186.11a2.38,2.38,0,1,1-2.38-2.39A2.39,2.39,0,0,1,783.4,186.11Z"/><path class="cls-2" d="M742.14,181.34a2.39,2.39,0,1,1-2.39-2.38A2.38,2.38,0,0,1,742.14,181.34Z"/><path class="cls-2" d="M730.49,247.26a2.39,2.39,0,1,1-2.39-2.38A2.39,2.39,0,0,1,730.49,247.26Z"/><path class="cls-2" d="M708.17,232.09a2.39,2.39,0,1,1-2.38-2.38A2.39,2.39,0,0,1,708.17,232.09Z"/><path class="cls-2" d="M782.34,227.32a2.38,2.38,0,1,1-2.38-2.38A2.37,2.37,0,0,1,782.34,227.32Z"/><path class="cls-2" d="M733.66,306.34a2.39,2.39,0,1,1-2.39-2.38A2.38,2.38,0,0,1,733.66,306.34Z"/><path class="cls-2" d="M682.92,280.66a2.38,2.38,0,1,1-2.38-2.38A2.38,2.38,0,0,1,682.92,280.66Z"/><path class="cls-2" d="M658.65,301.58a2.39,2.39,0,1,1-2.38-2.38A2.39,2.39,0,0,1,658.65,301.58Z"/><path class="cls-2" d="M627.86,340.8a2.38,2.38,0,1,1-2.38-2.39A2.39,2.39,0,0,1,627.86,340.8Z"/><circle class="cls-2" cx="624.47" cy="390.76" r="2.38"/><path class="cls-2" d="M667.88,356.36A2.39,2.39,0,1,1,665.5,354,2.38,2.38,0,0,1,667.88,356.36Z"/><path class="cls-2" d="M731.45,406.33a2.38,2.38,0,1,1-2.38-2.38A2.38,2.38,0,0,1,731.45,406.33Z"/><path class="cls-2" d="M784.37,306.34A2.38,2.38,0,1,1,782,304,2.37,2.37,0,0,1,784.37,306.34Z"/><path class="cls-2" d="M798.13,253.49a2.39,2.39,0,1,1-2.39-2.39A2.39,2.39,0,0,1,798.13,253.49Z"/><path class="cls-2" d="M819.8,315.84a2.38,2.38,0,1,1-2.38-2.39A2.38,2.38,0,0,1,819.8,315.84Z"/><path class="cls-2" d="M863.69,350a2.39,2.39,0,1,1-2.39-2.39A2.38,2.38,0,0,1,863.69,350Z"/><path class="cls-2" d="M875.56,387a2.38,2.38,0,1,1-2.38-2.38A2.37,2.37,0,0,1,875.56,387Z"/><path class="cls-2" d="M910.53,412.74a2.38,2.38,0,1,1-2.38-2.38A2.38,2.38,0,0,1,910.53,412.74Z"/><path class="cls-2" d="M942.51,424.83a2.38,2.38,0,1,1-2.38-2.38A2.38,2.38,0,0,1,942.51,424.83Z"/><path class="cls-2" d="M952,462.21a2.38,2.38,0,1,1-2.38-2.38A2.39,2.39,0,0,1,952,462.21Z"/><path class="cls-2" d="M974.17,451a2.39,2.39,0,1,1-2.39-2.38A2.38,2.38,0,0,1,974.17,451Z"/><path class="cls-2" d="M991.3,431.62a2.39,2.39,0,1,1-2.38-2.38A2.37,2.37,0,0,1,991.3,431.62Z"/><path class="cls-2" d="M1016.41,398.46a2.38,2.38,0,1,1-2.38-2.39A2.38,2.38,0,0,1,1016.41,398.46Z"/><path class="cls-2" d="M1031.92,439.4a2.38,2.38,0,1,1-2.38-2.39A2.39,2.39,0,0,1,1031.92,439.4Z"/><path class="cls-2" d="M1063.05,471.43a2.39,2.39,0,1,1-2.39-2.39A2.39,2.39,0,0,1,1063.05,471.43Z"/><path class="cls-2" d="M1041.91,512.89a2.39,2.39,0,1,1-2.39-2.38A2.38,2.38,0,0,1,1041.91,512.89Z"/><path class="cls-2" d="M1046.72,531.14a2.38,2.38,0,1,1-2.38-2.39A2.38,2.38,0,0,1,1046.72,531.14Z"/><path class="cls-2" d="M1070.76,541.81a2.39,2.39,0,1,1-2.39-2.38A2.38,2.38,0,0,1,1070.76,541.81Z"/><path class="cls-2" d="M1088.45,530.08a2.39,2.39,0,1,1-2.39-2.38A2.38,2.38,0,0,1,1088.45,530.08Z"/><path class="cls-2" d="M1113.25,538.41a2.38,2.38,0,1,1-2.38-2.38A2.38,2.38,0,0,1,1113.25,538.41Z"/><path class="cls-2" d="M1116.47,506.81a2.39,2.39,0,1,1-2.39-2.39A2.39,2.39,0,0,1,1116.47,506.81Z"/><path class="cls-2" d="M1185.31,538.41a2.39,2.39,0,1,1-2.38-2.38A2.39,2.39,0,0,1,1185.31,538.41Z"/><path class="cls-2" d="M1212.49,538.41a2.38,2.38,0,1,1-2.38-2.38A2.39,2.39,0,0,1,1212.49,538.41Z"/><path class="cls-2" d="M1215.26,561.23a2.38,2.38,0,1,1-2.38-2.38A2.37,2.37,0,0,1,1215.26,561.23Z"/><path class="cls-2" d="M1233.85,560.16a2.38,2.38,0,1,1-2.38-2.38A2.39,2.39,0,0,1,1233.85,560.16Z"/><path class="cls-2" d="M1219.28,601.62a2.38,2.38,0,1,1-2.38-2.38A2.38,2.38,0,0,1,1219.28,601.62Z"/><path class="cls-2" d="M1181.89,590.3a2.38,2.38,0,1,1-2.38-2.39A2.38,2.38,0,0,1,1181.89,590.3Z"/><path class="cls-2" d="M1138.8,601.62a2.38,2.38,0,1,1-2.38-2.38A2.37,2.37,0,0,1,1138.8,601.62Z"/><path class="cls-2" d="M1108.49,626.71a2.38,2.38,0,1,1-2.38-2.38A2.38,2.38,0,0,1,1108.49,626.71Z"/><path class="cls-2" d="M1111,660.7a2.39,2.39,0,1,1-2.39-2.39A2.38,2.38,0,0,1,1111,660.7Z"/><path class="cls-2" d="M1149,663.14a2.39,2.39,0,1,1-2.39-2.39A2.39,2.39,0,0,1,1149,663.14Z"/><path class="cls-2" d="M1189.68,665.46a2.38,2.38,0,1,1-2.38-2.38A2.38,2.38,0,0,1,1189.68,665.46Z"/><path class="cls-2" d="M1210.5,680.53a2.38,2.38,0,1,1-2.38-2.38A2.39,2.39,0,0,1,1210.5,680.53Z"/><path class="cls-2" d="M1228,690.06a2.39,2.39,0,1,1-2.38-2.39A2.39,2.39,0,0,1,1228,690.06Z"/><path class="cls-2" d="M1249.38,670.23a2.39,2.39,0,1,1-2.38-2.39A2.39,2.39,0,0,1,1249.38,670.23Z"/><path class="cls-2" d="M1252.05,638.44a2.39,2.39,0,1,1-2.39-2.39A2.39,2.39,0,0,1,1252.05,638.44Z"/><circle class="cls-2" cx="1221.66" cy="621.94" r="2.38"/><path class="cls-2" d="M1185.31,628.9a2.39,2.39,0,1,1-2.38-2.38A2.38,2.38,0,0,1,1185.31,628.9Z"/><path class="cls-2" d="M1148.33,633.66a2.38,2.38,0,1,1-2.38-2.38A2.39,2.39,0,0,1,1148.33,633.66Z"/><path class="cls-2" d="M1162.75,606.38a2.38,2.38,0,1,1-2.38-2.38A2.37,2.37,0,0,1,1162.75,606.38Z"/><path class="cls-2" d="M1217.25,655.93a2.38,2.38,0,1,1-2.38-2.38A2.37,2.37,0,0,1,1217.25,655.93Z"/><path class="cls-2" d="M1127.07,643.2a2.39,2.39,0,1,1-2.38-2.39A2.38,2.38,0,0,1,1127.07,643.2Z"/><path class="cls-2" d="M1085.56,429.59a2.39,2.39,0,1,1-2.38-2.38A2.38,2.38,0,0,1,1085.56,429.59Z"/><path class="cls-2" d="M1120.26,417.5a2.38,2.38,0,1,1-2.38-2.38A2.38,2.38,0,0,1,1120.26,417.5Z"/><path class="cls-2" d="M1121.23,379.71a2.38,2.38,0,1,1-2.38-2.39A2.39,2.39,0,0,1,1121.23,379.71Z"/><path class="cls-2" d="M1143.57,339a2.38,2.38,0,1,1-2.38-2.39A2.38,2.38,0,0,1,1143.57,339Z"/><path class="cls-2" d="M1193,320.6a2.39,2.39,0,1,1-2.39-2.38A2.39,2.39,0,0,1,1193,320.6Z"/><path class="cls-2" d="M1205.7,282.73a2.39,2.39,0,1,1-2.38-2.38A2.38,2.38,0,0,1,1205.7,282.73Z"/><path class="cls-2" d="M1200.93,242.22a2.38,2.38,0,1,1-2.38-2.38A2.37,2.37,0,0,1,1200.93,242.22Z"/><path class="cls-2" d="M1249.25,217.21a2.38,2.38,0,1,1-2.38-2.38A2.39,2.39,0,0,1,1249.25,217.21Z"/><path class="cls-2" d="M1280.15,200.58a2.38,2.38,0,1,1-2.38-2.39A2.38,2.38,0,0,1,1280.15,200.58Z"/><path class="cls-2" d="M1341.14,203.74a2.38,2.38,0,1,1-2.38-2.39A2.37,2.37,0,0,1,1341.14,203.74Z"/><path class="cls-2" d="M1283,280.13a2.39,2.39,0,1,1-2.38-2.39A2.38,2.38,0,0,1,1283,280.13Z"/><path class="cls-2" d="M1343.28,158.6a2.38,2.38,0,1,1-2.38-2.38A2.38,2.38,0,0,1,1343.28,158.6Z"/><path class="cls-2" d="M1408.92,163.36a2.38,2.38,0,1,1-2.38-2.38A2.38,2.38,0,0,1,1408.92,163.36Z"/><path class="cls-2" d="M1345.91,130.58a2.39,2.39,0,1,1-2.38-2.38A2.38,2.38,0,0,1,1345.91,130.58Z"/><path class="cls-2" d="M1299.62,135.34a2.38,2.38,0,1,1-2.38-2.38A2.37,2.37,0,0,1,1299.62,135.34Z"/><path class="cls-2" d="M1251.3,113.21a2.38,2.38,0,1,1-2.38-2.38A2.38,2.38,0,0,1,1251.3,113.21Z"/><path class="cls-2" d="M1184.91,114.42a2.39,2.39,0,1,1-2.38-2.38A2.37,2.37,0,0,1,1184.91,114.42Z"/><path class="cls-2" d="M1151.45,85a2.38,2.38,0,1,1-2.38-2.39A2.38,2.38,0,0,1,1151.45,85Z"/><path class="cls-2" d="M1117.47,85a2.39,2.39,0,1,1-2.39-2.38A2.39,2.39,0,0,1,1117.47,85Z"/><path class="cls-2" d="M1073.31,81.65a2.38,2.38,0,1,1-2.38-2.38A2.37,2.37,0,0,1,1073.31,81.65Z"/><path class="cls-2" d="M1098.44,47.77a2.38,2.38,0,1,1-2.38-2.39A2.38,2.38,0,0,1,1098.44,47.77Z"/><path class="cls-2" d="M1068.54,24.87a2.38,2.38,0,1,1-2.38-2.39A2.37,2.37,0,0,1,1068.54,24.87Z"/><path class="cls-2" d="M1013.87,58.22a2.39,2.39,0,1,1-2.38-2.38A2.39,2.39,0,0,1,1013.87,58.22Z"/><path class="cls-2" d="M994.64,95.12a2.39,2.39,0,1,1-2.38-2.38A2.37,2.37,0,0,1,994.64,95.12Z"/><path class="cls-2" d="M972.19,109.66a2.39,2.39,0,1,1-2.39-2.39A2.39,2.39,0,0,1,972.19,109.66Z"/><path class="cls-2" d="M957.56,124.67a2.38,2.38,0,1,1-2.38-2.38A2.37,2.37,0,0,1,957.56,124.67Z"/><path class="cls-2" d="M967.42,158.41A2.38,2.38,0,1,1,965,156,2.38,2.38,0,0,1,967.42,158.41Z"/><path class="cls-2" d="M914.94,146.7a2.39,2.39,0,1,1-2.39-2.38A2.39,2.39,0,0,1,914.94,146.7Z"/><path class="cls-2" d="M863.69,148.88a2.39,2.39,0,1,1-2.39-2.38A2.38,2.38,0,0,1,863.69,148.88Z"/><path class="cls-2" d="M825.3,178.21a2.39,2.39,0,1,1-2.38-2.39A2.39,2.39,0,0,1,825.3,178.21Z"/><path class="cls-2" d="M875.56,102.69a2.38,2.38,0,1,1-2.38-2.39A2.38,2.38,0,0,1,875.56,102.69Z"/><path class="cls-2" d="M880.33,64.63a2.39,2.39,0,1,1-2.39-2.39A2.39,2.39,0,0,1,880.33,64.63Z"/><path class="cls-2" d="M924.47,32.54a2.39,2.39,0,1,1-2.39-2.38A2.38,2.38,0,0,1,924.47,32.54Z"/><path class="cls-2" d="M843.09,222.56a2.38,2.38,0,1,1-2.38-2.38A2.37,2.37,0,0,1,843.09,222.56Z"/><path class="cls-2" d="M856.12,287.83a2.38,2.38,0,1,1-2.38-2.39A2.38,2.38,0,0,1,856.12,287.83Z"/><path class="cls-2" d="M885.09,216.6a2.38,2.38,0,1,1-2.38-2.39A2.38,2.38,0,0,1,885.09,216.6Z"/><path class="cls-2" d="M872.22,255.43a2.39,2.39,0,1,1-2.38-2.38A2.38,2.38,0,0,1,872.22,255.43Z"/><path class="cls-2" d="M835.34,259.48a2.39,2.39,0,1,1-2.38-2.39A2.38,2.38,0,0,1,835.34,259.48Z"/><path class="cls-2" d="M867.66,181.34a2.39,2.39,0,1,1-2.39-2.38A2.38,2.38,0,0,1,867.66,181.34Z"/><path class="cls-2" d="M924.47,194.2a2.39,2.39,0,1,1-2.39-2.39A2.39,2.39,0,0,1,924.47,194.2Z"/><path class="cls-2" d="M905.08,278a2.39,2.39,0,1,1-2.38-2.39A2.39,2.39,0,0,1,905.08,278Z"/><path class="cls-2" d="M988.24,190.87a2.39,2.39,0,1,1-2.39-2.38A2.39,2.39,0,0,1,988.24,190.87Z"/><path class="cls-2" d="M1004.17,242.5a2.38,2.38,0,1,1-2.38-2.38A2.38,2.38,0,0,1,1004.17,242.5Z"/><path class="cls-2" d="M1055.7,183a2.38,2.38,0,1,1-2.38-2.38A2.38,2.38,0,0,1,1055.7,183Z"/><path class="cls-2" d="M1034.1,134.11a2.39,2.39,0,1,1-2.38-2.39A2.38,2.38,0,0,1,1034.1,134.11Z"/><path class="cls-2" d="M1036.53,76.89a2.38,2.38,0,1,1-2.38-2.39A2.38,2.38,0,0,1,1036.53,76.89Z"/><path class="cls-2" d="M1009.11,195.63a2.39,2.39,0,1,1-2.39-2.38A2.39,2.39,0,0,1,1009.11,195.63Z"/><path class="cls-2" d="M935.44,232.09a2.38,2.38,0,1,1-2.38-2.38A2.38,2.38,0,0,1,935.44,232.09Z"/><path class="cls-2" d="M948.18,194.2a2.38,2.38,0,1,1-2.38-2.39A2.38,2.38,0,0,1,948.18,194.2Z"/><path class="cls-2" d="M962.66,281a2.38,2.38,0,1,1-2.38-2.39A2.39,2.39,0,0,1,962.66,281Z"/><path class="cls-2" d="M932.41,303.76a2.38,2.38,0,1,1-2.38-2.38A2.37,2.37,0,0,1,932.41,303.76Z"/><path class="cls-2" d="M927.65,273.2a2.39,2.39,0,1,1-2.38-2.39A2.38,2.38,0,0,1,927.65,273.2Z"/><path class="cls-2" d="M885.09,336.39a2.38,2.38,0,1,1-2.38-2.39A2.38,2.38,0,0,1,885.09,336.39Z"/><path class="cls-2" d="M962.33,335a2.38,2.38,0,1,1-2.38-2.38A2.39,2.39,0,0,1,962.33,335Z"/><path class="cls-2" d="M1055.7,260.77a2.38,2.38,0,1,1-2.38-2.39A2.38,2.38,0,0,1,1055.7,260.77Z"/><path class="cls-2" d="M1108,158.41a2.39,2.39,0,1,1-2.38-2.39A2.39,2.39,0,0,1,1108,158.41Z"/><path class="cls-2" d="M1078.08,123.92a2.39,2.39,0,1,1-2.39-2.38A2.39,2.39,0,0,1,1078.08,123.92Z"/><path class="cls-2" d="M1088.89,238.4a2.38,2.38,0,1,1-2.38-2.38A2.37,2.37,0,0,1,1088.89,238.4Z"/><path class="cls-2" d="M1060.08,376.05a2.39,2.39,0,1,1-2.39-2.39A2.39,2.39,0,0,1,1060.08,376.05Z"/><path class="cls-2" d="M1053.52,325.32a2.39,2.39,0,1,1-2.39-2.38A2.38,2.38,0,0,1,1053.52,325.32Z"/><path class="cls-2" d="M1000.86,356.28a2.38,2.38,0,1,1-2.38-2.39A2.39,2.39,0,0,1,1000.86,356.28Z"/><path class="cls-2" d="M1110.73,303.76a2.38,2.38,0,1,1-2.38-2.39A2.38,2.38,0,0,1,1110.73,303.76Z"/><path class="cls-2" d="M1134,256a2.39,2.39,0,1,1-2.38-2.38A2.38,2.38,0,0,1,1134,256Z"/><path class="cls-2" d="M1167.12,183a2.39,2.39,0,1,1-2.39-2.39A2.39,2.39,0,0,1,1167.12,183Z"/><path class="cls-2" d="M1122.23,206.89a2.39,2.39,0,1,1-2.38-2.38A2.39,2.39,0,0,1,1122.23,206.89Z"/><path class="cls-2" d="M1138.8,140.1a2.38,2.38,0,1,1-2.38-2.38A2.37,2.37,0,0,1,1138.8,140.1Z"/><path class="cls-2" d="M1251.3,164.79a2.38,2.38,0,1,1-2.38-2.39A2.39,2.39,0,0,1,1251.3,164.79Z"/><path class="cls-2" d="M1205.7,187.73a2.39,2.39,0,1,1-2.38-2.39A2.39,2.39,0,0,1,1205.7,187.73Z"/><path class="cls-2" d="M1205.7,144.87a2.39,2.39,0,1,1-2.38-2.39A2.39,2.39,0,0,1,1205.7,144.87Z"/><circle class="cls-2" cx="1221.76" cy="95.12" r="2.38"/><path class="cls-2" d="M790.22,414.47a2.39,2.39,0,1,1-2.39-2.38A2.39,2.39,0,0,1,790.22,414.47Z"/><path class="cls-2" d="M755,350.7a2.38,2.38,0,1,1-2.38-2.39A2.37,2.37,0,0,1,755,350.7Z"/><path class="cls-2" d="M688.65,436.48a2.39,2.39,0,1,1-2.38-2.38A2.39,2.39,0,0,1,688.65,436.48Z"/><path class="cls-2" d="M663,398.88a2.39,2.39,0,1,1-2.38-2.38A2.38,2.38,0,0,1,663,398.88Z"/><path class="cls-2" d="M632.25,425.32a2.38,2.38,0,1,1-2.38-2.39A2.38,2.38,0,0,1,632.25,425.32Z"/><path class="cls-2" d="M600.4,426.29A2.38,2.38,0,1,1,598,423.9,2.37,2.37,0,0,1,600.4,426.29Z"/><path class="cls-2" d="M591.48,462.21a2.38,2.38,0,1,1-2.38-2.38A2.39,2.39,0,0,1,591.48,462.21Z"/><path class="cls-2" d="M608.17,494.25a2.38,2.38,0,1,1-2.38-2.39A2.38,2.38,0,0,1,608.17,494.25Z"/><path class="cls-2" d="M657.9,492.31a2.38,2.38,0,1,1-2.38-2.38A2.38,2.38,0,0,1,657.9,492.31Z"/><path class="cls-2" d="M696.53,528.71a2.38,2.38,0,1,1-2.38-2.39A2.37,2.37,0,0,1,696.53,528.71Z"/><path class="cls-2" d="M702.09,589.37a2.38,2.38,0,1,1-2.38-2.38A2.38,2.38,0,0,1,702.09,589.37Z"/><circle class="cls-2" cx="713.06" cy="637.67" r="2.38"/><circle class="cls-2" cx="754.32" cy="660.29" r="2.38"/><circle class="cls-2" cx="777.22" cy="622.37" r="2.38"/><path class="cls-2" d="M798.49,576.88a2.39,2.39,0,1,1-2.38-2.38A2.38,2.38,0,0,1,798.49,576.88Z"/><path class="cls-2" d="M816.4,512.89a2.38,2.38,0,1,1-2.38-2.38A2.37,2.37,0,0,1,816.4,512.89Z"/><path class="cls-2" d="M843.56,485.5a2.38,2.38,0,1,1-2.38-2.38A2.38,2.38,0,0,1,843.56,485.5Z"/><path class="cls-2" d="M827.08,462.21a2.39,2.39,0,1,1-2.38-2.38A2.39,2.39,0,0,1,827.08,462.21Z"/><path class="cls-2" d="M865.42,443.37A2.39,2.39,0,1,1,863,441,2.39,2.39,0,0,1,865.42,443.37Z"/><path class="cls-2" d="M863.46,421.53a2.38,2.38,0,1,1-2.38-2.39A2.37,2.37,0,0,1,863.46,421.53Z"/><path class="cls-2" d="M835.34,393.69a2.39,2.39,0,1,1-2.38-2.38A2.38,2.38,0,0,1,835.34,393.69Z"/><path class="cls-2" d="M812.52,349.92a2.38,2.38,0,1,1-2.38-2.39A2.38,2.38,0,0,1,812.52,349.92Z"/><path class="cls-2" d="M761.46,451a2.38,2.38,0,1,1-2.38-2.38A2.37,2.37,0,0,1,761.46,451Z"/><path class="cls-2" d="M709.79,464.15a2.39,2.39,0,1,1-2.39-2.38A2.38,2.38,0,0,1,709.79,464.15Z"/><path class="cls-2" d="M644,456.87a2.38,2.38,0,1,1-2.38-2.38A2.38,2.38,0,0,1,644,456.87Z"/><path class="cls-2" d="M751.84,532.62a2.38,2.38,0,1,1-2.38-2.38A2.37,2.37,0,0,1,751.84,532.62Z"/><circle class="cls-2" cx="743.13" cy="596.43" r="2.38"/><path class="cls-2" d="M777.66,486a2.39,2.39,0,1,1-2.39-2.39A2.39,2.39,0,0,1,777.66,486Z"/><path class="cls-2" d="M822.31,423.38a2.38,2.38,0,1,1-2.38-2.38A2.38,2.38,0,0,1,822.31,423.38Z"/><path class="cls-2" d="M546.87,93.7a2.38,2.38,0,1,1-2.38-2.38A2.38,2.38,0,0,1,546.87,93.7Z"/><path class="cls-2" d="M563,61.32a2.38,2.38,0,1,1-2.38-2.38A2.39,2.39,0,0,1,563,61.32Z"/><path class="cls-2" d="M567.79,15.6a2.38,2.38,0,1,1-2.38-2.39A2.38,2.38,0,0,1,567.79,15.6Z"/><path class="cls-2" d="M504.87,2.38A2.38,2.38,0,1,1,502.49,0,2.38,2.38,0,0,1,504.87,2.38Z"/><path class="cls-2" d="M447.61,7.14a2.39,2.39,0,1,1-2.39-2.38A2.38,2.38,0,0,1,447.61,7.14Z"/><path class="cls-2" d="M490.3,40.73a2.38,2.38,0,1,1-2.38-2.38A2.38,2.38,0,0,1,490.3,40.73Z"/><path class="cls-2" d="M456.1,53.68a2.38,2.38,0,1,1-2.38-2.38A2.38,2.38,0,0,1,456.1,53.68Z"/><path class="cls-2" d="M491.79,93.7a2.38,2.38,0,1,1-2.38-2.38A2.39,2.39,0,0,1,491.79,93.7Z"/><path class="cls-2" d="M528.61,45.5a2.38,2.38,0,1,1-2.38-2.39A2.38,2.38,0,0,1,528.61,45.5Z"/><circle class="cls-2" cx="483.15" cy="123.67" r="2.38"/><path class="cls-2" d="M518.11,83.51a2.38,2.38,0,1,1-2.38-2.38A2.39,2.39,0,0,1,518.11,83.51Z"/><path class="cls-2" d="M324.28,116.21a2.38,2.38,0,1,1-2.38-2.38A2.38,2.38,0,0,1,324.28,116.21Z"/><path class="cls-2" d="M361.53,121a2.38,2.38,0,1,1-2.38-2.38A2.38,2.38,0,0,1,361.53,121Z"/><path class="cls-2" d="M367.46,172.91a2.38,2.38,0,1,1-2.38-2.38A2.37,2.37,0,0,1,367.46,172.91Z"/><path class="cls-2" d="M399.3,162.12a2.39,2.39,0,1,1-2.38-2.38A2.38,2.38,0,0,1,399.3,162.12Z"/><path class="cls-2" d="M386.08,187.75a2.39,2.39,0,1,1-2.38-2.38A2.39,2.39,0,0,1,386.08,187.75Z"/><path class="cls-2" d="M270.91,201.42a2.38,2.38,0,1,1-2.38-2.38A2.38,2.38,0,0,1,270.91,201.42Z"/><path class="cls-2" d="M225.19,223.88a2.38,2.38,0,1,1-2.38-2.39A2.39,2.39,0,0,1,225.19,223.88Z"/><path class="cls-2" d="M166.55,316.85a2.38,2.38,0,1,1-2.38-2.38A2.38,2.38,0,0,1,166.55,316.85Z"/><path class="cls-2" d="M176.08,358.82a2.38,2.38,0,1,1-2.38-2.38A2.38,2.38,0,0,1,176.08,358.82Z"/><path class="cls-2" d="M214.48,312.22a2.39,2.39,0,1,1-2.38-2.38A2.39,2.39,0,0,1,214.48,312.22Z"/><path class="cls-2" d="M217,386a2.38,2.38,0,1,1-2.38-2.39A2.38,2.38,0,0,1,217,386Z"/><path class="cls-2" d="M245.82,334.46a2.39,2.39,0,1,1-2.38-2.38A2.39,2.39,0,0,1,245.82,334.46Z"/><path class="cls-2" d="M245.82,261a2.39,2.39,0,1,1-2.38-2.39A2.39,2.39,0,0,1,245.82,261Z"/><path class="cls-2" d="M302.86,262.71a2.39,2.39,0,1,1-2.39-2.38A2.39,2.39,0,0,1,302.86,262.71Z"/><path class="cls-2" d="M334.9,293.2a2.39,2.39,0,1,1-2.39-2.38A2.39,2.39,0,0,1,334.9,293.2Z"/><path class="cls-2" d="M352.36,250.79A2.38,2.38,0,1,1,350,248.4,2.39,2.39,0,0,1,352.36,250.79Z"/><path class="cls-2" d="M352.36,206.18A2.38,2.38,0,1,1,350,203.8,2.39,2.39,0,0,1,352.36,206.18Z"/><path class="cls-2" d="M374.7,234.68a2.39,2.39,0,1,1-2.39-2.38A2.39,2.39,0,0,1,374.7,234.68Z"/><path class="cls-2" d="M405.59,247.66a2.38,2.38,0,1,1-2.38-2.38A2.37,2.37,0,0,1,405.59,247.66Z"/><circle class="cls-2" cx="419.88" cy="274.66" r="2.38"/><path class="cls-2" d="M374.7,300.57a2.39,2.39,0,1,1-2.39-2.38A2.38,2.38,0,0,1,374.7,300.57Z"/><path class="cls-2" d="M347.6,321.62a2.39,2.39,0,1,1-2.39-2.38A2.39,2.39,0,0,1,347.6,321.62Z"/><circle class="cls-2" cx="322.8" cy="312.09" r="2.38"/><path class="cls-2" d="M359.4,331.69a2.38,2.38,0,1,1-2.38-2.38A2.39,2.39,0,0,1,359.4,331.69Z"/><path class="cls-2" d="M351.06,344.27a2.38,2.38,0,1,1-2.38-2.38A2.38,2.38,0,0,1,351.06,344.27Z"/><path class="cls-2" d="M337.8,372.9a2.38,2.38,0,1,1-2.38-2.38A2.39,2.39,0,0,1,337.8,372.9Z"/><path class="cls-2" d="M295.57,387.3a2.38,2.38,0,1,1-2.38-2.38A2.38,2.38,0,0,1,295.57,387.3Z"/><path class="cls-2" d="M262.13,404a2.38,2.38,0,1,1-2.38-2.39A2.38,2.38,0,0,1,262.13,404Z"/><path class="cls-2" d="M259.92,442.32a2.38,2.38,0,1,1-2.38-2.38A2.37,2.37,0,0,1,259.92,442.32Z"/><path class="cls-2" d="M291.45,461.41a2.39,2.39,0,1,1-2.39-2.39A2.38,2.38,0,0,1,291.45,461.41Z"/><path class="cls-2" d="M316,483.11a2.38,2.38,0,1,1-2.38-2.39A2.37,2.37,0,0,1,316,483.11Z"/><path class="cls-2" d="M351.06,497.07a2.38,2.38,0,1,1-2.38-2.38A2.38,2.38,0,0,1,351.06,497.07Z"/><path class="cls-2" d="M377.12,487.86a2.38,2.38,0,1,1-2.38-2.38A2.39,2.39,0,0,1,377.12,487.86Z"/><path class="cls-2" d="M395,497.88a2.39,2.39,0,1,1-2.39-2.38A2.38,2.38,0,0,1,395,497.88Z"/><path class="cls-2" d="M413.44,502.94a2.38,2.38,0,1,1-2.38-2.39A2.39,2.39,0,0,1,413.44,502.94Z"/><path class="cls-2" d="M444.11,520.48a2.39,2.39,0,1,1-2.39-2.38A2.39,2.39,0,0,1,444.11,520.48Z"/><path class="cls-2" d="M339.33,535a2.38,2.38,0,1,1-2.38-2.38A2.37,2.37,0,0,1,339.33,535Z"/><path class="cls-2" d="M353.37,580.31a2.38,2.38,0,1,1-2.38-2.38A2.39,2.39,0,0,1,353.37,580.31Z"/><path class="cls-2" d="M387.56,617.52a2.38,2.38,0,1,1-2.38-2.38A2.38,2.38,0,0,1,387.56,617.52Z"/><path class="cls-2" d="M370.81,660a2.38,2.38,0,1,1-2.38-2.38A2.37,2.37,0,0,1,370.81,660Z"/><path class="cls-2" d="M360.65,712.18a2.38,2.38,0,1,1-2.38-2.38A2.38,2.38,0,0,1,360.65,712.18Z"/><path class="cls-2" d="M357.22,757.1a2.38,2.38,0,1,1-2.38-2.39A2.38,2.38,0,0,1,357.22,757.1Z"/><path class="cls-2" d="M370.81,791.62a2.38,2.38,0,1,1-2.38-2.38A2.38,2.38,0,0,1,370.81,791.62Z"/><path class="cls-2" d="M380.53,747.28a2.39,2.39,0,1,1-2.38-2.38A2.38,2.38,0,0,1,380.53,747.28Z"/><path class="cls-2" d="M385.29,702.66a2.38,2.38,0,1,1-2.38-2.38A2.38,2.38,0,0,1,385.29,702.66Z"/><path class="cls-2" d="M408.68,681a2.39,2.39,0,1,1-2.38-2.38A2.38,2.38,0,0,1,408.68,681Z"/><path class="cls-2" d="M422.26,664.81a2.38,2.38,0,1,1-2.38-2.38A2.39,2.39,0,0,1,422.26,664.81Z"/><path class="cls-2" d="M439.34,655.28A2.38,2.38,0,1,1,437,652.9,2.37,2.37,0,0,1,439.34,655.28Z"/><path class="cls-2" d="M450.41,622.89A2.38,2.38,0,1,1,448,620.5,2.38,2.38,0,0,1,450.41,622.89Z"/><path class="cls-2" d="M469.59,612.76a2.38,2.38,0,1,1-2.38-2.38A2.39,2.39,0,0,1,469.59,612.76Z"/><path class="cls-2" d="M486.18,585.07a2.38,2.38,0,1,1-2.38-2.38A2.37,2.37,0,0,1,486.18,585.07Z"/><path class="cls-2" d="M481.42,544.23a2.39,2.39,0,1,1-2.38-2.38A2.38,2.38,0,0,1,481.42,544.23Z"/><path class="cls-2" d="M401.88,533.15a2.38,2.38,0,1,1-2.38-2.38A2.39,2.39,0,0,1,401.88,533.15Z"/><path class="cls-2" d="M359.16,518.51a2.39,2.39,0,1,1-2.38-2.38A2.38,2.38,0,0,1,359.16,518.51Z"/><path class="cls-2" d="M415.47,575.54a2.39,2.39,0,1,1-2.38-2.38A2.39,2.39,0,0,1,415.47,575.54Z"/><path class="cls-2" d="M453.33,559.94a2.39,2.39,0,1,1-2.38-2.39A2.38,2.38,0,0,1,453.33,559.94Z"/><path class="cls-2" d="M390.06,564.69a2.39,2.39,0,1,1-2.39-2.38A2.38,2.38,0,0,1,390.06,564.69Z"/><path class="cls-2" d="M440.12,590.78a2.38,2.38,0,1,1-2.38-2.39A2.38,2.38,0,0,1,440.12,590.78Z"/><path class="cls-2" d="M396,653a2.38,2.38,0,1,1-2.38-2.38A2.37,2.37,0,0,1,396,653Z"/><path class="cls-2" d="M281.75,352.27a2.38,2.38,0,1,1-2.38-2.38A2.39,2.39,0,0,1,281.75,352.27Z"/><path class="cls-2" d="M221.81,356.4a2.39,2.39,0,1,1-2.39-2.39A2.38,2.38,0,0,1,221.81,356.4Z"/><path class="cls-2" d="M272.75,288.44a2.38,2.38,0,1,1-2.38-2.39A2.38,2.38,0,0,1,272.75,288.44Z"/><path class="cls-2" d="M4.76,172.24a2.38,2.38,0,1,1-2.38-2.38A2.38,2.38,0,0,1,4.76,172.24Z"/><path class="cls-2" d="M15.55,216.48a2.38,2.38,0,1,1-2.38-2.38A2.37,2.37,0,0,1,15.55,216.48Z"/></g></svg>