<svg class="euiIcon euiIcon--xLarge" focusable="false" xmlns="http://www.w3.org/2000/svg" xmlns:xlink="http://www.w3.org/1999/xlink" viewBox="0 0 32 32"><defs><path id="app_apm-a" d="M0 0h32v32H0z"/><path id="app_apm-c" d="M0 0h32v32H0z"/><path id="app_apm-e" d="M0 0h32v32H0z"/><path id="app_apm-g" d="M0 0h32v32H0z"/></defs><g fill="none" fill-rule="evenodd"><mask id="app_apm-b" fill="#fff"><use xmlns:xlink="http://www.w3.org/1999/xlink" xlink:href="#app_apm-a"/></mask><path fill="#13A7DF" fill-rule="nonzero" d="M5.44 9.6h21.12a2.24 2.24 0 0 1 0 4.48H5.44a2.24 2.24 0 1 1 0-4.48z" mask="url(#app_apm-b)"/><mask id="app_apm-d" fill="#fff"><use xmlns:xlink="http://www.w3.org/1999/xlink" xlink:href="#app_apm-c"/></mask><path fill="#00BFB3" fill-rule="nonzero" d="M21.44 26.24h8.32a2.24 2.24 0 0 1 0 4.48h-8.32a2.24 2.24 0 1 1 0-4.48z" mask="url(#app_apm-d)"/><mask id="app_apm-f" fill="#fff"><use xmlns:xlink="http://www.w3.org/1999/xlink" xlink:href="#app_apm-e"/></mask><path fill="#00BFB3" fill-rule="nonzero" d="M2.24 1.28h11.52a2.24 2.24 0 0 1 0 4.48H2.24a2.24 2.24 0 1 1 0-4.48z" mask="url(#app_apm-f)"/><g><mask id="app_apm-h" fill="#fff"><use xmlns:xlink="http://www.w3.org/1999/xlink" xlink:href="#app_apm-g"/></mask><path fill="#00BFB3" fill-rule="nonzero" d="M5.44 17.92h11.52a2.24 2.24 0 0 1 0 4.48H5.44a2.24 2.24 0 0 1 0-4.48z" mask="url(#app_apm-h)"/></g></g></svg>