<svg class="euiIcon euiIcon--xLarge" focusable="false" xmlns="http://www.w3.org/2000/svg" viewBox="0 0 32 32"><g fill="none" fill-rule="evenodd"><path fill="#17A8E0" fill-rule="nonzero" d="M14.298.412H3.431v12.419h15.526a9.28 9.28 0 0 1 3.797.806A9.317 9.317 0 0 0 14.299.412z"/><path fill="#353535" fill-rule="nonzero" d="M3.43 12.83v6.21h10.868a9.317 9.317 0 0 0 8.456-5.397 9.28 9.28 0 0 0-3.797-.806L3.43 12.83z"/><path d="M16.865 21.877h-.13.13zm1.63-.468l-.123.037.123-.037zm-.806.259l-.166.043.166-.043z"/><path fill="#20BBB1" fill-rule="nonzero" d="M25.35 15.385a12.486 12.486 0 0 1-6.848 6.03l-.124.037c-.227.08-.455.154-.683.222l-.166.043c-.215.061-.437.117-.658.166h-.13c-.81.165-1.634.247-2.461.246H3.43v9.336h15.527a9.317 9.317 0 0 0 9.317-9.311 9.28 9.28 0 0 0-2.923-6.77z"/><path fill="#009B90" fill-rule="nonzero" d="M16.735 21.902h.13c.221-.05.443-.105.658-.167l.166-.043c.234-.067.462-.141.683-.221l.123-.037a12.486 12.486 0 0 0 6.856-6.05 9.342 9.342 0 0 0-2.597-1.735 9.317 9.317 0 0 1-8.45 5.403H3.432v3.077h10.867c.818.005 1.635-.07 2.437-.227z"/></g></svg>