<svg class="euiIcon euiIcon--xLarge" focusable="false" xmlns="http://www.w3.org/2000/svg" viewBox="0 0 32 32"><g fill="none"><path fill="#93C90E" d="M25.024 21.62a5.276 5.276 0 0 0-4.565-.098 5.791 5.791 0 0 1-2.381.511 5.9 5.9 0 0 1-1.323-.156 15.66 15.66 0 0 1-6.634 7.633 15.563 15.563 0 0 0 19.977-3.754 15.719 15.719 0 0 0-5.074-4.136z"/><path fill="#00A9E5" d="M16.892 10.439c.393-.08.793-.12 1.194-.121.743 0 1.48.141 2.17.418a5.335 5.335 0 0 0 4.257-.102 15.63 15.63 0 0 0 5.585-4.39 15.559 15.559 0 0 0-19.973-3.762c3.099 1.8 5.487 4.609 6.767 7.957z"/><path fill="#000" d="M5.742 25.756c1.9-2.158 2.05-2.103 3.708-3.344 1.658-1.241 4.581-2.01 4.581-2.01a5.854 5.854 0 0 1 .305-8.714 15.61 15.61 0 0 1-8.59-5.444 15.54 15.54 0 0 0 0 19.512h-.004z"/><path fill="#74A300" d="M10.121 29.514a15.61 15.61 0 0 1-4.379-3.758c1.897-2.158 2.05-2.103 3.708-3.344 1.658-1.241 4.585-2.01 4.585-2.01a5.854 5.854 0 0 0 2.732 1.483 15.676 15.676 0 0 1-6.634 7.637l-.012-.008z"/><path fill="#0078A0" d="M5.746 6.244a15.61 15.61 0 0 0 8.586 5.42 5.854 5.854 0 0 1 2.556-1.237 15.68 15.68 0 0 0-6.763-7.941 15.672 15.672 0 0 0-4.379 3.758z"/></g></svg>