<svg class="euiIcon euiIcon--xLarge" focusable="false" xmlns="http://www.w3.org/2000/svg" viewBox="0 0 32 32"><g fill="none"><path fill="#00A9E5" d="M23.04 11.2h-8.36c.04.2.12.4.16.56.28.96.44 1.96.52 3 .04.4.04.84.04 1.24s0 .84-.04 1.24c-.08 1.04-.24 2.04-.52 3-.04.2-.12.4-.16.56h8.36c2.64 0 4.76-2.16 4.76-4.8 0-2.64-2.12-4.8-4.76-4.8z"/><path fill="#353535" d="M15.36 17.24c.04-.4.04-.84.04-1.24s0-.84-.04-1.24c-.08-1.04-.24-2.04-.52-3-.04-.2-.12-.4-.16-.56H1.72C1.24 12.72 1 14.32 1 16c0 1.68.24 3.28.72 4.8h12.92c.04-.2.12-.4.16-.56.28-.96.48-1.96.56-3z"/><path fill="#00BFB3" d="M24.48 22.4h-10.4c-.32.72-.68 1.4-1.08 2.04-.6 1-1.32 1.88-2.12 2.72-.28.28-.56.52-.84.8-.56.52-1.2.96-1.84 1.4A15.83 15.83 0 0 0 17 32c5.56 0 10.44-2.84 13.32-7.12a8.158 8.158 0 0 0-5.84-2.48z"/><path fill="#019B8F" d="M13 24.44c.4-.64.76-1.32 1.08-2.04H2.32c1.24 2.84 3.28 5.28 5.88 6.96.64-.44 1.24-.88 1.84-1.4.28-.24.56-.52.84-.8.76-.8 1.48-1.72 2.12-2.72z"/><g><path fill="#F9B110" d="M10.84 4.84c-.28-.28-.56-.52-.84-.8-.56-.52-1.2-.96-1.84-1.4C5.64 4.32 3.6 6.76 2.32 9.6h11.72c-.32-.72-.68-1.4-1.08-2.04-.6-1-1.32-1.92-2.12-2.72z"/><path fill="#FED10A" d="M17 0c-3.24 0-6.28.96-8.8 2.64.64.44 1.24.88 1.84 1.4.28.24.56.52.84.8.8.84 1.52 1.72 2.12 2.72.4.64.76 1.32 1.08 2.04h10.4c2.28 0 4.36-.96 5.84-2.48C27.44 2.84 22.56 0 17 0z"/></g></g></svg>