<svg class="euiIcon euiIcon--xLarge" focusable="false" xmlns="http://www.w3.org/2000/svg" viewBox="0 0 32 32"><g fill="none" fill-rule="evenodd"><path fill="#00A9E5" d="M14.5 3a3 3 0 1 1-6 0 3 3 0 0 1 6 0m0 11a3 3 0 1 1-6 0 3 3 0 0 1 6 0m0 15a3 3 0 1 1-6 0 3 3 0 0 1 6 0m3-26a3 3 0 1 0 6 0 3 3 0 0 0-6 0m0 11a3 3 0 1 0 6 0 3 3 0 0 0-6 0m0 15a3 3 0 1 0 6 0 3 3 0 0 0-6 0"/><path fill="#00BFB3" fill-rule="nonzero" d="M3 20.886V9.849l9.272-5.563a1.5 1.5 0 0 0-1.543-2.572l-10 6A1.5 1.5 0 0 0 0 9v13.965a1.493 1.493 0 0 0 .335.98c.12.145.254.259.402.346l9.992 5.995a1.5 1.5 0 0 0 1.543-2.572l-7.257-4.355 6.98-2.443A1.5 1.5 0 0 0 13 19.5v-5a1.5 1.5 0 0 0-3 0v3.936l-7 2.45zm26 0V9.849L19.73 4.286a1.5 1.5 0 0 1 1.543-2.572l10 6A1.5 1.5 0 0 1 32 9v13.965a1.493 1.493 0 0 1-.334.98c-.12.145-.254.259-.402.346l-9.992 5.995a1.5 1.5 0 0 1-1.543-2.572l7.257-4.355-6.981-2.443A1.5 1.5 0 0 1 19 19.5v-5a1.5 1.5 0 0 1 3 0v3.936l7 2.45z" style="mix-blend-mode: multiply;"/></g></svg>