<?xml version="1.0" encoding="UTF-8"?>
<svg width="250px" height="235px" viewBox="0 0 250 235" version="1.1" xmlns="http://www.w3.org/2000/svg" xmlns:xlink="http://www.w3.org/1999/xlink">
    <!-- Generator: Sketch 51.2 (57519) - http://www.bohemiancoding.com/sketch -->
    <title>funnel_empty</title>
    <desc>Created with Sketch.</desc>
    <defs></defs>
    <g id="Page-1" stroke="none" stroke-width="1" fill="none" fill-rule="evenodd">
        <g id="funnel_empty" fill="#FFFFFF" fill-rule="nonzero">
            <path d="M248.522391,11.4214044 L224.783394,51.6373013 L201.676943,66.2613967 L47.8327656,66.2613967 L24.726802,51.6373013 L0.987317715,11.4214044 C-0.329430788,9.08225087 -0.329430788,6.30353142 0.987317715,4.10960034 C2.30309157,1.77044682 4.64321974,0.453698318 7.2757421,0.453698318 L242.233967,0.453698318 C244.866489,0.453698318 247.206617,1.77044682 248.522391,4.10960034 C249.83914,6.30353142 249.83914,9.08225087 248.522391,11.4214044 Z" id="Shape"></path>
            <polygon id="Shape" points="224.783394 51.6373013 195.242809 102.821392 172.136846 117.445 77.3738379 117.445 54.267387 102.821392 24.7272893 51.6373013"></polygon>
            <polygon id="Shape" points="195.242809 102.821392 161.314849 161.316799 150.347143 168.62909 102.818955 168.62909 88.1948596 161.316799 54.267387 102.821392"></polygon>
            <path d="M161.314849,161.316799 L161.314849,227.124497 C161.314849,231.219478 158.098026,234.436301 154.003045,234.436301 L95.5071509,234.436301 C91.4121703,234.436301 88.1953469,231.219478 88.1953469,227.124497 L88.1953469,161.316799 L161.314849,161.316799 Z" id="Shape-Copy-2"></path>
        </g>
    </g>
</svg>