<?xml version="1.0" encoding="UTF-8"?>
<svg width="125px" height="80px" viewBox="0 0 125 80" version="1.1" xmlns="http://www.w3.org/2000/svg" xmlns:xlink="http://www.w3.org/1999/xlink">
    <!-- Generator: Sketch 51.2 (57519) - http://www.bohemiancoding.com/sketch -->
    <title>ios</title>
    <desc>Created with Sketch.</desc>
    <defs></defs>
    <g id="Page-1" stroke="none" stroke-width="1" fill="none" fill-rule="evenodd">
        <g id="ios" fill="#FEC514" fill-rule="nonzero">
            <path d="M4.621,6.965 C4.621,8.333 3.788,9.345 2.359,9.345 C1.169,9.345 0.276,8.333 0.276,6.965 C0.276,5.655 1.228,4.584 2.478,4.584 C3.788,4.584 4.621,5.655 4.621,6.965 Z M1.327,78.5 L1.327,23.78 L3.57,23.78 L3.57,78.5 L1.327,78.5 Z" id="Shape"></path>
            <path d="M78.174,39.512 C78.174,67.1 62.859,79.64 46.095,79.64 C28.97,79.64 15.102,66.075 15.102,40.653 C15.102,14.548 29.453,0.525 47.301,0.525 C64.787,0.524 78.174,14.318 78.174,39.512 Z M17.375,40.082 C17.375,61 27.513,77.25 46.201,77.25 C65.019,77.25 75.812,60.5 75.812,39.844 C75.812,20.689 67.164,3.208 47.43,3.208 C27.696,3.208 17.375,19.667 17.375,40.082 Z" id="Shape"></path>
            <path d="M86.406,72.571 C90.169,75.079 96.664,77.501 102.25,77.501 C112.852,77.501 122.281,70.084 122.281,59.167 C122.281,49.036 116,43.75 105.336,39.209 C95.792,35.145 87.211,30.734 87.211,19.904 C87.211,8.619 96.102,0.638 108.186,0.638 C114.684,0.638 119.586,2.462 121.866,4.058 L120.959,6.026 C119.021,4.659 113.784,2.917 108.085,2.917 C95.314,2.917 89.751,12.567 89.751,19.671 C89.751,29.483 97.357,32.764 107.161,37.438 C118.561,43.024 124.602,47.948 124.602,58.665 C124.602,70.179 116.395,79.526 101.803,79.526 C95.76,79.526 88.807,77.474 85.387,74.852 L86.406,72.571 Z" id="Shape"></path>
        </g>
    </g>
</svg>