<?xml version="1.0" encoding="UTF-8"?>
<svg width="22px" height="21px" viewBox="0 0 22 21" version="1.1" xmlns="http://www.w3.org/2000/svg" xmlns:xlink="http://www.w3.org/1999/xlink">
    <!-- Generator: Sketch 51.2 (57519) - http://www.bohemiancoding.com/sketch -->
    <title>canvas-asset-feacff0a-33c4-4995-b023-bc51575b3921</title>
    <desc>Created with Sketch.</desc>
    <defs></defs>
    <g id="Page-1" stroke="none" stroke-width="1" fill="none" fill-rule="evenodd">
        <g id="canvas-asset-feacff0a-33c4-4995-b023-bc51575b3921" fill="#FFFFFF" fill-rule="nonzero">
            <path d="M0.64,9.91 C0.64,8.76 1,7.74 1.72,6.84 C2.44,5.94 3.35,5.37 4.45,5.11 C4.76,3.75 5.47,2.63 6.56,1.75 C7.65,0.87 8.9,0.44 10.31,0.44 C11.69,0.44 12.91,0.87 13.99,1.72 C15.07,2.57 15.77,3.67 16.09,5.01 L16.41,5.01 C17.3,5.01 18.13,5.23 18.89,5.66 C19.65,6.09 20.26,6.69 20.7,7.44 C21.14,8.19 21.37,9.02 21.37,9.91 C21.37,10.79 21.16,11.6 20.74,12.35 C20.32,13.1 19.74,13.7 19.01,14.15 C18.28,14.6 17.48,14.84 16.61,14.86 C16.48,14.86 16.41,14.8 16.41,14.69 L16.41,13.36 C16.41,13.24 16.48,13.18 16.61,13.18 C17.46,13.14 18.19,12.8 18.79,12.16 C19.39,11.52 19.69,10.77 19.69,9.9 C19.69,9.03 19.36,8.28 18.71,7.64 C18.06,7 17.29,6.68 16.4,6.68 L14.79,6.68 C14.67,6.68 14.61,6.62 14.61,6.51 L14.53,5.93 C14.42,4.85 13.95,3.94 13.14,3.22 C12.32,2.49 11.38,2.13 10.29,2.13 C9.2,2.13 8.24,2.49 7.44,3.22 C6.63,3.95 6.18,4.85 6.08,5.93 L6.01,6.46 C6.01,6.58 5.94,6.65 5.81,6.65 L5.28,6.68 C4.45,6.78 3.75,7.14 3.18,7.75 C2.61,8.36 2.33,9.08 2.33,9.91 C2.33,10.78 2.63,11.53 3.23,12.17 C3.83,12.81 4.56,13.15 5.41,13.19 C5.52,13.19 5.58,13.25 5.58,13.37 L5.58,14.7 C5.58,14.81 5.52,14.87 5.41,14.87 C4.07,14.81 2.94,14.3 2.01,13.34 C1.08,12.38 0.64,11.24 0.64,9.91 Z M5.99,16.6 C5.99,16.56 6,16.49 6.03,16.4 L7.66,10.63 C7.72,10.44 7.83,10.29 7.98,10.19 C8.13,10.09 8.29,10.04 8.44,10.04 C8.51,10.04 8.59,10.05 8.68,10.07 C8.92,10.11 9.1,10.24 9.22,10.44 C9.34,10.64 9.37,10.86 9.3,11.11 L7.67,16.84 C7.55,17.27 7.27,17.48 6.85,17.48 C6.81,17.48 6.78,17.47 6.74,17.46 C6.68,17.44 6.65,17.43 6.64,17.43 C6.42,17.37 6.26,17.26 6.15,17.1 C6.04,16.93 5.99,16.77 5.99,16.6 Z M8.61,19.41 L11.05,10.64 C11.09,10.45 11.19,10.3 11.35,10.2 C11.51,10.1 11.67,10.05 11.84,10.05 C11.93,10.05 12.02,10.06 12.11,10.08 C12.33,10.14 12.49,10.27 12.6,10.47 C12.71,10.67 12.73,10.88 12.67,11.11 L10.24,19.89 C10.2,20.06 10.11,20.2 9.95,20.32 C9.79,20.44 9.63,20.5 9.44,20.5 C9.35,20.5 9.26,20.48 9.19,20.45 C8.99,20.4 8.82,20.27 8.67,20.06 C8.56,19.88 8.54,19.67 8.61,19.41 Z M12.74,16.62 C12.74,16.58 12.75,16.51 12.78,16.39 L14.41,10.62 C14.47,10.43 14.57,10.28 14.71,10.18 C14.86,10.08 15.01,10.03 15.17,10.03 C15.25,10.03 15.34,10.04 15.43,10.06 C15.64,10.12 15.79,10.22 15.89,10.37 C15.99,10.52 16.04,10.68 16.04,10.84 C16.04,10.87 16.03,10.92 16.02,10.98 C16.01,11.04 16,11.08 16,11.1 L14.37,16.83 C14.33,17.02 14.24,17.18 14.09,17.29 C13.94,17.4 13.77,17.46 13.58,17.46 L13.34,17.41 C13.14,17.35 12.99,17.25 12.88,17.09 C12.79,16.94 12.74,16.78 12.74,16.62 Z" id="Shape"></path>
        </g>
    </g>
</svg>