<svg xmlns="http://www.w3.org/2000/svg" xmlns:xlink="http://www.w3.org/1999/xlink" viewBox="0 0 1320.87 789.64"><defs><style>.cls-1,.cls-12{fill:none;}.cls-2{fill:#f0f1f6;}.cls-3{clip-path:url(#clip-path);}.cls-4{fill:url(#linear-gradient);}.cls-5{fill:url(#New_Gradient_Swatch_1);}.cls-6{fill:url(#New_Gradient_Swatch_1-2);}.cls-7{fill:url(#New_Gradient_Swatch_1-3);}.cls-8{clip-path:url(#clip-path-2);}.cls-9{fill:#453ff6;}.cls-10{clip-path:url(#clip-path-3);}.cls-11{fill:#2c28cc;}.cls-12{stroke-miterlimit:10;stroke-width:7px;stroke:url(#New_Gradient_Swatch_1-4);}.cls-13{clip-path:url(#clip-path-4);}.cls-14{clip-path:url(#clip-path-5);}.cls-15{fill:url(#New_Gradient_Swatch_1-5);}.cls-16{clip-path:url(#clip-path-6);}.cls-17{fill:#ee7157;}.cls-18{clip-path:url(#clip-path-7);}.cls-19{opacity:0.19;}.cls-20{fill:#fff;}</style><clipPath id="clip-path" transform="translate(0 -60.57)"><path class="cls-1" d="M633.6,115.39c5.18,24.6-16.58,47-39.34,57.63s-48.8,15.37-68.24,31.31C504.42,222,494.68,253,502.26,279.87c6.82,24.23,26.07,44.38,28.73,69.41,3.47,32.61-21.81,60.64-31.3,92C489.64,474.59,492.83,520.78,523,538c51.21,29.22,72.63,96,12,131.06-116,67-89.22,217,62.1,204.55,26.17-2.16,186.5-42.52,212.72-44,16.4-.93,33.43-2.64,48.75,3.27,46.44,17.93,44.51,87,80.16,121.75,22.08,21.52,55.06,26.42,85.75,29.37q71,6.84,142.31,7.53c22.24.21,46.08-.51,64.14-13.49,16.8-12.06,25.26-32.37,32.44-51.77,52.75-142.46,80.57-297.59,53.79-447.13-4.2-23.46-9.78-46.85-19.68-68.53-9.66-21.16,26.26-372.44-11.1-401.32-49.41-38.18-319.47,54.21-381.13,44.42S780.8,41.06,719.73,28.06Z"/></clipPath><linearGradient id="linear-gradient" x1="-255.34" y1="142.31" x2="1715.05" y2="730.69" gradientUnits="userSpaceOnUse"><stop offset="0" stop-color="#453ff6"/><stop offset="0.42" stop-color="#232a5a"/><stop offset="0.59" stop-color="#181d3e"/><stop offset="1"/></linearGradient><linearGradient id="New_Gradient_Swatch_1" x1="513.72" y1="619.26" x2="640.34" y2="619.26" gradientTransform="translate(199.42 -144.21) rotate(16.54)" gradientUnits="userSpaceOnUse"><stop offset="0.13" stop-color="#e5830e"/><stop offset="1" stop-color="#fff655"/></linearGradient><linearGradient id="New_Gradient_Swatch_1-2" x1="640.21" y1="654.91" x2="728.04" y2="654.91" xlink:href="#New_Gradient_Swatch_1"/><linearGradient id="New_Gradient_Swatch_1-3" x1="535.94" y1="686.65" x2="618.41" y2="686.65" xlink:href="#New_Gradient_Swatch_1"/><clipPath id="clip-path-2" transform="translate(0 -60.57)"><rect class="cls-1" x="373.25" y="112.49" width="861.63" height="700.14"/></clipPath><clipPath id="clip-path-3" transform="translate(0 -60.57)"><path class="cls-1" d="M1190.13,546.67a.44.44,0,0,1,.24.57,122,122,0,0,1-54.81,59.24c-13.54,7.11-28.55,11.73-40.64,21.09-15.62,12.09-24.9,31.58-25.71,51.31-.2,4.77.1,9.67,2,14.06,1.68,3.94,4.54,7.25,7.44,10.41,11.91,13,25.62,25.54,31,42.36,5.57,17.4,1.21,36.68,6,54.31,4.62,16.86-154.11-40.81-136.63-41,14.66-.16-24.54-153.89-11.14-159.85,16.85-7.48,150.26-101.67,92.07-118.41-1.73-.49,137.43,43.53,135.91,44.5a6.57,6.57,0,0,0-2.22,3.55l-6,16.92Z"/></clipPath><linearGradient id="New_Gradient_Swatch_1-4" x1="948.7" y1="670.99" x2="1320.87" y2="670.99" gradientTransform="translate(1380.8 -624.17) rotate(70.16)" xlink:href="#New_Gradient_Swatch_1"/><clipPath id="clip-path-4" transform="translate(0 -60.57)"><rect class="cls-1" x="1027.14" y="480.79" width="276.68" height="201.43" transform="translate(266.54 -361.04) rotate(19.84)"/></clipPath><clipPath id="clip-path-5" transform="translate(0 -60.57)"><path class="cls-1" d="M1189.5,548.41a.42.42,0,0,1,.24.57,122,122,0,0,1-54.81,59.24c-13.54,7.11-28.55,11.72-40.64,21.09-15.62,12.09-24.9,31.58-25.71,51.31-.19,4.77.1,9.67,2,14.06,1.69,3.94,4.55,7.25,7.44,10.41,11.91,13,25.62,25.54,31,42.35,5.56,17.41,1.2,36.69,6,54.32,4.62,16.85-154.11-40.81-136.63-41,14.66-.16-24.54-153.89-11.14-159.85,16.85-7.49,150.27-101.67,92.08-118.41-1.73-.5,137.42,43.53,135.9,44.5a6.56,6.56,0,0,0-2.21,3.55l-6,16.92Z"/></clipPath><linearGradient id="New_Gradient_Swatch_1-5" x1="777.66" y1="729.9" x2="897.14" y2="729.9" gradientTransform="matrix(1, 0, 0, 1, 0, 0)" xlink:href="#New_Gradient_Swatch_1"/><clipPath id="clip-path-6" transform="translate(0 -60.57)"><path class="cls-1" d="M820.88,720.6a.2.2,0,0,1,.26.15,61.51,61.51,0,0,1-4.46,40.54c-3.36,7-8.07,13.34-10.17,20.78a34.88,34.88,0,0,0,5,28.57,16.39,16.39,0,0,0,5,5.12,19.31,19.31,0,0,0,6.15,2c8.75,1.71,18.08,2.67,25.32,7.88,7.49,5.4,11.52,14.55,18.77,20.25,7,5.46-74.86,29.74-67.82,24.42,5.91-4.47-56.22-55.14-52.56-61.59,4.59-8.1,30.48-86.46,1.81-75.77-.85.32,68.91-23.62,68.58-22.77a3.35,3.35,0,0,0,.17,2.11L819.6,721Z"/></clipPath><clipPath id="clip-path-7" transform="translate(0 -60.57)"><path class="cls-1" d="M1084.48,181.32a.19.19,0,0,1-.2-.2,56.6,56.6,0,0,1,13.44-35c4.61-5.4,10.29-10,13.89-16.08a32,32,0,0,0,2.26-26.53,15.1,15.1,0,0,0-3.27-5.72,17.55,17.55,0,0,0-5-3.21c-7.38-3.57-15.44-6.6-20.64-12.93-5.39-6.54-6.83-15.6-11.94-22.37-4.89-6.47,73.43-8.9,65.93-5.82-6.29,2.59,37,62.11,32.28,67-6,6.12-47.28,69.65-19.33,66.86.83-.09-66.71,4.86-66.22,4.18a3,3,0,0,0,.34-1.91l-.33-8.32Z"/></clipPath></defs><title>Slide 6 - Space Illustration</title><g id="Layer_2" data-name="Layer 2"><g id="BG"><rect class="cls-2" y="51.92" width="968.24" height="701.1"/><g class="cls-3"><rect class="cls-4" x="0.18" y="52.97" width="1235" height="700.05"/></g><path class="cls-5" d="M636.93,631.73c-.6,2-55.88-12.59-89.4-22.55s-32.58-11.47-32-13.5.65-3.81,34.17,6.14S637.54,629.7,636.93,631.73Z" transform="translate(0 -60.57)"/><path class="cls-6" d="M710.86,690.89c-.42,1.41-38.77-8.74-62-15.64s-22.6-8-22.18-9.37.45-2.65,23.7,4.26S711.27,689.48,710.86,690.89Z" transform="translate(0 -60.57)"/><path class="cls-7" d="M596.72,690.09c-.39,1.33-36.4-8.2-58.22-14.68s-21.22-7.47-20.83-8.8.42-2.48,22.25,4S597.11,688.77,596.72,690.09Z" transform="translate(0 -60.57)"/><g class="cls-8"><circle class="cls-9" cx="1134.17" cy="616.71" r="118.2"/><g class="cls-10"><circle class="cls-11" cx="1134.17" cy="616.71" r="118.2"/></g><ellipse class="cls-12" cx="1134.78" cy="670.99" rx="30.89" ry="193.78" transform="translate(118.48 1450.11) rotate(-70.16)"/><g class="cls-13"><circle class="cls-9" cx="1133.54" cy="618.44" r="118.2"/><g class="cls-14"><circle class="cls-11" cx="1133.54" cy="618.44" r="118.2"/></g></g><circle class="cls-15" cx="837.4" cy="729.9" r="59.73"/><g class="cls-16"><circle class="cls-17" cx="837.4" cy="729.9" r="59.73"/></g><circle class="cls-9" cx="1086.15" cy="54.85" r="54.84"/><g class="cls-18"><circle class="cls-11" cx="1086.15" cy="54.85" r="54.84"/></g></g><g class="cls-19"><circle class="cls-20" cx="594.2" cy="584.26" r="2.47"/><circle class="cls-20" cx="24.97" cy="584.26" r="2.47"/><circle class="cls-20" cx="548.44" cy="450.75" r="2.47"/><circle class="cls-20" cx="589.25" cy="333.66" r="2.47"/><circle class="cls-20" cx="487.8" cy="215" r="2.47"/><circle class="cls-20" cx="409.3" cy="84.76" r="2.47"/><circle class="cls-20" cx="230.03" cy="106.07" r="2.47"/><circle class="cls-20" cx="87.59" cy="92.19" r="2.47"/><circle class="cls-20" cx="21.97" cy="157.81" r="2.47"/><circle class="cls-20" cx="23.97" cy="347.75" r="2.47"/><circle class="cls-20" cx="594.25" cy="108.55" r="2.47"/><circle class="cls-20" cx="772" cy="79.81" r="2.47"/><circle class="cls-20" cx="878.91" cy="113.5" r="2.47"/><circle class="cls-20" cx="1106.27" cy="84.76" r="2.47"/><circle class="cls-20" cx="1202.21" cy="180.71" r="2.47"/><circle class="cls-20" cx="1120.81" cy="289.99" r="2.47"/><circle class="cls-20" cx="1198.19" cy="367.38" r="2.47"/><circle class="cls-20" cx="1198.19" cy="610.97" r="2.47"/><circle class="cls-20" cx="1132.82" cy="676.35" r="2.47"/><circle class="cls-20" cx="477.06" cy="673.34" r="2.47"/><circle class="cls-20" cx="320.91" cy="698.44" r="2.47"/><circle class="cls-20" cx="120.97" cy="681.29" r="2.47"/><circle class="cls-20" cx="708.39" cy="673.34" r="2.47"/><circle class="cls-20" cx="831.49" cy="389.13" r="2.47"/><circle class="cls-20" cx="850" cy="586.73" r="2.47"/><circle class="cls-20" cx="922.88" cy="703.39" r="2.47"/><circle class="cls-20" cx="922.88" cy="316.71" r="2.47"/><circle class="cls-20" cx="1023.82" cy="602.45" r="2.47"/></g></g></g></svg>