<?xml version="1.0" encoding="UTF-8"?>
<svg width="512px" height="458px" viewBox="0 0 512 458" version="1.1" xmlns="http://www.w3.org/2000/svg" xmlns:xlink="http://www.w3.org/1999/xlink">
    <!-- Generator: Sketch 51.2 (57519) - http://www.bohemiancoding.com/sketch -->
    <title>winxp</title>
    <desc>Created with Sketch.</desc>
    <defs></defs>
    <g id="Page-1" stroke="none" stroke-width="1" fill="none" fill-rule="evenodd">
        <g id="winxp" fill="#FEC514" fill-rule="nonzero">
            <path d="M206.115,228.958 C182.261,216.699 159.072,210.479 137.175,210.479 C134.197,210.479 131.199,210.569 128.201,210.833 C100.261,213.145 74.74,220.517 58.326,226.247 C53.972,227.846 49.509,229.535 44.911,231.398 L0,387.097 C30.851,375.681 58.146,370.127 83.135,370.127 C123.558,370.127 152.899,385.231 177.131,400.779 C188.612,361.819 216.153,267.733 224.372,239.617 C218.397,235.976 212.334,232.333 206.115,228.958 Z M264.174,268.536 L218.951,425.61 C232.367,433.296 277.5,457.633 312.056,457.633 C339.951,457.633 371.181,450.487 407.472,435.737 L450.652,284.749 C421.336,294.21 393.214,299.009 366.92,299.009 C318.945,299.01 285.363,283.461 264.174,268.536 Z M146.411,157.396 C184.97,157.795 213.487,172.5 237.119,187.647 L283.495,28.975 C273.723,23.377 248.092,9.428 229.566,4.675 C217.373,1.833 204.556,0.367 190.964,0.367 C165.066,0.855 136.77,7.34 104.52,20.267 L60.3,175.564 C92.704,163.346 120.622,157.394 146.343,157.394 C146.366,157.396 146.411,157.396 146.411,157.396 Z M512,72.062 C482.594,83.478 453.896,89.295 426.486,89.295 C380.642,89.295 346.84,73.394 324.939,58.112 L278.964,217.23 C309.838,237.084 343.11,247.169 378.026,247.169 C406.501,247.169 435.997,240.329 465.756,226.825 L465.664,225.714 L467.531,225.271 L512,72.062 Z" id="Shape"></path>
        </g>
    </g>
</svg>