<?xml version="1.0" encoding="UTF-8"?>
<svg width="228px" height="358px" viewBox="0 0 228 358" version="1.1" xmlns="http://www.w3.org/2000/svg" xmlns:xlink="http://www.w3.org/1999/xlink">
    <!-- Generator: Sketch 51.2 (57519) - http://www.bohemiancoding.com/sketch -->
    <title>gas</title>
    <desc>Created with Sketch.</desc>
    <defs></defs>
    <g id="Page-1" stroke="none" stroke-width="1" fill="none" fill-rule="evenodd">
        <g id="gas" fill-rule="nonzero">
            <g id="Group" transform="translate(31.000000, 17.000000)">
                <rect id="Rectangle-path" fill="#CE5148" x="62.6" y="0.4" width="40.8" height="71.6"></rect>
                <rect id="Rectangle-path" fill="#CE5148" x="137.4" y="0.4" width="9.2" height="71.6"></rect>
                <rect id="Rectangle-path" fill="#CE5148" x="19.4" y="0.4" width="9.2" height="71.6"></rect>
                <path d="M154.6,340.8 L11.4,340.8 C5.4,340.8 0.6,336 0.6,330 L0.6,281.2 L165.4,281.2 L165.4,330 C165.4,336 160.6,340.8 154.6,340.8 Z" id="Shape" fill="#CA1408"></path>
            </g>
            <g id="Group" transform="translate(10.000000, 0.000000)">
                <path d="M104,71.8 C46.8,71.8 0.4,78.6 0.4,135.8 L0.4,282.6 C0.4,339.8 46.8,332.2 104,332.2 C161.2,332.2 207.6,339.8 207.6,282.6 L207.6,135.8 C207.6,78.6 161.2,71.8 104,71.8 Z" id="Shape" fill="#FB4D42"></path>
                <path d="M168,24.6 L40,24.6 C33.2,24.6 28,19 28,12.6 C28,5.8 33.6,0.6 40,0.6 L168,0.6 C174.8,0.6 180,6.2 180,12.6 C180,19.4 174.8,24.6 168,24.6 Z" id="Shape" fill="#CA1408"></path>
            </g>
            <g id="Group" transform="translate(0.000000, 142.000000)" fill="#E6E9EE">
                <path d="M221.6,116.2 L6.4,116.2 C3.2,116.2 0.4,113.4 0.4,110.2 C0.4,107 3.2,104.2 6.4,104.2 L222,104.2 C225.2,104.2 228,107 228,110.2 C227.6,113.4 225.2,116.2 221.6,116.2 Z" id="Shape"></path>
                <path d="M221.6,12.2 L6.4,12.2 C3.2,12.2 0.4,9.4 0.4,6.2 C0.4,3 3.2,0.2 6.4,0.2 L222,0.2 C225.2,0.2 228,3 228,6.2 C227.6,9.4 225.2,12.2 221.6,12.2 Z" id="Shape"></path>
            </g>
            <g id="Group" transform="translate(51.000000, 177.000000)" fill="#FFFFFF">
                <path d="M31,23.2 L40.6,23.2 L40.6,38.4 C36.2,43.2 30.2,45.6 23,45.6 C16.6,45.6 11.4,43.6 7,39.2 C2.6,34.8 0.6,29.6 0.6,23.2 C0.6,16.8 2.6,11.6 7,7.2 C11.4,2.8 16.6,0.8 23,0.8 C29,0.8 34.6,2.8 39,6.8 L33.8,14 C31.8,12.4 30.2,11.2 28.6,10.4 C27,10 25.4,10 23.4,10 C19.8,10 16.6,11.2 14.2,13.6 C11.8,16 10.6,19.2 10.6,23.6 C10.6,28 11.8,30.8 14.2,33.2 C16.6,35.6 19.4,36.8 23,36.8 C26.2,36.8 29,36 31.4,34.8 L31.4,23.2 L31,23.2 Z" id="Shape"></path>
                <path d="M79.4,45.2 L75.4,36 L57.4,36 L53.4,45.2 L43,45.2 L61.8,2 L71,2 L89.8,45.2 L79.4,45.2 Z M66.6,14.8 L61,27.2 L71.8,27.2 L66.6,14.8 Z" id="Shape"></path>
                <path d="M104.6,10.4 C103.8,11.2 103.4,12 103.4,13.6 C103.4,14.8 103.8,16 105,16.4 C106.2,17.2 108.6,18 113,19.2 C117,20.4 120.2,21.6 122.6,23.6 C125,25.6 125.8,28.4 125.8,32.4 C125.8,36.4 124.2,39.6 121.4,42 C118.6,44.4 114.6,45.6 109.8,45.6 C103,45.6 97,43.2 91.4,38 L97,30.8 C101.8,34.8 105.8,36.8 109.8,36.8 C111.4,36.8 113,36.4 113.8,35.6 C115,34.8 115.4,34 115.4,32.4 C115.4,31.2 115,30 113.8,29.2 C112.6,28.4 110.6,27.6 107.4,26.8 C102.2,25.6 98.6,24 96.2,22 C93.8,20 92.6,17.2 92.6,12.8 C92.6,8.8 94.2,5.6 97,3.2 C99.8,0.8 103.8,8.52651283e-14 108.2,8.52651283e-14 C111,8.52651283e-14 113.8,0.4 117,1.6 C119.8,2.4 122.2,4 124.6,6 L119.8,13.2 C116.2,10.4 112.2,8.8 108.2,8.8 C106.6,9.6 105.4,9.6 104.6,10.4 Z" id="Shape"></path>
            </g>
        </g>
    </g>
</svg>