<?xml version="1.0" encoding="UTF-8"?>
<svg width="512px" height="512px" viewBox="0 0 512 512" version="1.1" xmlns="http://www.w3.org/2000/svg" xmlns:xlink="http://www.w3.org/1999/xlink">
    <!-- Generator: Sketch 51.2 (57519) - http://www.bohemiancoding.com/sketch -->
    <title>oil_full</title>
    <desc>Created with Sketch.</desc>
    <defs></defs>
    <g id="Page-1" stroke="none" stroke-width="1" fill="none" fill-rule="evenodd">
        <g id="oil_full" fill="#DFDFDF" fill-rule="nonzero">
            <path d="M34.1875,302 L121,302 L121,246.386719 L166.902344,228.789062 L160.363281,258.21875 L123.96875,422 L0,422 L0,512 L512,512 L512,422 L482,422 L482,362 L452,362 L452,203.214844 L482,173.214844 L482,0 L392,0 L392,46.074219 L121,149.960938 L121,92 L0.0078125,92 L0.0117188,199.433594 L34.1875,302 Z M280.421875,185.273438 L298.085938,272 L188.03125,272 L200.496094,215.910156 L280.421875,185.273438 Z M178.835938,313.382812 L218.113281,346.859375 L160.402344,396.324219 L178.835938,313.382812 Z M323.464844,397.230469 L264.289062,346.796875 L305.703125,311.296875 L323.464844,397.230469 Z M241.175781,327.09375 L211.730469,302 L270.449219,302 L241.175781,327.09375 Z M241.230469,366.558594 L306.277344,422 L176.550781,422 L241.230469,366.558594 Z M482,482 L30,482 L30,452 L482,452 L482,482 Z M422,422 L422,392 L452,392 L452,422 L422,422 Z M392,362 L392,422 L359.253906,422 L308.820312,174.386719 L392,142.503906 L392,173.214844 L422,203.214844 L422,362 L392,362 Z M422,30 L452,30 L452,160.785156 L437,175.785156 L422,160.785156 L422,30 Z M392,78.203125 L392,110.371094 L121,214.257812 L121,182.089844 L392,78.203125 Z M91,122 L91,272 L55.8125,272 L30,194.566406 L30,122 L91,122 Z" id="Shape"></path>
        </g>
    </g>
</svg>