<?xml version="1.0" encoding="iso-8859-1"?>
<!-- Generator: Adobe Illustrator 19.0.0, SVG Export Plug-In . SVG Version: 6.00 Build 0)  -->
<svg version="1.1" id="Layer_1" xmlns="http://www.w3.org/2000/svg" xmlns:xlink="http://www.w3.org/1999/xlink" x="0px" y="0px"
	 viewBox="0 0 512.001 512.001" style="enable-background:new 0 0 512.001 512.001;" xml:space="preserve">
<path style="fill:#68CCEA;" d="M286.434,221.76c-0.039-0.105-0.084-0.205-0.135-0.304L172.172,1.486
	C171.698,0.574,170.757,0,169.728,0s-1.97,0.574-2.444,1.486L53.157,221.456c-0.052,0.099-0.097,0.2-0.135,0.304
	c-12.028,32.205-10.797,67.164,3.469,98.437c14.265,31.275,39.857,55.12,72.061,67.146c13.19,4.926,27.014,7.642,41.092,8.07
	c0.028,0.001,0.056,0.001,0.084,0.001s0.056,0,0.084-0.001c14.077-0.43,27.902-3.145,41.09-8.07
	c32.203-12.026,57.796-35.872,72.062-67.146C297.229,288.924,298.462,253.965,286.434,221.76z"/>
<g>
	<path style="fill:#5ABCE2;" d="M178.528,373.344c-27.357-26.958-42.578-62.959-42.861-101.371
		c-0.001-0.123,0.006-0.248,0.021-0.371L166.361,3.266L53.157,221.456c-0.052,0.099-0.097,0.2-0.135,0.304
		c-12.028,32.205-10.797,67.164,3.469,98.437c14.265,31.275,39.857,55.12,72.061,67.146c13.19,4.926,27.014,7.642,41.092,8.07
		c0.028,0.001,0.056,0.001,0.084,0.001s0.056,0,0.084-0.001c10.263-0.313,20.389-1.856,30.235-4.57
		C192.412,385.765,185.206,379.922,178.528,373.344z"/>
	<path style="fill:#5ABCE2;" d="M463.084,280.78c-0.039-0.104-0.084-0.205-0.135-0.304l-56.273-108.461
		c-0.474-0.912-1.415-1.486-2.444-1.486c-1.029,0-1.97,0.573-2.444,1.486l-56.273,108.461c-0.052,0.099-0.097,0.2-0.135,0.304
		c-6.061,16.228-5.44,33.844,1.749,49.602c7.187,15.759,20.083,27.775,36.313,33.836c6.646,2.481,13.613,3.849,20.706,4.066
		c0.028,0.001,0.056,0.001,0.084,0.001s0.056,0,0.084-0.001c7.091-0.217,14.058-1.585,20.705-4.066
		C458.516,351.709,475.592,314.278,463.084,280.78z"/>
</g>
<path style="fill:#68CCEA;" d="M463.084,280.78c-0.039-0.104-0.084-0.205-0.135-0.304l-56.273-108.461
	c-0.474-0.912-1.415-1.486-2.444-1.486c-0.005,0-0.011,0.002-0.017,0.002l-22.152,128.821c-0.021,0.121-0.034,0.243-0.039,0.365
	c-0.938,19.068,5.604,37.356,18.422,51.499c5.492,6.06,11.86,11.038,18.84,14.836c1.934-0.524,3.848-1.128,5.735-1.833
	C458.516,351.709,475.592,314.278,463.084,280.78z"/>
<path style="fill:#5ABCE2;" d="M350.91,452.145l-37.495-72.271c-0.474-0.912-1.415-1.486-2.444-1.486
	c-1.029,0-1.97,0.574-2.444,1.486l-37.5,72.271c-0.052,0.099-0.097,0.202-0.135,0.305c-8.511,22.796,3.108,48.268,25.904,56.783
	c4.523,1.686,9.264,2.618,14.09,2.767c0.029,0.001,0.057,0.001,0.085,0.001s0.056,0,0.085-0.001
	c4.822-0.149,9.562-1.079,14.089-2.768c22.795-8.513,34.414-33.986,25.901-56.783C351.007,452.344,350.961,452.243,350.91,452.145z"
	/>
<path style="fill:#68CCEA;" d="M351.045,452.449c-0.039-0.105-0.084-0.206-0.135-0.304l-37.495-72.271
	c-0.474-0.912-1.415-1.486-2.444-1.486c-0.293,0-0.574,0.057-0.844,0.145l-15.394,90.566c-0.022,0.122-0.034,0.249-0.041,0.374
	c-0.806,17.134,7.18,32.682,19.971,42.268c3.576-0.403,7.09-1.243,10.482-2.508C347.94,500.718,359.559,475.245,351.045,452.449z"/>
<g>
</g>
<g>
</g>
<g>
</g>
<g>
</g>
<g>
</g>
<g>
</g>
<g>
</g>
<g>
</g>
<g>
</g>
<g>
</g>
<g>
</g>
<g>
</g>
<g>
</g>
<g>
</g>
<g>
</g>
</svg>
