<svg xmlns="http://www.w3.org/2000/svg" xmlns:xlink="http://www.w3.org/1999/xlink" viewBox="0 0 1524.08 355.19"><defs><style>.cls-1{fill:none;}.cls-2{clip-path:url(#clip-path);}.cls-10,.cls-3,.cls-4,.cls-5,.cls-6,.cls-7{stroke:#adefff;}.cls-10,.cls-3,.cls-4,.cls-5,.cls-6,.cls-7,.cls-8,.cls-9{stroke-miterlimit:10;}.cls-3{fill:url(#linear-gradient);}.cls-4{fill:url(#linear-gradient-2);}.cls-5{fill:url(#linear-gradient-3);}.cls-6{fill:#31c8fa;}.cls-7,.cls-9{fill:#00a9e5;}.cls-10,.cls-8{fill:#fff;}.cls-8,.cls-9{stroke:#31c8fa;}</style><clipPath id="clip-path" transform="translate(0 -264.7)"><rect class="cls-1" x="121.87" width="1322.78" height="595.9"/></clipPath><linearGradient id="linear-gradient" x1="725.71" y1="111.65" x2="725.71" y2="479.11" gradientUnits="userSpaceOnUse"><stop offset="0" stop-color="#adefff"/><stop offset="1" stop-color="#31c8fa"/></linearGradient><linearGradient id="linear-gradient-2" x1="762.04" y1="303.77" x2="762.04" y2="905.31" gradientUnits="userSpaceOnUse"><stop offset="0" stop-color="#31c8fa"/><stop offset="1" stop-color="#0078a0"/></linearGradient><linearGradient id="linear-gradient-3" x1="935.3" y1="304.5" x2="935.3" y2="579.66" gradientUnits="userSpaceOnUse"><stop offset="0" stop-color="#adefff"/><stop offset="1" stop-color="#00a9e5"/></linearGradient></defs><title>Airport Illustration</title><g id="Layer_2" data-name="Layer 2"><g id="Layer_4" data-name="Layer 4"><g class="cls-2"><rect class="cls-3" x="3.37" y="165.49" width="1444.69" height="189.2"/><path class="cls-4" d="M1.09,386s77.89-81.65,95.06-76,44.89,9,70,13.94,38.29,16.41,56.78,17.27,23.77-36.84,62.06-31.21,56.78-1.82,91.11-.57,59.42,24.38,105.64,24.38S623,297.39,671.86,297.39s183.54,34.7,207.31,34.7,43.79-44.62,62.17-44.62S988.46,304,1002.47,304s103.41-35.41,123.42-37.54,56.13-1.17,86.92,0,40,21,63.81,19.36,42.32-12,63.41-11.77,124.09-2.83,146.54-3.8,37,18.87,37,18.87V516S134.44,492.42,98.79,504s-63.38,7.42-77.91,12S.5,520.51.5,520.51Z" transform="translate(0 -264.7)"/><path class="cls-5" d="M627.07,448.15l32.1,83.45h550.48l31.3-73,7.6-8c-37.17-13.8-75.4,4.25-134.86,14.87S995.82,408.12,904.5,394.31s-156.09,32.92-201.75,43.54-80.7,0-80.7,0Z" transform="translate(0 -264.7)"/><polygon class="cls-6" points="519.57 257.01 434.57 257.01 434.57 141.98 519.57 138.66 519.57 257.01"/><polygon class="cls-7" points="519.57 257.01 639.25 257.01 639.25 141.98 519.57 138.66 519.57 257.01"/><polygon class="cls-6" points="1433.59 112.95 1408.35 112.95 1403.66 88.43 1433.59 85.98 1433.59 112.95"/><polygon class="cls-7" points="1433.59 112.95 1443.47 112.95 1448.06 88.43 1433.59 85.98 1433.59 112.95"/><polygon class="cls-6" points="1396.95 275.83 1227.67 275.83 1227.67 160.02 1396.95 155.42 1396.95 275.83"/><polygon class="cls-7" points="1397.2 275.83 1416.4 275.83 1416.4 160.02 1397.2 155.42 1397.2 275.83"/><polygon class="cls-7" points="1434.68 282.42 1411.96 282.42 1411.96 131.46 1434.68 130.62 1434.68 282.42"/><polygon class="cls-7" points="1447.87 279.75 1433.85 282.42 1433.85 130.6 1447.87 131.46 1447.87 279.75"/><polygon class="cls-6" points="1433.85 138.43 1398.95 139.25 1398.95 108.89 1433.85 108.07 1433.85 138.43"/><polygon class="cls-7" points="1453.78 138.96 1433.85 138.25 1433.85 108.07 1453.78 108.62 1453.78 138.96"/><polygon class="cls-6" points="1376.71 282.42 1213.09 282.42 1213.09 190.69 1376.71 188.05 1376.71 282.42"/><polygon class="cls-7" points="1376.71 282.42 1389.86 279.52 1389.86 187.79 1376.71 188.05 1376.71 282.42"/><ellipse class="cls-7" cx="1241.24" cy="150.27" rx="9.73" ry="9.46"/><path class="cls-6" d="M630.51,544.26H428.17V470H636.6c20.51,0,97.41,26.79,89.5,50.53S630.51,544.26,630.51,544.26Z" transform="translate(0 -264.7)"/><line class="cls-8" x1="642.08" y1="286.35" x2="642.08" y2="303.84"/><rect class="cls-7" x="634.77" y="268.6" width="14.61" height="20.7" rx="4.13" ry="4.13"/><circle class="cls-9" cx="641.49" cy="312.88" r="12.52"/><path class="cls-7" d="M460.46,553.28l55.33,13c3.29.78,6.38-2.1,6.38-5.94V532c0-3.74-2.94-6.6-6.18-6l-55.24,10.4c-3.54.67-6.18,4.11-6.29,8.2h0C454.35,548.78,456.88,552.44,460.46,553.28Z" transform="translate(0 -264.7)"/><rect class="cls-7" x="420.42" y="250.69" width="90.18" height="12.78" rx="3.61" ry="3.61"/><line class="cls-10" x1="449.51" y1="263.47" x2="458.31" y2="272.68"/><path class="cls-7" d="M707.48,494.77h-25.7A26.52,26.52,0,0,1,666,489.54l-8.23-6.11a1.77,1.77,0,0,1,1-3.19h18.66S709.37,494.77,707.48,494.77Z" transform="translate(0 -264.7)"/><rect class="cls-6" x="441.12" y="224.54" width="8.07" height="12.41" rx="3.7" ry="3.7"/><rect class="cls-6" x="458.66" y="224.54" width="8.07" height="12.41" rx="3.7" ry="3.7"/><rect class="cls-6" x="476.21" y="224.54" width="8.07" height="12.41" rx="3.7" ry="3.7"/><rect class="cls-6" x="493.75" y="224.54" width="8.07" height="12.41" rx="3.7" ry="3.7"/><rect class="cls-6" x="511.29" y="224.54" width="8.07" height="12.41" rx="3.7" ry="3.7"/><rect class="cls-6" x="528.84" y="224.54" width="8.07" height="12.41" rx="3.7" ry="3.7"/><rect class="cls-6" x="546.38" y="224.54" width="8.07" height="12.41" rx="3.7" ry="3.7"/><rect class="cls-6" x="563.93" y="224.54" width="8.07" height="12.41" rx="3.7" ry="3.7"/><rect class="cls-6" x="581.47" y="224.54" width="8.07" height="12.41" rx="3.7" ry="3.7"/><rect class="cls-6" x="599.02" y="224.54" width="8.07" height="12.41" rx="3.7" ry="3.7"/><rect class="cls-6" x="619.35" y="224.54" width="17.48" height="26.44"/><circle class="cls-7" cx="1225.46" cy="286.24" r="13.69"/><path class="cls-7" d="M1352.29,551.82H1176.91V522.68l169.27,18.2a6.84,6.84,0,0,1,6.11,6.8Z" transform="translate(0 -264.7)"/><circle class="cls-7" cx="1100.17" cy="286.24" r="13.69"/><path class="cls-7" d="M973.34,551.82h175.38V522.68l-169.27,18.2a6.84,6.84,0,0,0-6.11,6.8Z" transform="translate(0 -264.7)"/><rect class="cls-6" x="1159.44" y="208.56" width="13.07" height="54.55" rx="1.91" ry="1.91"/><circle class="cls-6" cx="1165.69" cy="267.54" r="32.39"/><rect class="cls-7" x="1124.82" y="299.92" width="12.24" height="21.19" rx="1.79" ry="1.79"/><line class="cls-10" x1="1130.94" y1="287.12" x2="1130.94" y2="299.92"/><rect class="cls-7" x="1159.85" y="312.73" width="12.24" height="21.19" rx="1.79" ry="1.79"/><line class="cls-10" x1="1165.97" y1="299.92" x2="1165.97" y2="312.73"/><rect class="cls-7" x="1198.08" y="299.19" width="12.24" height="21.19" rx="1.79" ry="1.79"/><line class="cls-10" x1="1204.2" y1="286.39" x2="1204.2" y2="299.19"/><circle class="cls-7" cx="1165.69" cy="276.89" r="9.35"/><path class="cls-7" d="M1185,526.63h-38.5a1.79,1.79,0,0,1-1.62-2.55l4-8.41a1.78,1.78,0,0,1,1.62-1h31.16a1.8,1.8,0,0,1,1.67,1.13l3.36,8.41A1.79,1.79,0,0,1,1185,526.63Z" transform="translate(0 -264.7)"/></g></g></g></svg>