<svg xmlns="http://www.w3.org/2000/svg" xmlns:xlink="http://www.w3.org/1999/xlink" viewBox="0 0 459.44 295.95"><defs><style>.cls-1{fill:none;}.cls-2{clip-path:url(#clip-path);}.cls-3{opacity:0.4;}.cls-4{fill:#adefff;}</style><clipPath id="clip-path" transform="translate(0 -53)"><rect class="cls-1" x="28.2" width="464.49" height="388.26"/></clipPath></defs><title>Clouds</title><g id="Layer_2" data-name="Layer 2"><g id="Layer_1-2" data-name="Layer 1"><g class="cls-2"><g class="cls-3"><path class="cls-4" d="M175.65,335.7a16,16,0,0,0-6,1.15,22.1,22.1,0,0,0-36.17-6.6,34.87,34.87,0,1,0-69.44,6.35A16,16,0,0,0,43,349H191.44A16,16,0,0,0,175.65,335.7Z" transform="translate(0 -53)"/></g><g class="cls-3"><path class="cls-4" d="M336,167a12.34,12.34,0,0,1,4.56.88,16.88,16.88,0,0,1,27.61-5,26.61,26.61,0,0,1,49.69-11.09,20.31,20.31,0,0,1,4.16-.43,20.08,20.08,0,0,1,19.83,16.93,12.25,12.25,0,0,1,17.62,10.39H323.75A12.23,12.23,0,0,1,336,167Z" transform="translate(0 -53)"/></g><g class="cls-3"><path class="cls-4" d="M140.64,93.45a13.76,13.76,0,0,0-5.11,1,19,19,0,0,0-14.19-11.13,33.94,33.94,0,0,0-67.68,3.63c0,.45,0,.89,0,1.33a18.92,18.92,0,0,0-31.25,8.5,13.7,13.7,0,0,0-22.44,8H154.14A13.72,13.72,0,0,0,140.64,93.45Z" transform="translate(0 -53)"/></g></g></g></g></svg>