<svg xmlns="http://www.w3.org/2000/svg" viewBox="0 0 56.31 56.31"><defs><style>.cls-1{fill:#fff;stroke:#0078a0;stroke-miterlimit:10;stroke-width:2px;}</style></defs><title>Plane Icon</title><g id="Layer_2" data-name="Layer 2"><g id="Layer_1-2" data-name="Layer 1"><path class="cls-1" d="M49.51,48.93,41.26,22.52,53.76,10a5.29,5.29,0,0,0-7.48-7.47l-12.5,12.5L7.38,6.79A.7.7,0,0,0,6.69,7L1.2,12.45a.7.7,0,0,0,0,1L19.85,29l-7.24,7.24-7.74-.6a.71.71,0,0,0-.53.2L1.21,39a.67.67,0,0,0,.08,1L9.45,46l.07,0c.11.13.22.26.34.38s.25.23.38.34a.36.36,0,0,0,0,.07L16.33,55a.68.68,0,0,0,1,.07L20.49,52a.67.67,0,0,0,.19-.54l-.59-7.74,7.24-7.24L42.85,55.06a.68.68,0,0,0,1,0l5.5-5.5A.66.66,0,0,0,49.51,48.93Z"/></g></g></svg>