<svg xmlns="http://www.w3.org/2000/svg" viewBox="0 0 31.91 31.91"><defs><style>.cls-1{fill:#017169;}</style></defs><title>Plane_Green</title><g id="Layer_2" data-name="Layer 2"><g id="Layer_1-2" data-name="Layer 1"><path class="cls-1" d="M28.51,28.16,23.66,12.65,31,5.3A3.1,3.1,0,0,0,26.61.91L19.26,8.25,3.75,3.4a.41.41,0,0,0-.4.1L.12,6.73a.4.4,0,0,0,0,.59l10.94,9.12L6.82,20.7l-4.54-.36a.43.43,0,0,0-.32.12L.12,22.3a.4.4,0,0,0,.05.6L5,26.46l0,0a2.09,2.09,0,0,0,.2.22,1.37,1.37,0,0,0,.22.2s0,0,0,.05L9,31.74a.4.4,0,0,0,.6.05L11.45,30a.41.41,0,0,0,.12-.31l-.35-4.55,4.25-4.26,9.12,10.94a.4.4,0,0,0,.59,0l3.23-3.22A.44.44,0,0,0,28.51,28.16Z"/></g></g></svg>